<svg id="Layer_1" data-name="Layer 1" xmlns="http://www.w3.org/2000/svg" viewBox="0 0 3016.91 742"><defs><style>.cls-1{fill:#fff;}.cls-2{fill:#ef5a54;}.cls-3{fill:#aaa;}</style></defs><title>Artboard 2@1x</title><path d="M1229.14,700.9c-10.18-2.18-.56-175.34-15.35-245.19-6.12,0-11.65.14-17.17,0-5.31-.17-10.6-.66-15.72-1-2.39,1.81-5,5.3-7.1,5.05-4.25-.49-6.44-4.5-6.42-8.86,0-6.62,0-13.32,1-19.83.35-2.26,3.33-5.05,5.7-5.89,4.92-1.73,10.25-2.31,16.69-3.62-.73-6.15-.87-12.78-2.38-19.08-5.06-21.13-6.59-42.71-9.13-64.18-1.39-11.73,3.33-21.38,8.43-31.14,2.17-4.15,3.77-8.1,2.47-13.25-5.09-20.06-1.34-39.59,4.56-58.88,1.24-4.06,2.57-8.1,4.41-13.87-6.08,1.5-10.71,3.33-15.45,3.67-17.76,1.28-34.64,6.24-51.55,11.28-21.53,6.41-43.61,8.38-66,7.59-10.52-.37-18.13-7.51-18.53-18.12-.28-7.51-.05-15-.05-22.42,14.43-7.58,29.41-15.94,44.83-23.39,10.14-4.9,21-8.39,31.39-12.72a134.52,134.52,0,0,0,17.16-8.06c6-3.58,12-3.4,18.26-1.52,18.43,5.56,36.86,11.1,55.25,16.76,3.68,1.13,6.95,1.25,10.5-.72,7.85-4.35,15.92-8.3,23.88-12.46a112.13,112.13,0,0,1,42.87-12.34c6.15-.52,10.22-3,13.82-8.16q21.75-31.1,44.35-61.61c5.13-6.95,11.35-13.07,16.77-19.82,2.85-3.55,4.79-7.82,7.62-11.4,1.7-2.16,4.1-4.68,6.56-5.18,18.86-3.84,37.83-7.16,56.74-10.77,7.09-1.35,13.83-1.12,19.93,3.21,5.72,4.06,5.83,8.45.37,12.73a27,27,0,0,1-4.13,2.8c-11.09,5.76-18.64,14.7-23.77,25.94-6.88,15.08-15.25,29.4-18.24,46.2a151,151,0,0,1-15.06,44.18c-2.31,4.38-5.23,8.43-8.2,13.16,6.69,6.44,13.63,13,20.45,19.71a64.7,64.7,0,0,1,16.36,25.93,219.19,219.19,0,0,1,11.43,69.58c0,13-2.13,25.85-8.47,37.62-1,1.91-2.19,4.92-1.4,6.45,5.71,11.09,3,22.91,3.3,34.4.23,8.28-1,16.59-1.26,24.89-.33,9.1,1,10.07,10.38,9.49s18.59-1.14,27.88-1.14a22.6,22.6,0,0,1,10.42,2.6,16.9,16.9,0,0,1,5.67,25c-1.09,1.5-4.15,2.9-5.78,2.46-6.5-1.77-12.5.4-18.69,1.28-3.61.51-7.29.46-10.92.79-2.89.26-5.77.71-8.92,1.11,0,12.72-.27,24.66.07,36.58.46,16.29,1.5,32.56,2.06,48.85.78,22.62,1.15,45.25,2,67.86.94,23.61,2.2,47.21,3.56,70.8.32,5.62,1.78,11.17,2.33,16.8a43.89,43.89,0,0,1-.32,9.82c-.44,3.4-2.81,6.06-6.13,4.84-5.78-2.12-7.78,1.73-10.34,5.18C1279.47,700.9,1284,712.67,1229.14,700.9Zm-7.38-485.73c-1.74,1.1-3.77,3.34-6,3.63-5.92.74-7.7,4.73-8.69,9.49-1.42,6.83-3,13.67-3.74,20.59-1.31,12.54-1.24,25.07,2.45,37.45a42.79,42.79,0,0,0,6.26,0c17.92-2.83,33.47,2.34,47,14,4.88,4.22,7.1,9.74,4.77,16.13-3,8.3-6.38,16.48-9.76,25.16,30.24,36.65,82.68,42.46,117.44,13.47-2.39-3.61-5.46-6.92-7-10.83-2.34-6-6.43-9.35-11.95-12.32-3.85-2.07-9.56-3.28-10.59-10.77l14.32,2.84c2.57-3.94,4.82-8,7.73-11.59,1.44-1.76,4.09-2.51,6.2-3.72.9,2.27,2.89,4.75,2.49,6.76-1.08,5.47-3.17,10.75-4.55,15.13l10.7,23.42c5.73-1.1,9-5.8,12.67-10,2.17-2.51,3.69-6,6.37-7.58,7.72-4.62,9.88-12.27,12-19.95,6.75-25,6.29-50-.21-74.9-2.59-9.89-5.56-20-10.39-28.9-7-13-17.85-23.3-30.12-31.39-6.71-4.42-13.17-10.92-23.18-8.15-4.91,1.36-9.26-4.69-8-10a27.33,27.33,0,0,1,3.09-7.33c7.22-12.3,14.13-24.82,22-36.72,16-24.27,34.23-46.69,57.95-64.08a85.51,85.51,0,0,0,7.17-6.58,278.58,278.58,0,0,0-37.33,6.46,10.88,10.88,0,0,0-5.6,3.6c-11.83,14.78-23.62,29.59-35.13,44.62-9.3,12.14-18.25,24.55-27.22,36.94-3.65,5.05-8,9.85-6.29,17.12.68,2.93-1.28,4.83-4.65,5.07-7.76.55-15.65.64-23.24,2.13-18.76,3.67-36.31,10.41-51.18,22.92-5.63,4.73-18.34,4.07-23.7-.84a27.69,27.69,0,0,0-8.88-5.72c-15-5.43-30-10.56-45.15-15.55-2.31-.76-5.52-1.1-7.53-.09-8.57,4.31-16.81,9.28-25.26,13.85a84,84,0,0,1-9.1,3.93c-8,3.16-16.07,6.07-23.95,9.47-2.19.94-3.81,3.22-5.69,4.88a21.94,21.94,0,0,0,11.07-.74c5.58-1.6,11.23-2.26,16.61.15,11.8,5.29,24.27,4.36,36.4,3.2,18.5-1.77,36.22,3.87,54.44,4.12a24.48,24.48,0,0,1,6.84,1.35C1217.89,206.67,1221.37,209,1221.75,215.18Zm206.83,405.9c.11-2.13.33-4.11.29-6.08-.44-20.63-1.19-41.26-1.35-61.89-.27-34.59-.14-69.18-.24-103.77,0-11.66-3.59-15.1-15.05-14-14.5,1.37-29,2.74-43.42,4.9-9.74,1.47-19.24,4.53-28.93,6.44-4.16.82-8.73,1.42-12.79.57-15.85-3.32-31.1,2.06-46.66,2.63-9.26.34-18.46,2.16-27.7,3.12-9.53,1-19.08,1.75-29.5,2.69.82,4,1,7.41,2.18,10.34,5.66,13.69,7.88,28.05,9.69,42.64,4.37,35.33,8.41,70.66,7.84,106.36-.08,5.11,1.18,10.25,1.77,15a20.87,20.87,0,0,0,3.28.42c18.14-1.87,36.24-4.38,54.42-5.49,15.57-1,31.24-.11,46.86-.47,7.93-.18,15.83-1.21,23.74-1.94,8.25-.76,16.49-2.14,24.75-2.33C1407.66,620,1417.57,620.72,1428.59,621.07Zm1,39.57c-1.54.12-3.14.35-4.73.35-9.92,0-19.95.89-29.73-.26a273.35,273.35,0,0,0-65.37-.3c-7.53.92-14.87,3.43-22.4,4.37a225.14,225.14,0,0,1-27.75,1.91c-10.87,0-21.75-1-32.24-1.54-3.92,7-2.12,13.33-1.4,19.5.83,7.14,2.3,8.74,9.37,9.1,25.18,1.28,50.29,4.28,75.56-.09,23.54-4.07,47.27-7,70.94-10.35,5.26-.74,11,.1,15.8-1.61s9.16-5.75,13.41-8.58c0-3.46.1-6.45-.06-9.42C1431,662.82,1430.23,661.95,1429.61,660.65ZM1241,420c13.64,1.73,57.42-.86,63.78-3.49l2.16-30.57c-22.79-8.18-47.61-14.54-63.34-35.34l-17.18,3.64C1227.78,377,1240.62,397,1241,420Zm177,1.92V352.44l-23.3,11.24,3.64,42.9c-10.79.88-20.48,1.66-30.16,2.46-2,.16-4.17,0-5.91.71a14.24,14.24,0,0,0-5.82,4.21c-4.13,5.76-9.1,6.42-13.61,1a18.34,18.34,0,0,1-3.72-7c-2.21-8.77-9.3-10.65-16.59-12.07-5.42-1.06-7.07.84-6.87,6.49.34,9.76,3,19,6.52,28,2.56,6.65,4.24,7.1,11.3,5.52,12-2.67,24-5.16,36.08-7.12C1385.16,426.26,1400.93,424.3,1417.92,421.92ZM1224.4,338.61c5.64-4.49,12.77-14.54,15.47-21.66,4.84-12.81-.83-19.89-14.59-18.17a26.54,26.54,0,0,0-5.84,1.24c-14.4,5.29-19.66,18.79-26.82,30.47-1,1.56.23,4.5.56,6.78,1.75,11.81,2.86,23.78,5.48,35.4,3.76,16.69,8.63,33.13,13.12,50l12.17-.6a23.26,23.26,0,0,0,0-3.31c-4.47-20.73-9.42-41.37-13.24-62.22-1.59-8.67-.6-17.8-5.82-25.65-.21-.31.33-1.12.64-2C1214.85,325.94,1217.61,336.62,1224.4,338.61ZM1428.87,637a15.2,15.2,0,0,0-3.56-1.06c-16.21-.89-32.39-3.19-48.55,1.41-5.63,1.6-11.87,1.6-17.81,1.47-12.92-.29-25.84-1.66-38.75-1.59s-25.82-1.07-38.39,3.09c-2.09.69-4.59.09-6.9.2-9.85.46-19.7,1-30.23,1.49l1,10.24c11.79.42,23,1.36,34.22,1.07,9.25-.24,18.49-1.65,27.67-3,19.44-2.9,39-3.92,58.62-4.15,9.24-.11,18.49,1.23,27.74,1.31,9.92.08,19.86-.24,29.74-1C1428.84,646.06,1431.36,642.83,1428.87,637ZM1060.62,233.86c12.87-.68,25.22-.2,37.14-2.24,14.32-2.45,28.26-7.13,42.41-10.65,8-2,16.12-3.53,24.15-5.42,2.59-.61,5.08-1.67,7.61-2.53l-.44-2.12c-8.17,0-16.37-.37-24.51.09a64.27,64.27,0,0,1-29.15-4.6,17.87,17.87,0,0,0-9.71-.85c-13.28,2.52-26.49,5.43-39.7,8.34-9.5,2.09-11,4.31-9.55,13.74A63.6,63.6,0,0,0,1060.62,233.86ZM1404.44,93.19c-19.13,20.69-36.77,43.12-48.54,70.76l14.9,6.57c13-12.29,17.75-28,23-43.31C1397.6,116,1400.91,104.53,1404.44,93.19ZM1385.51,370l-43.89,18.8c1.8,1.79,4.44,3.83,6.32,6.41,2.31,3.17,5.19,3.6,8.7,3.46,7.9-.32,15.81-.34,23.71-.67,2.18-.09,4.33-.83,7.13-1.4Z"/><path d="M1674.36,300.7c-7.57-1.51-9.9-5.8-10.55-10.84-2.26-17.53-3.14-35.09,0-53.33a23.12,23.12,0,0,1,3.74.38,15.33,15.33,0,0,1,2.91,1.58c3.78-3.14,7.38-6.57,11.41-9.38,7.22-5,12.75-4.94,18.13-.28,4.87,4.22,5.52,9.69,1.87,17.3-1.28,2.66-2.85,5.19-4.53,8.2,2.36,1.63,4.81,2.78,6.51,4.62,2.41,2.63,5.62,5.55,6.12,8.73,2.19,13.73-.32,26.68-10.29,37-6.55,6.78-13.25,5.86-19.34-2.12,16.17-6.84,20.32-20.62,22.15-36.88-11.83-1.2-18.82,6.61-28.19,9.52ZM1691.84,237c-13.46,4.85-19.53,13.39-16.78,23.21A53.29,53.29,0,0,0,1691.84,237Z"/><path d="M1627.69,266.31c-7.6,3.76-15,6.81-21.59,11-2.56,1.62-4,5.69-5,8.94-1.44,5-2.21,10.07-5.63,14.21-5.09-3-2.48-6.48-1.9-9.36,1.5-7.45,4.39-14.86-2.49-22.3,9-3.25,10.62-10.72,12.77-17.91,1.14-3.82,2.64-7.54,3.76-11.36,1.84-6.32,4.92-11.61,11.85-14.6,7.94,6.12,8.1,16.48,12,25.13l8.5.66c-7.28,5.73-5.26,11.74-3.1,17.74,2,5.63,4.4,11.16,6,16.91,1.18,4.24,1.35,8.76,2.15,14.37-9.57-2.74-10.19-9.88-12.21-15.8S1629.32,272,1627.69,266.31ZM1609,259.69c6.07,0,10.64-1.41,15.38-5.77l-5.85-21.06-1.69,0Z"/><path d="M1786.49,245c5.62.49,7.75,4.1,8.34,8.58a155.49,155.49,0,0,1,1,15.85c.16,5.55,0,11.11,0,19,6.82-8,8.34-15.57,10.09-23.1,1.69-7.26,3.58-14.47,5.54-22.31,5.78,3.2,5.73,8.11,5.79,11.93.26,15-1.14,29.9-9.52,43.05-2.6,4.08-4.82,9.63-10.93,8.68-5.89-.91-8.66-6-10.27-11.15A40.6,40.6,0,0,1,1785,283.7c-.06-11.6.2-23.2.42-34.81A17.18,17.18,0,0,1,1786.49,245Z"/><path d="M1725.53,267c.32-9.59,1-17.66,8.17-23.73,4.42-3.73,9-4.11,13.84-1.85,15.25,7.07,20.61,25,12,38.44-.71,1.12-1.46,2.22-2.26,3.28-4.13,5.5-8.71,10.15-16.51,8.91s-10.88-7.16-13.07-13.53C1726.32,274.56,1726.08,270.16,1725.53,267Zm10.56,15.14c9.08-1.91,13.56-5.74,16.1-12,2.83-7,.06-13.69-1.34-20.37-.2-1-4.13-2.24-5.61-1.62-4.94,2-9.7,4.93-9.74,11.24C1735.46,266.54,1735.85,273.66,1736.08,282.17Z"/><path d="M1856,253.82c-6.92-.44-12.33,4.83-17.23-2.41,10.19-8.12,22.23-11.51,34.74-14.85,2.63,8.53-6.23,8.63-8.43,13.16,1.56,16.89,3.31,33.78-.39,51.31-6.47-2.78-8.53-6.85-8.54-12.28,0-8.31-.1-16.62-.14-24.94C1856,260.57,1856,257.31,1856,253.82Z"/><path d="M1954.67,272c-8,6.71-14.56,14-24.94,10.9-7.22-2.13-15.89-3.62-17.27-13.69C1918.62,267,1946.05,268.51,1954.67,272Z"/><path d="M1561.45,184.29c10.38,3.18,18.18,9.89,25.29,17.23,5.23,5.4,4.27,8.43-3.94,16.54C1573.55,208.18,1565.84,197.5,1561.45,184.29Z"/><path d="M1884.14,218.22c7.58-9.9,13.6-20.59,26.28-26.76a45.64,45.64,0,0,1-9.85,28.65C1895.32,226.9,1891,226.2,1884.14,218.22Z"/><path d="M1554.84,350.93c5.58-8.24,9.76-15,14.52-21.32,6.27-8.35,9.44-8.48,18.85-1.79C1582.47,338.57,1570.14,347.6,1554.84,350.93Z"/><path d="M1526.6,288.44c2.36-11.45,11.4-11.93,18.83-14.3,7.81-2.5,15.27-2.24,22.88,5.42C1553.79,282.81,1541.14,287.65,1526.6,288.44Z"/><path d="M1748.64,337.53c-2.11,14.1-2.19,26.17-7.41,38.29-8.77-5.43-7.79-12.46-6.47-19.18C1736.23,349.15,1737,340.81,1748.64,337.53Z"/><path d="M1815.83,179.75c-.35,11.4-6.21,20-10.4,29.21-1.48,3.24-4.42,4-7.52,2.17-2.81-1.68-4.13-4.07-2.74-7.56C1799.2,193.43,1805.2,185.11,1815.83,179.75Z"/><path d="M1819.69,339c.21,10.44,6.57,19.26,3.75,30.78-7.58-6.57-14.41-12.26-13.19-22.59C1810.77,342.7,1812.76,338.91,1819.69,339Z"/><path d="M1897.3,322.38l9.8,26.58c-3.39,0-5.89.76-6.88-.13-4.12-3.73-8.39-7.56-11.42-12.14C1886.23,332.81,1889.14,328.27,1897.3,322.38Z"/><path d="M1699.37,158.28c13.51,9.29,9.9,24.77-5.49,33.33C1692.43,179.85,1701.92,171.1,1699.37,158.28Z"/><path d="M1633.36,186.9c-1.69-14.33-1.69-27.27,1.33-40.83C1643.53,157.62,1642.86,177.78,1633.36,186.9Z"/><path d="M1744.77,200.62c0-8.55-.16-17.11.16-25.65.05-1.37,2.2-3.65,3.47-3.72,1.51-.08,4.32,1.61,4.49,2.83.69,4.82,1.5,10,.49,14.6s-4.14,8.55-6.34,12.8Z"/><path d="M1645.43,358.58c1.68-7,2.94-14.09,5.16-20.89,1.69-5.2,3.78-5.47,11.42-3.1-.35,10.75-6.86,17.9-13.46,25Z"/><path class="cls-1" d="M1221.75,215.18c-.39-6.19-3.87-8.51-8.21-9.87a24.48,24.48,0,0,0-6.84-1.35c-18.22-.25-35.94-5.89-54.44-4.12-12.13,1.16-24.59,2.09-36.4-3.2-5.38-2.41-11-1.75-16.61-.15a21.94,21.94,0,0,1-11.07.74c1.88-1.66,3.5-3.94,5.69-4.88,7.88-3.4,16-6.31,23.95-9.47a84,84,0,0,0,9.1-3.93c8.45-4.56,16.69-9.53,25.26-13.85,2-1,5.22-.67,7.53.09,15.12,5,30.19,10.12,45.15,15.55a27.69,27.69,0,0,1,8.88,5.72c5.36,4.91,18.07,5.57,23.7.84,14.88-12.5,32.43-19.24,51.18-22.92,7.6-1.49,15.48-1.58,23.24-2.13,3.36-.24,5.33-2.14,4.65-5.07-1.69-7.27,2.63-12.07,6.29-17.12,9-12.39,17.92-24.8,27.22-36.94,11.51-15,23.3-29.84,35.13-44.62a10.88,10.88,0,0,1,5.6-3.6,278.58,278.58,0,0,1,37.33-6.46,85.51,85.51,0,0,1-7.17,6.58C1397.2,72.41,1379,94.83,1363,119.1c-7.85,11.89-14.76,24.41-22,36.72a27.33,27.33,0,0,0-3.09,7.33c-1.26,5.27,3.1,11.31,8,10,10-2.77,16.47,3.73,23.18,8.15,12.27,8.09,23.08,18.41,30.12,31.39,4.83,8.91,7.81,19,10.39,28.9,6.5,24.87,7,49.94.21,74.9-2.08,7.68-4.24,15.33-12,19.95-2.67,1.6-4.2,5.07-6.37,7.58-3.63,4.22-6.95,8.91-12.67,10l-10.7-23.42c1.38-4.38,3.47-9.65,4.55-15.13.4-2-1.59-4.49-2.49-6.76-2.1,1.21-4.76,2-6.2,3.72-2.91,3.55-5.16,7.65-7.73,11.59l-14.32-2.84c1,7.49,6.74,8.7,10.59,10.77,5.52,3,9.61,6.3,11.95,12.32,1.52,3.91,4.58,7.22,7,10.83-34.76,29-87.2,23.18-117.44-13.47,3.39-8.68,6.75-16.85,9.76-25.16,2.33-6.4.11-11.92-4.77-16.13-13.52-11.67-29.07-16.85-47-14a42.79,42.79,0,0,1-6.26,0c-3.69-12.38-3.76-24.92-2.45-37.45.72-6.92,2.32-13.76,3.74-20.59,1-4.77,2.78-8.75,8.69-9.49C1218,218.52,1220,216.28,1221.75,215.18Zm169.79,77.1c7.15.68,10.09-1.71,8.89-6.58a38.38,38.38,0,0,0-6.06-13.21c-4.21-5.77-9.32-5.56-15.17-.42-4.48,3.94-4.42,6.69.32,12.56C1383.18,289.15,1387.56,292.37,1391.55,292.27Zm-93.71,16.6c-1,.72-4.55,1.85-5.37,4-1,2.72-1,7,.53,9.32,3.65,5.59,10.08,7.4,16.37,8.29,1.38.2,4.15-2.29,4.61-4C1316.23,318.15,1308.55,308.94,1297.84,308.87Z"/><path class="cls-1" d="M1428.59,621.07c-11-.36-20.92-1.09-30.81-.86-8.26.19-16.5,1.56-24.75,2.33-7.91.73-15.82,1.76-23.74,1.94-15.62.36-31.29-.49-46.86.47-18.18,1.11-36.28,3.62-54.42,5.49a20.87,20.87,0,0,1-3.28-.42c-.59-4.78-1.85-9.91-1.77-15,.56-35.7-3.47-71-7.84-106.36-1.8-14.59-4-28.95-9.69-42.64-1.21-2.93-1.36-6.3-2.18-10.34,10.42-.94,20-1.7,29.5-2.69,9.25-1,18.44-2.78,27.7-3.12,15.56-.57,30.81-6,46.66-2.63,4.06.85,8.63.25,12.79-.57,9.69-1.91,19.18-5,28.93-6.44,14.39-2.17,28.92-3.54,43.42-4.9,11.47-1.08,15,2.37,15.05,14,.1,34.59,0,69.18.24,103.77.16,20.63.9,41.26,1.35,61.89C1428.92,617,1428.69,618.94,1428.59,621.07Z"/><path class="cls-1" d="M1429.61,660.65c.62,1.3,1.36,2.17,1.41,3.07.15,3,.06,6,.06,9.42-4.26,2.83-8.44,6.82-13.41,8.58s-10.54.87-15.8,1.61c-23.67,3.32-47.4,6.28-70.94,10.35-25.27,4.37-50.39,1.37-75.56.09-7.07-.36-8.54-2-9.37-9.1-.72-6.17-2.52-12.5,1.4-19.5,10.49.54,21.37,1.54,32.24,1.54a225.14,225.14,0,0,0,27.75-1.91c7.53-.94,14.87-3.45,22.4-4.37a273.35,273.35,0,0,1,65.37.3c9.78,1.16,19.81.27,29.73.26C1426.47,661,1428.07,660.77,1429.61,660.65Z"/><path class="cls-1" d="M1241,420c-.34-23-13.18-43-14.58-65.75l17.18-3.64c15.73,20.8,40.55,27.16,63.34,35.34l-2.16,30.57C1298.39,419.14,1254.61,421.73,1241,420Z"/><path class="cls-1" d="M1417.92,421.92c-17,2.39-32.75,4.34-48.43,6.89-12.1,2-24.12,4.45-36.08,7.12-7.07,1.58-8.74,1.13-11.3-5.52-3.47-9-6.17-18.21-6.52-28-.2-5.66,1.45-7.55,6.87-6.49,7.28,1.42,14.38,3.3,16.59,12.07a18.34,18.34,0,0,0,3.72,7c4.5,5.37,9.47,4.71,13.61-1a14.24,14.24,0,0,1,5.82-4.21c1.74-.76,3.92-.55,5.91-.71,9.69-.8,19.37-1.58,30.16-2.46l-3.64-42.9,23.3-11.24Z"/><path class="cls-1" d="M1224.4,338.61c-6.79-2-9.55-12.67-18.89-9.78-.31.92-.85,1.73-.64,2,5.22,7.85,4.23,17,5.82,25.65,3.82,20.85,8.77,41.49,13.24,62.22a23.26,23.26,0,0,1,0,3.31l-12.17.6c-4.48-16.86-9.35-33.3-13.12-50-2.62-11.62-3.73-23.58-5.48-35.4-.34-2.28-1.52-5.22-.56-6.78,7.16-11.67,12.42-25.18,26.82-30.47a26.54,26.54,0,0,1,5.84-1.24c13.76-1.72,19.43,5.37,14.59,18.17C1237.17,324.07,1230,334.12,1224.4,338.61Z"/><path class="cls-2" d="M1428.87,637c2.5,5.79,0,9-5.18,9.43-9.88.79-19.83,1.1-29.74,1-9.25-.07-18.5-1.42-27.74-1.31-19.6.23-39.18,1.25-58.62,4.15-9.18,1.37-18.42,2.78-27.67,3-11.2.29-22.43-.64-34.22-1.07l-1-10.24c10.53-.52,20.38-1,30.23-1.49,2.31-.11,4.81.49,6.9-.2,12.57-4.16,25.57-3,38.39-3.09s25.83,1.3,38.75,1.59c5.94.13,12.18.14,17.81-1.47,16.16-4.6,32.34-2.29,48.55-1.41A15.2,15.2,0,0,1,1428.87,637Z"/><path class="cls-2" d="M1060.62,233.86a63.6,63.6,0,0,1-1.74-6.24c-1.43-9.43,0-11.64,9.55-13.74,13.2-2.91,26.41-5.83,39.7-8.34a17.87,17.87,0,0,1,9.71.85A64.27,64.27,0,0,0,1147,211c8.15-.46,16.34-.09,24.51-.09l.44,2.12c-2.54.85-5,1.92-7.61,2.53-8,1.89-16.15,3.42-24.15,5.42-14.15,3.52-28.08,8.2-42.41,10.65C1085.84,233.65,1073.49,233.18,1060.62,233.86Z"/><path class="cls-2" d="M1404.44,93.19c-3.54,11.34-6.84,22.76-10.67,34-5.22,15.36-10,31-23,43.31l-14.9-6.57C1367.67,136.31,1385.31,113.89,1404.44,93.19Z"/><path class="cls-1" d="M1385.51,370l2,26.61c-2.8.57-5,1.31-7.13,1.4-7.9.33-15.81.35-23.71.67-3.5.14-6.39-.3-8.7-3.46-1.88-2.58-4.52-4.62-6.32-6.41Z"/><path class="cls-1" d="M1691.84,237a53.29,53.29,0,0,1-16.78,23.21C1672.32,250.34,1678.38,241.8,1691.84,237Z"/><path class="cls-1" d="M1609,259.69l7.84-26.8,1.69,0,5.85,21.06C1619.65,258.28,1615.08,259.69,1609,259.69Z"/><path class="cls-1" d="M1736.08,282.17c-.24-8.51-.62-15.63-.58-22.75,0-6.31,4.79-9.2,9.74-11.24,1.48-.61,5.41.67,5.61,1.62,1.4,6.68,4.17,13.39,1.34,20.37C1749.64,276.43,1745.17,280.26,1736.08,282.17Z"/><path d="M1391.55,292.27c-4,.1-8.37-3.13-12-7.65-4.74-5.87-4.8-8.62-.32-12.56,5.85-5.15,11-5.36,15.17.42a38.38,38.38,0,0,1,6.06,13.21C1401.63,290.56,1398.7,292.95,1391.55,292.27Z"/><path d="M1297.84,308.87c10.71.07,18.39,9.28,16.13,17.62-.46,1.7-3.23,4.19-4.61,4-6.29-.89-12.72-2.7-16.37-8.29-1.52-2.33-1.57-6.6-.53-9.32C1293.29,310.72,1296.79,309.59,1297.84,308.87Z"/><path d="M2219.14,700.9c-10.18-2.18-.56-175.34-15.35-245.19-6.12,0-11.65.14-17.17,0-5.31-.17-10.6-.66-15.72-1-2.39,1.81-5,5.3-7.1,5.05-4.25-.49-6.44-4.5-6.42-8.86,0-6.62,0-13.32,1-19.83.35-2.26,3.33-5.05,5.7-5.89,4.92-1.73,10.25-2.31,16.69-3.62-.73-6.15-.87-12.78-2.38-19.08-5.06-21.13-6.59-42.71-9.13-64.18-1.39-11.73,3.33-21.38,8.43-31.14,2.17-4.15,3.77-8.1,2.47-13.25-5.09-20.06-1.34-39.59,4.56-58.88,1.24-4.06,2.57-8.1,4.41-13.87-6.08,1.5-10.71,3.33-15.45,3.67-17.76,1.28-34.64,6.24-51.55,11.28-21.53,6.41-43.61,8.38-66,7.59-10.52-.37-18.13-7.51-18.53-18.12-.28-7.51-.05-15-.05-22.42,14.43-7.58,29.41-15.94,44.83-23.39,10.14-4.9,21-8.39,31.39-12.72a134.52,134.52,0,0,0,17.16-8.06c6-3.58,12-3.4,18.26-1.52,18.43,5.56,36.86,11.1,55.25,16.76,3.68,1.13,6.95,1.25,10.5-.72,7.85-4.35,15.92-8.3,23.88-12.46a112.13,112.13,0,0,1,42.87-12.34c6.15-.52,10.22-3,13.82-8.16q21.75-31.1,44.35-61.61c5.13-6.95,11.35-13.07,16.77-19.82,2.85-3.55,4.79-7.82,7.62-11.4,1.7-2.16,4.1-4.68,6.56-5.18,18.86-3.84,37.83-7.16,56.74-10.77,7.09-1.35,13.83-1.12,19.93,3.21,5.72,4.06,5.83,8.45.37,12.73a27,27,0,0,1-4.13,2.8c-11.09,5.76-18.64,14.7-23.77,25.94-6.88,15.08-15.25,29.4-18.24,46.2a151,151,0,0,1-15.06,44.18c-2.31,4.38-5.23,8.43-8.2,13.16,6.69,6.44,13.63,13,20.45,19.71a64.7,64.7,0,0,1,16.36,25.93,219.19,219.19,0,0,1,11.43,69.58c0,13-2.13,25.85-8.47,37.62-1,1.91-2.19,4.92-1.4,6.45,5.71,11.09,3,22.91,3.3,34.4.23,8.28-1,16.59-1.26,24.89-.33,9.1,1,10.07,10.38,9.49s18.59-1.14,27.88-1.14a22.6,22.6,0,0,1,10.42,2.6,16.9,16.9,0,0,1,5.67,25c-1.09,1.5-4.15,2.9-5.78,2.46-6.5-1.77-12.5.4-18.69,1.28-3.61.51-7.29.46-10.92.79-2.89.26-5.77.71-8.92,1.11,0,12.72-.27,24.66.07,36.58.46,16.29,1.5,32.56,2.06,48.85.78,22.62,1.15,45.25,2,67.86.94,23.61,2.2,47.21,3.56,70.8.32,5.62,1.78,11.17,2.33,16.8a43.89,43.89,0,0,1-.32,9.82c-.44,3.4-2.81,6.06-6.13,4.84-5.78-2.12-7.78,1.73-10.34,5.18C2269.47,700.9,2274,712.67,2219.14,700.9Zm-7.38-485.73c-1.74,1.1-3.77,3.34-6,3.63-5.92.74-7.7,4.73-8.69,9.49-1.42,6.83-3,13.67-3.74,20.59-1.31,12.54-1.24,25.07,2.45,37.45a42.79,42.79,0,0,0,6.26,0c17.92-2.83,33.47,2.34,47,14,4.88,4.22,7.1,9.74,4.77,16.13-3,8.3-6.38,16.48-9.76,25.16,30.24,36.65,82.68,42.46,117.44,13.47-2.39-3.61-5.46-6.92-7-10.83-2.34-6-6.43-9.35-11.95-12.32-3.85-2.07-9.56-3.28-10.59-10.77l14.32,2.84c2.57-3.94,4.82-8,7.73-11.59,1.44-1.76,4.09-2.51,6.2-3.72.9,2.27,2.89,4.75,2.49,6.76-1.08,5.47-3.17,10.75-4.55,15.13l10.7,23.42c5.73-1.1,9-5.8,12.67-10,2.17-2.51,3.69-6,6.37-7.58,7.72-4.62,9.88-12.27,12-19.95,6.75-25,6.29-50-.21-74.9-2.59-9.89-5.56-20-10.39-28.9-7-13-17.85-23.3-30.12-31.39-6.71-4.42-13.17-10.92-23.18-8.15-4.91,1.36-9.26-4.69-8-10a27.33,27.33,0,0,1,3.09-7.33c7.22-12.3,14.13-24.82,22-36.72,16-24.27,34.23-46.69,57.95-64.08a85.51,85.51,0,0,0,7.17-6.58,278.58,278.58,0,0,0-37.33,6.46,10.88,10.88,0,0,0-5.6,3.6c-11.83,14.78-23.62,29.59-35.13,44.62-9.3,12.14-18.25,24.55-27.22,36.94-3.65,5.05-8,9.85-6.29,17.12.68,2.93-1.28,4.83-4.65,5.07-7.76.55-15.65.64-23.24,2.13-18.76,3.67-36.31,10.41-51.18,22.92-5.63,4.73-18.34,4.07-23.7-.84a27.69,27.69,0,0,0-8.88-5.72c-15-5.43-30-10.56-45.15-15.55-2.31-.76-5.52-1.1-7.53-.09-8.57,4.31-16.81,9.28-25.26,13.85a84,84,0,0,1-9.1,3.93c-8,3.16-16.07,6.07-23.95,9.47-2.19.94-3.81,3.22-5.69,4.88a21.94,21.94,0,0,0,11.07-.74c5.58-1.6,11.23-2.26,16.61.15,11.8,5.29,24.27,4.36,36.4,3.2,18.5-1.77,36.22,3.87,54.44,4.12a24.48,24.48,0,0,1,6.84,1.35C2207.89,206.67,2211.37,209,2211.75,215.18Zm206.83,405.9c.11-2.13.33-4.11.29-6.08-.44-20.63-1.19-41.26-1.35-61.89-.27-34.59-.14-69.18-.24-103.77,0-11.66-3.59-15.1-15.05-14-14.5,1.37-29,2.74-43.42,4.9-9.74,1.47-19.24,4.53-28.93,6.44-4.16.82-8.73,1.42-12.79.57-15.85-3.32-31.1,2.06-46.66,2.63-9.26.34-18.46,2.16-27.7,3.12-9.53,1-19.08,1.75-29.5,2.69.82,4,1,7.41,2.18,10.34,5.66,13.69,7.88,28.05,9.69,42.64,4.37,35.33,8.41,70.66,7.84,106.36-.08,5.11,1.18,10.25,1.77,15a20.87,20.87,0,0,0,3.28.42c18.14-1.87,36.24-4.38,54.42-5.49,15.57-1,31.24-.11,46.86-.47,7.93-.18,15.83-1.21,23.74-1.94,8.25-.76,16.49-2.14,24.75-2.33C2397.66,620,2407.57,620.72,2418.59,621.07Zm1,39.57c-1.54.12-3.14.35-4.73.35-9.92,0-19.95.89-29.73-.26a273.35,273.35,0,0,0-65.37-.3c-7.53.92-14.87,3.43-22.4,4.37a225.14,225.14,0,0,1-27.75,1.91c-10.87,0-21.75-1-32.24-1.54-3.92,7-2.12,13.33-1.4,19.5.83,7.14,2.3,8.74,9.37,9.1,25.18,1.28,50.29,4.28,75.56-.09,23.54-4.07,47.27-7,70.94-10.35,5.26-.74,11,.1,15.8-1.61s9.16-5.75,13.41-8.58c0-3.46.1-6.45-.06-9.42C2421,662.82,2420.23,661.95,2419.61,660.65ZM2231,420c13.64,1.73,57.42-.86,63.78-3.49l2.16-30.57c-22.79-8.18-47.61-14.54-63.34-35.34l-17.18,3.64C2217.78,377,2230.62,397,2231,420Zm177,1.92V352.44l-23.3,11.24,3.64,42.9c-10.79.88-20.48,1.66-30.16,2.46-2,.16-4.17,0-5.91.71a14.24,14.24,0,0,0-5.82,4.21c-4.13,5.76-9.1,6.42-13.61,1a18.34,18.34,0,0,1-3.72-7c-2.21-8.77-9.3-10.65-16.59-12.07-5.42-1.06-7.07.84-6.87,6.49.34,9.76,3,19,6.52,28,2.56,6.65,4.24,7.1,11.3,5.52,12-2.67,24-5.16,36.08-7.12C2375.16,426.26,2390.93,424.3,2407.92,421.92ZM2214.4,338.61c5.64-4.49,12.77-14.54,15.47-21.66,4.84-12.81-.83-19.89-14.59-18.17a26.54,26.54,0,0,0-5.84,1.24c-14.4,5.29-19.66,18.79-26.82,30.47-1,1.56.23,4.5.56,6.78,1.75,11.81,2.86,23.78,5.48,35.4,3.76,16.69,8.63,33.13,13.12,50l12.17-.6a23.26,23.26,0,0,0,0-3.31c-4.47-20.73-9.42-41.37-13.24-62.22-1.59-8.67-.6-17.8-5.82-25.65-.21-.31.33-1.12.64-2C2204.85,325.94,2207.61,336.62,2214.4,338.61ZM2418.87,637a15.2,15.2,0,0,0-3.56-1.06c-16.21-.89-32.39-3.19-48.55,1.41-5.63,1.6-11.87,1.6-17.81,1.47-12.92-.29-25.84-1.66-38.75-1.59s-25.82-1.07-38.39,3.09c-2.09.69-4.59.09-6.9.2-9.85.46-19.7,1-30.23,1.49l1,10.24c11.79.42,23,1.36,34.22,1.07,9.25-.24,18.49-1.65,27.67-3,19.44-2.9,39-3.92,58.62-4.15,9.24-.11,18.49,1.23,27.74,1.31,9.92.08,19.86-.24,29.74-1C2418.84,646.06,2421.36,642.83,2418.87,637ZM2050.62,233.86c12.87-.68,25.22-.2,37.14-2.24,14.32-2.45,28.26-7.13,42.41-10.65,8-2,16.12-3.53,24.15-5.42,2.59-.61,5.08-1.67,7.61-2.53l-.44-2.12c-8.17,0-16.37-.37-24.51.09a64.27,64.27,0,0,1-29.15-4.6,17.87,17.87,0,0,0-9.71-.85c-13.28,2.52-26.49,5.43-39.7,8.34-9.5,2.09-11,4.31-9.55,13.74A63.6,63.6,0,0,0,2050.62,233.86ZM2394.44,93.19c-19.13,20.69-36.77,43.12-48.54,70.76l14.9,6.57c13-12.29,17.75-28,23-43.31C2387.6,116,2390.91,104.53,2394.44,93.19ZM2375.51,370l-43.89,18.8c1.8,1.79,4.44,3.83,6.32,6.41,2.31,3.17,5.19,3.6,8.7,3.46,7.9-.32,15.81-.34,23.71-.67,2.18-.09,4.33-.83,7.13-1.4Z"/><path d="M2664.36,300.7c-7.57-1.51-9.9-5.8-10.55-10.84-2.26-17.53-3.14-35.09,0-53.33a23.12,23.12,0,0,1,3.74.38,15.33,15.33,0,0,1,2.91,1.58c3.78-3.14,7.38-6.57,11.41-9.38,7.22-5,12.75-4.94,18.13-.28,4.87,4.22,5.52,9.69,1.87,17.3-1.28,2.66-2.85,5.19-4.53,8.2,2.36,1.63,4.81,2.78,6.51,4.62,2.41,2.63,5.62,5.55,6.12,8.73,2.19,13.73-.32,26.68-10.29,37-6.55,6.78-13.25,5.86-19.34-2.12,16.17-6.84,20.32-20.62,22.15-36.88-11.83-1.2-18.82,6.61-28.19,9.52ZM2681.84,237c-13.46,4.85-19.53,13.39-16.78,23.21A53.29,53.29,0,0,0,2681.84,237Z"/><path d="M2617.69,266.31c-7.6,3.76-15,6.81-21.59,11-2.56,1.62-4,5.69-5,8.94-1.44,5-2.21,10.07-5.63,14.21-5.09-3-2.48-6.48-1.9-9.36,1.5-7.45,4.39-14.86-2.49-22.3,9-3.25,10.62-10.72,12.77-17.91,1.14-3.82,2.64-7.54,3.76-11.36,1.84-6.32,4.92-11.61,11.85-14.6,7.94,6.12,8.1,16.48,12,25.13l8.5.66c-7.28,5.73-5.26,11.74-3.1,17.74,2,5.63,4.4,11.16,6,16.91,1.18,4.24,1.35,8.76,2.15,14.37-9.57-2.74-10.19-9.88-12.21-15.8S2619.32,272,2617.69,266.31ZM2599,259.69c6.07,0,10.64-1.41,15.38-5.77l-5.85-21.06-1.69,0Z"/><path d="M2776.49,245c5.62.49,7.75,4.1,8.34,8.58a155.49,155.49,0,0,1,1,15.85c.16,5.55,0,11.11,0,19,6.82-8,8.34-15.57,10.09-23.1,1.69-7.26,3.58-14.47,5.54-22.31,5.78,3.2,5.73,8.11,5.79,11.93.26,15-1.14,29.9-9.52,43.05-2.6,4.08-4.82,9.63-10.93,8.68-5.89-.91-8.66-6-10.27-11.15A40.6,40.6,0,0,1,2775,283.7c-.06-11.6.2-23.2.42-34.81A17.18,17.18,0,0,1,2776.49,245Z"/><path d="M2715.53,267c.32-9.59,1-17.66,8.17-23.73,4.42-3.73,9-4.11,13.84-1.85,15.25,7.07,20.61,25,12,38.44-.71,1.12-1.46,2.22-2.26,3.28-4.13,5.5-8.71,10.15-16.51,8.91s-10.88-7.16-13.07-13.53C2716.32,274.56,2716.08,270.16,2715.53,267Zm10.56,15.14c9.08-1.91,13.56-5.74,16.1-12,2.83-7,.06-13.69-1.34-20.37-.2-1-4.13-2.24-5.61-1.62-4.94,2-9.7,4.93-9.74,11.24C2725.46,266.54,2725.85,273.66,2726.08,282.17Z"/><path d="M2846,253.82c-6.92-.44-12.33,4.83-17.23-2.41,10.19-8.12,22.23-11.51,34.74-14.85,2.63,8.53-6.23,8.63-8.43,13.16,1.56,16.89,3.31,33.78-.39,51.31-6.47-2.78-8.53-6.85-8.54-12.28,0-8.31-.1-16.62-.14-24.94C2846,260.57,2846,257.31,2846,253.82Z"/><path d="M2944.67,272c-8,6.71-14.56,14-24.94,10.9-7.22-2.13-15.89-3.62-17.27-13.69C2908.62,267,2936.05,268.51,2944.67,272Z"/><path d="M2551.45,184.29c10.38,3.18,18.18,9.89,25.29,17.23,5.23,5.4,4.27,8.43-3.94,16.54C2563.55,208.18,2555.84,197.5,2551.45,184.29Z"/><path d="M2874.14,218.22c7.58-9.9,13.6-20.59,26.28-26.76a45.64,45.64,0,0,1-9.85,28.65C2885.32,226.9,2881,226.2,2874.14,218.22Z"/><path d="M2544.84,350.93c5.58-8.24,9.76-15,14.52-21.32,6.27-8.35,9.44-8.48,18.85-1.79C2572.47,338.57,2560.14,347.6,2544.84,350.93Z"/><path d="M2516.6,288.44c2.36-11.45,11.4-11.93,18.83-14.3,7.81-2.5,15.27-2.24,22.88,5.42C2543.79,282.81,2531.14,287.65,2516.6,288.44Z"/><path d="M2738.64,337.53c-2.11,14.1-2.19,26.17-7.41,38.29-8.77-5.43-7.79-12.46-6.47-19.18C2726.23,349.15,2727,340.81,2738.64,337.53Z"/><path d="M2805.83,179.75c-.35,11.4-6.21,20-10.4,29.21-1.48,3.24-4.42,4-7.52,2.17-2.81-1.68-4.13-4.07-2.74-7.56C2789.2,193.43,2795.2,185.11,2805.83,179.75Z"/><path d="M2809.69,339c.21,10.44,6.57,19.26,3.75,30.78-7.58-6.57-14.41-12.26-13.19-22.59C2800.77,342.7,2802.76,338.91,2809.69,339Z"/><path d="M2887.3,322.38l9.8,26.58c-3.39,0-5.89.76-6.88-.13-4.12-3.73-8.39-7.56-11.42-12.14C2876.23,332.81,2879.14,328.27,2887.3,322.38Z"/><path d="M2689.37,158.28c13.51,9.29,9.9,24.77-5.49,33.33C2682.43,179.85,2691.92,171.1,2689.37,158.28Z"/><path d="M2623.36,186.9c-1.69-14.33-1.69-27.27,1.33-40.83C2633.53,157.62,2632.86,177.78,2623.36,186.9Z"/><path d="M2734.77,200.62c0-8.55-.16-17.11.16-25.65.05-1.37,2.2-3.65,3.47-3.72,1.51-.08,4.32,1.61,4.49,2.83.69,4.82,1.5,10,.49,14.6s-4.14,8.55-6.34,12.8Z"/><path d="M2635.43,358.58c1.68-7,2.94-14.09,5.16-20.89,1.69-5.2,3.78-5.47,11.42-3.1-.35,10.75-6.86,17.9-13.46,25Z"/><path class="cls-1" d="M2211.75,215.18c-.39-6.19-3.87-8.51-8.21-9.87a24.48,24.48,0,0,0-6.84-1.35c-18.22-.25-35.94-5.89-54.44-4.12-12.13,1.16-24.59,2.09-36.4-3.2-5.38-2.41-11-1.75-16.61-.15a21.94,21.94,0,0,1-11.07.74c1.88-1.66,3.5-3.94,5.69-4.88,7.88-3.4,16-6.31,23.95-9.47a84,84,0,0,0,9.1-3.93c8.45-4.56,16.69-9.53,25.26-13.85,2-1,5.22-.67,7.53.09,15.12,5,30.19,10.12,45.15,15.55a27.69,27.69,0,0,1,8.88,5.72c5.36,4.91,18.07,5.57,23.7.84,14.88-12.5,32.43-19.24,51.18-22.92,7.6-1.49,15.48-1.58,23.24-2.13,3.36-.24,5.33-2.14,4.65-5.07-1.69-7.27,2.63-12.07,6.29-17.12,9-12.39,17.92-24.8,27.22-36.94,11.51-15,23.3-29.84,35.13-44.62a10.88,10.88,0,0,1,5.6-3.6,278.58,278.58,0,0,1,37.33-6.46,85.51,85.51,0,0,1-7.17,6.58C2387.2,72.41,2369,94.83,2353,119.1c-7.85,11.89-14.76,24.41-22,36.72a27.33,27.33,0,0,0-3.09,7.33c-1.26,5.27,3.1,11.31,8,10,10-2.77,16.47,3.73,23.18,8.15,12.27,8.09,23.08,18.41,30.12,31.39,4.83,8.91,7.81,19,10.39,28.9,6.5,24.87,7,49.94.21,74.9-2.08,7.68-4.24,15.33-12,19.95-2.67,1.6-4.2,5.07-6.37,7.58-3.63,4.22-6.95,8.91-12.67,10l-10.7-23.42c1.38-4.38,3.47-9.65,4.55-15.13.4-2-1.59-4.49-2.49-6.76-2.1,1.21-4.76,2-6.2,3.72-2.91,3.55-5.16,7.65-7.73,11.59l-14.32-2.84c1,7.49,6.74,8.7,10.59,10.77,5.52,3,9.61,6.3,11.95,12.32,1.52,3.91,4.58,7.22,7,10.83-34.76,29-87.2,23.18-117.44-13.47,3.39-8.68,6.75-16.85,9.76-25.16,2.33-6.4.11-11.92-4.77-16.13-13.52-11.67-29.07-16.85-47-14a42.79,42.79,0,0,1-6.26,0c-3.69-12.38-3.76-24.92-2.45-37.45.72-6.92,2.32-13.76,3.74-20.59,1-4.77,2.78-8.75,8.69-9.49C2208,218.52,2210,216.28,2211.75,215.18Zm169.79,77.1c7.15.68,10.09-1.71,8.89-6.58a38.38,38.38,0,0,0-6.06-13.21c-4.21-5.77-9.32-5.56-15.17-.42-4.48,3.94-4.42,6.69.32,12.56C2373.18,289.15,2377.56,292.37,2381.55,292.27Zm-93.71,16.6c-1,.72-4.55,1.85-5.37,4-1,2.72-1,7,.53,9.32,3.65,5.59,10.08,7.4,16.37,8.29,1.38.2,4.15-2.29,4.61-4C2306.23,318.15,2298.55,308.94,2287.84,308.87Z"/><path class="cls-1" d="M2418.59,621.07c-11-.36-20.92-1.09-30.81-.86-8.26.19-16.5,1.56-24.75,2.33-7.91.73-15.82,1.76-23.74,1.94-15.62.36-31.29-.49-46.86.47-18.18,1.11-36.28,3.62-54.42,5.49a20.87,20.87,0,0,1-3.28-.42c-.59-4.78-1.85-9.91-1.77-15,.56-35.7-3.47-71-7.84-106.36-1.8-14.59-4-28.95-9.69-42.64-1.21-2.93-1.36-6.3-2.18-10.34,10.42-.94,20-1.7,29.5-2.69,9.25-1,18.44-2.78,27.7-3.12,15.56-.57,30.81-6,46.66-2.63,4.06.85,8.63.25,12.79-.57,9.69-1.91,19.18-5,28.93-6.44,14.39-2.17,28.92-3.54,43.42-4.9,11.47-1.08,15,2.37,15.05,14,.1,34.59,0,69.18.24,103.77.16,20.63.9,41.26,1.35,61.89C2418.92,617,2418.69,618.94,2418.59,621.07Z"/><path class="cls-1" d="M2419.61,660.65c.62,1.3,1.36,2.17,1.41,3.07.15,3,.06,6,.06,9.42-4.26,2.83-8.44,6.82-13.41,8.58s-10.54.87-15.8,1.61c-23.67,3.32-47.4,6.28-70.94,10.35-25.27,4.37-50.39,1.37-75.56.09-7.07-.36-8.54-2-9.37-9.1-.72-6.17-2.52-12.5,1.4-19.5,10.49.54,21.37,1.54,32.24,1.54a225.14,225.14,0,0,0,27.75-1.91c7.53-.94,14.87-3.45,22.4-4.37a273.35,273.35,0,0,1,65.37.3c9.78,1.16,19.81.27,29.73.26C2416.47,661,2418.07,660.77,2419.61,660.65Z"/><path class="cls-1" d="M2231,420c-.34-23-13.18-43-14.58-65.75l17.18-3.64c15.73,20.8,40.55,27.16,63.34,35.34l-2.16,30.57C2288.39,419.14,2244.61,421.73,2231,420Z"/><path class="cls-1" d="M2407.92,421.92c-17,2.39-32.75,4.34-48.43,6.89-12.1,2-24.12,4.45-36.08,7.12-7.07,1.58-8.74,1.13-11.3-5.52-3.47-9-6.17-18.21-6.52-28-.2-5.66,1.45-7.55,6.87-6.49,7.28,1.42,14.38,3.3,16.59,12.07a18.34,18.34,0,0,0,3.72,7c4.5,5.37,9.47,4.71,13.61-1a14.24,14.24,0,0,1,5.82-4.21c1.74-.76,3.92-.55,5.91-.71,9.69-.8,19.37-1.58,30.16-2.46l-3.64-42.9,23.3-11.24Z"/><path class="cls-1" d="M2214.4,338.61c-6.79-2-9.55-12.67-18.89-9.78-.31.92-.85,1.73-.64,2,5.22,7.85,4.23,17,5.82,25.65,3.82,20.85,8.77,41.49,13.24,62.22a23.26,23.26,0,0,1,0,3.31l-12.17.6c-4.48-16.86-9.35-33.3-13.12-50-2.62-11.62-3.73-23.58-5.48-35.4-.34-2.28-1.52-5.22-.56-6.78,7.16-11.67,12.42-25.18,26.82-30.47a26.54,26.54,0,0,1,5.84-1.24c13.76-1.72,19.43,5.37,14.59,18.17C2227.17,324.07,2220,334.12,2214.4,338.61Z"/><path class="cls-3" d="M2418.87,637c2.5,5.79,0,9-5.18,9.43-9.88.79-19.83,1.1-29.74,1-9.25-.07-18.5-1.42-27.74-1.31-19.6.23-39.18,1.25-58.62,4.15-9.18,1.37-18.42,2.78-27.67,3-11.2.29-22.43-.64-34.22-1.07l-1-10.24c10.53-.52,20.38-1,30.23-1.49,2.31-.11,4.81.49,6.9-.2,12.57-4.16,25.57-3,38.39-3.09s25.83,1.3,38.75,1.59c5.94.13,12.18.14,17.81-1.47,16.16-4.6,32.34-2.29,48.55-1.41A15.2,15.2,0,0,1,2418.87,637Z"/><path class="cls-3" d="M2050.62,233.86a63.6,63.6,0,0,1-1.74-6.24c-1.43-9.43,0-11.64,9.55-13.74,13.2-2.91,26.41-5.83,39.7-8.34a17.87,17.87,0,0,1,9.71.85A64.27,64.27,0,0,0,2137,211c8.15-.46,16.34-.09,24.51-.09l.44,2.12c-2.54.85-5,1.92-7.61,2.53-8,1.89-16.15,3.42-24.15,5.42-14.15,3.52-28.08,8.2-42.41,10.65C2075.84,233.65,2063.49,233.18,2050.62,233.86Z"/><path class="cls-3" d="M2394.44,93.19c-3.54,11.34-6.84,22.76-10.67,34-5.22,15.36-10,31-23,43.31l-14.9-6.57C2357.67,136.31,2375.31,113.89,2394.44,93.19Z"/><path class="cls-1" d="M2375.51,370l2,26.61c-2.8.57-5,1.31-7.13,1.4-7.9.33-15.81.35-23.71.67-3.5.14-6.39-.3-8.7-3.46-1.88-2.58-4.52-4.62-6.32-6.41Z"/><path class="cls-1" d="M2681.84,237a53.29,53.29,0,0,1-16.78,23.21C2662.32,250.34,2668.38,241.8,2681.84,237Z"/><path class="cls-1" d="M2599,259.69l7.84-26.8,1.69,0,5.85,21.06C2609.65,258.28,2605.08,259.69,2599,259.69Z"/><path class="cls-1" d="M2726.08,282.17c-.24-8.51-.62-15.63-.58-22.75,0-6.31,4.79-9.2,9.74-11.24,1.48-.61,5.41.67,5.61,1.62,1.4,6.68,4.17,13.39,1.34,20.37C2739.64,276.43,2735.17,280.26,2726.08,282.17Z"/><path d="M2381.55,292.27c-4,.1-8.37-3.13-12-7.65-4.74-5.87-4.8-8.62-.32-12.56,5.85-5.15,11-5.36,15.17.42a38.38,38.38,0,0,1,6.06,13.21C2391.63,290.56,2388.7,292.95,2381.55,292.27Z"/><path d="M2287.84,308.87c10.71.07,18.39,9.28,16.13,17.62-.46,1.7-3.23,4.19-4.61,4-6.29-.89-12.72-2.7-16.37-8.29-1.52-2.33-1.57-6.6-.53-9.32C2283.29,310.72,2286.79,309.59,2287.84,308.87Z"/><path d="M229.14,700.9c-10.18-2.18-.56-175.34-15.35-245.19-6.12,0-11.65.14-17.17,0-5.31-.17-10.6-.66-15.72-1-2.39,1.81-5,5.3-7.1,5.05-4.25-.49-6.44-4.5-6.42-8.86,0-6.62,0-13.32,1-19.83.35-2.26,3.33-5.05,5.7-5.89,4.92-1.73,10.25-2.31,16.69-3.62-.73-6.15-.87-12.78-2.38-19.08-5.06-21.13-6.59-42.71-9.13-64.18-1.39-11.73,3.33-21.38,8.43-31.14,2.17-4.15,3.77-8.1,2.47-13.25-5.09-20.06-1.34-39.59,4.56-58.88,1.24-4.06,2.57-8.1,4.41-13.87-6.08,1.5-10.71,3.33-15.45,3.67-17.76,1.28-34.64,6.24-51.55,11.28-21.53,6.41-43.61,8.38-66,7.59C55.6,243.3,48,236.17,47.59,225.56c-.28-7.51-.05-15-.05-22.42C62,195.55,77,187.2,92.37,179.75c10.14-4.9,21-8.39,31.39-12.72A134.52,134.52,0,0,0,140.92,159c6-3.58,12-3.4,18.26-1.52,18.43,5.56,36.86,11.1,55.25,16.76,3.68,1.13,6.95,1.25,10.5-.72,7.85-4.35,15.92-8.3,23.88-12.46a112.13,112.13,0,0,1,42.87-12.34c6.15-.52,10.22-3,13.82-8.16q21.75-31.1,44.35-61.61C355,72,361.21,65.86,366.63,59.12c2.85-3.55,4.79-7.82,7.62-11.4,1.7-2.16,4.1-4.68,6.56-5.18,18.86-3.84,37.83-7.16,56.74-10.77,7.09-1.35,13.83-1.12,19.93,3.21,5.72,4.06,5.83,8.45.37,12.73a27,27,0,0,1-4.13,2.8c-11.09,5.76-18.64,14.7-23.77,25.94-6.88,15.08-15.25,29.4-18.24,46.2a151,151,0,0,1-15.06,44.18c-2.31,4.38-5.23,8.43-8.2,13.16,6.69,6.44,13.63,13,20.45,19.71a64.7,64.7,0,0,1,16.36,25.93,219.19,219.19,0,0,1,11.43,69.58c0,13-2.13,25.85-8.47,37.62-1,1.91-2.19,4.92-1.4,6.45,5.71,11.09,3,22.91,3.3,34.4.23,8.28-1,16.59-1.26,24.89-.33,9.1,1,10.07,10.38,9.49s18.59-1.14,27.88-1.14a22.6,22.6,0,0,1,10.42,2.6,16.9,16.9,0,0,1,5.67,25c-1.09,1.5-4.15,2.9-5.78,2.46-6.5-1.77-12.5.4-18.69,1.28-3.61.51-7.29.46-10.92.79-2.89.26-5.77.71-8.92,1.11,0,12.72-.27,24.66.07,36.58.46,16.29,1.5,32.56,2.06,48.85.78,22.62,1.15,45.25,2,67.86.94,23.61,2.2,47.21,3.56,70.8.32,5.62,1.78,11.17,2.33,16.8a43.89,43.89,0,0,1-.32,9.82c-.44,3.4-2.81,6.06-6.13,4.84-5.78-2.12-7.78,1.73-10.34,5.18C279.47,700.9,284,712.67,229.14,700.9Zm-7.38-485.73c-1.74,1.1-3.77,3.34-6,3.63-5.92.74-7.7,4.73-8.69,9.49-1.42,6.83-3,13.67-3.74,20.59C202,261.42,202,274,205.72,286.34a42.79,42.79,0,0,0,6.26,0c17.92-2.83,33.47,2.34,47,14,4.88,4.22,7.1,9.74,4.77,16.13-3,8.3-6.38,16.48-9.76,25.16,30.24,36.65,82.68,42.46,117.44,13.47-2.39-3.61-5.46-6.92-7-10.83-2.34-6-6.43-9.35-11.95-12.32-3.85-2.07-9.56-3.28-10.59-10.77L356.23,324c2.57-3.94,4.82-8,7.73-11.59,1.44-1.76,4.09-2.51,6.2-3.72.9,2.27,2.89,4.75,2.49,6.76-1.08,5.47-3.17,10.75-4.55,15.13L378.79,354c5.73-1.1,9-5.8,12.67-10,2.17-2.51,3.69-6,6.37-7.58,7.72-4.62,9.88-12.27,12-19.95,6.75-25,6.29-50-.21-74.9-2.59-9.89-5.56-20-10.39-28.9-7-13-17.85-23.3-30.12-31.39-6.71-4.42-13.17-10.92-23.18-8.15-4.91,1.36-9.26-4.69-8-10a27.33,27.33,0,0,1,3.09-7.33c7.22-12.3,14.13-24.82,22-36.72C379,94.83,397.2,72.41,420.92,55a85.51,85.51,0,0,0,7.17-6.58,278.58,278.58,0,0,0-37.33,6.46,10.88,10.88,0,0,0-5.6,3.6C373.33,73.27,361.53,88.08,350,103.11c-9.3,12.14-18.25,24.55-27.22,36.94-3.65,5.05-8,9.85-6.29,17.12.68,2.93-1.28,4.83-4.65,5.07-7.76.55-15.65.64-23.24,2.13-18.76,3.67-36.31,10.41-51.18,22.92-5.63,4.73-18.34,4.07-23.7-.84a27.69,27.69,0,0,0-8.88-5.72c-15-5.43-30-10.56-45.15-15.55-2.31-.76-5.52-1.1-7.53-.09-8.57,4.31-16.81,9.28-25.26,13.85a84,84,0,0,1-9.1,3.93c-8,3.16-16.07,6.07-23.95,9.47-2.19.94-3.81,3.22-5.69,4.88a21.94,21.94,0,0,0,11.07-.74c5.58-1.6,11.23-2.26,16.61.15,11.8,5.29,24.27,4.36,36.4,3.2,18.5-1.77,36.22,3.87,54.44,4.12a24.48,24.48,0,0,1,6.84,1.35C217.89,206.67,221.37,209,221.75,215.18Zm206.83,405.9c.11-2.13.33-4.11.29-6.08-.44-20.63-1.19-41.26-1.35-61.89-.27-34.59-.14-69.18-.24-103.77,0-11.66-3.59-15.1-15.05-14-14.5,1.37-29,2.74-43.42,4.9-9.74,1.47-19.24,4.53-28.93,6.44-4.16.82-8.73,1.42-12.79.57-15.85-3.32-31.1,2.06-46.66,2.63-9.26.34-18.46,2.16-27.7,3.12-9.53,1-19.08,1.75-29.5,2.69.82,4,1,7.41,2.18,10.34,5.66,13.69,7.88,28.05,9.69,42.64C239.48,544,243.52,579.29,243,615c-.08,5.11,1.18,10.25,1.77,15a20.87,20.87,0,0,0,3.28.42c18.14-1.87,36.24-4.38,54.42-5.49,15.57-1,31.24-.11,46.86-.47,7.93-.18,15.83-1.21,23.74-1.94,8.25-.76,16.49-2.14,24.75-2.33C407.66,620,417.57,620.72,428.59,621.07Zm1,39.57c-1.54.12-3.14.35-4.73.35-9.92,0-19.95.89-29.73-.26a273.35,273.35,0,0,0-65.37-.3c-7.53.92-14.87,3.43-22.4,4.37a225.14,225.14,0,0,1-27.75,1.91c-10.87,0-21.75-1-32.24-1.54-3.92,7-2.12,13.33-1.4,19.5.83,7.14,2.3,8.74,9.37,9.1,25.18,1.28,50.29,4.28,75.56-.09,23.54-4.07,47.27-7,70.94-10.35,5.26-.74,11,.1,15.8-1.61s9.16-5.75,13.41-8.58c0-3.46.1-6.45-.06-9.42C431,662.82,430.23,661.95,429.61,660.65ZM241,420c13.64,1.73,57.42-.86,63.78-3.49l2.16-30.57c-22.79-8.18-47.61-14.54-63.34-35.34l-17.18,3.64C227.78,377,240.62,397,241,420Zm177,1.92V352.44l-23.3,11.24,3.64,42.9c-10.79.88-20.48,1.66-30.16,2.46-2,.16-4.17,0-5.91.71a14.24,14.24,0,0,0-5.82,4.21c-4.13,5.76-9.1,6.42-13.61,1a18.34,18.34,0,0,1-3.72-7c-2.21-8.77-9.3-10.65-16.59-12.07-5.42-1.06-7.07.84-6.87,6.49.34,9.76,3,19,6.52,28,2.56,6.65,4.24,7.1,11.3,5.52,12-2.67,24-5.16,36.08-7.12C385.16,426.26,400.93,424.3,417.92,421.92ZM224.4,338.61c5.64-4.49,12.77-14.54,15.47-21.66,4.84-12.81-.83-19.89-14.59-18.17a26.54,26.54,0,0,0-5.84,1.24c-14.4,5.29-19.66,18.79-26.82,30.47-1,1.56.23,4.5.56,6.78,1.75,11.81,2.86,23.78,5.48,35.4,3.76,16.69,8.63,33.13,13.12,50l12.17-.6a23.26,23.26,0,0,0,0-3.31c-4.47-20.73-9.42-41.37-13.24-62.22-1.59-8.67-.6-17.8-5.82-25.65-.21-.31.33-1.12.64-2C214.85,325.94,217.61,336.62,224.4,338.61ZM428.87,637a15.2,15.2,0,0,0-3.56-1.06c-16.21-.89-32.39-3.19-48.55,1.41-5.63,1.6-11.87,1.6-17.81,1.47-12.92-.29-25.84-1.66-38.75-1.59s-25.82-1.07-38.39,3.09c-2.09.69-4.59.09-6.9.2-9.85.46-19.7,1-30.23,1.49l1,10.24c11.79.42,23,1.36,34.22,1.07,9.25-.24,18.49-1.65,27.67-3,19.44-2.9,39-3.92,58.62-4.15,9.24-.11,18.49,1.23,27.74,1.31,9.92.08,19.86-.24,29.74-1C428.84,646.06,431.36,642.83,428.87,637ZM60.62,233.86c12.87-.68,25.22-.2,37.14-2.24,14.32-2.45,28.26-7.13,42.41-10.65,8-2,16.12-3.53,24.15-5.42,2.59-.61,5.08-1.67,7.61-2.53l-.44-2.12c-8.17,0-16.37-.37-24.51.09a64.27,64.27,0,0,1-29.15-4.6,17.87,17.87,0,0,0-9.71-.85c-13.28,2.52-26.49,5.43-39.7,8.34-9.5,2.09-11,4.31-9.55,13.74A63.6,63.6,0,0,0,60.62,233.86ZM404.44,93.19c-19.13,20.69-36.77,43.12-48.54,70.76l14.9,6.57c13-12.29,17.75-28,23-43.31C397.6,116,400.91,104.53,404.44,93.19ZM385.51,370l-43.89,18.8c1.8,1.79,4.44,3.83,6.32,6.41,2.31,3.17,5.19,3.6,8.7,3.46,7.9-.32,15.81-.34,23.71-.67,2.18-.09,4.33-.83,7.13-1.4Z"/><path class="cls-1" d="M221.75,215.18c-.39-6.19-3.87-8.51-8.21-9.87a24.48,24.48,0,0,0-6.84-1.35c-18.22-.25-35.94-5.89-54.44-4.12-12.13,1.16-24.59,2.09-36.4-3.2-5.38-2.41-11-1.75-16.61-.15a21.94,21.94,0,0,1-11.07.74c1.88-1.66,3.5-3.94,5.69-4.88,7.88-3.4,16-6.31,23.95-9.47a84,84,0,0,0,9.1-3.93c8.45-4.56,16.69-9.53,25.26-13.85,2-1,5.22-.67,7.53.09,15.12,5,30.19,10.12,45.15,15.55a27.69,27.69,0,0,1,8.88,5.72c5.36,4.91,18.07,5.57,23.7.84,14.88-12.5,32.43-19.24,51.18-22.92,7.6-1.49,15.48-1.58,23.24-2.13,3.36-.24,5.33-2.14,4.65-5.07-1.69-7.27,2.63-12.07,6.29-17.12,9-12.39,17.92-24.8,27.22-36.94,11.51-15,23.3-29.84,35.13-44.62a10.88,10.88,0,0,1,5.6-3.6,278.58,278.58,0,0,1,37.33-6.46A85.51,85.51,0,0,1,420.92,55C397.2,72.41,379,94.83,363,119.1c-7.85,11.89-14.76,24.41-22,36.72a27.33,27.33,0,0,0-3.09,7.33c-1.26,5.27,3.1,11.31,8,10,10-2.77,16.47,3.73,23.18,8.15,12.27,8.09,23.08,18.41,30.12,31.39,4.83,8.91,7.81,19,10.39,28.9,6.5,24.87,7,49.94.21,74.9-2.08,7.68-4.24,15.33-12,19.95-2.67,1.6-4.2,5.07-6.37,7.58-3.63,4.22-6.95,8.91-12.67,10l-10.7-23.42c1.38-4.38,3.47-9.65,4.55-15.13.4-2-1.59-4.49-2.49-6.76-2.1,1.21-4.76,2-6.2,3.72C361,316,358.8,320.05,356.23,324l-14.32-2.84c1,7.49,6.74,8.7,10.59,10.77,5.52,3,9.61,6.3,11.95,12.32,1.52,3.91,4.58,7.22,7,10.83-34.76,29-87.2,23.18-117.44-13.47,3.39-8.68,6.75-16.85,9.76-25.16,2.33-6.4.11-11.92-4.77-16.13-13.52-11.67-29.07-16.85-47-14a42.79,42.79,0,0,1-6.26,0C202,274,202,261.42,203.28,248.88c.72-6.92,2.32-13.76,3.74-20.59,1-4.77,2.78-8.75,8.69-9.49C218,218.52,220,216.28,221.75,215.18Zm169.79,77.1c7.15.68,10.09-1.71,8.89-6.58a38.38,38.38,0,0,0-6.06-13.21c-4.21-5.77-9.32-5.56-15.17-.42-4.48,3.94-4.42,6.69.32,12.56C383.18,289.15,387.56,292.37,391.55,292.27Zm-93.71,16.6c-1,.72-4.55,1.85-5.37,4-1,2.72-1,7,.53,9.32,3.65,5.59,10.08,7.4,16.37,8.29,1.38.2,4.15-2.29,4.61-4C316.23,318.15,308.55,308.94,297.84,308.87Z"/><path class="cls-1" d="M428.59,621.07c-11-.36-20.92-1.09-30.81-.86-8.26.19-16.5,1.56-24.75,2.33-7.91.73-15.82,1.76-23.74,1.94-15.62.36-31.29-.49-46.86.47-18.18,1.11-36.28,3.62-54.42,5.49a20.87,20.87,0,0,1-3.28-.42c-.59-4.78-1.85-9.91-1.77-15,.56-35.7-3.47-71-7.84-106.36-1.8-14.59-4-28.95-9.69-42.64-1.21-2.93-1.36-6.3-2.18-10.34,10.42-.94,20-1.7,29.5-2.69,9.25-1,18.44-2.78,27.7-3.12,15.56-.57,30.81-6,46.66-2.63,4.06.85,8.63.25,12.79-.57,9.69-1.91,19.18-5,28.93-6.44,14.39-2.17,28.92-3.54,43.42-4.9,11.47-1.08,15,2.37,15.05,14,.1,34.59,0,69.18.24,103.77.16,20.63.9,41.26,1.35,61.89C428.92,617,428.69,618.94,428.59,621.07Z"/><path class="cls-1" d="M429.61,660.65c.62,1.3,1.36,2.17,1.41,3.07.15,3,.06,6,.06,9.42-4.26,2.83-8.44,6.82-13.41,8.58s-10.54.87-15.8,1.61c-23.67,3.32-47.4,6.28-70.94,10.35-25.27,4.37-50.39,1.37-75.56.09-7.07-.36-8.54-2-9.37-9.1-.72-6.17-2.52-12.5,1.4-19.5,10.49.54,21.37,1.54,32.24,1.54a225.14,225.14,0,0,0,27.75-1.91c7.53-.94,14.87-3.45,22.4-4.37a273.35,273.35,0,0,1,65.37.3c9.78,1.16,19.81.27,29.73.26C426.47,661,428.07,660.77,429.61,660.65Z"/><path class="cls-1" d="M241,420c-.34-23-13.18-43-14.58-65.75l17.18-3.64c15.73,20.8,40.55,27.16,63.34,35.34l-2.16,30.57C298.39,419.14,254.61,421.73,241,420Z"/><path class="cls-1" d="M417.92,421.92c-17,2.39-32.75,4.34-48.43,6.89-12.1,2-24.12,4.45-36.08,7.12-7.07,1.58-8.74,1.13-11.3-5.52-3.47-9-6.17-18.21-6.52-28-.2-5.66,1.45-7.55,6.87-6.49,7.28,1.42,14.38,3.3,16.59,12.07a18.34,18.34,0,0,0,3.72,7c4.5,5.37,9.47,4.71,13.61-1a14.24,14.24,0,0,1,5.82-4.21c1.74-.76,3.92-.55,5.91-.71,9.69-.8,19.37-1.58,30.16-2.46l-3.64-42.9,23.3-11.24Z"/><path class="cls-1" d="M224.4,338.61c-6.79-2-9.55-12.67-18.89-9.78-.31.92-.85,1.73-.64,2,5.22,7.85,4.23,17,5.82,25.65,3.82,20.85,8.77,41.49,13.24,62.22a23.26,23.26,0,0,1,0,3.31l-12.17.6c-4.48-16.86-9.35-33.3-13.12-50-2.62-11.62-3.73-23.58-5.48-35.4-.34-2.28-1.52-5.22-.56-6.78,7.16-11.67,12.42-25.18,26.82-30.47a26.54,26.54,0,0,1,5.84-1.24c13.76-1.72,19.43,5.37,14.59,18.17C237.17,324.07,230,334.12,224.4,338.61Z"/><path class="cls-3" d="M428.87,637c2.5,5.79,0,9-5.18,9.43-9.88.79-19.83,1.1-29.74,1-9.25-.07-18.5-1.42-27.74-1.31-19.6.23-39.18,1.25-58.62,4.15-9.18,1.37-18.42,2.78-27.67,3-11.2.29-22.43-.64-34.22-1.07l-1-10.24c10.53-.52,20.38-1,30.23-1.49,2.31-.11,4.81.49,6.9-.2,12.57-4.16,25.57-3,38.39-3.09s25.83,1.3,38.75,1.59c5.94.13,12.18.14,17.81-1.47,16.16-4.6,32.34-2.29,48.55-1.41A15.2,15.2,0,0,1,428.87,637Z"/><path class="cls-3" d="M60.62,233.86a63.6,63.6,0,0,1-1.74-6.24c-1.43-9.43,0-11.64,9.55-13.74,13.2-2.91,26.41-5.83,39.7-8.34a17.87,17.87,0,0,1,9.71.85A64.27,64.27,0,0,0,147,211c8.15-.46,16.34-.09,24.51-.09l.44,2.12c-2.54.85-5,1.92-7.61,2.53-8,1.89-16.15,3.42-24.15,5.42-14.15,3.52-28.08,8.2-42.41,10.65C85.84,233.65,73.49,233.18,60.62,233.86Z"/><path class="cls-3" d="M404.44,93.19c-3.54,11.34-6.84,22.76-10.67,34-5.22,15.36-10,31-23,43.31l-14.9-6.57C367.67,136.31,385.31,113.89,404.44,93.19Z"/><path class="cls-1" d="M385.51,370l2,26.61c-2.8.57-5,1.31-7.13,1.4-7.9.33-15.81.35-23.71.67-3.5.14-6.39-.3-8.7-3.46-1.88-2.58-4.52-4.62-6.32-6.41Z"/><path d="M391.55,292.27c-4,.1-8.37-3.13-12-7.65-4.74-5.87-4.8-8.62-.32-12.56,5.85-5.15,11-5.36,15.17.42a38.38,38.38,0,0,1,6.06,13.21C401.63,290.56,398.7,292.95,391.55,292.27Z"/><path d="M297.84,308.87c10.71.07,18.39,9.28,16.13,17.62-.46,1.7-3.23,4.19-4.61,4-6.29-.89-12.72-2.7-16.37-8.29-1.52-2.33-1.57-6.6-.53-9.32C293.29,310.72,296.79,309.59,297.84,308.87Z"/></svg>