<svg id="Layer_1" data-name="Layer 1" xmlns="http://www.w3.org/2000/svg" viewBox="0 0 3656 3785.91"><defs><style>.cls-1{fill:#fff;}.cls-2{fill:#aaa;}.cls-3{fill:#ef5a54;}</style></defs><title>Artboard 1@1x</title><path class="cls-1" d="M750.66,2207.87c6-8.44,7.11-17.46,3.34-26.56a128.6,128.6,0,0,0-11.28-22c-4.95-7.44-5.13-11.22,2.67-19.39,5.77,3.24,12.41,5.86,17.7,10.14,17.37,14,34.44,28.48,43.64,49.71,4.67,10.79,4.51,10.77-4.23,18.51A50.15,50.15,0,0,1,778.67,2230c-7.19,1.45-13.19-.12-17.45-6.47Z"/><path class="cls-1" d="M1549,592.52l-6.09,2.93,12.41,16.91-5,2.69c1.16,7.48.68,14.6,3.41,20.14,8.8,17.84,5.92,36.11,3.45,54.3-3.71,27.36-8.12,54.63-12.52,81.89-1.1,6.83-3.31,13.49-5,20.24a23.38,23.38,0,0,0-1,5.73c.3,19.13-4.7,37.51-7.78,56.17-4.39,26.63-11.2,52.63-18.93,78.46-2.94,9.83-3.62,20.34-6.61,30.15a80.08,80.08,0,0,1-9.94,20.4c-6.42,9.73-9.12,20.68-12.19,31.56-5.5,19.5-10.09,39.33-21.22,56.71-6.45,10.08-13.75,19.71-19.25,30.29-9.74,18.7-22.3,35.46-34.89,52.11-7.14,9.44-17.11,16.7-25,25.67-20.09,23-44.88,39.29-71.58,53.43-12.91,6.84-24.53,16.07-37.26,23.28-37.65,21.32-75.22,42.81-113.51,62.94-20.5,10.78-43.69,13.7-66.52,16.57-24.75,3.11-49.55,5.79-74.31,8.77-24.1,2.9-48.27,5.4-72.25,9.13-15,2.34-29.68,6.94-44.61,10-25.73,5.24-51.23,11.76-77.76,12.33-19,.41-36.89-4.79-55.15-8.33-13-2.52-26.15-4.82-39.15-7.56a106.11,106.11,0,0,1-16.19-4.92c-24.81-9.57-50-18.09-73.08-31.89-18.84-11.29-38.57-21.09-57.3-32.55-26.94-16.49-54.39-32.19-79.66-51.4-14.54-11.06-30.77-19.87-45.6-30.57-34.29-24.74-68.57-49.57-99.06-79.06-21-20.27-38-43.61-52.46-68.86-5-8.66-10.42-17.07-15-25.93-13.62-26.34-24.65-53.81-34.64-81.71-2.35-6.56-4.75-13.13-7.5-19.53-11-25.76-18.07-52.79-26.16-79.52-6.5-21.48-9.47-43.55-13.08-65.52-3.31-20.12-3.14-40.41-1.11-60.69a30.15,30.15,0,0,0,.15-4c-.67-20.11,3.43-39.65,7.05-59.25a93.26,93.26,0,0,0,1.26-9.88c1.56-20.62,5.5-40.85,10-61,1.51-6.79,3.94-13.38,6.16-20a489.45,489.45,0,0,1,30.5-71.49,282.65,282.65,0,0,0,18.75-43.89c6.91-21.3,18.54-39.57,31.76-57.18,5.38-7.16,10.27-14.69,15.41-22,7.22-10.34,14.24-20.83,21.74-31,11.86-16,24-31.84,36.11-47.7,5.65-7.4,11.32-14.79,17.2-22,8.2-10.06,16.09-20.45,25-29.8a317.72,317.72,0,0,1,30.65-28.35c18.43-14.75,37.86-28.25,56.34-42.94,32.22-25.62,67.6-44.63,108.08-53.2,28.61-6.05,57.25-12.2,86.1-16.9,29.93-4.87,59-12.86,88.13-20.89,8.22-2.27,16.59-4.15,25.52-3.25,6.76.68,13.75-.8,20.62-1.46a4.89,4.89,0,0,0,2.4-1.62c8-7.92,18.64-10.34,29-12.22,17.66-3.2,35.49-5.71,53.36-7.44a410.2,410.2,0,0,1,42.79-1.51c18.64.15,37.28.89,55.89,1.92a169.64,169.64,0,0,1,23.65,3.48c23.14,4.61,46.45,8.66,69.27,14.55,17.3,4.47,34,11.26,50.87,17.36,7.49,2.71,15,5.64,21.93,9.59,11.78,6.75,23.18,14.19,34.5,21.69,14.69,9.73,28.58,20.82,43.84,29.5,24.74,14.07,41.77,35.84,59.59,56.8,9.66,11.36,17.38,24.36,26.29,36.38,5.54,7.47,11.83,14.37,17.53,21.73,10.58,13.67,21.48,27.13,31.28,41.34,10.56,15.3,20,31.4,30,47.07a13.91,13.91,0,0,1,2.4,10.84,16.86,16.86,0,0,0,6.12,16c5,4,8.82,9.53,14.21,15.55L1454,404c10.58,13.33,21.24,26.63,31.69,40.07,1.77,2.28,3.73,5.22,3.76,7.88.05,5.59,3,9.2,6.27,13,11.45,13.43,20.82,28.09,26.74,44.89,1.63,4.61,5.3,8.49,7.07,13.07,5.71,14.77,12.84,29.06,14.43,45.25C1544.71,576.19,1547.17,584,1549,592.52Z"/><path class="cls-1" d="M815.49,2230.82c2.78-6.22,5.92-12.11,8-18.35.92-2.82.38-6.64-.76-9.51-2.67-6.75-6.1-13.19-9.34-20,14.45-8.58,29.07-16.44,42.81-25.64,16.26-10.88,31.74-22.92,47.56-34.45,3.76-2.74,7.43-5.61,11.28-8.2,18.64-12.51,32.63-29,43.64-48.53,13.11-23.24,24.7-47.13,33.76-72.21,1.67-4.61,2.4-9.57,3.91-15.81,4.75,2.58,9.28,4.93,13.71,7.47,28,16.07,57.61,26.47,90.23,29.32,23.26,2,44.9-2,66.43-9.41a55.21,55.21,0,0,1,6.21-1.22c0,6.81,0,12.94,0,19.07.23,25.77,6.95,49.9,18.41,72.85,5.35,10.7,9.59,22.08,16,32.1,9.1,14.25,19.5,27.71,29.78,41.16,7.89,10.32,15.67,20.6,21.44,32.34,5.59,11.36,4,20.43-5.82,28.23-11.37,9.07-19.2,8.92-27.59-3-11.11-15.72-21-32.32-31.07-48.76-5.54-9.06-9.9-18.85-15.62-27.79-7.26-11.34-12.15-23.56-16.2-36.27-2.63-8.24-3.2-8.54-11.76-10.26-.46,1-1.46,2.2-1.41,3.32.68,14.36-3.72,27.41-9.82,40.14-10.2,21.28-20,42.77-30.41,63.92-3.51,7.1-8.95,13.23-12.87,20.16-4.89,8.62-9.19,17.59-13.63,26.46-2.76,5.5-5.3,11.11-7.95,16.67l-2.41-.34c-1.81-7.24-4.11-14.41-5.28-21.76a27.6,27.6,0,0,0-8.51-16.24c-4.51-4.38-8.35-9.48-12.29-14.42-5.9-7.41-13.84-7.82-21-1.8-11.12,9.31-17.61,21.19-22.5,34.64-7.12,19.6-9.93,39.93-12.52,60.38a17.32,17.32,0,0,1-.78,2.7C933.28,2330.68,841.77,2293.05,815.49,2230.82Z"/><path class="cls-1" d="M1093.36,1506.87c1.43,24.85-1.21,49.65-1.26,74.47,0,24.59,1.09,49.27,3.35,73.77s-1.1,49.81,5.76,75.53c15.13-5.21,28.31,1.85,42.13,2.37,2.79.1,5.47,2,8.3,2.77,5,1.29,10,2.79,15.11,3.13,1.65.11,5.18-3.33,5-4.84-.9-8.05,4.78-13,8.33-18.68,5.6-9,11.39-18.08,18.32-26.06,18.71-21.57,35.17-45.27,57.68-63.32,7.74-6.21,16.36-11.34,24.6-16.93,2.47-1.68,5.53-2.78,7.46-4.92,12.21-13.61,29.68-18.72,44.6-27.91,6.72-4.14,14.51-4.46,22.28-4.11,3.87.17,6.44,1.86,7,5.74.57,4.26,1.81,8.82.89,12.82-3.42,14.87-7.26,29.67-11.71,44.26-1.35,4.44-5.17,8.12-7.86,12.15l-2.42-.48c-.89-5-1.88-10-2.65-15s-.81-10-2.14-14.75a11.62,11.62,0,0,0-5.38-6.55c-3-1.5-4.07,1.89-5.81,3.89-1.51,1.73-4.41,2.64-6.85,3.11-18.81,3.63-34.9,12.6-48.95,25.23-20.18,18.14-36.44,39.63-51.65,61.95-6.73,9.88-13.46,19.8-19.6,30a54.83,54.83,0,0,0-5.66,14.79c-1.46,5.82-.79,10.62,4,16.09,8.77,10,13.61,22.21,16,35.84,4.35,24.64,7.37,49.34,7.81,74.31a178.64,178.64,0,0,1-2.07,29.74c-1.88,12.43-3.28,25-8.56,36.77-7.85,17.51-19.11,32.56-35.16,42.51a112.27,112.27,0,0,1-58.67,17.3,166.89,166.89,0,0,1-85.89-22.43c-12.59-7.23-25.44-14.32-35.9-25-8.36-8.55-14.57-17.88-18.31-29.26-8.3-25.21-13-50.93-11.17-77.5.94-13.6,7.29-25.53,14.52-36.71,10.55-16.31,23.53-30.41,39.79-41.42,10.17-6.89,19.92-14.43,29.68-21.91a26,26,0,0,0,6.62-7.37c1.12-1.94,1.25-4.82.93-7.15-.57-4.14-2.55-8.16-2.68-12.27-1.15-37-6.7-73.53-13.69-109.81a42.48,42.48,0,0,1,4.13-29c10.85-20.63,22.48-40.77,36.4-59.53,3.92-5.28,7.47-10.84,11.19-16.27ZM1069.22,1978c2.76-11.3,8.28-18.93,19.15-21.76a9.61,9.61,0,0,0,5-3.12c2.53-3.38,5.11-7,6.46-10.87.59-1.7-1.28-4.92-2.92-6.58-2.43-2.46-4.84-.56-6.82,1.45s-3.93,4.59-6.29,6.35c-7,5.23-11.27,4-16.09-3.46a20.8,20.8,0,0,0-7.7-7.08c-4-2-6.85.58-5.3,4.71,1.73,4.62,3.48,9.82,6.85,13.08,5.05,4.88,4.48,8.92,1.23,14-1.75,2.72-3.06,5.72-4.63,8.72-14.27-5.68-21.17-19.92-33.69-27.46-2.4,6.56-2.6,6.68-.1,10.91,14,23.72,35,35.53,62.35,35.91,3.74.05,7.82-1.63,11.18-3.51,4.61-2.59,5.82-7.42,3.42-11-3-4.54-6.52-3.18-10.24-.68C1084.06,1982.26,1076.85,1981.89,1069.22,1978Zm92.49-55.79-.72-.09a23.77,23.77,0,0,1,.43-2.95c1.06-3.93.59-7.54-3.4-9.32-3.81-1.7-7.4-.24-9.63,3.08-3.28,4.89-6.76,9.83-8.91,15.24-2.26,5.68,2.87,12.87,9,14.11,4.66.94,10.65-3,11.84-8.36C1161.17,1930.09,1161.27,1926.11,1161.71,1922.2ZM1029,1886l.81-.29c-1.24-4.37-2.12-8.9-3.84-13.07-1.56-3.76-5-4.21-8.34-2.23-4.16,2.45-11.48,16.87-9.52,23,1.51,4.7,4.94,8,9.93,8.41,3.93.34,9.12-3.42,10.24-7.89C1028.91,1891.37,1028.78,1888.65,1029,1886Z"/><path class="cls-1" d="M1153.39,2281.5c-.31,9.22-3.8,14.11-9.62,17.56a75.89,75.89,0,0,1-6.9,4c-3.37,1.54-5.85,3.58-4.57,7.6s3.56,7.2,8.5,6.75c1.95-.18,3.88-.51,5.71-.76,3.91,8.64,3.31,12.14-3.73,16.93a60,60,0,0,1-13.1,6.86c-8,2.88-9.56,2.12-14.32-5.15-2.29-3.49-5.14-5-7.79-4.29-4.19,5.17-6.93,10.16-11.07,13.28-6.31,4.75-10.8,3.14-16.41-2.48-6.84-6.85-8.14-14.28-6.19-23.62,2.62-12.52,3.92-24.91,12.47-35.73,5.38-6.81,7.53-16.15,11.27-24.28,1.92-4.17,3.2-9.44,6.49-12,4.13-3.18,9.91-4.69,15.2-5.72,4-.77,8.34.37,12.92.68,0,10.6-2,19.34-8.86,26.5-2.56,2.68-5.39,5.47-3.1,9.53a10.43,10.43,0,0,0,10,5.49c4-.17,7.92-.89,11.89-1.12C1145.64,2281.35,1149.14,2281.5,1153.39,2281.5Z"/><path class="cls-1" d="M874,1847.68l22.14-14.23c12.36,16.85,28.49,28.7,47,39.24,5.54,23.42,7.55,48.86,21.81,72.63-3.39-1.11-5.1-1.42-6.57-2.19-21.43-11.16-36.76-29.14-52.24-46.93-4.57-5.26-9.37-10.38-13.35-16.07-3.38-4.82-5.63-10.41-8.57-15.55C881.05,1859.17,877.72,1853.9,874,1847.68Z"/><path class="cls-2" d="M1324.27,1630.36c-1.53,1.85-3,3.79-4.61,5.54-9.53,10.15-19.93,19.62-28.5,30.53-14.36,18.27-27.81,37.28-41.16,56.32-5.12,7.3-9,15.49-13.27,23.38-1.73,3.22-3.79,5.16-7.72,5.06-7.28-.19-14.56-.06-23.07-.06,1-3.2,1.32-5.8,2.54-7.88,4-6.88,8-13.88,12.69-20.27,9.88-13.33,20.24-26.31,30.41-39.43,2.44-3.15,4.8-6.39,7.42-9.39,8.29-9.49,15.82-19.9,25.27-28.06,10.75-9.29,24-15,37.93-18Z"/><path class="cls-1" d="M1026,2286.09l1.09-10,21.84,11.74,6.43-11.57c4,8.61,5.39,16.3,1.58,24.38-1.72,3.64-3.27,7-.95,11.28,1.1,2,.68,5.11.34,7.63-.4,2.93-1.66,5.74-2.24,8.66-2.73,13.71-9.68,20.36-23.24,23-7.2,1.38-12.87-.68-16.05-6.91-3.27-6.41-6.55-13.25-7.61-20.24-2.13-14,2.26-27.44,4.72-41.32l12.63,5.12c-8.77,13.16-11.44,27.35-6.24,42.44a24.33,24.33,0,0,0,7,10.28c4.74,4,10,2.61,13.5-2.55a28.88,28.88,0,0,0,3.65-7c3.9-11.94,3.22-24.31,1.63-36.38C1042.73,2284.67,1034.54,2281.46,1026,2286.09Z"/><path class="cls-1" d="M888.42,1788.59c4.28,6.42,3.71,13.13,3.29,19.7a10.58,10.58,0,0,1-2.6,6.11c-8.46,9-18.95,15.23-29.4,21.54-7.85-4.92-9.9-12.9-13.32-19.85-.67-1.36-.15-4.41,1-5.39,11.68-10.31,24.49-18.78,39.81-22.77C887.39,1787.87,887.73,1788.22,888.42,1788.59Z"/><path class="cls-2" d="M1026,2286.09c8.58-4.63,16.77-1.42,18.08,8.47,1.59,12.07,2.27,24.43-1.63,36.38a28.88,28.88,0,0,1-3.65,7c-3.48,5.16-8.76,6.51-13.5,2.55a24.33,24.33,0,0,1-7-10.28c-5.2-15.08-2.53-29.27,6.24-42.44Z"/><path class="cls-1" d="M875.48,1399.23c-2.62-9.53-2.56-10.9,2.92-12.22,19.93-4.76,40-9.06,60.66-13.69V1391Z"/><path class="cls-1" d="M1035.85,2230.14c9.36,8.29,10.13,9.62,13.1,22l-5.59,9.58c-4.67-18.95-4.67-18.95-15-21.1-1.49,3.37-3.31,6.83-4.54,10.49a110.33,110.33,0,0,0-2.51,10.86C1016.32,2255.32,1024,2238.65,1035.85,2230.14Z"/><path class="cls-1" d="M702,1707.2c0,7.24-2.31,11.5-7,14.14-4,2.21-7.63-.16-7-4.71a27.23,27.23,0,0,1,3.45-10.27c1.32-2.12,4.65-4.62,6.59-4.27S701.24,1706.16,702,1707.2Z"/><path d="M1000.43,3312.2c-26.41,28.44-54.18,55.75-78.85,85.63-27.24,33-51.58,68.38-77.33,102.62-3.45,4.59-7.73,8.56-18,9.53l22.2-46.8L846,3462l-63.11,74c-15.27-12.38-19.79-27-6.44-43.24,29.15-35.57,45.28-78.05,65.58-118.44,31.34-62.35,64.28-123.9,96.59-185.75,10-19.17,19.7-38.54,30.45-57.29,10-17.51,24-27.59,49-13.36,7.36-23.75,12.66-44.51,20.33-64.37,5.43-14,14.05-26.86,21-39.69,38.3,7.36,32.08,34.44,30.22,67.53l66.45-61.3c18.67,5.08,28.54,17.28,22.13,37.39-9.61,30.17-17.41,61.86-32.75,89.09-35.22,62.52-73.33,123.52-112.62,183.59-24.68,37.73-53.65,72.66-80.69,108.85l-4.61-3.22c1.21-33.17,24.63-56.47,37.39-84.52,5.82-12.8,10-26.34,15-39.55l18.52-31.85c44.25-50.18,91.7-142.76,98.8-194.9-31.26,50.33-85.6,79.18-106.49,133.78,17.53,28.57,17.53,28.57,7.49,61Z"/><path d="M1342.11,3139.79c34.91,16.29,36.19,18.59,27.16,47.25-2.57,8.16-5.77,16.13-8.87,24.11-2.63,6.75-5.53,13.39-4.82,23.49l36.22-35.38c27.16,12,32,17.77,27.54,39.93-3.38,16.67-10,32.68-15.34,48.95-2.82,8.66-5.83,17.26-8.75,25.88l7.39,4.08,44-65.31c18.92.69,30.89,9.67,32.6,28,1.5,16.11,8.86,23.61,24,27.62,7.44,2,14.51,8.46,19.83,14.57,9.44,10.83,17.42,22.93,27.45,36.44l-19.91,22-26-25.57-26.66,25.51-28.78-14.58c-2.64,1.77-6.35,3.14-8.39,5.79-12,15.55-23.26,31.63-35.35,47.08-23.31,29.8-28.34,29.51-50.56-4.81l-89.55,129.17c-28.46-18.75-31.55-33-15.5-57.42,44.52-67.66,80.83-139.4,110.17-221-17.56,6-25.62,16-32.6,26.4-47.12,70.14-93.74,140.61-140.92,210.7-11.32,16.82-24.13,32.64-35.68,48.15-20.48-10.17-17.63-24.08-13-36.87,3.29-9,9.1-17.53,15.36-24.93,48.07-56.73,76.72-124.92,111.26-189.48,19.52-36.49,33.44-75.94,51-113.55C1323,3169.9,1333.27,3155,1342.11,3139.79Z"/><path d="M655.94,3364.24c34.72-67.45,88-123.41,121.16-192.45-50.6,43.53-92,95.75-136.65,144.92-44.82,49.37-90.64,97.84-140.26,151.26-2.3-11.23-7.21-20.19-4.57-25,8.1-14.76,16.79-30.7,29.4-41.21,41.75-34.83,74.1-77.21,105.8-120.72,21.59-29.63,48-55.81,69.09-85.73,20.92-29.64,36.23-63.24,57.18-92.85,18.21-25.73,40.29-48.87,62.19-71.69,3.16-3.29,16.56-.73,22.13,3.35,6,4.41,8.44,13.77,11.27,18.87l49.4.46,21.59-48.55c23.15,17,23.15,17,4.55,84.46,23.91,32.25,19.93,30.33,2.57,66.16-26.55,54.83-69.35,96-105.68,142.82-28.32,36.48-50.08,78.08-74.56,117.52-3.2,5.14-3.91,12.55-8.11,16.23-20.38,17.8-41.56,34.69-63.58,52.82-10.69-11.86-6.16-22.37,3.86-31,35.44-30.4,54.35-71.33,74.72-111.9,30.65-61.05,63.68-120.91,95.47-181.39,3.76-7.16,6.11-15.05,3.72-26.92-12.81,13.7-26.86,26.45-38.21,41.26-42.37,55.32-83.54,111.56-125.93,166.86-8.28,10.8-20,19-30.14,28.36Z"/><path d="M1213.25,3099.82c34.38,24.39,35.65,27.38,26.17,54.89-4.22,12.23-9.12,24.23-8.38,39.11q22.65-34.4,45.3-68.8c7.21-11,12.69-26.68,30.28-17.42,15.72,8.27,17.91,23.85,11.14,38.29-18.65,39.79-35.8,80.78-59.13,117.78-48.24,76.49-99.77,150.92-150.73,225.66-10.57,15.5-24.54,28.68-38.16,44.34-19.45-18.92-17.5-33.13-3.88-48,59.41-64.77,94.07-145,136.68-220.18,4.33-7.65,6.15-16.72,5.69-27a765.92,765.92,0,0,0-99.44,128.76c-42.69,69.32-79.72,111.74-106.62,120.94,4.69-10.19,6.17-18.44,11-23.24,54.94-54.1,90.65-120.4,122.11-189.56,7.07-15.54,15.74-30.35,23-45.82,5.16-11,15.29-24.4,12.62-33.67C1157.76,3150.16,1203.6,3136.18,1213.25,3099.82Z"/><path d="M269.06,3310.6l23.28-71.82-18.93-16.2c18.36-31.36,18.36-31.36,47.39-41.11l-4.38,27.71c2.66-.19,5.62.52,6.82-.63,10.61-10.12,20.72-20.76,31.36-30.85,10.89-10.33,18.73-26.83,39.48-17.09,3.77,1.77,13.53-4.85,18.06-9.84,17-18.75,33-38.43,49.39-57.75,7.56-8.92,15.15-17.82,24.47-28.77,20,22.12-2.11,36.78-2.15,59.07,13.59-14.67,24.08-26.44,35-37.75,11.92-12.29,23.93-24.55,36.55-36.12,12.43-11.39,24.87-24.28,44.25-16.25,8.05,15.45-2.87,24.26-10.25,33Q466.06,3211.63,342,3356.52c-1.53,1.79-3.94,2.82-7.15,5-24.12-7.66-16.29-35.73-33.85-49.49l51.62-55.59-7.13-6.73-67.58,67.5Z"/><path d="M446,3412.51c-16.27-14.59-19.3-26.81-4.95-39.63,31.75-28.37,63.8-56.41,95.82-84.48,4.55-4,10.64-6.63,14.21-11.28,36.38-47.29,73-94.44,108.29-142.53,23-31.36,43.78-64.4,66.26-96.18,2.9-4.1,10.85-8.05,15.1-6.93,6,1.57,15.06,8,15.06,12.3,0,11.49-1.14,25-7.21,34.12-19.56,29.37-40,58.45-62.94,85.19-42.06,49-85.56,96.79-129.63,144-28.23,30.24-58.45,58.63-88,87.61C462.05,3400.49,455,3405.22,446,3412.51Z"/><path d="M660.71,3023.21c22.2,10.57,20.94,25,13.7,38.9-7.86,15.15-16.81,30.14-27.62,43.28q-92.07,112-185.49,222.92c-18.12,21.48-38.44,41.11-57.86,61.48-6.86,7.2-14.5,15.57-24.92,7.16-12.13-9.8-10.32-22.83-.27-32,13.59-12.4,18.58-36.7,47.39-30.62,8,1.69,22.23-16.8,30.73-28.17Q525.5,3213.69,593,3120c17.82-24.78,33.44-51.13,50.49-76.48C648.1,3036.56,654.29,3030.67,660.71,3023.21Z"/><path d="M952.1,3439.07c-12.84,24.58-27.61,47.61-51.56,67,3.9-24.09,13.65-38.15,47-70.22Z"/><path d="M575,3476.86l14.56-17.67,4.39,3.34L580.24,3481Z"/><path class="cls-1" d="M1018.17,3279.8c10-32.41,10-32.41-7.48-61,20.89-54.61,75.23-83.46,106.49-133.78-7.11,52.14-54.55,144.72-98.8,194.9Z"/><path class="cls-1" d="M1000.43,3312.19l17.74-32.39.2.13-18.52,31.85Z"/><path d="M1069.22,1978c7.62,3.9,14.84,4.28,21.87-.44,3.73-2.5,7.22-3.86,10.24.68,2.4,3.61,1.19,8.44-3.42,11-3.36,1.88-7.44,3.56-11.18,3.51-27.34-.38-48.36-12.19-62.35-35.91-2.49-4.23-2.3-4.34.1-10.91,12.52,7.54,19.43,21.78,33.69,27.46,1.57-3,2.88-6,4.63-8.72,3.25-5.07,3.83-9.11-1.23-14-3.37-3.26-5.12-8.46-6.85-13.08-1.54-4.13,1.29-6.72,5.3-4.71a20.8,20.8,0,0,1,7.7,7.08c4.82,7.45,9.06,8.69,16.09,3.46,2.36-1.76,4.21-4.22,6.29-6.35s4.38-3.91,6.82-1.45c1.64,1.66,3.51,4.88,2.92,6.58-1.36,3.91-3.94,7.49-6.46,10.87a9.61,9.61,0,0,1-5,3.12C1077.5,1959.06,1072,1966.69,1069.22,1978Z"/><path d="M1161.71,1922.2c-.44,3.91-.54,7.9-1.4,11.72-1.2,5.34-7.19,9.31-11.84,8.36-6.12-1.24-11.25-8.43-9-14.11,2.15-5.41,5.63-10.35,8.91-15.24,2.23-3.32,5.82-4.78,9.63-3.08,4,1.78,4.46,5.39,3.4,9.32a23.77,23.77,0,0,0-.43,2.95Z"/><path d="M1029,1886c-.21,2.64-.08,5.37-.72,7.9-1.13,4.47-6.31,8.22-10.24,7.89-5-.43-8.41-3.71-9.93-8.41-2-6.11,5.35-20.52,9.52-23,3.35-2,6.78-1.53,8.34,2.23,1.73,4.17,2.6,8.7,3.84,13.07Z"/><path class="cls-2" d="M1027.1,2243.81c6.4-2.92,12.52-.9,13.49,5.35,1.19,7.62,1.69,15.42-1.22,23a17.43,17.43,0,0,1-2.72,4.42c-2.6,3.26-6.54,4.11-10.08,1.61a15.55,15.55,0,0,1-5.23-6.49c-3.88-9.52-1.89-18.48,4.66-26.79Z"/><path class="cls-2" d="M1052.59,2258.16c5.3.23,8.71,3.68,7.23,8.2-1.81,5.52-4.14,10.94-8.67,15a13.14,13.14,0,0,1-3.34,2,5.31,5.31,0,0,1-7.32-2.37,11.72,11.72,0,0,1-1.3-6.15c.65-7.72,5.05-13.05,12.29-16.39Z"/><path class="cls-2" d="M1010.16,2261.05c-5.3.23-8.71,3.68-7.23,8.2,1.81,5.52,4.14,10.94,8.67,15a13.14,13.14,0,0,0,3.34,2,5.31,5.31,0,0,0,7.32-2.37,11.72,11.72,0,0,0,1.3-6.15c-.65-7.72-5.05-13.05-12.29-16.39Z"/><path class="cls-2" d="M732.4,2154.13c6.32-8.89,16.26,3,25.3,24s10.58,37.18.71,44.94-20.44-24.56-22.79-32.16S725.65,2163.64,732.4,2154.13Z"/><path d="M905.27,1823.07c11.19,12.56,21.19,25.42,37.32,32.55.52-2.24,1-3.74,1.2-5.27,6.2-41.91,29.71-71.6,65.26-92.93,10.8-6.48,21.36-13.37,33.46-21-1-7.78-2.12-16.91-3.5-26q-5.63-37-11.51-74c-1.32-8.2-2.84-16.41-4.92-24.44-2.48-9.57-.77-18.48,2.82-27.29,7.46-18.29,18.17-34.77,28.71-51.34,9.28-14.6,18.45-29.28,28.27-43.52,3.7-5.36,8.77-9.91,13.78-14.17a11.37,11.37,0,0,1,13.2-1.08c4.19,2.36,4.51,6.85,4.4,11.43-.73,30.28-.55,60.61-2.11,90.84-1.78,34.43,3.51,68.36,5.05,102.55.3,6.64.35,13.29.6,19.93.19,5,.53,9.91.86,16,12.08,1.89,23.77,3.79,35.5,5.51,4.72.69,5.88-3.49,8-6.38,9.08-12.72,17.47-26,27.46-38,13.42-16.05,28.17-31,42.21-46.54,10.44-11.56,24.22-18.57,36.66-27.42q6.06-4.31,12-8.76c18.63-14,37.25-27.88,60.76-33,9.5-2.07,18.67-.67,27.55,2.06s11.32,10.69,11.78,19c.84,15.23-4,29.51-8.11,43.89s-13,26.17-22.92,37c-6.79,7.38-11.87,6.37-16.68-2.74-2.32-4.4-4.7-8.77-7.7-14.34-7.4,7.72-15.43,14.36-21.28,22.54-17.8,24.86-34.85,50.27-52,75.62-2.36,3.5-3.41,7.89-5.82,13.68-11.89,1.88-25.85-.24-41.16,1.06,2.37,3.28,4.13,6.2,6.35,8.7,8.55,9.64,12,21.16,13.49,33.69,1.42,12.21,3.59,24.34,5.16,36.54,1.7,13.18,3.61,26.38,4.42,39.63a101.93,101.93,0,0,1-1.71,23.83c-2.67,15-2.1,30.57-7.55,45.14-6.53,17.45-16,32.9-30.3,45.05-4.39,3.73-7,7.55-5.82,13.64.57,2.85-.16,6-.3,9-1.5,31.62,8.82,60.17,22.72,87.8,1.64,3.27,3.56,6.47,4.7,9.91,5.59,16.86,16.61,30.23,27.92,43.32,12.22,14.13,24,28.52,32.71,45.15,8.31,15.76,4.6,30.64-10.39,40.66a67.22,67.22,0,0,0-6.63,4.43c-8.24,7.06-17.65,6.2-26.41,2.57-10.48-4.34-20.09-10.51-26.25-20.72-7-11.68-14.53-23.1-21.17-35-9.23-16.56-17.85-33.45-26.75-50.2-.6-1.13-1.3-2.2-2.76-4.64-4.53,16.86-11.15,31.48-18.47,45.85s-13.9,29.31-21.36,45.19c4.47.54,8,1,11.44,1.39,14.88,1.86,20.39,8.52,19.1,23.49-.37,4.26-1.41,8.47-2.24,13.21,8.63,4.27,19.8,5.08,23,16.58,2.95,10.52-1.08,18.85-8.6,26.37,4.43,7.38,4.67,15.17,3.62,23.26-.61,4.73-2.65,8.25-6.72,10.44-11.8,6.33-23.56,12.53-37.85,8.09-2.69-.84-6.61.22-9.26,1.68-15.9,8.74-24.76,7.56-36.95-5.47a24,24,0,0,0-2.53-2c-3,3.8-5.5,8.11-9.09,11.08s-8.1,4.53-12.3,6.53c-13.77,6.58-26.1,3.13-36.84-6.43-6.14-5.47-11.26-12.08-17.54-18.94-15.07,4.89-31.55,3.12-48.08,1.72-17.93-1.52-34.4-8-50.17-15.69-14-6.83-26.9-15.86-40.24-24-11-6.73-18.81-16.86-26.75-26.66-8.1-10-15.46-20.64-23.42-31.36-5,2.23-10.77,5.39-16.89,7.34-11.46,3.65-21.29,1.19-29.65-8.24-12.32-13.89-20.55-30.13-28.5-46.59-1.59-3.29-2.47-6.91-4.06-10.2-9.56-19.78-4-37.45,7.5-54.24,3.46-5.07,6.36-5.29,11.57-2.09a124.09,124.09,0,0,0,12.93,7.37c14.56,6.68,25.44,18,36.92,28.63,2.16,2,3.65,4.73,5.89,7.71,9.09-5.06,17.23-8.83,24.54-13.82,21.44-14.64,42.76-29.49,63.71-44.82,10.18-7.45,19.63-16,29.08-24.37,18.4-16.39,31.71-36.68,43.51-58,7.4-13.39,14.58-26.91,21.77-40.42a101.17,101.17,0,0,0,5-10.87c2.4-6.19,1.21-8.8-4.81-10.37-30-7.85-54.07-24.82-74-48.14-8-9.35-16-18.66-24-28-7.62-9-14-18.63-15.75-30.67-.38-2.56-1.69-5-2.81-8.15-7.41,1.91-12-.78-16.15-7.3-4.7-7.42-11.48-13.52-17.45-20.3-21.32,5.84-43.53,12.36-66,17.79-6.16,1.49-13.42.85-19.63-.82-10.5-2.83-21.15-6-28.68-15.08-1.58-1.9-4.53-2.67-6.88-3.91-17.24-9.14-30.26-22.64-40.35-39.14-8.31-13.6-9.54-28.56-9.26-44.1.29-15.84,7.62-28.79,15.4-41.55,3.93-6.46,10-10.81,18.47-9.06,8.21,1.69,12.68,7.15,14.2,14.92a38.58,38.58,0,0,1,.37,12.87c-1.77,11.83-10.56,16.44-21.88,12a11.42,11.42,0,0,0-2.49-.44c-.54.43-1,.61-1,.84-3.75,30.68,3,57.57,28.68,77.22,9.73,7.45,20,14.25,30.1,21.14,6.54,4.44,13.9,4.4,21.16,2.41,17.64-4.84,35.19-10,52.78-15a31.75,31.75,0,0,0,17.56-12.4c9.27-12.76,22.32-20.87,36.43-27.06,9.74-4.27,13.21-3.8,27.31-.68,1.84-3,4.37-6.13,5.78-9.68a397.48,397.48,0,0,0,25.12-100.38c5-41.52,3.74-83.06-6.87-123.86-3.85-14.8-9.07-29.28-12.35-44.19-4.06-18.45-9.64-36.8-9-56,.31-8.92,2-17.79,3-26.69.18-1.56.25-3.13.44-5.53-6.55,1-12.31,2.3-18.13,2.84-16.77,1.54-20.71-1.48-24.13-17.74-.2-1-.58-1.87-1-3.32-3.14,0-6.38-.33-9.53.06a154.4,154.4,0,0,1-49.68-2c-16.63-3.35-33.21-7.11-50-9.56a141.08,141.08,0,0,1-34.29-9.94c-16.56-6.91-33.75-12.37-50.08-19.75-11.73-5.3-22.43-12.85-33.71-19.17-14.79-8.29-29.92-16-44.52-24.62q-26.62-15.7-52.56-32.54-35.5-23.18-70.36-47.32c-17.49-12.13-34.55-24.9-51.66-37.59-21.13-15.68-41.68-32-60.91-50.09a301.82,301.82,0,0,1-41-47.59c-10.07-14.44-19.09-29.63-28.3-44.65-19.62-32-32.16-67.07-44.31-102.32-1.95-5.66-4.19-11.22-6.5-16.74-15.37-36.66-26-74.8-33.54-113.68-4.37-22.45-9-45.14-7.32-68.31,2.36-32.13,2.13-64.44,9.13-96.22,4.57-20.75,6-42.2,10.79-62.9,8-35.1,19.49-69.06,37.67-100.56a298.46,298.46,0,0,0,20.72-43.12c7.53-19.85,18.28-37.62,30.27-54.89,9.87-14.21,19.21-28.79,29.06-43,3.39-4.91,7.71-9.17,11.39-13.89,12.9-16.52,25.21-33.53,38.68-49.57,16.47-19.61,32.52-39.93,51.29-57.17s40.6-31.18,61.23-46.37c10.71-7.89,21.7-15.42,32.62-23,29.38-20.45,62.33-33,96.62-41.85,22.85-5.92,46.16-10.09,69.31-14.79C726.57,91,760.85,86.09,794.09,76.13c6.76-2,14.62-.61,20.06-6.72a4.19,4.19,0,0,1,2.82-.85c13.39-.12,25.1-5.64,37-10.86a87.11,87.11,0,0,1,20.18-5.55c16.39-2.8,32.82-5.89,49.36-7.23a284.87,284.87,0,0,1,46.83-.16,205.44,205.44,0,0,0,33.86,0c23.47-1.87,46.54.75,69.39,5.76,19.14,4.2,38.24,8.63,57.23,13.49,10.62,2.72,21.35,5.64,31.35,10,18.88,8.25,37.3,17.57,55.84,26.58a30.7,30.7,0,0,1,6.38,4.78c21.64,18.9,45.86,34.17,69.64,50.1a105.21,105.21,0,0,1,20.27,17.61c17.81,20.23,35.33,40.71,49.76,63.66,5.27,8.38,12.9,15.23,18.66,23.35,12.88,18.15,26,36.22,37.68,55.12,17.69,28.57,35.43,57,56.59,83.24,3.89,4.82,7.16,9.69,9.06,16.1,2,6.7,7.77,12.21,11.54,18.46,5.39,8.91,11.44,17.39,15.42,27.19,2.47,6.08,6.6,11.52,10.18,17.12,17.14,26.85,28.4,56.18,36.9,86.7,2,7.36,4.56,14.59,6.52,22a167.49,167.49,0,0,1,4,67.21c-1.2,8.52-.94,17.24-1.71,25.83-1.45,16.24-2.61,32.53-5,48.64-1.61,11.08-5.06,21.89-7.61,32.84-.51,2.2-1.24,4.58-.87,6.7,1.84,10.52-4.37,17.6-10.3,25.75,6.17,5.64,6.19,13.17,4.27,21.26-.91,3.86-.67,8-1.42,11.9-.66,3.45-2.08,6.74-3,10.15-.46,1.75-1.35,4.08-.63,5.31,2.59,4.39,1.12,7.67-.85,11.91-2.37,5.12-3,11.08-4.11,16.74-3.21,16.89-5.12,34.14-9.76,50.61-3.06,10.86-7,21.48-9.23,32.63-.76,3.76-4.66,7.07-4.87,10.73-.54,9.13-6.3,15.74-9.66,23.47-2.09,4.8-5.31,9.22-2.66,15,.56,1.24-.73,3.81-1.85,5.24-7.41,9.42-8.26,21.15-11.24,32-4.6,16.84-11.29,32.53-21.41,46.84-6.7,9.46-12.54,19.53-19.11,29.09-11.67,17-23.57,33.82-35.44,50.67a33.91,33.91,0,0,1-4.08,4.39c-11.11,11-21.84,22.34-33.47,32.72a349.26,349.26,0,0,1-35,28c-21.14,14.47-42.9,28-64.61,41.65-10.7,6.71-21.83,12.75-32.83,19-15.63,8.88-31.4,17.51-46.94,26.52-19.1,11.08-39.31,18.77-60.79,24.28-17.29,4.43-34.65,5.75-52.16,7.56s-34.88,5.08-52.34,7.52c-20.1,2.81-40.24,5.38-60.35,8.1-6.88.93-13.74,2-20,2.9-5.19,13,3.5,25.74-1.69,39-12.73-9.29-24.26-2.43-36.42-1.24-.29,2.22-.8,3.83-.65,5.37,1.88,19.83,1.07,40,6.25,59.41q7.72,28.9,16.73,57.45c7.79,24.66,10.88,49.84,11.75,75.63a386.8,386.8,0,0,1-2.92,63.71c-2.29,17.38-7.53,34.39-11.62,51.53a217.83,217.83,0,0,1-24.69,60.81c-2,3.37-2.5,6.22-.88,10.19C912,1801.77,912,1812.47,905.27,1823.07ZM1549,592.52c-1.82-8.48-4.28-16.32-5.07-24.33-1.59-16.19-8.72-30.48-14.43-45.25-1.77-4.59-5.45-8.46-7.07-13.07-5.92-16.8-15.28-31.46-26.74-44.89-3.27-3.83-6.22-7.44-6.27-13,0-2.65-2-5.6-3.76-7.88-10.45-13.45-21.11-26.74-31.69-40.07l7.5-1.83c-5.39-6-9.22-11.51-14.21-15.55a16.86,16.86,0,0,1-6.12-16,13.91,13.91,0,0,0-2.4-10.84c-10-15.68-19.44-31.77-30-47.07-9.81-14.21-20.71-27.67-31.28-41.34-5.69-7.36-12-14.26-17.53-21.73-8.92-12-16.63-25-26.29-36.38-17.82-21-34.85-42.72-59.59-56.8-15.27-8.68-29.15-19.77-43.84-29.5-11.33-7.5-22.73-14.94-34.5-21.69-6.88-3.95-14.43-6.87-21.93-9.59-16.85-6.1-33.57-12.89-50.87-17.36-22.82-5.89-46.13-9.94-69.27-14.55A169.64,169.64,0,0,0,1030,60.28c-18.61-1-37.25-1.77-55.89-1.92a410.2,410.2,0,0,0-42.79,1.51c-17.86,1.73-35.7,4.24-53.36,7.44-10.35,1.87-21,4.3-29,12.22a4.89,4.89,0,0,1-2.4,1.62c-6.87.66-13.86,2.14-20.62,1.46-8.93-.9-17.3,1-25.52,3.25-29.13,8-58.2,16-88.13,20.89-28.85,4.7-57.48,10.84-86.1,16.9-40.47,8.56-75.86,27.58-108.08,53.2-18.48,14.69-37.91,28.19-56.34,42.94a317.72,317.72,0,0,0-30.65,28.35c-9,9.35-16.85,19.73-25,29.8-5.88,7.22-11.55,14.6-17.2,22-12.09,15.86-24.25,31.67-36.11,47.7-7.5,10.13-14.52,20.62-21.74,31-5.13,7.35-10,14.87-15.41,22-13.22,17.61-24.85,35.88-31.76,57.18a282.65,282.65,0,0,1-18.75,43.89,489.45,489.45,0,0,0-30.5,71.49c-2.23,6.61-4.65,13.2-6.16,20-4.48,20.12-8.42,40.36-10,61a93.26,93.26,0,0,1-1.26,9.88c-3.62,19.6-7.72,39.14-7.05,59.25a30.15,30.15,0,0,1-.15,4c-2,20.28-2.19,40.57,1.11,60.69,3.61,22,6.58,44,13.08,65.52,8.09,26.73,15.13,53.76,26.16,79.52,2.74,6.41,5.15,13,7.5,19.53,10,27.9,21,55.37,34.64,81.71,4.58,8.86,10,17.27,15,25.93,14.48,25.25,31.51,48.59,52.46,68.86,30.49,29.5,64.77,54.32,99.06,79.06,14.83,10.7,31.06,19.52,45.6,30.57,25.26,19.21,52.71,34.91,79.66,51.4,18.72,11.46,38.46,21.26,57.3,32.55,23,13.8,48.27,22.32,73.08,31.89a106.11,106.11,0,0,0,16.19,4.92c13,2.74,26.1,5,39.15,7.56,18.27,3.53,36.19,8.74,55.15,8.33,26.53-.58,52-7.09,77.76-12.33,14.93-3,29.59-7.64,44.61-10,24-3.73,48.14-6.23,72.25-9.13,24.76-3,49.56-5.66,74.31-8.77,22.82-2.87,46-5.8,66.52-16.57,38.29-20.13,75.86-41.62,113.51-62.94,12.73-7.21,24.35-16.45,37.26-23.28,26.7-14.14,51.49-30.46,71.58-53.43,7.85-9,17.81-16.23,25-25.67,12.6-16.65,25.16-33.41,34.89-52.11,5.5-10.57,12.8-20.21,19.25-30.29,11.13-17.39,15.72-37.21,21.22-56.71,3.07-10.88,5.77-21.83,12.19-31.56a80.08,80.08,0,0,0,9.94-20.4c3-9.81,3.67-20.32,6.61-30.15,7.73-25.83,14.54-51.83,18.93-78.46,3.08-18.66,8.07-37,7.78-56.17a23.38,23.38,0,0,1,1-5.73c1.65-6.75,3.86-13.4,5-20.24,4.4-27.26,8.81-54.53,12.52-81.89,2.47-18.19,5.35-36.47-3.45-54.3-2.73-5.54-2.25-12.66-3.41-20.14l5-2.69-12.41-16.91Zm-733.5,1638.3c26.28,62.23,117.79,99.86,173.6,87a17.32,17.32,0,0,0,.78-2.7c2.59-20.45,5.4-40.78,12.52-60.38,4.89-13.45,11.38-25.33,22.5-34.64,7.19-6,15.13-5.61,21,1.8,3.93,4.94,7.78,10,12.29,14.42a27.6,27.6,0,0,1,8.51,16.24c1.17,7.35,3.47,14.51,5.28,21.76l2.41.34c2.64-5.56,5.19-11.17,7.95-16.67,4.44-8.87,8.74-17.83,13.63-26.46,3.93-6.93,9.36-13.06,12.87-20.16,10.46-21.15,20.2-42.65,30.41-63.92,6.1-12.72,10.5-25.77,9.82-40.14-.05-1.11.95-2.28,1.41-3.32,8.57,1.72,9.14,2,11.76,10.26,4,12.71,8.94,24.93,16.2,36.27,5.72,8.93,10.07,18.73,15.62,27.79,10.06,16.44,20,33,31.07,48.76,8.39,11.88,16.22,12,27.59,3,9.77-7.8,11.41-16.87,5.82-28.23-5.77-11.74-13.55-22-21.44-32.34-10.29-13.45-20.68-26.91-29.78-41.16-6.4-10-10.65-21.4-16-32.1-11.46-22.95-18.19-47.08-18.41-72.85-.05-6.13,0-12.26,0-19.07a55.21,55.21,0,0,0-6.21,1.22c-21.54,7.42-43.17,11.44-66.43,9.41-32.62-2.85-62.19-13.25-90.23-29.32-4.43-2.54-9-4.89-13.71-7.47-1.51,6.24-2.24,11.19-3.91,15.81-9.07,25.08-20.65,49-33.76,72.21-11,19.51-25,36-43.64,48.53-3.86,2.59-7.53,5.46-11.28,8.2-15.82,11.53-31.31,23.57-47.56,34.45-13.74,9.2-28.37,17.06-42.81,25.64,3.24,6.82,6.67,13.26,9.34,20,1.14,2.87,1.68,6.69.76,9.51C821.41,2218.71,818.27,2224.6,815.49,2230.82Zm277.87-724-2.14-.6c-3.72,5.43-7.28,11-11.19,16.27-13.92,18.76-25.55,38.91-36.4,59.53a42.48,42.48,0,0,0-4.13,29c7,36.28,12.54,72.77,13.69,109.81.13,4.11,2.11,8.13,2.68,12.27.32,2.33.19,5.21-.93,7.15a26,26,0,0,1-6.62,7.37c-9.76,7.48-19.5,15-29.68,21.91-16.26,11-29.24,25.11-39.79,41.42-7.24,11.18-13.59,23.11-14.52,36.71-1.83,26.57,2.87,52.28,11.17,77.5,3.74,11.37,10,20.71,18.31,29.26,10.46,10.7,23.31,17.79,35.9,25a166.89,166.89,0,0,0,85.89,22.43,112.27,112.27,0,0,0,58.67-17.3c16-9.95,27.31-25,35.16-42.51,5.28-11.79,6.68-24.34,8.56-36.77a178.64,178.64,0,0,0,2.07-29.74c-.43-25-3.45-49.67-7.81-74.31-2.41-13.63-7.25-25.88-16-35.84-4.82-5.47-5.49-10.27-4-16.09a54.83,54.83,0,0,1,5.66-14.79c6.15-10.25,12.87-20.17,19.6-30,15.21-22.32,31.47-43.81,51.65-61.95,14-12.63,30.14-21.6,48.95-25.23,2.44-.47,5.33-1.38,6.85-3.11,1.75-2,2.83-5.39,5.81-3.89a11.62,11.62,0,0,1,5.38,6.55c1.33,4.74,1.38,9.83,2.14,14.75s1.76,10,2.65,15l2.42.48c2.69-4,6.51-7.71,7.86-12.15,4.45-14.59,8.29-29.39,11.71-44.26.92-4-.33-8.56-.89-12.82-.52-3.88-3.09-5.57-7-5.74-7.77-.35-15.56,0-22.28,4.11-14.92,9.19-32.4,14.3-44.6,27.91-1.92,2.14-5,3.24-7.46,4.92-8.24,5.59-16.86,10.72-24.6,16.93-22.51,18.06-39,41.75-57.68,63.32-6.93,8-12.72,17-18.32,26.06-3.55,5.71-9.23,10.63-8.33,18.68.17,1.5-3.36,4.94-5,4.84-5.09-.34-10.12-1.84-15.11-3.12-2.83-.73-5.51-2.67-8.3-2.77-13.82-.51-27-7.57-42.13-2.37-6.87-25.72-3.5-50.89-5.76-75.53s-3.4-49.17-3.35-73.77C1092.16,1556.52,1094.79,1531.72,1093.36,1506.87Zm60,774.63c-4.25,0-7.75-.16-11.22,0-4,.23-7.92.95-11.89,1.12a10.43,10.43,0,0,1-10-5.49c-2.29-4.06.54-6.84,3.1-9.53,6.83-7.16,8.83-15.9,8.86-26.5-4.58-.31-8.94-1.45-12.92-.68-5.3,1-11.07,2.54-15.2,5.72-3.29,2.53-4.57,7.8-6.49,12-3.74,8.14-5.89,17.48-11.27,24.28-8.55,10.82-9.86,23.21-12.47,35.73-2,9.34-.65,16.77,6.19,23.62,5.61,5.62,10.1,7.23,16.41,2.48,4.15-3.12,6.89-8.11,11.07-13.28,2.64-.7,5.5.81,7.79,4.29,4.77,7.27,6.37,8,14.32,5.15a60,60,0,0,0,13.1-6.86c7-4.79,7.64-8.28,3.73-16.93-1.83.25-3.76.58-5.71.76-4.94.45-7.22-2.75-8.5-6.75s1.2-6.05,4.57-7.6a75.89,75.89,0,0,0,6.9-4C1149.59,2295.61,1153.08,2290.72,1153.39,2281.5ZM874,1847.68c3.77,6.22,7.1,11.49,10.19,16.9,2.95,5.14,5.2,10.74,8.57,15.55,4,5.68,8.78,10.81,13.35,16.07,15.48,17.79,30.81,35.77,52.24,46.93,1.47.77,3.18,1.08,6.57,2.19-14.26-23.77-16.27-49.21-21.81-72.63-18.49-10.54-34.61-22.38-47-39.24Zm-123.3,360.19,10.56,15.71c4.27,6.35,10.27,7.92,17.45,6.47a50.15,50.15,0,0,0,23.83-11.76c8.74-7.74,8.9-7.73,4.23-18.51-9.2-21.23-26.27-35.69-43.64-49.71-5.3-4.28-11.93-6.9-17.7-10.14-7.8,8.16-10,14.73-11.38,23.57C732.41,2174,745,2198.75,750.66,2207.87Zm573.62-577.51-2.08-2.29c-14,3.06-27.18,8.74-37.93,18-9.45,8.16-17,18.57-25.27,28.06-2.62,3-5,6.24-7.42,9.39-10.17,13.12-20.53,26.09-30.41,39.43-4.73,6.39-8.66,13.39-12.69,20.27-1.22,2.08-1.54,4.68-2.54,7.88,8.51,0,15.79-.14,23.07.06,3.93.1,6-1.84,7.72-5.06,4.25-7.89,8.14-16.07,13.27-23.38,13.35-19,26.8-38,41.16-56.32,8.57-10.9,19-20.37,28.5-30.53C1321.3,1634.15,1322.74,1632.21,1324.27,1630.36ZM888.42,1788.59c-.68-.37-1-.72-1.26-.66-15.32,4-28.13,12.46-39.81,22.77-1.11,1-1.64,4-1,5.39,3.42,7,5.47,14.93,13.32,19.85,10.45-6.31,20.94-12.53,29.4-21.54a10.58,10.58,0,0,0,2.6-6.11C892.13,1801.72,892.7,1795,888.42,1788.59Zm-12.93-389.37,63.59-8.27v-17.63c-20.69,4.63-40.73,8.92-60.66,13.69C872.92,1388.32,872.86,1389.7,875.48,1399.23Zm176.27,861.82c-3-12.36-6.54-22.62-15.9-30.91-11.87,8.51-22.44,20.7-21.76,33.36.42,7.83-2.22,19.15-2.22,19.15-2.46,13.88-6.85,27.36-4.72,41.32,1.06,7,4.35,13.84,7.61,20.24,3.18,6.24,8.86,8.29,16.05,6.91,13.56-2.6,20.51-9.25,23.24-23,.58-2.92,1.83-5.72,2.24-8.66.35-2.52.76-5.61-.34-7.63-2.32-4.26-.77-7.63.95-11.28,3.81-8.07,2.4-15.77-1.58-24.38M702,1707.2c-.73-1-2-4.76-4-5.11s-5.27,2.15-6.59,4.27a27.23,27.23,0,0,0-3.45,10.27c-.66,4.54,3,6.92,7,4.71C699.66,1718.7,701.95,1714.44,702,1707.2Z"/><path class="cls-1" d="M2540.66,2207.87c6-8.44,7.11-17.46,3.34-26.56a128.6,128.6,0,0,0-11.28-22c-4.95-7.44-5.13-11.22,2.67-19.39,5.77,3.24,12.41,5.86,17.7,10.14,17.37,14,34.44,28.48,43.64,49.71,4.67,10.79,4.51,10.77-4.23,18.51a50.15,50.15,0,0,1-23.83,11.76c-7.19,1.45-13.19-.12-17.45-6.47Z"/><path class="cls-1" d="M3339,592.52l-6.09,2.93,12.41,16.91-5,2.69c1.16,7.48.68,14.6,3.41,20.14,8.8,17.84,5.92,36.11,3.45,54.3-3.71,27.36-8.12,54.63-12.52,81.89-1.1,6.83-3.31,13.49-5,20.24a23.38,23.38,0,0,0-1,5.73c.3,19.13-4.7,37.51-7.78,56.17-4.39,26.63-11.2,52.63-18.93,78.46-2.94,9.83-3.62,20.34-6.61,30.15a80.08,80.08,0,0,1-9.94,20.4c-6.42,9.73-9.12,20.68-12.19,31.56-5.5,19.5-10.09,39.33-21.22,56.71-6.45,10.08-13.75,19.71-19.25,30.29-9.74,18.7-22.3,35.46-34.89,52.11-7.14,9.44-17.11,16.7-25,25.67-20.09,23-44.88,39.29-71.58,53.43-12.91,6.84-24.53,16.07-37.26,23.28-37.65,21.32-75.22,42.81-113.51,62.94-20.5,10.78-43.69,13.7-66.52,16.57-24.75,3.11-49.55,5.79-74.31,8.77-24.1,2.9-48.27,5.4-72.25,9.13-15,2.34-29.68,6.94-44.61,10-25.73,5.24-51.23,11.76-77.76,12.33-19,.41-36.89-4.79-55.15-8.33-13-2.52-26.15-4.82-39.15-7.56a106.11,106.11,0,0,1-16.19-4.92c-24.81-9.57-50-18.09-73.08-31.89-18.84-11.29-38.57-21.09-57.3-32.55-26.94-16.49-54.39-32.19-79.66-51.4-14.54-11.06-30.77-19.87-45.6-30.57-34.29-24.74-68.57-49.57-99.06-79.06-21-20.27-38-43.61-52.46-68.86-5-8.66-10.42-17.07-15-25.93-13.62-26.34-24.65-53.81-34.64-81.71-2.35-6.56-4.75-13.13-7.5-19.53-11-25.76-18.07-52.79-26.16-79.52-6.5-21.48-9.47-43.55-13.08-65.52-3.31-20.12-3.14-40.41-1.11-60.69a30.15,30.15,0,0,0,.15-4c-.67-20.11,3.43-39.65,7.05-59.25a93.26,93.26,0,0,0,1.26-9.88c1.56-20.62,5.5-40.85,10-61,1.51-6.79,3.94-13.38,6.16-20a489.45,489.45,0,0,1,30.5-71.49,282.65,282.65,0,0,0,18.75-43.89c6.91-21.3,18.54-39.57,31.76-57.18,5.38-7.16,10.27-14.69,15.41-22,7.22-10.34,14.24-20.83,21.74-31,11.86-16,24-31.84,36.11-47.7,5.65-7.4,11.32-14.79,17.2-22,8.2-10.06,16.09-20.45,25-29.8a317.72,317.72,0,0,1,30.65-28.35c18.43-14.75,37.86-28.25,56.34-42.94,32.22-25.62,67.6-44.63,108.08-53.2,28.61-6.05,57.25-12.2,86.1-16.9,29.93-4.87,59-12.86,88.13-20.89,8.22-2.27,16.59-4.15,25.52-3.25,6.76.68,13.75-.8,20.62-1.46a4.89,4.89,0,0,0,2.4-1.62c8-7.92,18.64-10.34,29-12.22,17.66-3.2,35.49-5.71,53.36-7.44a410.2,410.2,0,0,1,42.79-1.51c18.64.15,37.28.89,55.89,1.92a169.64,169.64,0,0,1,23.65,3.48c23.14,4.61,46.45,8.66,69.27,14.55,17.3,4.47,34,11.26,50.87,17.36,7.49,2.71,15,5.64,21.93,9.59,11.78,6.75,23.18,14.19,34.5,21.69,14.69,9.73,28.58,20.82,43.84,29.5,24.74,14.07,41.77,35.84,59.59,56.8,9.66,11.36,17.38,24.36,26.29,36.38,5.54,7.47,11.83,14.37,17.53,21.73,10.58,13.67,21.48,27.13,31.28,41.34,10.56,15.3,20,31.4,30,47.07a13.91,13.91,0,0,1,2.4,10.84,16.86,16.86,0,0,0,6.12,16c5,4,8.82,9.53,14.21,15.55L3244,404c10.58,13.33,21.24,26.63,31.69,40.07,1.77,2.28,3.73,5.22,3.76,7.88.05,5.59,3,9.2,6.27,13,11.45,13.43,20.82,28.09,26.74,44.89,1.63,4.61,5.3,8.49,7.07,13.07,5.71,14.77,12.84,29.06,14.43,45.25C3334.71,576.19,3337.17,584,3339,592.52Z"/><path class="cls-1" d="M2605.49,2230.82c2.78-6.22,5.92-12.11,8-18.35.92-2.82.38-6.64-.76-9.51-2.67-6.75-6.1-13.19-9.34-20,14.45-8.58,29.07-16.44,42.81-25.64,16.26-10.88,31.74-22.92,47.56-34.45,3.76-2.74,7.43-5.61,11.28-8.2,18.64-12.51,32.63-29,43.64-48.53,13.11-23.24,24.7-47.13,33.76-72.21,1.67-4.61,2.4-9.57,3.91-15.81,4.75,2.58,9.28,4.93,13.71,7.47,28,16.07,57.61,26.47,90.23,29.32,23.26,2,44.9-2,66.43-9.41a55.21,55.21,0,0,1,6.21-1.22c0,6.81,0,12.94,0,19.07.23,25.77,6.95,49.9,18.41,72.85,5.35,10.7,9.59,22.08,16,32.1,9.1,14.25,19.5,27.71,29.78,41.16,7.89,10.32,15.67,20.6,21.44,32.34,5.59,11.36,4,20.43-5.82,28.23-11.37,9.07-19.2,8.92-27.59-3-11.11-15.72-21-32.32-31.07-48.76-5.54-9.06-9.9-18.85-15.62-27.79-7.26-11.34-12.15-23.56-16.2-36.27-2.63-8.24-3.2-8.54-11.76-10.26-.46,1-1.46,2.2-1.41,3.32.68,14.36-3.72,27.41-9.82,40.14-10.2,21.28-20,42.77-30.41,63.92-3.51,7.1-8.95,13.23-12.87,20.16-4.89,8.62-9.19,17.59-13.63,26.46-2.76,5.5-5.3,11.11-7.95,16.67l-2.41-.34c-1.81-7.24-4.11-14.41-5.28-21.76a27.6,27.6,0,0,0-8.51-16.24c-4.51-4.38-8.35-9.48-12.29-14.42-5.9-7.41-13.84-7.82-21-1.8-11.12,9.31-17.61,21.19-22.5,34.64-7.12,19.6-9.93,39.93-12.52,60.38a17.32,17.32,0,0,1-.78,2.7C2723.28,2330.68,2631.77,2293.05,2605.49,2230.82Z"/><path class="cls-1" d="M2883.36,1506.87c1.43,24.85-1.21,49.65-1.26,74.47,0,24.59,1.09,49.27,3.35,73.77s-1.1,49.81,5.76,75.53c15.13-5.21,28.31,1.85,42.13,2.37,2.79.1,5.47,2,8.3,2.77,5,1.29,10,2.79,15.11,3.13,1.65.11,5.18-3.33,5-4.84-.9-8.05,4.78-13,8.33-18.68,5.6-9,11.39-18.08,18.32-26.06,18.71-21.57,35.17-45.27,57.68-63.32,7.74-6.21,16.36-11.34,24.6-16.93,2.47-1.68,5.53-2.78,7.46-4.92,12.21-13.61,29.68-18.72,44.6-27.91,6.72-4.14,14.51-4.46,22.28-4.11,3.87.17,6.44,1.86,7,5.74.57,4.26,1.81,8.82.89,12.82-3.42,14.87-7.26,29.67-11.71,44.26-1.35,4.44-5.17,8.12-7.86,12.15l-2.42-.48c-.89-5-1.88-10-2.65-15s-.81-10-2.14-14.75a11.62,11.62,0,0,0-5.38-6.55c-3-1.5-4.07,1.89-5.81,3.89-1.51,1.73-4.41,2.64-6.85,3.11-18.81,3.63-34.9,12.6-48.95,25.23-20.18,18.14-36.44,39.63-51.65,61.95-6.73,9.88-13.46,19.8-19.6,30a54.83,54.83,0,0,0-5.66,14.79c-1.46,5.82-.79,10.62,4,16.09,8.77,10,13.61,22.21,16,35.84,4.35,24.64,7.37,49.34,7.81,74.31a178.64,178.64,0,0,1-2.07,29.74c-1.88,12.43-3.28,25-8.56,36.77-7.85,17.51-19.11,32.56-35.16,42.51a112.27,112.27,0,0,1-58.67,17.3,166.89,166.89,0,0,1-85.89-22.43c-12.59-7.23-25.44-14.32-35.9-25-8.36-8.55-14.57-17.88-18.31-29.26-8.3-25.21-13-50.93-11.17-77.5.94-13.6,7.29-25.53,14.52-36.71,10.55-16.31,23.53-30.41,39.79-41.42,10.17-6.89,19.92-14.43,29.68-21.91a26,26,0,0,0,6.62-7.37c1.12-1.94,1.25-4.82.93-7.15-.57-4.14-2.55-8.16-2.68-12.27-1.15-37-6.7-73.53-13.69-109.81a42.48,42.48,0,0,1,4.13-29c10.85-20.63,22.48-40.77,36.4-59.53,3.92-5.28,7.47-10.84,11.19-16.27ZM2859.22,1978c2.76-11.3,8.28-18.93,19.15-21.76a9.61,9.61,0,0,0,5-3.12c2.53-3.38,5.11-7,6.46-10.87.59-1.7-1.28-4.92-2.92-6.58-2.43-2.46-4.84-.56-6.82,1.45s-3.93,4.59-6.29,6.35c-7,5.23-11.27,4-16.09-3.46a20.8,20.8,0,0,0-7.7-7.08c-4-2-6.85.58-5.3,4.71,1.73,4.62,3.48,9.82,6.85,13.08,5.05,4.88,4.48,8.92,1.23,14-1.75,2.72-3.06,5.72-4.63,8.72-14.27-5.68-21.17-19.92-33.69-27.46-2.4,6.56-2.6,6.68-.1,10.91,14,23.72,35,35.53,62.35,35.91,3.74.05,7.82-1.63,11.18-3.51,4.61-2.59,5.82-7.42,3.42-11-3-4.54-6.52-3.18-10.24-.68C2874.06,1982.26,2866.85,1981.89,2859.22,1978Zm92.49-55.79-.72-.09a23.77,23.77,0,0,1,.43-2.95c1.06-3.93.59-7.54-3.4-9.32-3.81-1.7-7.4-.24-9.63,3.08-3.28,4.89-6.76,9.83-8.91,15.24-2.26,5.68,2.87,12.87,9,14.11,4.66.94,10.65-3,11.84-8.36C2951.17,1930.09,2951.27,1926.11,2951.71,1922.2ZM2819,1886l.81-.29c-1.24-4.37-2.12-8.9-3.84-13.07-1.56-3.76-5-4.21-8.34-2.23-4.16,2.45-11.48,16.87-9.52,23,1.51,4.7,4.94,8,9.93,8.41,3.93.34,9.12-3.42,10.24-7.89C2818.91,1891.37,2818.78,1888.65,2819,1886Z"/><path class="cls-1" d="M2943.39,2281.5c-.31,9.22-3.8,14.11-9.62,17.56a75.89,75.89,0,0,1-6.9,4c-3.37,1.54-5.85,3.58-4.57,7.6s3.56,7.2,8.5,6.75c1.95-.18,3.88-.51,5.71-.76,3.91,8.64,3.31,12.14-3.73,16.93a60,60,0,0,1-13.1,6.86c-8,2.88-9.56,2.12-14.32-5.15-2.29-3.49-5.14-5-7.79-4.29-4.19,5.17-6.93,10.16-11.07,13.28-6.31,4.75-10.8,3.14-16.41-2.48-6.84-6.85-8.14-14.28-6.19-23.62,2.62-12.52,3.92-24.91,12.47-35.73,5.38-6.81,7.53-16.15,11.27-24.28,1.92-4.17,3.2-9.44,6.49-12,4.13-3.18,9.91-4.69,15.2-5.72,4-.77,8.34.37,12.92.68,0,10.6-2,19.34-8.86,26.5-2.56,2.68-5.39,5.47-3.1,9.53a10.43,10.43,0,0,0,10,5.49c4-.17,7.92-.89,11.89-1.12C2935.64,2281.35,2939.14,2281.5,2943.39,2281.5Z"/><path class="cls-1" d="M2664,1847.68l22.14-14.23c12.36,16.85,28.49,28.7,47,39.24,5.54,23.42,7.55,48.86,21.81,72.63-3.39-1.11-5.1-1.42-6.57-2.19-21.43-11.16-36.76-29.14-52.24-46.93-4.57-5.26-9.37-10.38-13.35-16.07-3.38-4.82-5.63-10.41-8.57-15.55C2671.05,1859.17,2667.72,1853.9,2664,1847.68Z"/><path class="cls-3" d="M3114.27,1630.36c-1.53,1.85-3,3.79-4.61,5.54-9.53,10.15-19.93,19.62-28.5,30.53-14.36,18.27-27.81,37.28-41.16,56.32-5.12,7.3-9,15.49-13.27,23.38-1.73,3.22-3.79,5.16-7.72,5.06-7.28-.19-14.56-.06-23.07-.06,1-3.2,1.32-5.8,2.54-7.88,4-6.88,8-13.88,12.69-20.27,9.88-13.33,20.24-26.31,30.41-39.43,2.44-3.15,4.8-6.39,7.42-9.39,8.29-9.49,15.82-19.9,25.27-28.06,10.75-9.29,24-15,37.93-18Z"/><path class="cls-1" d="M2816,2286.09l1.09-10,21.84,11.74,6.43-11.57c4,8.61,5.39,16.3,1.58,24.38-1.72,3.64-3.27,7-.95,11.28,1.1,2,.68,5.11.34,7.63-.4,2.93-1.66,5.74-2.24,8.66-2.73,13.71-9.68,20.36-23.24,23-7.2,1.38-12.87-.68-16.05-6.91-3.27-6.41-6.55-13.25-7.61-20.24-2.13-14,2.26-27.44,4.72-41.32l12.63,5.12c-8.77,13.16-11.44,27.35-6.24,42.44a24.33,24.33,0,0,0,7,10.28c4.74,4,10,2.61,13.5-2.55a28.88,28.88,0,0,0,3.65-7c3.9-11.94,3.22-24.31,1.63-36.38C2832.73,2284.67,2824.54,2281.46,2816,2286.09Z"/><path class="cls-1" d="M2678.42,1788.59c4.28,6.42,3.71,13.13,3.29,19.7a10.58,10.58,0,0,1-2.6,6.11c-8.46,9-18.95,15.23-29.4,21.54-7.85-4.92-9.9-12.9-13.32-19.85-.67-1.36-.15-4.41,1-5.39,11.68-10.31,24.49-18.78,39.81-22.77C2677.39,1787.87,2677.73,1788.22,2678.42,1788.59Z"/><path class="cls-3" d="M2816,2286.09c8.58-4.63,16.77-1.42,18.08,8.47,1.59,12.07,2.27,24.43-1.63,36.38a28.88,28.88,0,0,1-3.65,7c-3.48,5.16-8.76,6.51-13.5,2.55a24.33,24.33,0,0,1-7-10.28c-5.2-15.08-2.53-29.27,6.24-42.44Z"/><path class="cls-1" d="M2665.48,1399.23c-2.62-9.53-2.56-10.9,2.92-12.22,19.93-4.76,40-9.06,60.66-13.69V1391Z"/><path class="cls-1" d="M2825.85,2230.14c9.36,8.29,10.13,9.62,13.1,22l-5.59,9.58c-4.67-18.95-4.67-18.95-15-21.1-1.49,3.37-3.31,6.83-4.54,10.49a110.33,110.33,0,0,0-2.51,10.86C2806.32,2255.32,2814,2238.65,2825.85,2230.14Z"/><path class="cls-1" d="M2492,1707.2c0,7.24-2.31,11.5-7,14.14-4,2.21-7.63-.16-7-4.71a27.23,27.23,0,0,1,3.45-10.27c1.32-2.12,4.65-4.62,6.59-4.27S2491.24,1706.16,2492,1707.2Z"/><path d="M2790.43,3312.2c-26.41,28.44-54.18,55.75-78.85,85.63-27.24,33-51.58,68.38-77.33,102.62-3.45,4.59-7.73,8.56-18,9.53l22.2-46.8L2636,3462l-63.11,74c-15.27-12.38-19.79-27-6.44-43.24,29.15-35.57,45.28-78.05,65.58-118.44,31.34-62.35,64.28-123.9,96.59-185.75,10-19.17,19.7-38.54,30.45-57.29,10-17.51,24-27.59,49-13.36,7.36-23.75,12.66-44.51,20.33-64.37,5.43-14,14.05-26.86,21-39.69,38.3,7.36,32.08,34.44,30.22,67.53l66.45-61.3c18.67,5.08,28.54,17.28,22.13,37.39-9.61,30.17-17.41,61.86-32.75,89.09-35.22,62.52-73.33,123.52-112.62,183.59-24.68,37.73-53.65,72.66-80.69,108.85l-4.61-3.22c1.21-33.17,24.63-56.47,37.39-84.52,5.82-12.8,10-26.34,15-39.55l18.52-31.85c44.25-50.18,91.7-142.76,98.8-194.9-31.26,50.33-85.6,79.18-106.49,133.78,17.53,28.57,17.53,28.57,7.49,61Z"/><path d="M3132.11,3139.79c34.91,16.29,36.19,18.59,27.16,47.25-2.57,8.16-5.77,16.13-8.87,24.11-2.63,6.75-5.53,13.39-4.82,23.49l36.22-35.38c27.16,12,32,17.77,27.54,39.93-3.38,16.67-10,32.68-15.34,48.95-2.82,8.66-5.83,17.26-8.75,25.88l7.39,4.08,44-65.31c18.92.69,30.89,9.67,32.6,28,1.5,16.11,8.86,23.61,24,27.62,7.44,2,14.51,8.46,19.83,14.57,9.44,10.83,17.42,22.93,27.45,36.44l-19.91,22-26-25.57-26.66,25.51-28.78-14.58c-2.64,1.77-6.35,3.14-8.39,5.79-12,15.55-23.26,31.63-35.35,47.08-23.31,29.8-28.34,29.51-50.56-4.81l-89.55,129.17c-28.46-18.75-31.55-33-15.5-57.42,44.52-67.66,80.83-139.4,110.17-221-17.56,6-25.62,16-32.6,26.4-47.12,70.14-93.74,140.61-140.92,210.7-11.32,16.82-24.13,32.64-35.68,48.15-20.48-10.17-17.63-24.08-13-36.87,3.29-9,9.1-17.53,15.36-24.93,48.07-56.73,76.72-124.92,111.26-189.48,19.52-36.49,33.44-75.94,51-113.55C3113,3169.9,3123.27,3155,3132.11,3139.79Z"/><path d="M2445.94,3364.24c34.72-67.45,88-123.41,121.16-192.45-50.6,43.53-92,95.75-136.65,144.92-44.82,49.37-90.64,97.84-140.26,151.26-2.3-11.23-7.21-20.19-4.57-25,8.1-14.76,16.79-30.7,29.4-41.21,41.75-34.83,74.1-77.21,105.8-120.72,21.59-29.63,48-55.81,69.09-85.73,20.92-29.64,36.23-63.24,57.18-92.85,18.21-25.73,40.29-48.87,62.19-71.69,3.16-3.29,16.56-.73,22.13,3.35,6,4.41,8.44,13.77,11.27,18.87l49.4.46,21.59-48.55c23.15,17,23.15,17,4.55,84.46,23.91,32.25,19.93,30.33,2.57,66.16-26.55,54.83-69.35,96-105.68,142.82-28.32,36.48-50.08,78.08-74.56,117.52-3.2,5.14-3.91,12.55-8.11,16.23-20.38,17.8-41.56,34.69-63.58,52.82-10.69-11.86-6.16-22.37,3.86-31,35.44-30.4,54.35-71.33,74.72-111.9,30.65-61.05,63.68-120.91,95.47-181.39,3.76-7.16,6.11-15.05,3.72-26.92-12.81,13.7-26.86,26.45-38.21,41.26-42.37,55.32-83.54,111.56-125.93,166.86-8.28,10.8-20,19-30.14,28.36Z"/><path d="M3003.25,3099.82c34.38,24.39,35.65,27.38,26.17,54.89-4.22,12.23-9.12,24.23-8.38,39.11q22.65-34.4,45.3-68.8c7.21-11,12.69-26.68,30.28-17.42,15.72,8.27,17.91,23.85,11.14,38.29-18.65,39.79-35.8,80.78-59.13,117.78-48.24,76.49-99.77,150.92-150.73,225.66-10.57,15.5-24.54,28.68-38.16,44.34-19.45-18.92-17.5-33.13-3.88-48,59.41-64.77,94.07-145,136.68-220.18,4.33-7.65,6.15-16.72,5.69-27a765.92,765.92,0,0,0-99.44,128.76c-42.69,69.32-79.72,111.74-106.62,120.94,4.69-10.19,6.17-18.44,11-23.24,54.94-54.1,90.65-120.4,122.11-189.56,7.07-15.54,15.74-30.35,23-45.82,5.16-11,15.29-24.4,12.62-33.67C2947.76,3150.16,2993.6,3136.18,3003.25,3099.82Z"/><path d="M2059.06,3310.6l23.28-71.82-18.93-16.2c18.36-31.36,18.36-31.36,47.39-41.11l-4.38,27.71c2.66-.19,5.62.52,6.82-.63,10.61-10.12,20.72-20.76,31.36-30.85,10.89-10.33,18.73-26.83,39.48-17.09,3.77,1.77,13.53-4.85,18.06-9.84,17-18.75,33-38.43,49.39-57.75,7.56-8.92,15.15-17.82,24.47-28.77,20,22.12-2.11,36.78-2.15,59.07,13.59-14.67,24.08-26.44,35-37.75,11.92-12.29,23.93-24.55,36.55-36.12,12.43-11.39,24.87-24.28,44.25-16.25,8.05,15.45-2.87,24.26-10.25,33Q2256.06,3211.63,2132,3356.52c-1.53,1.79-3.94,2.82-7.15,5-24.12-7.66-16.29-35.73-33.85-49.49l51.62-55.59-7.13-6.73-67.58,67.5Z"/><path d="M2236,3412.51c-16.27-14.59-19.3-26.81-4.95-39.63,31.75-28.37,63.8-56.41,95.82-84.48,4.55-4,10.64-6.63,14.21-11.28,36.38-47.29,73-94.44,108.29-142.53,23-31.36,43.78-64.4,66.26-96.18,2.9-4.1,10.85-8.05,15.1-6.93,6,1.57,15.06,8,15.06,12.3,0,11.49-1.14,25-7.21,34.12-19.56,29.37-40,58.45-62.94,85.19-42.06,49-85.56,96.79-129.63,144-28.23,30.24-58.45,58.63-88,87.61C2252.05,3400.49,2245,3405.22,2236,3412.51Z"/><path d="M2450.71,3023.21c22.2,10.57,20.94,25,13.7,38.9-7.86,15.15-16.81,30.14-27.62,43.28q-92.07,112-185.49,222.92c-18.12,21.48-38.44,41.11-57.86,61.48-6.86,7.2-14.5,15.57-24.92,7.16-12.13-9.8-10.32-22.83-.27-32,13.59-12.4,18.58-36.7,47.39-30.62,8,1.69,22.23-16.8,30.73-28.17Q2315.5,3213.69,2383,3120c17.82-24.78,33.44-51.13,50.49-76.48C2438.1,3036.56,2444.29,3030.67,2450.71,3023.21Z"/><path d="M2742.1,3439.07c-12.84,24.58-27.61,47.61-51.56,67,3.9-24.09,13.65-38.15,47-70.22Z"/><path d="M2365,3476.86l14.56-17.67,4.39,3.34-13.7,18.51Z"/><path class="cls-1" d="M2808.17,3279.8c10-32.41,10-32.41-7.48-61,20.89-54.61,75.23-83.46,106.49-133.78-7.11,52.14-54.55,144.72-98.8,194.9Z"/><path class="cls-1" d="M2790.43,3312.19l17.74-32.39.2.13-18.52,31.85Z"/><path d="M2859.22,1978c7.62,3.9,14.84,4.28,21.87-.44,3.73-2.5,7.22-3.86,10.24.68,2.4,3.61,1.19,8.44-3.42,11-3.36,1.88-7.44,3.56-11.18,3.51-27.34-.38-48.36-12.19-62.35-35.91-2.49-4.23-2.3-4.34.1-10.91,12.52,7.54,19.43,21.78,33.69,27.46,1.57-3,2.88-6,4.63-8.72,3.25-5.07,3.83-9.11-1.23-14-3.37-3.26-5.12-8.46-6.85-13.08-1.54-4.13,1.29-6.72,5.3-4.71a20.8,20.8,0,0,1,7.7,7.08c4.82,7.45,9.06,8.69,16.09,3.46,2.36-1.76,4.21-4.22,6.29-6.35s4.38-3.91,6.82-1.45c1.64,1.66,3.51,4.88,2.92,6.58-1.36,3.91-3.94,7.49-6.46,10.87a9.61,9.61,0,0,1-5,3.12C2867.5,1959.06,2862,1966.69,2859.22,1978Z"/><path d="M2951.71,1922.2c-.44,3.91-.54,7.9-1.4,11.72-1.2,5.34-7.19,9.31-11.84,8.36-6.12-1.24-11.25-8.43-9-14.11,2.15-5.41,5.63-10.35,8.91-15.24,2.23-3.32,5.82-4.78,9.63-3.08,4,1.78,4.46,5.39,3.4,9.32a23.77,23.77,0,0,0-.43,2.95Z"/><path d="M2819,1886c-.21,2.64-.08,5.37-.72,7.9-1.13,4.47-6.31,8.22-10.24,7.89-5-.43-8.41-3.71-9.93-8.41-2-6.11,5.35-20.52,9.52-23,3.35-2,6.78-1.53,8.34,2.23,1.73,4.17,2.6,8.7,3.84,13.07Z"/><path class="cls-3" d="M2817.1,2243.81c6.4-2.92,12.52-.9,13.49,5.35,1.19,7.62,1.69,15.42-1.22,23a17.43,17.43,0,0,1-2.72,4.42c-2.6,3.26-6.54,4.11-10.08,1.61a15.55,15.55,0,0,1-5.23-6.49c-3.88-9.52-1.89-18.48,4.66-26.79Z"/><path class="cls-3" d="M2842.59,2258.16c5.3.23,8.71,3.68,7.23,8.2-1.81,5.52-4.14,10.94-8.67,15a13.14,13.14,0,0,1-3.34,2,5.31,5.31,0,0,1-7.32-2.37,11.72,11.72,0,0,1-1.3-6.15c.65-7.72,5.05-13.05,12.29-16.39Z"/><path class="cls-3" d="M2800.16,2261.05c-5.3.23-8.71,3.68-7.23,8.2,1.81,5.52,4.14,10.94,8.67,15a13.14,13.14,0,0,0,3.34,2,5.31,5.31,0,0,0,7.32-2.37,11.72,11.72,0,0,0,1.3-6.15c-.65-7.72-5.05-13.05-12.29-16.39Z"/><path class="cls-3" d="M2522.4,2154.13c6.32-8.89,16.26,3,25.3,24s10.58,37.18.71,44.94-20.44-24.56-22.79-32.16S2515.65,2163.64,2522.4,2154.13Z"/><path d="M2695.27,1823.07c11.19,12.56,21.19,25.42,37.32,32.55.52-2.24,1-3.74,1.2-5.27,6.2-41.91,29.71-71.6,65.26-92.93,10.8-6.48,21.36-13.37,33.46-21-1-7.78-2.12-16.91-3.5-26q-5.63-37-11.51-74c-1.32-8.2-2.84-16.41-4.92-24.44-2.48-9.57-.77-18.48,2.82-27.29,7.46-18.29,18.17-34.77,28.71-51.34,9.28-14.6,18.45-29.28,28.27-43.52,3.7-5.36,8.77-9.91,13.78-14.17a11.37,11.37,0,0,1,13.2-1.08c4.19,2.36,4.51,6.85,4.4,11.43-.73,30.28-.55,60.61-2.11,90.84-1.78,34.43,3.51,68.36,5.05,102.55.3,6.64.35,13.29.6,19.93.19,5,.53,9.91.86,16,12.08,1.89,23.77,3.79,35.5,5.51,4.72.69,5.88-3.49,8-6.38,9.08-12.72,17.47-26,27.46-38,13.42-16.05,28.17-31,42.21-46.54,10.44-11.56,24.22-18.57,36.66-27.42q6.06-4.31,12-8.76c18.63-14,37.25-27.88,60.76-33,9.5-2.07,18.67-.67,27.55,2.06s11.32,10.69,11.78,19c.84,15.23-4,29.51-8.11,43.89s-13,26.17-22.92,37c-6.79,7.38-11.87,6.37-16.68-2.74-2.32-4.4-4.7-8.77-7.7-14.34-7.4,7.72-15.43,14.36-21.28,22.54-17.8,24.86-34.85,50.27-52,75.62-2.36,3.5-3.41,7.89-5.82,13.68-11.89,1.88-25.85-.24-41.16,1.06,2.37,3.28,4.13,6.2,6.35,8.7,8.55,9.64,12,21.16,13.49,33.69,1.42,12.21,3.59,24.34,5.16,36.54,1.7,13.18,3.61,26.38,4.42,39.63a101.93,101.93,0,0,1-1.71,23.83c-2.67,15-2.1,30.57-7.55,45.14-6.53,17.45-16,32.9-30.3,45.05-4.39,3.73-7,7.55-5.82,13.64.57,2.85-.16,6-.3,9-1.5,31.62,8.82,60.17,22.72,87.8,1.64,3.27,3.56,6.47,4.7,9.91,5.59,16.86,16.61,30.23,27.92,43.32,12.22,14.13,24,28.52,32.71,45.15,8.31,15.76,4.6,30.64-10.39,40.66a67.22,67.22,0,0,0-6.63,4.43c-8.24,7.06-17.65,6.2-26.41,2.57-10.48-4.34-20.09-10.51-26.25-20.72-7-11.68-14.53-23.1-21.17-35-9.23-16.56-17.85-33.45-26.75-50.2-.6-1.13-1.3-2.2-2.76-4.64-4.53,16.86-11.15,31.48-18.47,45.85s-13.9,29.31-21.36,45.19c4.47.54,8,1,11.44,1.39,14.88,1.86,20.39,8.52,19.1,23.49-.37,4.26-1.41,8.47-2.24,13.21,8.63,4.27,19.8,5.08,23,16.58,2.95,10.52-1.08,18.85-8.6,26.37,4.43,7.38,4.67,15.17,3.62,23.26-.61,4.73-2.65,8.25-6.72,10.44-11.8,6.33-23.56,12.53-37.85,8.09-2.69-.84-6.61.22-9.26,1.68-15.9,8.74-24.76,7.56-36.95-5.47a24,24,0,0,0-2.53-2c-3,3.8-5.5,8.11-9.09,11.08s-8.1,4.53-12.3,6.53c-13.77,6.58-26.1,3.13-36.84-6.43-6.14-5.47-11.26-12.08-17.54-18.94-15.07,4.89-31.55,3.12-48.08,1.72-17.93-1.52-34.4-8-50.17-15.69-14-6.83-26.9-15.86-40.24-24-11-6.73-18.81-16.86-26.75-26.66-8.1-10-15.46-20.64-23.42-31.36-5,2.23-10.77,5.39-16.89,7.34-11.46,3.65-21.29,1.19-29.65-8.24-12.32-13.89-20.55-30.13-28.5-46.59-1.59-3.29-2.47-6.91-4.06-10.2-9.56-19.78-4-37.45,7.5-54.24,3.46-5.07,6.36-5.29,11.57-2.09a124.09,124.09,0,0,0,12.93,7.37c14.56,6.68,25.44,18,36.92,28.63,2.16,2,3.65,4.73,5.89,7.71,9.09-5.06,17.23-8.83,24.54-13.82,21.44-14.64,42.76-29.49,63.71-44.82,10.18-7.45,19.63-16,29.08-24.37,18.4-16.39,31.71-36.68,43.51-58,7.4-13.39,14.58-26.91,21.77-40.42a101.17,101.17,0,0,0,5-10.87c2.4-6.19,1.21-8.8-4.81-10.37-30-7.85-54.07-24.82-74-48.14-8-9.35-16-18.66-24-28-7.62-9-14-18.63-15.75-30.67-.38-2.56-1.69-5-2.81-8.15-7.41,1.91-12-.78-16.15-7.3-4.7-7.42-11.48-13.52-17.45-20.3-21.32,5.84-43.53,12.36-66,17.79-6.16,1.49-13.42.85-19.63-.82-10.5-2.83-21.15-6-28.68-15.08-1.58-1.9-4.53-2.67-6.88-3.91-17.24-9.14-30.26-22.64-40.35-39.14-8.31-13.6-9.54-28.56-9.26-44.1.29-15.84,7.62-28.79,15.4-41.55,3.93-6.46,10-10.81,18.47-9.06,8.21,1.69,12.68,7.15,14.2,14.92a38.58,38.58,0,0,1,.37,12.87c-1.77,11.83-10.56,16.44-21.88,12a11.42,11.42,0,0,0-2.49-.44c-.54.43-1,.61-1,.84-3.75,30.68,3,57.57,28.68,77.22,9.73,7.45,20,14.25,30.1,21.14,6.54,4.44,13.9,4.4,21.16,2.41,17.64-4.84,35.19-10,52.78-15a31.75,31.75,0,0,0,17.56-12.4c9.27-12.76,22.32-20.87,36.43-27.06,9.74-4.27,13.21-3.8,27.31-.68,1.84-3,4.37-6.13,5.78-9.68a397.47,397.47,0,0,0,25.12-100.38c5-41.52,3.74-83.06-6.87-123.86-3.85-14.8-9.07-29.28-12.35-44.19-4.06-18.45-9.64-36.8-9-56,.31-8.92,2-17.79,3-26.69.18-1.56.25-3.13.44-5.53-6.55,1-12.31,2.3-18.13,2.84-16.77,1.54-20.71-1.48-24.13-17.74-.2-1-.58-1.87-1-3.32-3.14,0-6.38-.33-9.53.06a154.4,154.4,0,0,1-49.68-2c-16.63-3.35-33.21-7.11-50-9.56a141.08,141.08,0,0,1-34.29-9.94c-16.56-6.91-33.75-12.37-50.08-19.75-11.73-5.3-22.43-12.85-33.71-19.17-14.79-8.29-29.92-16-44.52-24.62q-26.62-15.7-52.56-32.54-35.5-23.18-70.36-47.32c-17.49-12.13-34.55-24.9-51.66-37.59-21.13-15.68-41.68-32-60.91-50.09a301.82,301.82,0,0,1-41-47.59c-10.07-14.44-19.09-29.63-28.3-44.65-19.62-32-32.16-67.07-44.31-102.32-1.95-5.66-4.19-11.22-6.5-16.74-15.37-36.66-26-74.8-33.54-113.68-4.37-22.45-9-45.14-7.32-68.31,2.36-32.13,2.13-64.44,9.13-96.22,4.57-20.75,6-42.2,10.79-62.9,8-35.1,19.49-69.06,37.67-100.56a298.46,298.46,0,0,0,20.72-43.12c7.53-19.85,18.28-37.62,30.27-54.89,9.87-14.21,19.21-28.79,29.06-43,3.39-4.91,7.71-9.17,11.39-13.89,12.9-16.52,25.21-33.53,38.68-49.57,16.47-19.61,32.52-39.93,51.29-57.17s40.6-31.18,61.23-46.37c10.71-7.89,21.7-15.42,32.62-23,29.38-20.45,62.33-33,96.62-41.85,22.85-5.92,46.16-10.09,69.31-14.79,33.89-6.87,68.18-11.82,101.41-21.79,6.76-2,14.62-.61,20.06-6.72a4.19,4.19,0,0,1,2.82-.85c13.39-.12,25.1-5.64,37-10.86a87.11,87.11,0,0,1,20.18-5.55c16.39-2.8,32.82-5.89,49.36-7.23a284.87,284.87,0,0,1,46.83-.16,205.44,205.44,0,0,0,33.86,0c23.47-1.87,46.54.75,69.39,5.76,19.14,4.2,38.24,8.63,57.23,13.49,10.62,2.72,21.35,5.64,31.35,10,18.88,8.25,37.3,17.57,55.84,26.58a30.7,30.7,0,0,1,6.38,4.78c21.64,18.9,45.86,34.17,69.64,50.1a105.21,105.21,0,0,1,20.27,17.61c17.81,20.23,35.33,40.71,49.76,63.66,5.27,8.38,12.9,15.23,18.66,23.35,12.88,18.15,26,36.22,37.68,55.12,17.69,28.57,35.43,57,56.59,83.24,3.89,4.82,7.16,9.69,9.06,16.1,2,6.7,7.77,12.21,11.54,18.46,5.39,8.91,11.44,17.39,15.42,27.19,2.47,6.08,6.6,11.52,10.18,17.12,17.14,26.85,28.4,56.18,36.9,86.7,2,7.36,4.56,14.59,6.52,22a167.49,167.49,0,0,1,4,67.21c-1.2,8.52-.94,17.24-1.71,25.83-1.45,16.24-2.61,32.53-5,48.64-1.61,11.08-5.06,21.89-7.61,32.84-.51,2.2-1.24,4.58-.87,6.7,1.84,10.52-4.37,17.6-10.3,25.75,6.17,5.64,6.19,13.17,4.27,21.26-.91,3.86-.67,8-1.42,11.9-.66,3.45-2.08,6.74-3,10.15-.46,1.75-1.35,4.08-.63,5.31,2.59,4.39,1.12,7.67-.85,11.91-2.37,5.12-3,11.08-4.11,16.74-3.21,16.89-5.12,34.14-9.76,50.61-3.06,10.86-7,21.48-9.23,32.63-.76,3.76-4.66,7.07-4.87,10.73-.54,9.13-6.3,15.74-9.66,23.47-2.09,4.8-5.31,9.22-2.66,15,.56,1.24-.73,3.81-1.85,5.24-7.41,9.42-8.26,21.15-11.24,32-4.6,16.84-11.29,32.53-21.41,46.84-6.7,9.46-12.54,19.53-19.11,29.09-11.67,17-23.57,33.82-35.44,50.67a33.91,33.91,0,0,1-4.08,4.39c-11.11,11-21.84,22.34-33.47,32.72a349.26,349.26,0,0,1-35,28c-21.14,14.47-42.9,28-64.61,41.65-10.7,6.71-21.83,12.75-32.83,19-15.63,8.88-31.4,17.51-46.94,26.52-19.1,11.08-39.31,18.77-60.79,24.28-17.29,4.43-34.65,5.75-52.16,7.56s-34.88,5.08-52.34,7.52c-20.1,2.81-40.24,5.38-60.35,8.1-6.88.93-13.74,2-20,2.9-5.19,13,3.5,25.74-1.69,39-12.73-9.29-24.26-2.43-36.42-1.24-.29,2.22-.8,3.83-.65,5.37,1.88,19.83,1.07,40,6.25,59.41q7.72,28.9,16.73,57.45c7.79,24.66,10.88,49.84,11.75,75.63a386.8,386.8,0,0,1-2.92,63.71c-2.29,17.38-7.53,34.39-11.62,51.53a217.83,217.83,0,0,1-24.69,60.81c-2,3.37-2.5,6.22-.88,10.19C2702,1801.77,2702,1812.47,2695.27,1823.07ZM3339,592.52c-1.82-8.48-4.28-16.32-5.07-24.33-1.59-16.19-8.72-30.48-14.43-45.25-1.77-4.59-5.45-8.46-7.07-13.07-5.92-16.8-15.28-31.46-26.74-44.89-3.27-3.83-6.22-7.44-6.27-13,0-2.65-2-5.6-3.76-7.88-10.45-13.45-21.11-26.74-31.69-40.07l7.5-1.83c-5.39-6-9.22-11.51-14.21-15.55a16.86,16.86,0,0,1-6.12-16,13.91,13.91,0,0,0-2.4-10.84c-10-15.68-19.44-31.77-30-47.07-9.81-14.21-20.71-27.67-31.28-41.34-5.69-7.36-12-14.26-17.53-21.73-8.92-12-16.63-25-26.29-36.38-17.82-21-34.85-42.72-59.59-56.8-15.27-8.68-29.15-19.77-43.84-29.5-11.33-7.5-22.73-14.94-34.5-21.69-6.88-3.95-14.43-6.87-21.93-9.59-16.85-6.1-33.57-12.89-50.87-17.36-22.82-5.89-46.13-9.94-69.27-14.55A169.64,169.64,0,0,0,2820,60.28c-18.61-1-37.25-1.77-55.89-1.92a410.2,410.2,0,0,0-42.79,1.51c-17.86,1.73-35.7,4.24-53.36,7.44-10.35,1.87-21,4.3-29,12.22a4.89,4.89,0,0,1-2.4,1.62c-6.87.66-13.86,2.14-20.62,1.46-8.93-.9-17.3,1-25.52,3.25-29.13,8-58.2,16-88.13,20.89-28.85,4.7-57.48,10.84-86.1,16.9-40.47,8.56-75.86,27.58-108.08,53.2-18.48,14.69-37.91,28.19-56.34,42.94a317.72,317.72,0,0,0-30.65,28.35c-9,9.35-16.85,19.73-25,29.8-5.88,7.22-11.55,14.6-17.2,22-12.09,15.86-24.25,31.67-36.11,47.7-7.5,10.13-14.52,20.62-21.74,31-5.13,7.35-10,14.87-15.41,22-13.22,17.61-24.85,35.88-31.76,57.18a282.65,282.65,0,0,1-18.75,43.89,489.45,489.45,0,0,0-30.5,71.49c-2.23,6.61-4.65,13.2-6.16,20-4.48,20.12-8.42,40.36-10,61a93.26,93.26,0,0,1-1.26,9.88c-3.62,19.6-7.72,39.14-7.05,59.25a30.15,30.15,0,0,1-.15,4c-2,20.28-2.19,40.57,1.11,60.69,3.61,22,6.58,44,13.08,65.52,8.09,26.73,15.13,53.76,26.16,79.52,2.74,6.41,5.15,13,7.5,19.53,10,27.9,21,55.37,34.64,81.71,4.58,8.86,10,17.27,15,25.93,14.48,25.25,31.51,48.59,52.46,68.86,30.49,29.5,64.77,54.32,99.06,79.06,14.83,10.7,31.06,19.52,45.6,30.57,25.26,19.21,52.71,34.91,79.66,51.4,18.72,11.46,38.46,21.26,57.3,32.55,23,13.8,48.27,22.32,73.08,31.89a106.11,106.11,0,0,0,16.19,4.92c13,2.74,26.1,5,39.15,7.56,18.27,3.53,36.19,8.74,55.15,8.33,26.53-.58,52-7.09,77.76-12.33,14.93-3,29.59-7.64,44.61-10,24-3.73,48.14-6.23,72.25-9.13,24.76-3,49.56-5.66,74.31-8.77,22.82-2.87,46-5.8,66.52-16.57,38.29-20.13,75.86-41.62,113.51-62.94,12.73-7.21,24.35-16.45,37.26-23.28,26.7-14.14,51.49-30.46,71.58-53.43,7.85-9,17.81-16.23,25-25.67,12.6-16.65,25.16-33.41,34.89-52.11,5.5-10.57,12.8-20.21,19.25-30.29,11.13-17.39,15.72-37.21,21.22-56.71,3.07-10.88,5.77-21.83,12.19-31.56a80.08,80.08,0,0,0,9.94-20.4c3-9.81,3.67-20.32,6.61-30.15,7.73-25.83,14.54-51.83,18.93-78.46,3.08-18.66,8.07-37,7.78-56.17a23.38,23.38,0,0,1,1-5.73c1.65-6.75,3.86-13.4,5-20.24,4.4-27.26,8.81-54.53,12.52-81.89,2.47-18.19,5.35-36.47-3.45-54.3-2.73-5.54-2.25-12.66-3.41-20.14l5-2.69-12.41-16.91Zm-733.5,1638.3c26.28,62.23,117.79,99.86,173.6,87a17.32,17.32,0,0,0,.78-2.7c2.59-20.45,5.4-40.78,12.52-60.38,4.89-13.45,11.38-25.33,22.5-34.64,7.19-6,15.13-5.61,21,1.8,3.93,4.94,7.78,10,12.29,14.42a27.6,27.6,0,0,1,8.51,16.24c1.17,7.35,3.47,14.51,5.28,21.76l2.41.34c2.64-5.56,5.19-11.17,7.95-16.67,4.44-8.87,8.74-17.83,13.63-26.46,3.93-6.93,9.36-13.06,12.87-20.16,10.46-21.15,20.2-42.65,30.41-63.92,6.1-12.72,10.5-25.77,9.82-40.14-.05-1.11.95-2.28,1.41-3.32,8.57,1.72,9.14,2,11.76,10.26,4,12.71,8.94,24.93,16.2,36.27,5.72,8.93,10.07,18.73,15.62,27.79,10.06,16.44,20,33,31.07,48.76,8.39,11.88,16.22,12,27.59,3,9.77-7.8,11.41-16.87,5.82-28.23-5.77-11.74-13.55-22-21.44-32.34-10.29-13.45-20.68-26.91-29.78-41.16-6.4-10-10.65-21.4-16-32.1-11.46-22.95-18.19-47.08-18.41-72.85-.05-6.13,0-12.26,0-19.07a55.21,55.21,0,0,0-6.21,1.22c-21.54,7.42-43.17,11.44-66.43,9.41-32.62-2.85-62.19-13.25-90.23-29.32-4.43-2.54-9-4.89-13.71-7.47-1.51,6.24-2.24,11.19-3.91,15.81-9.07,25.08-20.65,49-33.76,72.21-11,19.51-25,36-43.64,48.53-3.86,2.59-7.53,5.46-11.28,8.2-15.82,11.53-31.31,23.57-47.56,34.45-13.74,9.2-28.37,17.06-42.81,25.64,3.24,6.82,6.67,13.26,9.34,20,1.14,2.87,1.68,6.69.76,9.51C2611.41,2218.71,2608.27,2224.6,2605.49,2230.82Zm277.87-724-2.14-.6c-3.72,5.43-7.28,11-11.19,16.27-13.92,18.76-25.55,38.91-36.4,59.53a42.48,42.48,0,0,0-4.13,29c7,36.28,12.54,72.77,13.69,109.81.13,4.11,2.11,8.13,2.68,12.27.32,2.33.19,5.21-.93,7.15a26,26,0,0,1-6.62,7.37c-9.76,7.48-19.5,15-29.68,21.91-16.26,11-29.24,25.11-39.79,41.42-7.24,11.18-13.59,23.11-14.52,36.71-1.83,26.57,2.87,52.28,11.17,77.5,3.74,11.37,10,20.71,18.31,29.26,10.46,10.7,23.31,17.79,35.9,25a166.89,166.89,0,0,0,85.89,22.43,112.27,112.27,0,0,0,58.67-17.3c16-9.95,27.31-25,35.16-42.51,5.28-11.79,6.68-24.34,8.56-36.77a178.64,178.64,0,0,0,2.07-29.74c-.43-25-3.45-49.67-7.81-74.31-2.41-13.63-7.25-25.88-16-35.84-4.82-5.47-5.49-10.27-4-16.09a54.83,54.83,0,0,1,5.66-14.79c6.15-10.25,12.87-20.17,19.6-30,15.21-22.32,31.47-43.81,51.65-61.95,14-12.63,30.14-21.6,48.95-25.23,2.44-.47,5.33-1.38,6.85-3.11,1.75-2,2.83-5.39,5.81-3.89a11.62,11.62,0,0,1,5.38,6.55c1.33,4.74,1.38,9.83,2.14,14.75s1.76,10,2.65,15l2.42.48c2.69-4,6.51-7.71,7.86-12.15,4.45-14.59,8.29-29.39,11.71-44.26.92-4-.33-8.56-.89-12.82-.52-3.88-3.09-5.57-7-5.74-7.77-.35-15.56,0-22.28,4.11-14.92,9.19-32.4,14.3-44.6,27.91-1.92,2.14-5,3.24-7.46,4.92-8.24,5.59-16.86,10.72-24.6,16.93-22.51,18.06-39,41.75-57.68,63.32-6.93,8-12.72,17-18.32,26.06-3.55,5.71-9.23,10.63-8.33,18.68.17,1.5-3.36,4.94-5,4.84-5.09-.34-10.12-1.84-15.11-3.12-2.83-.73-5.51-2.67-8.3-2.77-13.82-.51-27-7.57-42.13-2.37-6.87-25.72-3.5-50.89-5.76-75.53s-3.4-49.17-3.35-73.77C2882.16,1556.52,2884.79,1531.72,2883.36,1506.87Zm60,774.63c-4.25,0-7.75-.16-11.22,0-4,.23-7.92.95-11.89,1.12a10.43,10.43,0,0,1-10-5.49c-2.29-4.06.54-6.84,3.1-9.53,6.83-7.16,8.83-15.9,8.86-26.5-4.58-.31-8.94-1.45-12.92-.68-5.3,1-11.07,2.54-15.2,5.72-3.29,2.53-4.57,7.8-6.49,12-3.74,8.14-5.89,17.48-11.27,24.28-8.55,10.82-9.86,23.21-12.47,35.73-2,9.34-.65,16.77,6.19,23.62,5.61,5.62,10.1,7.23,16.41,2.48,4.15-3.12,6.89-8.11,11.07-13.28,2.64-.7,5.5.81,7.79,4.29,4.77,7.27,6.37,8,14.32,5.15a60,60,0,0,0,13.1-6.86c7-4.79,7.64-8.28,3.73-16.93-1.83.25-3.76.58-5.71.76-4.94.45-7.22-2.75-8.5-6.75s1.2-6.05,4.57-7.6a75.89,75.89,0,0,0,6.9-4C2939.59,2295.61,2943.08,2290.72,2943.39,2281.5ZM2664,1847.68c3.77,6.22,7.1,11.49,10.19,16.9,2.95,5.14,5.2,10.74,8.57,15.55,4,5.68,8.78,10.81,13.35,16.07,15.48,17.79,30.81,35.77,52.24,46.93,1.47.77,3.18,1.08,6.57,2.19-14.26-23.77-16.27-49.21-21.81-72.63-18.49-10.54-34.61-22.38-47-39.24Zm-123.3,360.19,10.56,15.71c4.27,6.35,10.27,7.92,17.45,6.47a50.15,50.15,0,0,0,23.83-11.76c8.74-7.74,8.9-7.73,4.23-18.51-9.2-21.23-26.27-35.69-43.64-49.71-5.3-4.28-11.93-6.9-17.7-10.14-7.8,8.16-10,14.73-11.38,23.57C2522.41,2174,2535,2198.75,2540.66,2207.87Zm573.62-577.51-2.08-2.29c-14,3.06-27.18,8.74-37.93,18-9.45,8.16-17,18.57-25.27,28.06-2.62,3-5,6.24-7.42,9.39-10.17,13.12-20.53,26.09-30.41,39.43-4.73,6.39-8.66,13.39-12.69,20.27-1.22,2.08-1.54,4.68-2.54,7.88,8.51,0,15.79-.14,23.07.06,3.93.1,6-1.84,7.72-5.06,4.25-7.89,8.14-16.07,13.27-23.38,13.35-19,26.8-38,41.16-56.32,8.57-10.9,19-20.37,28.5-30.53C3111.3,1634.15,3112.74,1632.21,3114.27,1630.36Zm-435.86,158.23c-.68-.37-1-.72-1.26-.66-15.32,4-28.13,12.46-39.81,22.77-1.11,1-1.64,4-1,5.39,3.42,7,5.47,14.93,13.32,19.85,10.45-6.31,20.94-12.53,29.4-21.54a10.58,10.58,0,0,0,2.6-6.11C2682.13,1801.72,2682.7,1795,2678.42,1788.59Zm-12.93-389.37,63.59-8.27v-17.63c-20.69,4.63-40.73,8.92-60.66,13.69C2662.92,1388.32,2662.86,1389.7,2665.48,1399.23Zm176.27,861.82c-3-12.36-6.54-22.62-15.9-30.91-11.87,8.51-22.44,20.7-21.76,33.36.42,7.83-2.22,19.15-2.22,19.15-2.46,13.88-6.85,27.36-4.72,41.32,1.06,7,4.35,13.84,7.61,20.24,3.18,6.24,8.86,8.29,16.05,6.91,13.56-2.6,20.51-9.25,23.24-23,.58-2.92,1.83-5.72,2.24-8.66.35-2.52.76-5.61-.34-7.63-2.32-4.26-.77-7.63.95-11.28,3.81-8.07,2.4-15.77-1.58-24.38M2492,1707.2c-.73-1-2-4.76-4-5.11s-5.27,2.15-6.59,4.27a27.23,27.23,0,0,0-3.45,10.27c-.66,4.54,3,6.92,7,4.71C2489.66,1718.7,2491.95,1714.44,2492,1707.2Z"/></svg>