<svg id="Layer_1" data-name="Layer 1" xmlns="http://www.w3.org/2000/svg" viewBox="0 0 2285.29 351.04"><defs><style>.cls-1{fill:#ef5a54;}.cls-2{fill:#fff;}.cls-3{fill:#666;}</style></defs><title>Artboard 2@1x</title><path class="cls-1" d="M1444.39,185c.89,13.31-3.34,25.21-8.35,36.91a22.29,22.29,0,0,1-3.22,5c-14.43,18-32.25,29.3-56.16,29.73-13.62.24-27.27,1.26-40.83,2.66-15.53,1.61-31,3.93-46.44,6.16-9.53,1.37-18.93,2.58-28.71,1.94-7.84-.51-15.84,1.48-23.79,2.24a114.68,114.68,0,0,1-13.89.92q-28.38-.74-56.74-1.93c-5.64-.23-11.25-1.08-16.87-1.64-27.25-2.72-54.52,1-81.77-.35-4.64-.23-9.27-.67-13.91-1-2-.13-4-.55-5.94-.21-13,2.33-26,1.63-38.78-.44s-25.87-1.46-38.8-2.27A308.81,308.81,0,0,1,937.57,259a131.23,131.23,0,0,0-18.79-2c-5.6-.15-11.19-1.21-16.76-2-4.58-.66-9.1-1.78-13.7-2.26-10.64-1.11-21.29-2.26-30.47-8.39-13.84-9.24-25.29-20.88-31.58-36.43-4-9.85-5.39-20.17-2.53-31.19,4.41-17,11.85-32.41,20.43-47.52,6.84-12,17.86-18.69,29.78-24a131.81,131.81,0,0,1,22.72-7.31c12.55-3,25.44-4.59,37.69-9a34.33,34.33,0,0,1,21.58-.6c5,1.42,10.49,1.71,15.78,2,12.62.67,25.26,1.45,37.89,1.41,14.63,0,29.26-1.2,43.9-1.36,18.32-.2,36.67-.33,55,.34,23.61.87,47.25,1.83,70.75,4.12,20,1.95,39.91,1.62,59.88,1.69,21,.08,42-.48,63,.25,21.59.75,43.25,1.38,64.64,5.15,2.61.46,5.31.46,8,.71a74.62,74.62,0,0,1,48.24,23.55,24.29,24.29,0,0,1,4.71,6.4c4.54,10,8.94,20.07,13.11,30.23A47.79,47.79,0,0,1,1444.39,185Zm-602.26,7.61,2-4,4-6,2-4c3.62-2.35,5-6.06,6-10l2-4,0,0-2,4c-3.57,2.38-5.07,6-6,10l-2,4-4,6-2,4Zm14-50-2,4c-6.42,5.08-11.26,11.15-12.21,19.7,3.77-6.76,9.66-12.18,12.17-19.74l2-4Zm16,68a62,62,0,0,0-4.85,7.23c-.43.86.67,2.5,1.33,4.58,2.93-5.15,2.93-5.15,3.48-11.85Zm6-14.05a6.25,6.25,0,0,1,6.12,2.28c2.83,3.43,4.54,7.19,3.93,11.75-2.95,3.6-6.05,7.12-6.12,12.14,4.22-3,5.39-7.47,6-12.2,4-3.34,4.9-9.62,10.66-11.27,4.68,2.8,9.09,5.64,13.71,8.08,1.88,1,5,.39,6.19,1.73,2.81,3.25,5.47,5.45,10.14,5,1.33-.13,3.17,2,4.26,3.43.89,1.2,1,3,1.53,4.65h11.75l2.55,12.1c9.65,1.29,19.14,3.36,28.68,3.62,11.92.32,23.81,3.17,35.81.84,1.57-.3,3.3.26,5,.38,5,.36,9.94.93,14.92,1,14,.2,28,.72,42,.13,14.3-.61,28.48,3.59,42.78.71a8.72,8.72,0,0,1,2,.17c7.64.35,15.29,1.07,22.92.94,19.62-.33,39.24-1.7,58.84-1.46,32,.39,63.82-1.82,95.67-4.58a509.3,509.3,0,0,1,55.82-2.15,301.55,301.55,0,0,0,41.83-1.61c9.4-1.09,19.87-2,22.13-15.13,5.82,3,8.42-.42,10.44-4.39a74.47,74.47,0,0,0,8.33-31.6c.24-6.86-1.16-13.16-5.07-18.94a45.68,45.68,0,0,1-5.19-9.63c-2.06-5.58-5.82-9.77-10.26-13.26-5.75-4.51-11.81-8.67-17.95-12.65a40.43,40.43,0,0,0-16.71-6.19c-17.79-2.45-35.46-5.71-53.5-6.25-19.88-.59-39.61-3.53-59.66-2.11-17.56,1.24-35.27.83-52.9.49-13.29-.26-26.57-1.52-39.84-2.41-16.25-1.08-32.47-2.74-48.73-3.24-23.95-.74-47.92-.68-71.88-.95-9.3-.1-18.6-.21-27.9-.2-13.91,0-27.85.69-41.73,0-11.26-.53-22.47-2.48-33.66-4-5.06-.71-9.76-.58-14.62,1.47-3.93,1.66-8.29,2.42-12.53,3.2-5.56,1-11.19,1.7-16.79,2.44a81.67,81.67,0,0,0-34.33,12.29c4.58,12.13-2.05,21.12-8.22,30.32a38.81,38.81,0,0,0-2.85,5.75c2.4,5,5.16,8.6,5.8,12.57.78,4.78-.28,9.86-.45,14.81,0,.51.57,1,.88,1.57l5.49-3.48c4.56,5.64,4.56,5.64,4.81,13.87Zm22.07,21.1-2.57,10.6c2.92-.74,5.43-.63,6.09-1.69C905.57,223.67,903.47,221.31,900.2,217.69ZM917.84,229c1.82,2.35,3.68,3.36,5.06,1,.76-1.3.14-3.4.14-6.87Z"/><path class="cls-2" d="M878.17,193.63c.61-4.56-1.1-8.32-3.93-11.75a6.25,6.25,0,0,0-6.12-2.28l0,0c-.26-8.23-.26-8.23-4.81-13.87l-5.49,3.48c-.31-.52-.9-1.06-.88-1.57.17-5,1.22-10,.45-14.81-.64-4-3.41-7.6-5.8-12.57a38.81,38.81,0,0,1,2.85-5.75c6.17-9.2,12.8-18.19,8.22-30.32A81.67,81.67,0,0,1,897,91.93c5.61-.74,11.23-1.42,16.79-2.44,4.24-.77,8.6-1.53,12.53-3.2,4.86-2.06,9.55-2.18,14.62-1.47,11.2,1.57,22.4,3.52,33.66,4,13.88.65,27.82,0,41.73,0,9.3,0,18.6.1,27.9.2,24,.26,47.93.21,71.88.95,16.26.5,32.49,2.16,48.73,3.24,13.28.89,26.55,2.15,39.84,2.41,17.63.34,35.34.75,52.9-.49,20.05-1.42,39.78,1.53,59.66,2.11,18,.53,35.71,3.79,53.5,6.25a40.43,40.43,0,0,1,16.71,6.19c6.14,4,12.19,8.14,17.95,12.65,4.45,3.49,8.21,7.68,10.26,13.26a45.68,45.68,0,0,0,5.19,9.63c3.92,5.78,5.32,12.08,5.07,18.94a74.47,74.47,0,0,1-8.33,31.6c-2,4-4.63,7.42-10.44,4.39-2.26,13.09-12.73,14-22.13,15.13a301.55,301.55,0,0,1-41.83,1.61,509.3,509.3,0,0,0-55.82,2.15c-31.85,2.76-63.66,5-95.67,4.58-19.61-.24-39.23,1.13-58.84,1.46-7.63.13-15.28-.6-22.92-.94a8.72,8.72,0,0,0-2-.17c-14.3,2.88-28.48-1.31-42.78-.71-14,.59-28,.07-42-.13-5-.07-9.95-.64-14.92-1-1.66-.12-3.39-.69-5-.38-12,2.33-23.89-.52-35.81-.84-9.54-.26-19-2.33-28.68-3.62l-2.55-12.1H924.6c-.51-1.68-.64-3.45-1.53-4.65-1.09-1.46-2.94-3.57-4.26-3.43-4.67.46-7.33-1.74-10.14-5-1.16-1.34-4.32-.74-6.19-1.73-4.62-2.44-9-5.28-13.71-8.08-5.76,1.66-6.71,7.93-10.66,11.27Zm76.1-31.19c.47,5.76.51,6.14-.88,6.95-4.69,2.73-9.7,4.48-15.21,3.77s-8.2-4.48-7.12-9.91a23.07,23.07,0,0,1,3-8.4c6.16-9,11.76-18.92,24.42-20.16a5.44,5.44,0,0,0,2.83-.89c1.44-1.19,3.57-2.63,3.65-4.06s-1.77-3.48-3.29-4.25c-6.85-3.5-13.42-1.07-18.64,3.11-11.82,9.44-20,21.34-21,37.08-.82,13.26,8.82,22.16,22,20.2a74.72,74.72,0,0,0,8.51-2.27l7.4,7.51c5.29-10.77,3.67-21.65,5.63-32.38,3.46-1.22,6.89-2.32,10.2-3.69a3.06,3.06,0,0,0,1.29-2.44,3,3,0,0,0-1.4-2.36,20.71,20.71,0,0,0-5.8-1c-9.93-.29-18.9,3.45-27.84,7.06-1.19.48-2.77,3-2.42,3.68.8,1.5,2.61,3.29,4.14,3.41C947,163.6,950.26,162.85,954.28,162.44Zm42.93-18.31c6.68-2.81,11.91-4.88,17-7.22,2.66-1.22,6-2.62,4.57-6.45-1.32-3.42-4.52-1.91-7-1.4q-8.8,1.82-17.52,4a60,60,0,0,0-6.42,2.36c-.23,4.71-.21,9-.69,13.29-.75,6.6-2.21,13.14-2.67,19.75a47.39,47.39,0,0,0,1,13.79c1.4,6,3.86,7.79,10,7.58a45.88,45.88,0,0,0,26.83-9.55c.78-.6,1.82-1.28,2-2.11.46-1.81,1.2-4.15.44-5.49s-3.16-2.12-4.91-2.23c-1.9-.12-3.86.83-5.81,1.29-3.56.84-7.1,1.78-10.69,2.47-2.77.54-6.53,2.45-7.86-1.26-1.41-3.91,2.69-4.54,5.35-5.65a17.37,17.37,0,0,0,2.8-1c4.71-3.06,9.49-6,13.95-9.42,1.18-.9,1.32-3.18,2.48-6.24l-22.88,3.72ZM1133,151.51c-5.42-2.25-5.44-2.35-9.55-1.64-5.23.9-10.41,2.13-15.66,2.92-3.71.55-5.53-1.65-5.11-5.36.35-3.07,2.17-4.66,4.88-5.62a77.71,77.71,0,0,0,10.2-3.91,6.31,6.31,0,0,0,3.07-4.43c.07-2.92-2.69-3.8-5-3.41-5.87,1-11.71,2.28-17.49,3.7-4,1-6.1,3.86-6.11,8,0,10.29-.12,20.58.09,30.86a24,24,0,0,0,1.8,7.72c2.26,6,6.08,8.18,12.49,7.15,7.41-1.2,13.74-4.9,19.51-9.43,2.65-2.08,4.2-5.11,2-9.56-4.43-.2-8.87.83-13.31,1.9-2.9.7-5.75,1.67-8.69,2.08a3.6,3.6,0,0,1-2.89-1.92,3.87,3.87,0,0,1,1-3.42,13.66,13.66,0,0,1,4.46-2c4.08-1.4,8.28-2.48,12.27-4.1C1125.72,159.07,1130.34,156.61,1133,151.51Zm199.46,10.08c-4.33-3.2-8.53-3.76-12.79-4.17-3-.29-5-1.63-5.11-4.93-.1-3.48,1.49-5.5,5.14-6.15,2.28-.4,4.66-.25,6.93-.68s4.72-.83,6.54-2.06c1.38-.94,2.72-3.25,2.57-4.79s-1.89-3.57-3.44-4.27a15,15,0,0,0-6.8-.92c-3.63.2-7.22,1.14-10.86,1.31-7,.34-9.33,2.22-10.38,10.65-.87,6.9-1.73,13.83-2,20.77a55.25,55.25,0,0,0,1,14.8,13.5,13.5,0,0,0,5.47,7.79c6.47,3.9,22,.28,26.87-5.6,1.82-2.18,2.82-4.58,1.19-7.29s-4.2-2.9-7-2.28c-4.21.94-8.4,2-12.65,2.68-1.27.2-2.73-.79-5.37-1.65C1318.27,168.82,1327.87,170.26,1332.42,161.59Zm-123.26-26.3c-2.68,8-5.26,15.52-7.72,23.07-2.25,6.92-1.68,13.82.58,20.61.48,1.43,1.66,2.62,3,4.58l6.7-7.25c2.29,0,4.93-.08,7.56,0s5,.37,7,.53c3.1,5.41.35,12.54,7.91,15.53,1-2.38,2.23-4.35,2.52-6.44a104.19,104.19,0,0,0-2-38.52,32.58,32.58,0,0,0-2.94-7.4c-3.05-5.86-5.58-7-12.1-6C1216.34,134.47,1213.06,134.81,1209.16,135.29Zm-64.87,2.34c.59,13.4,1.12,25.95,1.74,38.48a7.14,7.14,0,0,0,1.11,3.76c.91,1.21,2.4,2.76,3.61,2.74s2.59-1.81,3.07-3.13c.65-1.81.48-3.92.72-5.89.3-2.53-.57-5.8,2.65-6.88,3.62-1.21,5.2,2,7.11,4.2,2.8,3.28,5.53,6.63,8.49,9.76,3.4,3.58,7.41,4.59,9.6,2.78,1.94-1.6,1.88-6.19-2.46-9.32a24.22,24.22,0,0,1-3.64-3.39c-2.17-2.39-5.22-4.27-5-7.71,2.71-4.63,5.77-8.67,7.58-13.21,4.85-12.14-2.94-21.61-15.8-19.54A49.33,49.33,0,0,0,1144.29,137.63Zm-73.17-15.33c-3.21,4.17-3.33,4.17-3.39,6.83-.12,6,0,12-.22,18-.06,1.74-.94,3.44-1.68,6-2.35-1.79-4.07-2.78-5.38-4.17-3.65-3.87-7.13-7.89-10.65-11.87-2.25-2.54-4.48-5.06-9.08-3.47-2.45,12.42-3.77,25.19-2.08,38.11.31,2.33,2,4.47,3.66,7.84,6.62-8.29,4.19-17.54,7-25.59,1.13.51,2.35.66,2.78,1.31,4.75,7.25,13.15,11.24,17.09,19.29.61,1.25,3.3,2.21,4.93,2.08,2.54-.21,3.8-2.42,4-5a13,13,0,0,0-.18-2c-.45-6.6-1-13.2-1.31-19.81-.24-6,0-12-.24-18C1076.26,127.94,1075.81,123.88,1071.12,122.31Zm194.61,30.34c0,5.09-.17,9.71.05,14.32a66.79,66.79,0,0,0,1.33,11.79c1,4.27,3.41,6.44,5.57,6,2.4-.45,5-4.61,4.81-8a10,10,0,0,0-1.08-3.76c-2.86-5.72-1.73-11.63-1-17.54.65-5.59,3.24-9.07,9.32-9.72a23.78,23.78,0,0,0,8.37-2.81,3.94,3.94,0,0,0-.45-7.14,10.43,10.43,0,0,0-3.8-1,69.19,69.19,0,0,0-30.9,6.16c-4,1.77-4.1,6.22-.29,8.61C1259.78,150.94,1262.45,151.45,1265.73,152.65ZM944.15,209.49c-.62,1.43-1.36,2.43-1.39,3.46,0,.59,1.11,1.22,1.72,1.83a24.5,24.5,0,0,0,2.1-3.37C946.66,211.23,945.37,210.43,944.15,209.49Z"/><path class="cls-2" d="M844.12,129.6c-2.5,7.56-8.39,13-12.17,19.74,1-8.55,5.8-14.62,12.21-19.7Z"/><path class="cls-2" d="M890.2,200.69c3.28,3.62,5.37,6,3.52,8.92-.67,1.05-3.17.95-6.09,1.69Z"/><path class="cls-2" d="M862.12,193.6c-.55,6.7-.55,6.7-3.48,11.85-.65-2.08-1.76-3.71-1.33-4.58a62,62,0,0,1,4.85-7.23Z"/><path class="cls-2" d="M878.1,193.57c-.66,4.73-1.82,9.21-6,12.2.07-5,3.17-8.54,6.12-12.14Z"/><path class="cls-2" d="M907.84,212l5.19-5.87c0,3.47.62,5.57-.14,6.87C911.52,215.39,909.66,214.38,907.84,212Z"/><path class="cls-2" d="M840.17,161.63c.93-4,2.43-7.6,6-10l-.06,0c-1,3.91-2.38,7.63-6,10Z"/><path class="cls-2" d="M838.12,165.6l-4,6,.07.06,4-6Z"/><path class="cls-2" d="M846.18,151.65l2-4,0,0-2,4Z"/><path class="cls-2" d="M844.17,129.65l2-4,0,0-2,4Z"/><path class="cls-2" d="M832.17,175.63l2-4-.07-.06-2,4Z"/><path class="cls-2" d="M838.18,165.65l2-4-.06,0-2,4Z"/><path class="cls-2" d="M846.16,125.63l0,0Z"/><path class="cls-2" d="M832.13,175.59l0,0Z"/><path class="cls-2" d="M868.13,179.59l0,0Z"/><path class="cls-2" d="M862.16,193.64l0,0Z"/><path class="cls-2" d="M848.16,147.64l0,0Z"/><path d="M954.28,162.44c-4,.41-7.31,1.16-10.53.91-1.52-.12-3.34-1.91-4.14-3.41-.35-.66,1.23-3.2,2.42-3.68,8.94-3.61,17.91-7.35,27.84-7.06a20.71,20.71,0,0,1,5.8,1,3,3,0,0,1,1.4,2.36,3.06,3.06,0,0,1-1.29,2.44c-3.31,1.37-6.74,2.47-10.2,3.69-2,10.74-.34,21.61-5.63,32.38l-7.4-7.51a74.72,74.72,0,0,1-8.51,2.27c-13.14,2-22.78-6.94-22-20.2,1-15.74,9.16-27.64,21-37.08,5.23-4.18,11.79-6.61,18.64-3.11,1.52.77,3.36,2.86,3.29,4.25s-2.21,2.87-3.65,4.06a5.44,5.44,0,0,1-2.83.89c-12.66,1.24-18.26,11.14-24.42,20.16a23.07,23.07,0,0,0-3,8.4c-1.08,5.43,1.7,9.21,7.12,9.91s10.52-1,15.21-3.77C954.79,168.57,954.75,168.2,954.28,162.44Z"/><path d="M997.2,144.13v10.16l22.88-3.72c-1.15,3.06-1.29,5.34-2.48,6.24-4.46,3.39-9.24,6.36-13.95,9.42a17.37,17.37,0,0,1-2.8,1c-2.66,1.11-6.76,1.74-5.35,5.65,1.34,3.7,5.09,1.79,7.86,1.26,3.59-.69,7.13-1.63,10.69-2.47,1.94-.46,3.91-1.41,5.81-1.29,1.74.11,4.18.93,4.91,2.23s0,3.68-.44,5.49c-.21.83-1.25,1.51-2,2.11a45.88,45.88,0,0,1-26.83,9.55c-6.13.21-8.59-1.55-10-7.58a47.39,47.39,0,0,1-1-13.79c.46-6.61,1.92-13.15,2.67-19.75.48-4.26.47-8.57.69-13.29a60,60,0,0,1,6.42-2.36q8.72-2.16,17.52-4c2.48-.51,5.67-2,7,1.4,1.48,3.83-1.91,5.23-4.57,6.45C1009.11,139.25,1003.88,141.32,997.2,144.13Z"/><path d="M1133,151.51c-2.62,5.1-7.24,7.56-12.09,9.53-4,1.62-8.19,2.71-12.27,4.1a13.66,13.66,0,0,0-4.46,2,3.87,3.87,0,0,0-1,3.42,3.6,3.6,0,0,0,2.89,1.92c2.93-.4,5.79-1.37,8.69-2.08,4.44-1.07,8.88-2.1,13.31-1.9,2.21,4.45.66,7.48-2,9.56-5.77,4.53-12.1,8.23-19.51,9.43-6.4,1-10.22-1.14-12.49-7.15a24,24,0,0,1-1.8-7.72c-.21-10.28-.13-20.57-.09-30.86,0-4.16,2.08-7,6.11-8,5.79-1.42,11.62-2.72,17.49-3.7,2.34-.39,5.1.49,5,3.41a6.31,6.31,0,0,1-3.07,4.43,77.71,77.71,0,0,1-10.2,3.91c-2.71,1-4.53,2.55-4.88,5.62-.42,3.71,1.4,5.92,5.11,5.36,5.25-.78,10.42-2,15.66-2.92C1127.52,149.16,1127.54,149.26,1133,151.51Z"/><path d="M1332.42,161.59c-4.55,8.67-14.15,7.23-20.67,13.24,2.64.86,4.1,1.85,5.37,1.65,4.25-.67,8.44-1.75,12.65-2.68,2.79-.62,5.36-.45,7,2.28s.62,5.11-1.19,7.29c-4.9,5.88-20.4,9.5-26.87,5.6a13.5,13.5,0,0,1-5.47-7.79,55.25,55.25,0,0,1-1-14.8c.3-6.94,1.17-13.87,2-20.77,1.06-8.43,3.38-10.31,10.38-10.65,3.63-.18,7.22-1.11,10.86-1.31a15,15,0,0,1,6.8.92c1.55.7,3.28,2.7,3.44,4.27s-1.18,3.85-2.57,4.79c-1.82,1.23-4.29,1.64-6.54,2.06s-4.65.28-6.93.68c-3.65.64-5.24,2.67-5.14,6.15.09,3.3,2.09,4.64,5.11,4.93C1323.89,157.83,1328.09,158.39,1332.42,161.59Z"/><path d="M1209.16,135.29c3.9-.48,7.17-.82,10.43-1.31,6.51-1,9,.17,12.1,6a32.58,32.58,0,0,1,2.94,7.4,104.19,104.19,0,0,1,2,38.52c-.29,2.1-1.56,4.06-2.52,6.44-7.56-3-4.81-10.13-7.91-15.53-1.94-.15-4.46-.43-7-.53s-5.27,0-7.56,0l-6.7,7.25c-1.29-2-2.48-3.15-3-4.58-2.27-6.78-2.83-13.69-.58-20.61C1203.9,150.81,1206.48,143.29,1209.16,135.29Zm4.09,27.6c3.79.12,7,.48,10.12.18,1.35-.13,3.43-1.42,3.7-2.55,1.31-5.36,2-10.83-1.7-15.52-4-.3-5.74,2.28-7.46,4.59C1215.4,153,1213,156.54,1213.25,162.9Z"/><path d="M1144.29,137.63A49.33,49.33,0,0,1,1163,130.3c12.86-2.07,20.65,7.4,15.8,19.54-1.81,4.54-4.88,8.58-7.58,13.21-.18,3.44,2.87,5.32,5,7.71a24.22,24.22,0,0,0,3.64,3.39c4.34,3.13,4.4,7.72,2.46,9.32-2.2,1.81-6.2.8-9.6-2.78-3-3.12-5.7-6.47-8.49-9.76-1.91-2.24-3.49-5.42-7.11-4.2-3.22,1.08-2.35,4.35-2.65,6.88-.24,2-.07,4.08-.72,5.89-.47,1.31-2,3.11-3.07,3.13s-2.71-1.53-3.61-2.74a7.14,7.14,0,0,1-1.11-3.76C1145.41,163.58,1144.89,151,1144.29,137.63Zm27,3.38c-5.25-2.05-9-1.36-12.46,1-1.85,1.28-3.51,2.86-5.51,4.51l2.37,8.31C1163,152.42,1169.19,150,1171.29,141Z"/><path d="M1071.12,122.31c4.69,1.57,5.14,5.64,5.31,9.6.25,6,0,12,.24,18,.27,6.61.85,13.21,1.31,19.81a13,13,0,0,1,.18,2c-.23,2.56-1.49,4.77-4,5-1.63.13-4.32-.83-4.93-2.08-3.94-8-12.34-12-17.09-19.29-.43-.66-1.64-.8-2.78-1.31-2.83,8-.41,17.3-7,25.59-1.62-3.37-3.36-5.51-3.66-7.84-1.7-12.92-.38-25.69,2.08-38.11,4.61-1.6,6.83.92,9.08,3.47,3.52,4,7,8,10.65,11.87,1.31,1.39,3,2.38,5.38,4.17.75-2.55,1.62-4.26,1.68-6,.22-6,.09-12,.22-18C1067.79,126.48,1067.92,126.48,1071.12,122.31Z"/><path d="M1265.73,152.65c-3.28-1.2-6-1.71-8.11-3.06-3.81-2.39-3.7-6.84.29-8.61a69.19,69.19,0,0,1,30.9-6.16,10.43,10.43,0,0,1,3.8,1,3.94,3.94,0,0,1,.45,7.14,23.78,23.78,0,0,1-8.37,2.81c-6.07.65-8.66,4.13-9.32,9.72-.69,5.91-1.82,11.82,1,17.54a10,10,0,0,1,1.08,3.76c.21,3.37-2.42,7.53-4.81,8-2.16.4-4.59-1.76-5.57-6a66.79,66.79,0,0,1-1.33-11.79C1265.57,162.37,1265.73,157.74,1265.73,152.65Z"/><path d="M944.15,209.49c1.22.94,2.52,1.74,2.44,1.92a24.5,24.5,0,0,1-2.1,3.37c-.61-.61-1.74-1.24-1.72-1.83C942.79,211.92,943.53,210.91,944.15,209.49Z"/><path class="cls-2" d="M1213.25,162.9c-.22-6.35,2.14-9.91,4.66-13.3,1.72-2.31,3.47-4.89,7.46-4.59,3.67,4.69,3,10.16,1.7,15.52-.27,1.12-2.35,2.42-3.7,2.55C1220.24,163.38,1217,163,1213.25,162.9Z"/><path class="cls-2" d="M1171.29,141c-2.09,8.94-8.29,11.4-15.6,13.86l-2.37-8.31c2-1.65,3.66-3.22,5.51-4.51C1162.29,139.65,1166,139,1171.29,141Z"/><path d="M1444.39,168c.89,13.31-3.34,25.21-8.35,36.91a22.29,22.29,0,0,1-3.22,5c-14.43,18-32.25,29.3-56.16,29.73-13.62.24-27.27,1.26-40.83,2.66-15.53,1.61-31,3.93-46.44,6.16-9.53,1.37-18.93,2.58-28.71,1.94-7.84-.51-15.84,1.48-23.79,2.24a114.68,114.68,0,0,1-13.89.92q-28.38-.74-56.74-1.93c-5.64-.23-11.25-1.08-16.87-1.64-27.25-2.72-54.52,1-81.77-.35-4.64-.23-9.27-.67-13.91-1-2-.13-4-.55-5.94-.21-13,2.33-26,1.63-38.78-.44s-25.87-1.46-38.8-2.27A308.81,308.81,0,0,1,937.57,242a131.23,131.23,0,0,0-18.79-2c-5.6-.15-11.19-1.21-16.76-2-4.58-.66-9.1-1.78-13.7-2.26-10.64-1.11-21.29-2.26-30.47-8.39-13.84-9.24-25.29-20.88-31.58-36.43-4-9.85-5.39-20.17-2.53-31.19,4.41-17,11.85-32.41,20.43-47.52,6.84-12,17.86-18.69,29.78-24a131.81,131.81,0,0,1,22.72-7.31c12.55-3,25.44-4.59,37.69-9a34.33,34.33,0,0,1,21.58-.6c5,1.42,10.49,1.71,15.78,2,12.62.67,25.26,1.45,37.89,1.41,14.63,0,29.26-1.2,43.9-1.36,18.32-.2,36.67-.33,55,.34,23.61.87,47.25,1.83,70.75,4.12,20,1.95,39.91,1.62,59.88,1.69,21,.08,42-.48,63,.25,21.59.75,43.25,1.38,64.64,5.15,2.61.46,5.31.46,8,.71a74.62,74.62,0,0,1,48.24,23.55,24.29,24.29,0,0,1,4.71,6.4c4.54,10,8.94,20.07,13.11,30.23A47.79,47.79,0,0,1,1444.39,168Zm-602.26,7.61,2-4,4-6,2-4c3.62-2.35,5-6.06,6-10l2-4,0,0-2,4c-3.57,2.38-5.07,6-6,10l-2,4-4,6-2,4Zm14-50-2,4c-6.42,5.08-11.26,11.15-12.21,19.7,3.77-6.76,9.66-12.18,12.17-19.74l2-4Zm16,68a62,62,0,0,0-4.85,7.23c-.43.86.67,2.5,1.33,4.58,2.93-5.15,2.93-5.15,3.48-11.85Zm6-14.05a6.25,6.25,0,0,1,6.12,2.28c2.83,3.43,4.54,7.19,3.93,11.75-2.95,3.6-6.05,7.12-6.12,12.14,4.22-3,5.39-7.47,6-12.2,4-3.34,4.9-9.62,10.66-11.27,4.68,2.8,9.09,5.64,13.71,8.08,1.88,1,5,.39,6.19,1.73,2.81,3.25,5.47,5.45,10.14,5,1.33-.13,3.17,2,4.26,3.43.89,1.2,1,3,1.53,4.65h11.75l2.55,12.1c9.65,1.29,19.14,3.36,28.68,3.62,11.92.32,23.81,3.17,35.81.84,1.57-.3,3.3.26,5,.38,5,.36,9.94.93,14.92,1,14,.2,28,.72,42,.13,14.3-.61,28.48,3.59,42.78.71a8.72,8.72,0,0,1,2,.17c7.64.35,15.29,1.07,22.92.94,19.62-.33,39.24-1.7,58.84-1.46,32,.39,63.82-1.82,95.67-4.58a509.3,509.3,0,0,1,55.82-2.15,301.55,301.55,0,0,0,41.83-1.61c9.4-1.09,19.87-2,22.13-15.13,5.82,3,8.42-.42,10.44-4.39a74.47,74.47,0,0,0,8.33-31.6c.24-6.86-1.16-13.16-5.07-18.94a45.68,45.68,0,0,1-5.19-9.63c-2.06-5.58-5.82-9.77-10.26-13.26-5.75-4.51-11.81-8.67-17.95-12.65a40.43,40.43,0,0,0-16.71-6.19c-17.79-2.45-35.46-5.71-53.5-6.25-19.88-.59-39.61-3.53-59.66-2.11-17.56,1.24-35.27.83-52.9.49-13.29-.26-26.57-1.52-39.84-2.41-16.25-1.08-32.47-2.74-48.73-3.24-23.95-.74-47.92-.68-71.88-.95-9.3-.1-18.6-.21-27.9-.2-13.91,0-27.85.69-41.73,0-11.26-.53-22.47-2.48-33.66-4-5.06-.71-9.76-.58-14.62,1.47-3.93,1.66-8.29,2.42-12.53,3.2-5.56,1-11.19,1.7-16.79,2.44a81.67,81.67,0,0,0-34.33,12.29c4.58,12.13-2.05,21.12-8.22,30.32a38.81,38.81,0,0,0-2.85,5.75c2.4,5,5.16,8.6,5.8,12.57.78,4.78-.28,9.86-.45,14.81,0,.51.57,1,.88,1.57l5.49-3.48c4.56,5.64,4.56,5.64,4.81,13.87Zm22.07,21.1-2.57,10.6c2.92-.74,5.43-.63,6.09-1.69C905.57,206.67,903.47,204.31,900.2,200.69ZM917.84,212c1.82,2.35,3.68,3.36,5.06,1,.76-1.3.14-3.4.14-6.87Z"/><path class="cls-2" d="M888.17,193.63c.61-4.56-1.1-8.32-3.93-11.75a6.25,6.25,0,0,0-6.12-2.28l0,0c-.26-8.23-.26-8.23-4.81-13.87l-5.49,3.48c-.31-.52-.9-1.06-.88-1.57.17-5,1.22-10,.45-14.81-.64-4-3.41-7.6-5.8-12.57a38.81,38.81,0,0,1,2.85-5.75c6.17-9.2,12.8-18.19,8.22-30.32A81.67,81.67,0,0,1,907,91.93c5.61-.74,11.23-1.42,16.79-2.44,4.24-.77,8.6-1.53,12.53-3.2,4.86-2.06,9.55-2.18,14.62-1.47,11.2,1.57,22.4,3.52,33.66,4,13.88.65,27.82,0,41.73,0,9.3,0,18.6.1,27.9.2,24,.26,47.93.21,71.88.95,16.26.5,32.49,2.16,48.73,3.24,13.28.89,26.55,2.15,39.84,2.41,17.63.34,35.34.75,52.9-.49,20.05-1.42,39.78,1.53,59.66,2.11,18,.53,35.71,3.79,53.5,6.25a40.43,40.43,0,0,1,16.71,6.19c6.14,4,12.19,8.14,17.95,12.65,4.45,3.49,8.21,7.68,10.26,13.26a45.68,45.68,0,0,0,5.19,9.63c3.92,5.78,5.32,12.08,5.07,18.94a74.47,74.47,0,0,1-8.33,31.6c-2,4-4.63,7.42-10.44,4.39-2.26,13.09-12.73,14-22.13,15.13a301.55,301.55,0,0,1-41.83,1.61,509.3,509.3,0,0,0-55.82,2.15c-31.85,2.76-63.66,5-95.67,4.58-19.61-.24-39.23,1.13-58.84,1.46-7.63.13-15.28-.6-22.92-.94a8.72,8.72,0,0,0-2-.17c-14.3,2.88-28.48-1.31-42.78-.71-14,.59-28,.07-42-.13-5-.07-9.95-.64-14.92-1-1.66-.12-3.39-.69-5-.38-12,2.33-23.89-.52-35.81-.84-9.54-.26-19-2.33-28.68-3.62l-2.55-12.1H934.6c-.51-1.68-.64-3.45-1.53-4.65-1.09-1.46-2.94-3.57-4.26-3.43-4.67.46-7.33-1.74-10.14-5-1.16-1.34-4.32-.74-6.19-1.73-4.62-2.44-9-5.28-13.71-8.08-5.76,1.66-6.71,7.93-10.66,11.27Zm76.1-31.19c.47,5.76.51,6.14-.88,6.95-4.69,2.73-9.7,4.48-15.21,3.77s-8.2-4.48-7.12-9.91a23.07,23.07,0,0,1,3-8.4c6.16-9,11.76-18.92,24.42-20.16a5.44,5.44,0,0,0,2.83-.89c1.44-1.19,3.57-2.63,3.65-4.06s-1.77-3.48-3.29-4.25c-6.85-3.5-13.42-1.07-18.64,3.11-11.82,9.44-20,21.34-21,37.08-.82,13.26,8.82,22.16,22,20.2a74.72,74.72,0,0,0,8.51-2.27l7.4,7.51c5.29-10.77,3.67-21.65,5.63-32.38,3.46-1.22,6.89-2.32,10.2-3.69a3.06,3.06,0,0,0,1.29-2.44,3,3,0,0,0-1.4-2.36,20.71,20.71,0,0,0-5.8-1c-9.93-.29-18.9,3.45-27.84,7.06-1.19.48-2.77,3-2.42,3.68.8,1.5,2.61,3.29,4.14,3.41C957,163.6,960.26,162.85,964.28,162.44Zm42.93-18.31c6.68-2.81,11.91-4.88,17-7.22,2.66-1.22,6-2.62,4.57-6.45-1.32-3.42-4.52-1.91-7-1.4q-8.8,1.82-17.52,4a60,60,0,0,0-6.42,2.36c-.23,4.71-.21,9-.69,13.29-.75,6.6-2.21,13.14-2.67,19.75a47.39,47.39,0,0,0,1,13.79c1.4,6,3.86,7.79,10,7.58a45.88,45.88,0,0,0,26.83-9.55c.78-.6,1.82-1.28,2-2.11.46-1.81,1.2-4.15.44-5.49s-3.16-2.12-4.91-2.23c-1.9-.12-3.86.83-5.81,1.29-3.56.84-7.1,1.78-10.69,2.47-2.77.54-6.53,2.45-7.86-1.26-1.41-3.91,2.69-4.54,5.35-5.65a17.37,17.37,0,0,0,2.8-1c4.71-3.06,9.49-6,13.95-9.42,1.18-.9,1.32-3.18,2.48-6.24l-22.88,3.72ZM1143,151.51c-5.42-2.25-5.44-2.35-9.55-1.64-5.23.9-10.41,2.13-15.66,2.92-3.71.55-5.53-1.65-5.11-5.36.35-3.07,2.17-4.66,4.88-5.62a77.71,77.71,0,0,0,10.2-3.91,6.31,6.31,0,0,0,3.07-4.43c.07-2.92-2.69-3.8-5-3.41-5.87,1-11.71,2.28-17.49,3.7-4,1-6.1,3.86-6.11,8,0,10.29-.12,20.58.09,30.86a24,24,0,0,0,1.8,7.72c2.26,6,6.08,8.18,12.49,7.15,7.41-1.2,13.74-4.9,19.51-9.43,2.65-2.08,4.2-5.11,2-9.56-4.43-.2-8.87.83-13.31,1.9-2.9.7-5.75,1.67-8.69,2.08a3.6,3.6,0,0,1-2.89-1.92,3.87,3.87,0,0,1,1-3.42,13.66,13.66,0,0,1,4.46-2c4.08-1.4,8.28-2.48,12.27-4.1C1135.72,159.07,1140.34,156.61,1143,151.51Zm199.46,10.08c-4.33-3.2-8.53-3.76-12.79-4.17-3-.29-5-1.63-5.11-4.93-.1-3.48,1.49-5.5,5.14-6.15,2.28-.4,4.66-.25,6.93-.68s4.72-.83,6.54-2.06c1.38-.94,2.72-3.25,2.57-4.79s-1.89-3.57-3.44-4.27a15,15,0,0,0-6.8-.92c-3.63.2-7.22,1.14-10.86,1.31-7,.34-9.33,2.22-10.38,10.65-.87,6.9-1.73,13.83-2,20.77a55.25,55.25,0,0,0,1,14.8,13.5,13.5,0,0,0,5.47,7.79c6.47,3.9,22,.28,26.87-5.6,1.82-2.18,2.82-4.58,1.19-7.29s-4.2-2.9-7-2.28c-4.21.94-8.4,2-12.65,2.68-1.27.2-2.73-.79-5.37-1.65C1328.27,168.82,1337.87,170.26,1342.42,161.59Zm-123.26-26.3c-2.68,8-5.26,15.52-7.72,23.07-2.25,6.92-1.68,13.82.58,20.61.48,1.43,1.66,2.62,3,4.58l6.7-7.25c2.29,0,4.93-.08,7.56,0s5,.37,7,.53c3.1,5.41.35,12.54,7.91,15.53,1-2.38,2.23-4.35,2.52-6.44a104.19,104.19,0,0,0-2-38.52,32.58,32.58,0,0,0-2.94-7.4c-3.05-5.86-5.58-7-12.1-6C1226.34,134.47,1223.06,134.81,1219.16,135.29Zm-64.87,2.34c.59,13.4,1.12,25.95,1.74,38.48a7.14,7.14,0,0,0,1.11,3.76c.91,1.21,2.4,2.76,3.61,2.74s2.59-1.81,3.07-3.13c.65-1.81.48-3.92.72-5.89.3-2.53-.57-5.8,2.65-6.88,3.62-1.21,5.2,2,7.11,4.2,2.8,3.28,5.53,6.63,8.49,9.76,3.4,3.58,7.41,4.59,9.6,2.78,1.94-1.6,1.88-6.19-2.46-9.32a24.22,24.22,0,0,1-3.64-3.39c-2.17-2.39-5.22-4.27-5-7.71,2.71-4.63,5.77-8.67,7.58-13.21,4.85-12.14-2.94-21.61-15.8-19.54A49.33,49.33,0,0,0,1154.29,137.63Zm-73.17-15.33c-3.21,4.17-3.33,4.17-3.39,6.83-.12,6,0,12-.22,18-.06,1.74-.94,3.44-1.68,6-2.35-1.79-4.07-2.78-5.38-4.17-3.65-3.87-7.13-7.89-10.65-11.87-2.25-2.54-4.48-5.06-9.08-3.47-2.45,12.42-3.77,25.19-2.08,38.11.31,2.33,2,4.47,3.66,7.84,6.62-8.29,4.19-17.54,7-25.59,1.13.51,2.35.66,2.78,1.31,4.75,7.25,13.15,11.24,17.09,19.29.61,1.25,3.3,2.21,4.93,2.08,2.54-.21,3.8-2.42,4-5a13,13,0,0,0-.18-2c-.45-6.6-1-13.2-1.31-19.81-.24-6,0-12-.24-18C1086.26,127.94,1085.81,123.88,1081.12,122.31Zm194.61,30.34c0,5.09-.17,9.71.05,14.32a66.79,66.79,0,0,0,1.33,11.79c1,4.27,3.41,6.44,5.57,6,2.4-.45,5-4.61,4.81-8a10,10,0,0,0-1.08-3.76c-2.86-5.72-1.73-11.63-1-17.54.65-5.59,3.24-9.07,9.32-9.72a23.78,23.78,0,0,0,8.37-2.81,3.94,3.94,0,0,0-.45-7.14,10.43,10.43,0,0,0-3.8-1,69.19,69.19,0,0,0-30.9,6.16c-4,1.77-4.1,6.22-.29,8.61C1269.78,150.94,1272.45,151.45,1275.73,152.65ZM954.15,209.49c-.62,1.43-1.36,2.43-1.39,3.46,0,.59,1.11,1.22,1.72,1.83a24.5,24.5,0,0,0,2.1-3.37C956.66,211.23,955.37,210.43,954.15,209.49Z"/><path class="cls-2" d="M854.12,129.6c-2.5,7.56-8.39,13-12.17,19.74,1-8.55,5.8-14.62,12.21-19.7Z"/><path class="cls-2" d="M900.2,200.69c3.28,3.62,5.37,6,3.52,8.92-.67,1.05-3.17.95-6.09,1.69Z"/><path class="cls-2" d="M872.12,193.6c-.55,6.7-.55,6.7-3.48,11.85-.65-2.08-1.76-3.71-1.33-4.58a62,62,0,0,1,4.85-7.23Z"/><path class="cls-2" d="M888.1,193.57c-.66,4.73-1.82,9.21-6,12.2.07-5,3.17-8.54,6.12-12.14Z"/><path class="cls-2" d="M917.84,212l5.19-5.87c0,3.47.62,5.57-.14,6.87C921.52,215.39,919.66,214.38,917.84,212Z"/><path class="cls-2" d="M850.17,161.63c.93-4,2.43-7.6,6-10l-.06,0c-1,3.91-2.38,7.63-6,10Z"/><path class="cls-2" d="M848.12,165.6l-4,6,.07.06,4-6Z"/><path class="cls-2" d="M856.18,151.65l2-4,0,0-2,4Z"/><path class="cls-2" d="M854.17,129.65l2-4,0,0-2,4Z"/><path class="cls-2" d="M842.17,175.63l2-4-.07-.06-2,4Z"/><path class="cls-2" d="M848.18,165.65l2-4-.06,0-2,4Z"/><path class="cls-2" d="M856.16,125.63l0,0Z"/><path class="cls-2" d="M842.13,175.59l0,0Z"/><path class="cls-2" d="M878.13,179.59l0,0Z"/><path class="cls-2" d="M872.16,193.64l0,0Z"/><path class="cls-2" d="M858.16,147.64l0,0Z"/><path class="cls-1" d="M964.28,162.44c-4,.41-7.31,1.16-10.53.91-1.52-.12-3.34-1.91-4.14-3.41-.35-.66,1.23-3.2,2.42-3.68,8.94-3.61,17.91-7.35,27.84-7.06a20.71,20.71,0,0,1,5.8,1,3,3,0,0,1,1.4,2.36,3.06,3.06,0,0,1-1.29,2.44c-3.31,1.37-6.74,2.47-10.2,3.69-2,10.74-.34,21.61-5.63,32.38l-7.4-7.51a74.72,74.72,0,0,1-8.51,2.27c-13.14,2-22.78-6.94-22-20.2,1-15.74,9.16-27.64,21-37.08,5.23-4.18,11.79-6.61,18.64-3.11,1.52.77,3.36,2.86,3.29,4.25s-2.21,2.87-3.65,4.06a5.44,5.44,0,0,1-2.83.89c-12.66,1.24-18.26,11.14-24.42,20.16a23.07,23.07,0,0,0-3,8.4c-1.08,5.43,1.7,9.21,7.12,9.91s10.52-1,15.21-3.77C964.79,168.57,964.75,168.2,964.28,162.44Z"/><path class="cls-1" d="M1007.2,144.13v10.16l22.88-3.72c-1.15,3.06-1.29,5.34-2.48,6.24-4.46,3.39-9.24,6.36-13.95,9.42a17.37,17.37,0,0,1-2.8,1c-2.66,1.11-6.76,1.74-5.35,5.65,1.34,3.7,5.09,1.79,7.86,1.26,3.59-.69,7.13-1.63,10.69-2.47,1.94-.46,3.91-1.41,5.81-1.29,1.74.11,4.18.93,4.91,2.23s0,3.68-.44,5.49c-.21.83-1.25,1.51-2,2.11a45.88,45.88,0,0,1-26.83,9.55c-6.13.21-8.59-1.55-10-7.58a47.39,47.39,0,0,1-1-13.79c.46-6.61,1.92-13.15,2.67-19.75.48-4.26.47-8.57.69-13.29a60,60,0,0,1,6.42-2.36q8.72-2.16,17.52-4c2.48-.51,5.67-2,7,1.4,1.48,3.83-1.91,5.23-4.57,6.45C1019.11,139.25,1013.88,141.32,1007.2,144.13Z"/><path class="cls-1" d="M1143,151.51c-2.62,5.1-7.24,7.56-12.09,9.53-4,1.62-8.19,2.71-12.27,4.1a13.66,13.66,0,0,0-4.46,2,3.87,3.87,0,0,0-1,3.42,3.6,3.6,0,0,0,2.89,1.92c2.93-.4,5.79-1.37,8.69-2.08,4.44-1.07,8.88-2.1,13.31-1.9,2.21,4.45.66,7.48-2,9.56-5.77,4.53-12.1,8.23-19.51,9.43-6.4,1-10.22-1.14-12.49-7.15a24,24,0,0,1-1.8-7.72c-.21-10.28-.13-20.57-.09-30.86,0-4.16,2.08-7,6.11-8,5.79-1.42,11.62-2.72,17.49-3.7,2.34-.39,5.1.49,5,3.41a6.31,6.31,0,0,1-3.07,4.43,77.71,77.71,0,0,1-10.2,3.91c-2.71,1-4.53,2.55-4.88,5.62-.42,3.71,1.4,5.92,5.11,5.36,5.25-.78,10.42-2,15.66-2.92C1137.52,149.16,1137.54,149.26,1143,151.51Z"/><path class="cls-1" d="M1342.42,161.59c-4.55,8.67-14.15,7.23-20.67,13.24,2.64.86,4.1,1.85,5.37,1.65,4.25-.67,8.44-1.75,12.65-2.68,2.79-.62,5.36-.45,7,2.28s.62,5.11-1.19,7.29c-4.9,5.88-20.4,9.5-26.87,5.6a13.5,13.5,0,0,1-5.47-7.79,55.25,55.25,0,0,1-1-14.8c.3-6.94,1.17-13.87,2-20.77,1.06-8.43,3.38-10.31,10.38-10.65,3.63-.18,7.22-1.11,10.86-1.31a15,15,0,0,1,6.8.92c1.55.7,3.28,2.7,3.44,4.27s-1.18,3.85-2.57,4.79c-1.82,1.23-4.29,1.64-6.54,2.06s-4.65.28-6.93.68c-3.65.64-5.24,2.67-5.14,6.15.09,3.3,2.09,4.64,5.11,4.93C1333.89,157.83,1338.09,158.39,1342.42,161.59Z"/><path class="cls-1" d="M1219.16,135.29c3.9-.48,7.17-.82,10.43-1.31,6.51-1,9,.17,12.1,6a32.58,32.58,0,0,1,2.94,7.4,104.19,104.19,0,0,1,2,38.52c-.29,2.1-1.56,4.06-2.52,6.44-7.56-3-4.81-10.13-7.91-15.53-1.94-.15-4.46-.43-7-.53s-5.27,0-7.56,0l-6.7,7.25c-1.29-2-2.48-3.15-3-4.58-2.27-6.78-2.83-13.69-.58-20.61C1213.9,150.81,1216.48,143.29,1219.16,135.29Zm4.09,27.6c3.79.12,7,.48,10.12.18,1.35-.13,3.43-1.42,3.7-2.55,1.31-5.36,2-10.83-1.7-15.52-4-.3-5.74,2.28-7.46,4.59C1225.4,153,1223,156.54,1223.25,162.9Z"/><path class="cls-1" d="M1154.29,137.63A49.33,49.33,0,0,1,1173,130.3c12.86-2.07,20.65,7.4,15.8,19.54-1.81,4.54-4.88,8.58-7.58,13.21-.18,3.44,2.87,5.32,5,7.71a24.22,24.22,0,0,0,3.64,3.39c4.34,3.13,4.4,7.72,2.46,9.32-2.2,1.81-6.2.8-9.6-2.78-3-3.12-5.7-6.47-8.49-9.76-1.91-2.24-3.49-5.42-7.11-4.2-3.22,1.08-2.35,4.35-2.65,6.88-.24,2-.07,4.08-.72,5.89-.47,1.31-2,3.11-3.07,3.13s-2.71-1.53-3.61-2.74a7.14,7.14,0,0,1-1.11-3.76C1155.41,163.58,1154.89,151,1154.29,137.63Zm27,3.38c-5.25-2.05-9-1.36-12.46,1-1.85,1.28-3.51,2.86-5.51,4.51l2.37,8.31C1173,152.42,1179.19,150,1181.29,141Z"/><path class="cls-1" d="M1081.12,122.31c4.69,1.57,5.14,5.64,5.31,9.6.25,6,0,12,.24,18,.27,6.61.85,13.21,1.31,19.81a13,13,0,0,1,.18,2c-.23,2.56-1.49,4.77-4,5-1.63.13-4.32-.83-4.93-2.08-3.94-8-12.34-12-17.09-19.29-.43-.66-1.64-.8-2.78-1.31-2.83,8-.41,17.3-7,25.59-1.62-3.37-3.36-5.51-3.66-7.84-1.7-12.92-.38-25.69,2.08-38.11,4.61-1.6,6.83.92,9.08,3.47,3.52,4,7,8,10.65,11.87,1.31,1.39,3,2.38,5.38,4.17.75-2.55,1.62-4.26,1.68-6,.22-6,.09-12,.22-18C1077.79,126.48,1077.92,126.48,1081.12,122.31Z"/><path class="cls-1" d="M1275.73,152.65c-3.28-1.2-6-1.71-8.11-3.06-3.81-2.39-3.7-6.84.29-8.61a69.19,69.19,0,0,1,30.9-6.16,10.43,10.43,0,0,1,3.8,1,3.94,3.94,0,0,1,.45,7.14,23.78,23.78,0,0,1-8.37,2.81c-6.07.65-8.66,4.13-9.32,9.72-.69,5.91-1.82,11.82,1,17.54a10,10,0,0,1,1.08,3.76c.21,3.37-2.42,7.53-4.81,8-2.16.4-4.59-1.76-5.57-6a66.79,66.79,0,0,1-1.33-11.79C1275.57,162.37,1275.73,157.74,1275.73,152.65Z"/><path d="M954.15,209.49c1.22.94,2.52,1.74,2.44,1.92a24.5,24.5,0,0,1-2.1,3.37c-.61-.61-1.74-1.24-1.72-1.83C952.79,211.92,953.53,210.91,954.15,209.49Z"/><path class="cls-2" d="M1223.25,162.9c-.22-6.35,2.14-9.91,4.66-13.3,1.72-2.31,3.47-4.89,7.46-4.59,3.67,4.69,3,10.16,1.7,15.52-.27,1.12-2.35,2.42-3.7,2.55C1230.24,163.38,1227,163,1223.25,162.9Z"/><path class="cls-2" d="M1181.29,141c-2.09,8.94-8.29,11.4-15.6,13.86l-2.37-8.31c2-1.65,3.66-3.22,5.51-4.51C1172.29,139.65,1176,139,1181.29,141Z"/><path class="cls-3" d="M674.39,185c.89,13.31-3.34,25.21-8.35,36.91a22.29,22.29,0,0,1-3.22,5c-14.43,18-32.25,29.3-56.16,29.73-13.62.24-27.27,1.26-40.83,2.66-15.53,1.61-31,3.93-46.44,6.16-9.53,1.37-18.93,2.58-28.71,1.94-7.84-.51-15.84,1.48-23.79,2.24a114.68,114.68,0,0,1-13.89.92q-28.38-.74-56.74-1.93c-5.64-.23-11.25-1.08-16.87-1.64-27.25-2.72-54.52,1-81.77-.35-4.64-.23-9.27-.67-13.91-1-2-.13-4-.55-5.94-.21-13,2.33-26,1.63-38.78-.44s-25.87-1.46-38.8-2.27A308.81,308.81,0,0,1,167.57,259a131.23,131.23,0,0,0-18.79-2c-5.6-.15-11.19-1.21-16.76-2-4.58-.66-9.1-1.78-13.7-2.26-10.64-1.11-21.29-2.26-30.47-8.39C74,235.11,62.56,223.46,56.27,207.91c-4-9.85-5.39-20.17-2.53-31.19,4.41-17,11.85-32.41,20.43-47.52,6.84-12,17.86-18.69,29.78-24a131.81,131.81,0,0,1,22.72-7.31c12.55-3,25.44-4.59,37.69-9a34.33,34.33,0,0,1,21.58-.6c5,1.42,10.49,1.71,15.78,2,12.62.67,25.26,1.45,37.89,1.41,14.63,0,29.26-1.2,43.9-1.36,18.32-.2,36.67-.33,55,.34,23.61.87,47.25,1.83,70.75,4.12,20,1.95,39.91,1.62,59.88,1.69,21,.08,42-.48,63,.25,21.59.75,43.25,1.38,64.64,5.15,2.61.46,5.31.46,8,.71a74.62,74.62,0,0,1,48.24,23.55,24.29,24.29,0,0,1,4.71,6.4c4.54,10,8.94,20.07,13.11,30.23A47.79,47.79,0,0,1,674.39,185ZM72.13,192.59l2-4,4-6,2-4c3.62-2.35,5-6.06,6-10l2-4,0,0-2,4c-3.57,2.38-5.07,6-6,10l-2,4-4,6-2,4Zm14-50-2,4c-6.42,5.08-11.26,11.15-12.21,19.7,3.77-6.76,9.66-12.18,12.17-19.74l2-4Zm16,68a62,62,0,0,0-4.85,7.23c-.43.86.67,2.5,1.33,4.58,2.93-5.15,2.93-5.15,3.48-11.85Zm6-14.05a6.25,6.25,0,0,1,6.12,2.28c2.83,3.43,4.54,7.19,3.93,11.75-2.95,3.6-6.05,7.12-6.12,12.14,4.22-3,5.39-7.47,6-12.2,4-3.34,4.9-9.62,10.66-11.27,4.68,2.8,9.09,5.64,13.71,8.08,1.88,1,5,.39,6.19,1.73,2.81,3.25,5.47,5.45,10.14,5,1.33-.13,3.17,2,4.26,3.43.89,1.2,1,3,1.53,4.65h11.75l2.55,12.1c9.65,1.29,19.14,3.36,28.68,3.62,11.92.32,23.81,3.17,35.81.84,1.57-.3,3.3.26,5,.38,5,.36,9.94.93,14.92,1,14,.2,28,.72,42,.13,14.3-.61,28.48,3.59,42.78.71a8.72,8.72,0,0,1,2,.17c7.64.35,15.29,1.07,22.92.94,19.62-.33,39.24-1.7,58.84-1.46,32,.39,63.82-1.82,95.67-4.58a509.3,509.3,0,0,1,55.82-2.15,301.55,301.55,0,0,0,41.83-1.61c9.4-1.09,19.87-2,22.13-15.13,5.82,3,8.42-.42,10.44-4.39a74.47,74.47,0,0,0,8.33-31.6c.24-6.86-1.16-13.16-5.07-18.94a45.68,45.68,0,0,1-5.19-9.63c-2.06-5.58-5.82-9.77-10.26-13.26-5.75-4.51-11.81-8.67-17.95-12.65a40.43,40.43,0,0,0-16.71-6.19c-17.79-2.45-35.46-5.71-53.5-6.25-19.88-.59-39.61-3.53-59.66-2.11-17.56,1.24-35.27.83-52.9.49-13.29-.26-26.57-1.52-39.84-2.41-16.25-1.08-32.47-2.74-48.73-3.24-23.95-.74-47.92-.68-71.88-.95-9.3-.1-18.6-.21-27.9-.2-13.91,0-27.85.69-41.73,0-11.26-.53-22.47-2.48-33.66-4-5.06-.71-9.76-.58-14.62,1.47-3.93,1.66-8.29,2.42-12.53,3.2-5.56,1-11.19,1.7-16.79,2.44a81.67,81.67,0,0,0-34.33,12.29c4.58,12.13-2.05,21.12-8.22,30.32a38.81,38.81,0,0,0-2.85,5.75c2.4,5,5.16,8.6,5.8,12.57.78,4.78-.28,9.86-.45,14.81,0,.51.57,1,.88,1.57l5.49-3.48c4.56,5.64,4.56,5.64,4.81,13.87Zm22.07,21.1-2.57,10.6c2.92-.74,5.43-.63,6.09-1.69C135.57,223.67,133.47,221.31,130.2,217.69ZM147.84,229c1.82,2.35,3.68,3.36,5.06,1,.76-1.3.14-3.4.14-6.87Z"/><path class="cls-2" d="M108.17,193.63c.61-4.56-1.1-8.32-3.93-11.75a6.25,6.25,0,0,0-6.12-2.28l0,0c-.26-8.23-.26-8.23-4.81-13.87l-5.49,3.48c-.31-.52-.9-1.06-.88-1.57.17-5,1.22-10,.45-14.81-.64-4-3.41-7.6-5.8-12.57a38.81,38.81,0,0,1,2.85-5.75c6.17-9.2,12.8-18.19,8.22-30.32A81.67,81.67,0,0,1,127,91.93c5.61-.74,11.23-1.42,16.79-2.44,4.24-.77,8.6-1.53,12.53-3.2,4.86-2.06,9.55-2.18,14.62-1.47,11.2,1.57,22.4,3.52,33.66,4,13.88.65,27.82,0,41.73,0,9.3,0,18.6.1,27.9.2,24,.26,47.93.21,71.88.95,16.26.5,32.49,2.16,48.73,3.24,13.28.89,26.55,2.15,39.84,2.41,17.63.34,35.34.75,52.9-.49,20.05-1.42,39.78,1.53,59.66,2.11,18,.53,35.71,3.79,53.5,6.25a40.43,40.43,0,0,1,16.71,6.19c6.14,4,12.19,8.14,17.95,12.65,4.45,3.49,8.21,7.68,10.26,13.26a45.68,45.68,0,0,0,5.19,9.63c3.92,5.78,5.32,12.08,5.07,18.94a74.47,74.47,0,0,1-8.33,31.6c-2,4-4.63,7.42-10.44,4.39-2.26,13.09-12.73,14-22.13,15.13a301.55,301.55,0,0,1-41.83,1.61A509.3,509.3,0,0,0,517.41,219c-31.85,2.76-63.66,5-95.67,4.58-19.61-.24-39.23,1.13-58.84,1.46-7.63.13-15.28-.6-22.92-.94a8.72,8.72,0,0,0-2-.17c-14.3,2.88-28.48-1.31-42.78-.71-14,.59-28,.07-42-.13-5-.07-9.95-.64-14.92-1-1.66-.12-3.39-.69-5-.38-12,2.33-23.89-.52-35.81-.84-9.54-.26-19-2.33-28.68-3.62l-2.55-12.1H154.6c-.51-1.68-.64-3.45-1.53-4.65-1.09-1.46-2.94-3.57-4.26-3.43-4.67.46-7.33-1.74-10.14-5-1.16-1.34-4.32-.74-6.19-1.73-4.62-2.44-9-5.28-13.71-8.08-5.76,1.66-6.71,7.93-10.66,11.27Zm76.1-31.19c.47,5.76.51,6.14-.88,6.95-4.69,2.73-9.7,4.48-15.21,3.77s-8.2-4.48-7.12-9.91a23.07,23.07,0,0,1,3-8.4c6.16-9,11.76-18.92,24.42-20.16a5.44,5.44,0,0,0,2.83-.89c1.44-1.19,3.57-2.63,3.65-4.06s-1.77-3.48-3.29-4.25c-6.85-3.5-13.42-1.07-18.64,3.11-11.82,9.44-20,21.34-21,37.08-.82,13.26,8.82,22.16,22,20.2a74.72,74.72,0,0,0,8.51-2.27l7.4,7.51c5.29-10.77,3.67-21.65,5.63-32.38,3.46-1.22,6.89-2.32,10.2-3.69a3.06,3.06,0,0,0,1.29-2.44,3,3,0,0,0-1.4-2.36,20.71,20.71,0,0,0-5.8-1c-9.93-.29-18.9,3.45-27.84,7.06-1.19.48-2.77,3-2.42,3.68.8,1.5,2.61,3.29,4.14,3.41C177,163.6,180.26,162.85,184.28,162.44Zm42.93-18.31c6.68-2.81,11.91-4.88,17-7.22,2.66-1.22,6-2.62,4.57-6.45-1.32-3.42-4.52-1.91-7-1.4q-8.8,1.82-17.52,4a60,60,0,0,0-6.42,2.36c-.23,4.71-.21,9-.69,13.29-.75,6.6-2.21,13.14-2.67,19.75a47.39,47.39,0,0,0,1,13.79c1.4,6,3.86,7.79,10,7.58a45.88,45.88,0,0,0,26.83-9.55c.78-.6,1.82-1.28,2-2.11.46-1.81,1.2-4.15.44-5.49s-3.16-2.12-4.91-2.23c-1.9-.12-3.86.83-5.81,1.29-3.56.84-7.1,1.78-10.69,2.47-2.77.54-6.53,2.45-7.86-1.26-1.41-3.91,2.69-4.54,5.35-5.65a17.37,17.37,0,0,0,2.8-1c4.71-3.06,9.49-6,13.95-9.42,1.18-.9,1.32-3.18,2.48-6.24l-22.88,3.72ZM363,151.51c-5.42-2.25-5.44-2.35-9.55-1.64-5.23.9-10.41,2.13-15.66,2.92-3.71.55-5.53-1.65-5.11-5.36.35-3.07,2.17-4.66,4.88-5.62a77.71,77.71,0,0,0,10.2-3.91,6.31,6.31,0,0,0,3.07-4.43c.07-2.92-2.69-3.8-5-3.41-5.87,1-11.71,2.28-17.49,3.7-4,1-6.1,3.86-6.11,8,0,10.29-.12,20.58.09,30.86a24,24,0,0,0,1.8,7.72c2.26,6,6.08,8.18,12.49,7.15,7.41-1.2,13.74-4.9,19.51-9.43,2.65-2.08,4.2-5.11,2-9.56-4.43-.2-8.87.83-13.31,1.9-2.9.7-5.75,1.67-8.69,2.08a3.6,3.6,0,0,1-2.89-1.92,3.87,3.87,0,0,1,1-3.42,13.66,13.66,0,0,1,4.46-2c4.08-1.4,8.28-2.48,12.27-4.1C355.72,159.07,360.34,156.61,363,151.51Zm199.46,10.08c-4.33-3.2-8.53-3.76-12.79-4.17-3-.29-5-1.63-5.11-4.93-.1-3.48,1.49-5.5,5.14-6.15,2.28-.4,4.66-.25,6.93-.68s4.72-.83,6.54-2.06c1.38-.94,2.72-3.25,2.57-4.79s-1.89-3.57-3.44-4.27a15,15,0,0,0-6.8-.92c-3.63.2-7.22,1.14-10.86,1.31-7,.34-9.33,2.22-10.38,10.65-.87,6.9-1.73,13.83-2,20.77a55.25,55.25,0,0,0,1,14.8A13.5,13.5,0,0,0,538.7,189c6.47,3.9,22,.28,26.87-5.6,1.82-2.18,2.82-4.58,1.19-7.29s-4.2-2.9-7-2.28c-4.21.94-8.4,2-12.65,2.68-1.27.2-2.73-.79-5.37-1.65C548.27,168.82,557.87,170.26,562.42,161.59Zm-123.26-26.3c-2.68,8-5.26,15.52-7.72,23.07-2.25,6.92-1.68,13.82.58,20.61.48,1.43,1.66,2.62,3,4.58l6.7-7.25c2.29,0,4.93-.08,7.56,0s5,.37,7,.53c3.1,5.41.35,12.54,7.91,15.53,1-2.38,2.23-4.35,2.52-6.44a104.19,104.19,0,0,0-2-38.52,32.58,32.58,0,0,0-2.94-7.4c-3.05-5.86-5.58-7-12.1-6C446.34,134.47,443.06,134.81,439.16,135.29Zm-64.87,2.34c.59,13.4,1.12,25.95,1.74,38.48a7.14,7.14,0,0,0,1.11,3.76c.91,1.21,2.4,2.76,3.61,2.74s2.59-1.81,3.07-3.13c.65-1.81.48-3.92.72-5.89.3-2.53-.57-5.8,2.65-6.88,3.62-1.21,5.2,2,7.11,4.2,2.8,3.28,5.53,6.63,8.49,9.76,3.4,3.58,7.41,4.59,9.6,2.78,1.94-1.6,1.88-6.19-2.46-9.32a24.22,24.22,0,0,1-3.64-3.39c-2.17-2.39-5.22-4.27-5-7.71,2.71-4.63,5.77-8.67,7.58-13.21,4.85-12.14-2.94-21.61-15.8-19.54A49.33,49.33,0,0,0,374.29,137.63Zm-73.17-15.33c-3.21,4.17-3.33,4.17-3.39,6.83-.12,6,0,12-.22,18-.06,1.74-.94,3.44-1.68,6-2.35-1.79-4.07-2.78-5.38-4.17-3.65-3.87-7.13-7.89-10.65-11.87-2.25-2.54-4.48-5.06-9.08-3.47-2.45,12.42-3.77,25.19-2.08,38.11.31,2.33,2,4.47,3.66,7.84,6.62-8.29,4.19-17.54,7-25.59,1.13.51,2.35.66,2.78,1.31,4.75,7.25,13.15,11.24,17.09,19.29.61,1.25,3.3,2.21,4.93,2.08,2.54-.21,3.8-2.42,4-5a13,13,0,0,0-.18-2c-.45-6.6-1-13.2-1.31-19.81-.24-6,0-12-.24-18C306.26,127.94,305.81,123.88,301.12,122.31Zm194.61,30.34c0,5.09-.17,9.71.05,14.32a66.79,66.79,0,0,0,1.33,11.79c1,4.27,3.41,6.44,5.57,6,2.4-.45,5-4.61,4.81-8a10,10,0,0,0-1.08-3.76c-2.86-5.72-1.73-11.63-1-17.54.65-5.59,3.24-9.07,9.32-9.72a23.78,23.78,0,0,0,8.37-2.81,3.94,3.94,0,0,0-.45-7.14,10.43,10.43,0,0,0-3.8-1,69.19,69.19,0,0,0-30.9,6.16c-4,1.77-4.1,6.22-.29,8.61C489.78,150.94,492.45,151.45,495.73,152.65ZM174.15,209.49c-.62,1.43-1.36,2.43-1.39,3.46,0,.59,1.11,1.22,1.72,1.83a24.5,24.5,0,0,0,2.1-3.37C176.66,211.23,175.37,210.43,174.15,209.49Z"/><path class="cls-2" d="M74.12,129.6c-2.5,7.56-8.39,13-12.17,19.74,1-8.55,5.8-14.62,12.21-19.7Z"/><path class="cls-2" d="M120.2,200.69c3.28,3.62,5.37,6,3.52,8.92-.67,1.05-3.17.95-6.09,1.69Z"/><path class="cls-2" d="M92.12,193.6c-.55,6.7-.55,6.7-3.48,11.85-.65-2.08-1.76-3.71-1.33-4.58a62,62,0,0,1,4.85-7.23Z"/><path class="cls-2" d="M108.1,193.57c-.66,4.73-1.82,9.21-6,12.2.07-5,3.17-8.54,6.12-12.14Z"/><path class="cls-2" d="M137.84,212l5.19-5.87c0,3.47.62,5.57-.14,6.87C141.52,215.39,139.66,214.38,137.84,212Z"/><path class="cls-2" d="M70.17,161.63c.93-4,2.43-7.6,6-10l-.06,0c-1,3.91-2.38,7.63-6,10Z"/><path class="cls-2" d="M68.12,165.6l-4,6,.07.06,4-6Z"/><path class="cls-2" d="M76.18,151.65l2-4,0,0-2,4Z"/><path class="cls-2" d="M74.17,129.65l2-4,0,0-2,4Z"/><path class="cls-2" d="M62.17,175.63l2-4-.07-.06-2,4Z"/><path class="cls-2" d="M68.18,165.65l2-4-.06,0-2,4Z"/><path class="cls-2" d="M76.16,125.63l0,0Z"/><path class="cls-2" d="M62.13,175.59l0,0Z"/><path class="cls-2" d="M98.13,179.59l0,0Z"/><path class="cls-2" d="M92.16,193.64l0,0Z"/><path class="cls-2" d="M78.16,147.64l0,0Z"/><path d="M184.28,162.44c-4,.41-7.31,1.16-10.53.91-1.52-.12-3.34-1.91-4.14-3.41-.35-.66,1.23-3.2,2.42-3.68,8.94-3.61,17.91-7.35,27.84-7.06a20.71,20.71,0,0,1,5.8,1,3,3,0,0,1,1.4,2.36,3.06,3.06,0,0,1-1.29,2.44c-3.31,1.37-6.74,2.47-10.2,3.69-2,10.74-.34,21.61-5.63,32.38l-7.4-7.51a74.72,74.72,0,0,1-8.51,2.27c-13.14,2-22.78-6.94-22-20.2,1-15.74,9.16-27.64,21-37.08,5.23-4.18,11.79-6.61,18.64-3.11,1.52.77,3.36,2.86,3.29,4.25s-2.21,2.87-3.65,4.06a5.44,5.44,0,0,1-2.83.89c-12.66,1.24-18.26,11.14-24.42,20.16a23.07,23.07,0,0,0-3,8.4c-1.08,5.43,1.7,9.21,7.12,9.91s10.52-1,15.21-3.77C184.79,168.57,184.75,168.2,184.28,162.44Z"/><path d="M227.2,144.13v10.16l22.88-3.72c-1.15,3.06-1.29,5.34-2.48,6.24-4.46,3.39-9.24,6.36-13.95,9.42a17.37,17.37,0,0,1-2.8,1c-2.66,1.11-6.76,1.74-5.35,5.65,1.34,3.7,5.09,1.79,7.86,1.26,3.59-.69,7.13-1.63,10.69-2.47,1.94-.46,3.91-1.41,5.81-1.29,1.74.11,4.18.93,4.91,2.23s0,3.68-.44,5.49c-.21.83-1.25,1.51-2,2.11a45.88,45.88,0,0,1-26.83,9.55c-6.13.21-8.59-1.55-10-7.58a47.39,47.39,0,0,1-1-13.79c.46-6.61,1.92-13.15,2.67-19.75.48-4.26.47-8.57.69-13.29a60,60,0,0,1,6.42-2.36q8.72-2.16,17.52-4c2.48-.51,5.67-2,7,1.4,1.48,3.83-1.91,5.23-4.57,6.45C239.11,139.25,233.88,141.32,227.2,144.13Z"/><path d="M363,151.51c-2.62,5.1-7.24,7.56-12.09,9.53-4,1.62-8.19,2.71-12.27,4.1a13.66,13.66,0,0,0-4.46,2,3.87,3.87,0,0,0-1,3.42,3.6,3.6,0,0,0,2.89,1.92c2.93-.4,5.79-1.37,8.69-2.08,4.44-1.07,8.88-2.1,13.31-1.9,2.21,4.45.66,7.48-2,9.56-5.77,4.53-12.1,8.23-19.51,9.43-6.4,1-10.22-1.14-12.49-7.15a24,24,0,0,1-1.8-7.72c-.21-10.28-.13-20.57-.09-30.86,0-4.16,2.08-7,6.11-8,5.79-1.42,11.62-2.72,17.49-3.7,2.34-.39,5.1.49,5,3.41a6.31,6.31,0,0,1-3.07,4.43,77.71,77.71,0,0,1-10.2,3.91c-2.71,1-4.53,2.55-4.88,5.62-.42,3.71,1.4,5.92,5.11,5.36,5.25-.78,10.42-2,15.66-2.92C357.52,149.16,357.54,149.26,363,151.51Z"/><path d="M562.42,161.59c-4.55,8.67-14.15,7.23-20.67,13.24,2.64.86,4.1,1.85,5.37,1.65,4.25-.67,8.44-1.75,12.65-2.68,2.79-.62,5.36-.45,7,2.28s.62,5.11-1.19,7.29c-4.9,5.88-20.4,9.5-26.87,5.6a13.5,13.5,0,0,1-5.47-7.79,55.25,55.25,0,0,1-1-14.8c.3-6.94,1.17-13.87,2-20.77,1.06-8.43,3.38-10.31,10.38-10.65,3.63-.18,7.22-1.11,10.86-1.31a15,15,0,0,1,6.8.92c1.55.7,3.28,2.7,3.44,4.27s-1.18,3.85-2.57,4.79c-1.82,1.23-4.29,1.64-6.54,2.06s-4.65.28-6.93.68c-3.65.64-5.24,2.67-5.14,6.15.09,3.3,2.09,4.64,5.11,4.93C553.89,157.83,558.09,158.39,562.42,161.59Z"/><path d="M439.16,135.29c3.9-.48,7.17-.82,10.43-1.31,6.51-1,9,.17,12.1,6a32.58,32.58,0,0,1,2.94,7.4,104.19,104.19,0,0,1,2,38.52c-.29,2.1-1.56,4.06-2.52,6.44-7.56-3-4.81-10.13-7.91-15.53-1.94-.15-4.46-.43-7-.53s-5.27,0-7.56,0l-6.7,7.25c-1.29-2-2.48-3.15-3-4.58-2.27-6.78-2.83-13.69-.58-20.61C433.9,150.81,436.48,143.29,439.16,135.29Zm4.09,27.6c3.79.12,7,.48,10.12.18,1.35-.13,3.43-1.42,3.7-2.55,1.31-5.36,2-10.83-1.7-15.52-4-.3-5.74,2.28-7.46,4.59C445.4,153,443,156.54,443.25,162.9Z"/><path d="M374.29,137.63A49.33,49.33,0,0,1,393,130.3c12.86-2.07,20.65,7.4,15.8,19.54-1.81,4.54-4.88,8.58-7.58,13.21-.18,3.44,2.87,5.32,5,7.71a24.22,24.22,0,0,0,3.64,3.39c4.34,3.13,4.4,7.72,2.46,9.32-2.2,1.81-6.2.8-9.6-2.78-3-3.12-5.7-6.47-8.49-9.76-1.91-2.24-3.49-5.42-7.11-4.2-3.22,1.08-2.35,4.35-2.65,6.88-.24,2-.07,4.08-.72,5.89-.47,1.31-2,3.11-3.07,3.13s-2.71-1.53-3.61-2.74a7.14,7.14,0,0,1-1.11-3.76C375.41,163.58,374.89,151,374.29,137.63Zm27,3.38c-5.25-2.05-9-1.36-12.46,1-1.85,1.28-3.51,2.86-5.51,4.51l2.37,8.31C393,152.42,399.19,150,401.29,141Z"/><path d="M301.12,122.31c4.69,1.57,5.14,5.64,5.31,9.6.25,6,0,12,.24,18,.27,6.61.85,13.21,1.31,19.81a13,13,0,0,1,.18,2c-.23,2.56-1.49,4.77-4,5-1.63.13-4.32-.83-4.93-2.08-3.94-8-12.34-12-17.09-19.29-.43-.66-1.64-.8-2.78-1.31-2.83,8-.41,17.3-7,25.59-1.62-3.37-3.36-5.51-3.66-7.84-1.7-12.92-.38-25.69,2.08-38.11,4.61-1.6,6.83.92,9.08,3.47,3.52,4,7,8,10.65,11.87,1.31,1.39,3,2.38,5.38,4.17.75-2.55,1.62-4.26,1.68-6,.22-6,.09-12,.22-18C297.79,126.48,297.92,126.48,301.12,122.31Z"/><path d="M495.73,152.65c-3.28-1.2-6-1.71-8.11-3.06-3.81-2.39-3.7-6.84.29-8.61a69.19,69.19,0,0,1,30.9-6.16,10.43,10.43,0,0,1,3.8,1,3.94,3.94,0,0,1,.45,7.14,23.78,23.78,0,0,1-8.37,2.81c-6.07.65-8.66,4.13-9.32,9.72-.69,5.91-1.82,11.82,1,17.54a10,10,0,0,1,1.08,3.76c.21,3.37-2.42,7.53-4.81,8-2.16.4-4.59-1.76-5.57-6A66.79,66.79,0,0,1,495.78,167C495.57,162.37,495.73,157.74,495.73,152.65Z"/><path d="M174.15,209.49c1.22.94,2.52,1.74,2.44,1.92a24.5,24.5,0,0,1-2.1,3.37c-.61-.61-1.74-1.24-1.72-1.83C172.79,211.92,173.53,210.91,174.15,209.49Z"/><path class="cls-2" d="M443.25,162.9c-.22-6.35,2.14-9.91,4.66-13.3,1.72-2.31,3.47-4.89,7.46-4.59,3.67,4.69,3,10.16,1.7,15.52-.27,1.12-2.35,2.42-3.7,2.55C450.24,163.38,447,163,443.25,162.9Z"/><path class="cls-2" d="M401.29,141c-2.09,8.94-8.29,11.4-15.6,13.86l-2.37-8.31c2-1.65,3.66-3.22,5.51-4.51C392.29,139.65,396,139,401.29,141Z"/><path d="M674.39,168c.89,13.31-3.34,25.21-8.35,36.91a22.29,22.29,0,0,1-3.22,5c-14.43,18-32.25,29.3-56.16,29.73-13.62.24-27.27,1.26-40.83,2.66-15.53,1.61-31,3.93-46.44,6.16-9.53,1.37-18.93,2.58-28.71,1.94-7.84-.51-15.84,1.48-23.79,2.24a114.68,114.68,0,0,1-13.89.92q-28.38-.74-56.74-1.93c-5.64-.23-11.25-1.08-16.87-1.64-27.25-2.72-54.52,1-81.77-.35-4.64-.23-9.27-.67-13.91-1-2-.13-4-.55-5.94-.21-13,2.33-26,1.63-38.78-.44s-25.87-1.46-38.8-2.27A308.81,308.81,0,0,1,167.57,242a131.23,131.23,0,0,0-18.79-2c-5.6-.15-11.19-1.21-16.76-2-4.58-.66-9.1-1.78-13.7-2.26-10.64-1.11-21.29-2.26-30.47-8.39C74,218.11,62.56,206.46,56.27,190.91c-4-9.85-5.39-20.17-2.53-31.19,4.41-17,11.85-32.41,20.43-47.52C81,100.15,92,93.51,104,88.19a131.81,131.81,0,0,1,22.72-7.31c12.55-3,25.44-4.59,37.69-9a34.33,34.33,0,0,1,21.58-.6c5,1.42,10.49,1.71,15.78,2,12.62.67,25.26,1.45,37.89,1.41,14.63,0,29.26-1.2,43.9-1.36,18.32-.2,36.67-.33,55,.34,23.61.87,47.25,1.83,70.75,4.12,20,1.95,39.91,1.62,59.88,1.69,21,.08,42-.48,63,.25,21.59.75,43.25,1.38,64.64,5.15,2.61.46,5.31.46,8,.71a74.62,74.62,0,0,1,48.24,23.55,24.29,24.29,0,0,1,4.71,6.4c4.54,10,8.94,20.07,13.11,30.23A47.79,47.79,0,0,1,674.39,168ZM72.13,175.59l2-4,4-6,2-4c3.62-2.35,5-6.06,6-10l2-4,0,0-2,4c-3.57,2.38-5.07,6-6,10l-2,4-4,6-2,4Zm14-50-2,4c-6.42,5.08-11.26,11.15-12.21,19.7,3.77-6.76,9.66-12.18,12.17-19.74l2-4Zm16,68a62,62,0,0,0-4.85,7.23c-.43.86.67,2.5,1.33,4.58,2.93-5.15,2.93-5.15,3.48-11.85Zm6-14.05a6.25,6.25,0,0,1,6.12,2.28c2.83,3.43,4.54,7.19,3.93,11.75-2.95,3.6-6.05,7.12-6.12,12.14,4.22-3,5.39-7.47,6-12.2,4-3.34,4.9-9.62,10.66-11.27,4.68,2.8,9.09,5.64,13.71,8.08,1.88,1,5,.39,6.19,1.73,2.81,3.25,5.47,5.45,10.14,5,1.33-.13,3.17,2,4.26,3.43.89,1.2,1,3,1.53,4.65h11.75l2.55,12.1c9.65,1.29,19.14,3.36,28.68,3.62,11.92.32,23.81,3.17,35.81.84,1.57-.3,3.3.26,5,.38,5,.36,9.94.93,14.92,1,14,.2,28,.72,42,.13,14.3-.61,28.48,3.59,42.78.71a8.72,8.72,0,0,1,2,.17c7.64.35,15.29,1.07,22.92.94,19.62-.33,39.24-1.7,58.84-1.46,32,.39,63.82-1.82,95.67-4.58a509.3,509.3,0,0,1,55.82-2.15,301.55,301.55,0,0,0,41.83-1.61c9.4-1.09,19.87-2,22.13-15.13,5.82,3,8.42-.42,10.44-4.39a74.47,74.47,0,0,0,8.33-31.6c.24-6.86-1.16-13.16-5.07-18.94a45.68,45.68,0,0,1-5.19-9.63c-2.06-5.58-5.82-9.77-10.26-13.26-5.75-4.51-11.81-8.67-17.95-12.65a40.43,40.43,0,0,0-16.71-6.19c-17.79-2.45-35.46-5.71-53.5-6.25-19.88-.59-39.61-3.53-59.66-2.11-17.56,1.24-35.27.83-52.9.49-13.29-.26-26.57-1.52-39.84-2.41-16.25-1.08-32.47-2.74-48.73-3.24-23.95-.74-47.92-.68-71.88-.95-9.3-.1-18.6-.21-27.9-.2-13.91,0-27.85.69-41.73,0-11.26-.53-22.47-2.48-33.66-4-5.06-.71-9.76-.58-14.62,1.47-3.93,1.66-8.29,2.42-12.53,3.2-5.56,1-11.19,1.7-16.79,2.44a81.67,81.67,0,0,0-34.33,12.29c4.58,12.13-2.05,21.12-8.22,30.32a38.81,38.81,0,0,0-2.85,5.75c2.4,5,5.16,8.6,5.8,12.57.78,4.78-.28,9.86-.45,14.81,0,.51.57,1,.88,1.57l5.49-3.48c4.56,5.64,4.56,5.64,4.81,13.87Zm22.07,21.1-2.57,10.6c2.92-.74,5.43-.63,6.09-1.69C135.57,206.67,133.47,204.31,130.2,200.69ZM147.84,212c1.82,2.35,3.68,3.36,5.06,1,.76-1.3.14-3.4.14-6.87Z"/><path class="cls-2" d="M118.17,193.63c.61-4.56-1.1-8.32-3.93-11.75a6.25,6.25,0,0,0-6.12-2.28l0,0c-.26-8.23-.26-8.23-4.81-13.87l-5.49,3.48c-.31-.52-.9-1.06-.88-1.57.17-5,1.22-10,.45-14.81-.64-4-3.41-7.6-5.8-12.57a38.81,38.81,0,0,1,2.85-5.75c6.17-9.2,12.8-18.19,8.22-30.32A81.67,81.67,0,0,1,137,91.93c5.61-.74,11.23-1.42,16.79-2.44,4.24-.77,8.6-1.53,12.53-3.2,4.86-2.06,9.55-2.18,14.62-1.47,11.2,1.57,22.4,3.52,33.66,4,13.88.65,27.82,0,41.73,0,9.3,0,18.6.1,27.9.2,24,.26,47.93.21,71.88.95,16.26.5,32.49,2.16,48.73,3.24,13.28.89,26.55,2.15,39.84,2.41,17.63.34,35.34.75,52.9-.49,20.05-1.42,39.78,1.53,59.66,2.11,18,.53,35.71,3.79,53.5,6.25a40.43,40.43,0,0,1,16.71,6.19c6.14,4,12.19,8.14,17.95,12.65,4.45,3.49,8.21,7.68,10.26,13.26a45.68,45.68,0,0,0,5.19,9.63c3.92,5.78,5.32,12.08,5.07,18.94a74.47,74.47,0,0,1-8.33,31.6c-2,4-4.63,7.42-10.44,4.39-2.26,13.09-12.73,14-22.13,15.13a301.55,301.55,0,0,1-41.83,1.61A509.3,509.3,0,0,0,527.41,219c-31.85,2.76-63.66,5-95.67,4.58-19.61-.24-39.23,1.13-58.84,1.46-7.63.13-15.28-.6-22.92-.94a8.72,8.72,0,0,0-2-.17c-14.3,2.88-28.48-1.31-42.78-.71-14,.59-28,.07-42-.13-5-.07-9.95-.64-14.92-1-1.66-.12-3.39-.69-5-.38-12,2.33-23.89-.52-35.81-.84-9.54-.26-19-2.33-28.68-3.62l-2.55-12.1H164.6c-.51-1.68-.64-3.45-1.53-4.65-1.09-1.46-2.94-3.57-4.26-3.43-4.67.46-7.33-1.74-10.14-5-1.16-1.34-4.32-.74-6.19-1.73-4.62-2.44-9-5.28-13.71-8.08-5.76,1.66-6.71,7.93-10.66,11.27Zm76.1-31.19c.47,5.76.51,6.14-.88,6.95-4.69,2.73-9.7,4.48-15.21,3.77s-8.2-4.48-7.12-9.91a23.07,23.07,0,0,1,3-8.4c6.16-9,11.76-18.92,24.42-20.16a5.44,5.44,0,0,0,2.83-.89c1.44-1.19,3.57-2.63,3.65-4.06s-1.77-3.48-3.29-4.25c-6.85-3.5-13.42-1.07-18.64,3.11-11.82,9.44-20,21.34-21,37.08-.82,13.26,8.82,22.16,22,20.2a74.72,74.72,0,0,0,8.51-2.27l7.4,7.51c5.29-10.77,3.67-21.65,5.63-32.38,3.46-1.22,6.89-2.32,10.2-3.69a3.06,3.06,0,0,0,1.29-2.44,3,3,0,0,0-1.4-2.36,20.71,20.71,0,0,0-5.8-1c-9.93-.29-18.9,3.45-27.84,7.06-1.19.48-2.77,3-2.42,3.68.8,1.5,2.61,3.29,4.14,3.41C187,163.6,190.26,162.85,194.28,162.44Zm42.93-18.31c6.68-2.81,11.91-4.88,17-7.22,2.66-1.22,6-2.62,4.57-6.45-1.32-3.42-4.52-1.91-7-1.4q-8.8,1.82-17.52,4a60,60,0,0,0-6.42,2.36c-.23,4.71-.21,9-.69,13.29-.75,6.6-2.21,13.14-2.67,19.75a47.39,47.39,0,0,0,1,13.79c1.4,6,3.86,7.79,10,7.58a45.88,45.88,0,0,0,26.83-9.55c.78-.6,1.82-1.28,2-2.11.46-1.81,1.2-4.15.44-5.49s-3.16-2.12-4.91-2.23c-1.9-.12-3.86.83-5.81,1.29-3.56.84-7.1,1.78-10.69,2.47-2.77.54-6.53,2.45-7.86-1.26-1.41-3.91,2.69-4.54,5.35-5.65a17.37,17.37,0,0,0,2.8-1c4.71-3.06,9.49-6,13.95-9.42,1.18-.9,1.32-3.18,2.48-6.24l-22.88,3.72ZM373,151.51c-5.42-2.25-5.44-2.35-9.55-1.64-5.23.9-10.41,2.13-15.66,2.92-3.71.55-5.53-1.65-5.11-5.36.35-3.07,2.17-4.66,4.88-5.62a77.71,77.71,0,0,0,10.2-3.91,6.31,6.31,0,0,0,3.07-4.43c.07-2.92-2.69-3.8-5-3.41-5.87,1-11.71,2.28-17.49,3.7-4,1-6.1,3.86-6.11,8,0,10.29-.12,20.58.09,30.86a24,24,0,0,0,1.8,7.72c2.26,6,6.08,8.18,12.49,7.15,7.41-1.2,13.74-4.9,19.51-9.43,2.65-2.08,4.2-5.11,2-9.56-4.43-.2-8.87.83-13.31,1.9-2.9.7-5.75,1.67-8.69,2.08a3.6,3.6,0,0,1-2.89-1.92,3.87,3.87,0,0,1,1-3.42,13.66,13.66,0,0,1,4.46-2c4.08-1.4,8.28-2.48,12.27-4.1C365.72,159.07,370.34,156.61,373,151.51Zm199.46,10.08c-4.33-3.2-8.53-3.76-12.79-4.17-3-.29-5-1.63-5.11-4.93-.1-3.48,1.49-5.5,5.14-6.15,2.28-.4,4.66-.25,6.93-.68s4.72-.83,6.54-2.06c1.38-.94,2.72-3.25,2.57-4.79s-1.89-3.57-3.44-4.27a15,15,0,0,0-6.8-.92c-3.63.2-7.22,1.14-10.86,1.31-7,.34-9.33,2.22-10.38,10.65-.87,6.9-1.73,13.83-2,20.77a55.25,55.25,0,0,0,1,14.8A13.5,13.5,0,0,0,548.7,189c6.47,3.9,22,.28,26.87-5.6,1.82-2.18,2.82-4.58,1.19-7.29s-4.2-2.9-7-2.28c-4.21.94-8.4,2-12.65,2.68-1.27.2-2.73-.79-5.37-1.65C558.27,168.82,567.87,170.26,572.42,161.59Zm-123.26-26.3c-2.68,8-5.26,15.52-7.72,23.07-2.25,6.92-1.68,13.82.58,20.61.48,1.43,1.66,2.62,3,4.58l6.7-7.25c2.29,0,4.93-.08,7.56,0s5,.37,7,.53c3.1,5.41.35,12.54,7.91,15.53,1-2.38,2.23-4.35,2.52-6.44a104.19,104.19,0,0,0-2-38.52,32.58,32.58,0,0,0-2.94-7.4c-3.05-5.86-5.58-7-12.1-6C456.34,134.47,453.06,134.81,449.16,135.29Zm-64.87,2.34c.59,13.4,1.12,25.95,1.74,38.48a7.14,7.14,0,0,0,1.11,3.76c.91,1.21,2.4,2.76,3.61,2.74s2.59-1.81,3.07-3.13c.65-1.81.48-3.92.72-5.89.3-2.53-.57-5.8,2.65-6.88,3.62-1.21,5.2,2,7.11,4.2,2.8,3.28,5.53,6.63,8.49,9.76,3.4,3.58,7.41,4.59,9.6,2.78,1.94-1.6,1.88-6.19-2.46-9.32a24.22,24.22,0,0,1-3.64-3.39c-2.17-2.39-5.22-4.27-5-7.71,2.71-4.63,5.77-8.67,7.58-13.21,4.85-12.14-2.94-21.61-15.8-19.54A49.33,49.33,0,0,0,384.29,137.63Zm-73.17-15.33c-3.21,4.17-3.33,4.17-3.39,6.83-.12,6,0,12-.22,18-.06,1.74-.94,3.44-1.68,6-2.35-1.79-4.07-2.78-5.38-4.17-3.65-3.87-7.13-7.89-10.65-11.87-2.25-2.54-4.48-5.06-9.08-3.47-2.45,12.42-3.77,25.19-2.08,38.11.31,2.33,2,4.47,3.66,7.84,6.62-8.29,4.19-17.54,7-25.59,1.13.51,2.35.66,2.78,1.31,4.75,7.25,13.15,11.24,17.09,19.29.61,1.25,3.3,2.21,4.93,2.08,2.54-.21,3.8-2.42,4-5a13,13,0,0,0-.18-2c-.45-6.6-1-13.2-1.31-19.81-.24-6,0-12-.24-18C316.26,127.94,315.81,123.88,311.12,122.31Zm194.61,30.34c0,5.09-.17,9.71.05,14.32a66.79,66.79,0,0,0,1.33,11.79c1,4.27,3.41,6.44,5.57,6,2.4-.45,5-4.61,4.81-8a10,10,0,0,0-1.08-3.76c-2.86-5.72-1.73-11.63-1-17.54.65-5.59,3.24-9.07,9.32-9.72a23.78,23.78,0,0,0,8.37-2.81,3.94,3.94,0,0,0-.45-7.14,10.43,10.43,0,0,0-3.8-1,69.19,69.19,0,0,0-30.9,6.16c-4,1.77-4.1,6.22-.29,8.61C499.78,150.94,502.45,151.45,505.73,152.65ZM184.15,209.49c-.62,1.43-1.36,2.43-1.39,3.46,0,.59,1.11,1.22,1.72,1.83a24.5,24.5,0,0,0,2.1-3.37C186.66,211.23,185.37,210.43,184.15,209.49Z"/><path class="cls-2" d="M84.12,129.6c-2.5,7.56-8.39,13-12.17,19.74,1-8.55,5.8-14.62,12.21-19.7Z"/><path class="cls-2" d="M130.2,200.69c3.28,3.62,5.37,6,3.52,8.92-.67,1.05-3.17.95-6.09,1.69Z"/><path class="cls-2" d="M102.12,193.6c-.55,6.7-.55,6.7-3.48,11.85-.65-2.08-1.76-3.71-1.33-4.58a62,62,0,0,1,4.85-7.23Z"/><path class="cls-2" d="M118.1,193.57c-.66,4.73-1.82,9.21-6,12.2.07-5,3.17-8.54,6.12-12.14Z"/><path class="cls-2" d="M147.84,212l5.19-5.87c0,3.47.62,5.57-.14,6.87C151.52,215.39,149.66,214.38,147.84,212Z"/><path class="cls-2" d="M80.17,161.63c.93-4,2.43-7.6,6-10l-.06,0c-1,3.91-2.38,7.63-6,10Z"/><path class="cls-2" d="M78.12,165.6l-4,6,.07.06,4-6Z"/><path class="cls-2" d="M86.18,151.65l2-4,0,0-2,4Z"/><path class="cls-2" d="M84.17,129.65l2-4,0,0-2,4Z"/><path class="cls-2" d="M72.17,175.63l2-4-.07-.06-2,4Z"/><path class="cls-2" d="M78.18,165.65l2-4-.06,0-2,4Z"/><path class="cls-2" d="M86.16,125.63l0,0Z"/><path class="cls-2" d="M72.13,175.59l0,0Z"/><path class="cls-2" d="M108.13,179.59l0,0Z"/><path class="cls-2" d="M102.16,193.64l0,0Z"/><path class="cls-2" d="M88.16,147.64l0,0Z"/><path d="M194.28,162.44c-4,.41-7.31,1.16-10.53.91-1.52-.12-3.34-1.91-4.14-3.41-.35-.66,1.23-3.2,2.42-3.68,8.94-3.61,17.91-7.35,27.84-7.06a20.71,20.71,0,0,1,5.8,1,3,3,0,0,1,1.4,2.36,3.06,3.06,0,0,1-1.29,2.44c-3.31,1.37-6.74,2.47-10.2,3.69-2,10.74-.34,21.61-5.63,32.38l-7.4-7.51a74.72,74.72,0,0,1-8.51,2.27c-13.14,2-22.78-6.94-22-20.2,1-15.74,9.16-27.64,21-37.08,5.23-4.18,11.79-6.61,18.64-3.11,1.52.77,3.36,2.86,3.29,4.25s-2.21,2.87-3.65,4.06a5.44,5.44,0,0,1-2.83.89c-12.66,1.24-18.26,11.14-24.42,20.16a23.07,23.07,0,0,0-3,8.4c-1.08,5.43,1.7,9.21,7.12,9.91s10.52-1,15.21-3.77C194.79,168.57,194.75,168.2,194.28,162.44Z"/><path d="M237.2,144.13v10.16l22.88-3.72c-1.15,3.06-1.29,5.34-2.48,6.24-4.46,3.39-9.24,6.36-13.95,9.42a17.37,17.37,0,0,1-2.8,1c-2.66,1.11-6.76,1.74-5.35,5.65,1.34,3.7,5.09,1.79,7.86,1.26,3.59-.69,7.13-1.63,10.69-2.47,1.94-.46,3.91-1.41,5.81-1.29,1.74.11,4.18.93,4.91,2.23s0,3.68-.44,5.49c-.21.83-1.25,1.51-2,2.11a45.88,45.88,0,0,1-26.83,9.55c-6.13.21-8.59-1.55-10-7.58a47.39,47.39,0,0,1-1-13.79c.46-6.61,1.92-13.15,2.67-19.75.48-4.26.47-8.57.69-13.29a60,60,0,0,1,6.42-2.36q8.72-2.16,17.52-4c2.48-.51,5.67-2,7,1.4,1.48,3.83-1.91,5.23-4.57,6.45C249.11,139.25,243.88,141.32,237.2,144.13Z"/><path d="M373,151.51c-2.62,5.1-7.24,7.56-12.09,9.53-4,1.62-8.19,2.71-12.27,4.1a13.66,13.66,0,0,0-4.46,2,3.87,3.87,0,0,0-1,3.42,3.6,3.6,0,0,0,2.89,1.92c2.93-.4,5.79-1.37,8.69-2.08,4.44-1.07,8.88-2.1,13.31-1.9,2.21,4.45.66,7.48-2,9.56-5.77,4.53-12.1,8.23-19.51,9.43-6.4,1-10.22-1.14-12.49-7.15a24,24,0,0,1-1.8-7.72c-.21-10.28-.13-20.57-.09-30.86,0-4.16,2.08-7,6.11-8,5.79-1.42,11.62-2.72,17.49-3.7,2.34-.39,5.1.49,5,3.41a6.31,6.31,0,0,1-3.07,4.43,77.71,77.71,0,0,1-10.2,3.91c-2.71,1-4.53,2.55-4.88,5.62-.42,3.71,1.4,5.92,5.11,5.36,5.25-.78,10.42-2,15.66-2.92C367.52,149.16,367.54,149.26,373,151.51Z"/><path d="M572.42,161.59c-4.55,8.67-14.15,7.23-20.67,13.24,2.64.86,4.1,1.85,5.37,1.65,4.25-.67,8.44-1.75,12.65-2.68,2.79-.62,5.36-.45,7,2.28s.62,5.11-1.19,7.29c-4.9,5.88-20.4,9.5-26.87,5.6a13.5,13.5,0,0,1-5.47-7.79,55.25,55.25,0,0,1-1-14.8c.3-6.94,1.17-13.87,2-20.77,1.06-8.43,3.38-10.31,10.38-10.65,3.63-.18,7.22-1.11,10.86-1.31a15,15,0,0,1,6.8.92c1.55.7,3.28,2.7,3.44,4.27s-1.18,3.85-2.57,4.79c-1.82,1.23-4.29,1.64-6.54,2.06s-4.65.28-6.93.68c-3.65.64-5.24,2.67-5.14,6.15.09,3.3,2.09,4.64,5.11,4.93C563.89,157.83,568.09,158.39,572.42,161.59Z"/><path d="M449.16,135.29c3.9-.48,7.17-.82,10.43-1.31,6.51-1,9,.17,12.1,6a32.58,32.58,0,0,1,2.94,7.4,104.19,104.19,0,0,1,2,38.52c-.29,2.1-1.56,4.06-2.52,6.44-7.56-3-4.81-10.13-7.91-15.53-1.94-.15-4.46-.43-7-.53s-5.27,0-7.56,0l-6.7,7.25c-1.29-2-2.48-3.15-3-4.58-2.27-6.78-2.83-13.69-.58-20.61C443.9,150.81,446.48,143.29,449.16,135.29Zm4.09,27.6c3.79.12,7,.48,10.12.18,1.35-.13,3.43-1.42,3.7-2.55,1.31-5.36,2-10.83-1.7-15.52-4-.3-5.74,2.28-7.46,4.59C455.4,153,453,156.54,453.25,162.9Z"/><path d="M384.29,137.63A49.33,49.33,0,0,1,403,130.3c12.86-2.07,20.65,7.4,15.8,19.54-1.81,4.54-4.88,8.58-7.58,13.21-.18,3.44,2.87,5.32,5,7.71a24.22,24.22,0,0,0,3.64,3.39c4.34,3.13,4.4,7.72,2.46,9.32-2.2,1.81-6.2.8-9.6-2.78-3-3.12-5.7-6.47-8.49-9.76-1.91-2.24-3.49-5.42-7.11-4.2-3.22,1.08-2.35,4.35-2.65,6.88-.24,2-.07,4.08-.72,5.89-.47,1.31-2,3.11-3.07,3.13s-2.71-1.53-3.61-2.74a7.14,7.14,0,0,1-1.11-3.76C385.41,163.58,384.89,151,384.29,137.63Zm27,3.38c-5.25-2.05-9-1.36-12.46,1-1.85,1.28-3.51,2.86-5.51,4.51l2.37,8.31C403,152.42,409.19,150,411.29,141Z"/><path d="M311.12,122.31c4.69,1.57,5.14,5.64,5.31,9.6.25,6,0,12,.24,18,.27,6.61.85,13.21,1.31,19.81a13,13,0,0,1,.18,2c-.23,2.56-1.49,4.77-4,5-1.63.13-4.32-.83-4.93-2.08-3.94-8-12.34-12-17.09-19.29-.43-.66-1.64-.8-2.78-1.31-2.83,8-.41,17.3-7,25.59-1.62-3.37-3.36-5.51-3.66-7.84-1.7-12.92-.38-25.69,2.08-38.11,4.61-1.6,6.83.92,9.08,3.47,3.52,4,7,8,10.65,11.87,1.31,1.39,3,2.38,5.38,4.17.75-2.55,1.62-4.26,1.68-6,.22-6,.09-12,.22-18C307.79,126.48,307.92,126.48,311.12,122.31Z"/><path d="M505.73,152.65c-3.28-1.2-6-1.71-8.11-3.06-3.81-2.39-3.7-6.84.29-8.61a69.19,69.19,0,0,1,30.9-6.16,10.43,10.43,0,0,1,3.8,1,3.94,3.94,0,0,1,.45,7.14,23.78,23.78,0,0,1-8.37,2.81c-6.07.65-8.66,4.13-9.32,9.72-.69,5.91-1.82,11.82,1,17.54a10,10,0,0,1,1.08,3.76c.21,3.37-2.42,7.53-4.81,8-2.16.4-4.59-1.76-5.57-6A66.79,66.79,0,0,1,505.78,167C505.57,162.37,505.73,157.74,505.73,152.65Z"/><path d="M184.15,209.49c1.22.94,2.52,1.74,2.44,1.92a24.5,24.5,0,0,1-2.1,3.37c-.61-.61-1.74-1.24-1.72-1.83C182.79,211.92,183.53,210.91,184.15,209.49Z"/><path class="cls-2" d="M453.25,162.9c-.22-6.35,2.14-9.91,4.66-13.3,1.72-2.31,3.47-4.89,7.46-4.59,3.67,4.69,3,10.16,1.7,15.52-.27,1.12-2.35,2.42-3.7,2.55C460.24,163.38,457,163,453.25,162.9Z"/><path class="cls-2" d="M411.29,141c-2.09,8.94-8.29,11.4-15.6,13.86l-2.37-8.31c2-1.65,3.66-3.22,5.51-4.51C402.29,139.65,406,139,411.29,141Z"/><path class="cls-1" d="M2220.39,185c.89,13.31-3.34,25.21-8.35,36.91a22.29,22.29,0,0,1-3.22,5c-14.43,18-32.25,29.3-56.16,29.73-13.62.24-27.27,1.26-40.83,2.66-15.53,1.61-31,3.93-46.44,6.16-9.53,1.37-18.93,2.58-28.71,1.94-7.84-.51-15.84,1.48-23.79,2.24a114.68,114.68,0,0,1-13.89.92q-28.38-.74-56.74-1.93c-5.64-.23-11.25-1.08-16.87-1.64-27.25-2.72-54.52,1-81.77-.35-4.64-.23-9.27-.67-13.91-1-2-.13-4-.55-5.94-.21-13,2.33-26,1.63-38.78-.44s-25.87-1.46-38.8-2.27a308.81,308.81,0,0,1-32.64-3.74,131.23,131.23,0,0,0-18.79-2c-5.6-.15-11.19-1.21-16.76-2-4.58-.66-9.1-1.78-13.7-2.26-10.64-1.11-21.29-2.26-30.47-8.39-13.84-9.24-25.29-20.88-31.58-36.43-4-9.85-5.39-20.17-2.53-31.19,4.41-17,11.85-32.41,20.43-47.52,6.84-12,17.86-18.69,29.78-24a131.81,131.81,0,0,1,22.72-7.31c12.55-3,25.44-4.59,37.69-9a34.33,34.33,0,0,1,21.58-.6c5,1.42,10.49,1.71,15.78,2,12.62.67,25.26,1.45,37.89,1.41,14.63,0,29.26-1.2,43.9-1.36,18.32-.2,36.67-.33,55,.34,23.61.87,47.25,1.83,70.75,4.12,20,1.95,39.91,1.62,59.88,1.69,21,.08,42-.48,63,.25,21.59.75,43.25,1.38,64.64,5.15,2.61.46,5.31.46,8,.71a74.62,74.62,0,0,1,48.24,23.55,24.29,24.29,0,0,1,4.71,6.4c4.54,10,8.94,20.07,13.11,30.23A47.79,47.79,0,0,1,2220.39,185Zm-602.26,7.61,2-4,4-6,2-4c3.62-2.35,5-6.06,6-10l2-4,0,0-2,4c-3.57,2.38-5.07,6-6,10l-2,4-4,6-2,4Zm14-50-2,4c-6.42,5.08-11.26,11.15-12.21,19.7,3.77-6.76,9.66-12.18,12.17-19.74l2-4Zm16,68a62,62,0,0,0-4.85,7.23c-.43.86.67,2.5,1.33,4.58,2.93-5.15,2.93-5.15,3.48-11.85Zm6-14.05a6.25,6.25,0,0,1,6.12,2.28c2.83,3.43,4.54,7.19,3.93,11.75-2.95,3.6-6.05,7.12-6.12,12.14,4.22-3,5.39-7.47,6-12.2,4-3.34,4.9-9.62,10.66-11.27,4.68,2.8,9.09,5.64,13.71,8.08,1.88,1,5,.39,6.19,1.73,2.81,3.25,5.47,5.45,10.14,5,1.33-.13,3.17,2,4.26,3.43.89,1.2,1,3,1.53,4.65h11.75l2.55,12.1c9.65,1.29,19.14,3.36,28.68,3.62,11.92.32,23.81,3.17,35.81.84,1.57-.3,3.3.26,5,.38,5,.36,9.94.93,14.92,1,14,.2,28,.72,42,.13,14.3-.61,28.48,3.59,42.78.71a8.72,8.72,0,0,1,2,.17c7.64.35,15.29,1.07,22.92.94,19.62-.33,39.24-1.7,58.84-1.46,32,.39,63.82-1.82,95.67-4.58a509.3,509.3,0,0,1,55.82-2.15,301.55,301.55,0,0,0,41.83-1.61c9.4-1.09,19.87-2,22.13-15.13,5.82,3,8.42-.42,10.44-4.39a74.47,74.47,0,0,0,8.33-31.6c.24-6.86-1.16-13.16-5.07-18.94a45.68,45.68,0,0,1-5.19-9.63c-2.06-5.58-5.82-9.77-10.26-13.26-5.75-4.51-11.81-8.67-17.95-12.65a40.43,40.43,0,0,0-16.71-6.19c-17.79-2.45-35.46-5.71-53.5-6.25-19.88-.59-39.61-3.53-59.66-2.11-17.56,1.24-35.27.83-52.9.49-13.29-.26-26.57-1.52-39.84-2.41-16.25-1.08-32.47-2.74-48.73-3.24-23.95-.74-47.92-.68-71.88-.95-9.3-.1-18.6-.21-27.9-.2-13.91,0-27.85.69-41.73,0-11.26-.53-22.47-2.48-33.66-4-5.06-.71-9.76-.58-14.62,1.47-3.93,1.66-8.29,2.42-12.53,3.2-5.56,1-11.19,1.7-16.79,2.44a81.67,81.67,0,0,0-34.33,12.29c4.58,12.13-2.05,21.12-8.22,30.32a38.81,38.81,0,0,0-2.85,5.75c2.4,5,5.16,8.6,5.8,12.57.78,4.78-.28,9.86-.45,14.81,0,.51.57,1,.88,1.57l5.49-3.48c4.56,5.64,4.56,5.64,4.81,13.87Zm22.07,21.1-2.57,10.6c2.92-.74,5.43-.63,6.09-1.69C1681.57,223.67,1679.47,221.31,1676.2,217.69ZM1693.84,229c1.82,2.35,3.68,3.36,5.06,1,.76-1.3.14-3.4.14-6.87Z"/><path class="cls-2" d="M1654.17,203.63c.61-4.56-1.1-8.32-3.93-11.75a6.25,6.25,0,0,0-6.12-2.28l0,0c-.26-8.23-.26-8.23-4.81-13.87l-5.49,3.48c-.31-.52-.9-1.06-.88-1.57.17-5,1.22-10,.45-14.81-.64-4-3.41-7.6-5.8-12.57a38.81,38.81,0,0,1,2.85-5.75c6.17-9.2,12.8-18.19,8.22-30.32A81.67,81.67,0,0,1,1673,101.93c5.61-.74,11.23-1.42,16.79-2.44,4.24-.77,8.6-1.53,12.53-3.2,4.86-2.06,9.55-2.18,14.62-1.47,11.2,1.57,22.4,3.52,33.66,4,13.88.65,27.82,0,41.73,0,9.3,0,18.6.1,27.9.2,24,.26,47.93.21,71.88.95,16.26.5,32.49,2.16,48.73,3.24,13.28.89,26.55,2.15,39.84,2.41,17.63.34,35.34.75,52.9-.49,20.05-1.42,39.78,1.53,59.66,2.11,18,.53,35.71,3.79,53.5,6.25a40.43,40.43,0,0,1,16.71,6.19c6.14,4,12.19,8.14,17.95,12.65,4.45,3.49,8.21,7.68,10.26,13.26a45.68,45.68,0,0,0,5.19,9.63c3.92,5.78,5.32,12.08,5.07,18.94a74.47,74.47,0,0,1-8.33,31.6c-2,4-4.63,7.42-10.44,4.39-2.26,13.09-12.73,14-22.13,15.13a301.55,301.55,0,0,1-41.83,1.61,509.3,509.3,0,0,0-55.82,2.15c-31.85,2.76-63.66,5-95.67,4.58-19.61-.24-39.23,1.13-58.84,1.46-7.63.13-15.28-.6-22.92-.94a8.72,8.72,0,0,0-2-.17c-14.3,2.88-28.48-1.31-42.78-.71-14,.59-28,.07-42-.13-5-.07-9.95-.64-14.92-1-1.66-.12-3.39-.69-5-.38-12,2.33-23.89-.52-35.81-.84-9.54-.26-19-2.33-28.68-3.62l-2.55-12.1H1700.6c-.51-1.68-.64-3.45-1.53-4.65-1.09-1.46-2.94-3.57-4.26-3.43-4.67.46-7.33-1.74-10.14-5-1.16-1.34-4.32-.74-6.19-1.73-4.62-2.44-9-5.28-13.71-8.08-5.76,1.66-6.71,7.93-10.66,11.27Zm76.1-31.19c.47,5.76.51,6.14-.88,6.95-4.69,2.73-9.7,4.48-15.21,3.77s-8.2-4.48-7.12-9.91a23.07,23.07,0,0,1,3-8.4c6.16-9,11.76-18.92,24.42-20.16a5.44,5.44,0,0,0,2.83-.89c1.44-1.19,3.57-2.63,3.65-4.06s-1.77-3.48-3.29-4.25c-6.85-3.5-13.42-1.07-18.64,3.11-11.82,9.44-20,21.34-21,37.08-.82,13.26,8.82,22.16,22,20.2a74.72,74.72,0,0,0,8.51-2.27l7.4,7.51c5.29-10.77,3.67-21.65,5.63-32.38,3.46-1.22,6.89-2.32,10.2-3.69a3.06,3.06,0,0,0,1.29-2.44,3,3,0,0,0-1.4-2.36,20.71,20.71,0,0,0-5.8-1c-9.93-.29-18.9,3.45-27.84,7.06-1.19.48-2.77,3-2.42,3.68.8,1.5,2.61,3.29,4.14,3.41C1723,173.6,1726.26,172.85,1730.28,172.44Zm42.93-18.31c6.68-2.81,11.91-4.88,17-7.22,2.66-1.22,6-2.62,4.57-6.45-1.32-3.42-4.52-1.91-7-1.4q-8.8,1.82-17.52,4a60,60,0,0,0-6.42,2.36c-.23,4.71-.21,9-.69,13.29-.75,6.6-2.21,13.14-2.67,19.75a47.39,47.39,0,0,0,1,13.79c1.4,6,3.86,7.79,10,7.58a45.88,45.88,0,0,0,26.83-9.55c.78-.6,1.82-1.28,2-2.11.46-1.81,1.2-4.15.44-5.49s-3.16-2.12-4.91-2.23c-1.9-.12-3.86.83-5.81,1.29-3.56.84-7.1,1.78-10.69,2.47-2.77.54-6.53,2.45-7.86-1.26-1.41-3.91,2.69-4.54,5.35-5.65a17.37,17.37,0,0,0,2.8-1c4.71-3.06,9.49-6,13.95-9.42,1.18-.9,1.32-3.18,2.48-6.24l-22.88,3.72ZM1909,161.51c-5.42-2.25-5.44-2.35-9.55-1.64-5.23.9-10.41,2.13-15.66,2.92-3.71.55-5.53-1.65-5.11-5.36.35-3.07,2.17-4.66,4.88-5.62a77.71,77.71,0,0,0,10.2-3.91,6.31,6.31,0,0,0,3.07-4.43c.07-2.92-2.69-3.8-5-3.41-5.87,1-11.71,2.28-17.49,3.7-4,1-6.1,3.86-6.11,8,0,10.29-.12,20.58.09,30.86a24,24,0,0,0,1.8,7.72c2.26,6,6.08,8.18,12.49,7.15,7.41-1.2,13.74-4.9,19.51-9.43,2.65-2.08,4.2-5.11,2-9.56-4.43-.2-8.87.83-13.31,1.9-2.9.7-5.75,1.67-8.69,2.08a3.6,3.6,0,0,1-2.89-1.92,3.87,3.87,0,0,1,1-3.42,13.66,13.66,0,0,1,4.46-2c4.08-1.4,8.28-2.48,12.27-4.1C1901.72,169.07,1906.34,166.61,1909,161.51Zm199.46,10.08c-4.33-3.2-8.53-3.76-12.79-4.17-3-.29-5-1.63-5.11-4.93-.1-3.48,1.49-5.5,5.14-6.15,2.28-.4,4.66-.25,6.93-.68s4.72-.83,6.54-2.06c1.38-.94,2.72-3.25,2.57-4.79s-1.89-3.57-3.44-4.27a15,15,0,0,0-6.8-.92c-3.63.2-7.22,1.14-10.86,1.31-7,.34-9.33,2.22-10.38,10.65-.87,6.9-1.73,13.83-2,20.77a55.25,55.25,0,0,0,1,14.8,13.5,13.5,0,0,0,5.47,7.79c6.47,3.9,22,.28,26.87-5.6,1.82-2.18,2.82-4.58,1.19-7.29s-4.2-2.9-7-2.28c-4.21.94-8.4,2-12.65,2.68-1.27.2-2.73-.79-5.37-1.65C2094.27,178.82,2103.87,180.26,2108.42,171.59Zm-123.26-26.3c-2.68,8-5.26,15.52-7.72,23.07-2.25,6.92-1.68,13.82.58,20.61.48,1.43,1.66,2.62,3,4.58l6.7-7.25c2.29,0,4.93-.08,7.56,0s5,.37,7,.53c3.1,5.41.35,12.54,7.91,15.53,1-2.38,2.23-4.35,2.52-6.44a104.19,104.19,0,0,0-2-38.52,32.58,32.58,0,0,0-2.94-7.4c-3.05-5.86-5.58-7-12.1-6C1992.34,144.47,1989.06,144.81,1985.16,145.29Zm-64.87,2.34c.59,13.4,1.12,25.95,1.74,38.48a7.14,7.14,0,0,0,1.11,3.76c.91,1.21,2.4,2.76,3.61,2.74s2.59-1.81,3.07-3.13c.65-1.81.48-3.92.72-5.89.3-2.53-.57-5.8,2.65-6.88,3.62-1.21,5.2,2,7.11,4.2,2.8,3.28,5.53,6.63,8.49,9.76,3.4,3.58,7.41,4.59,9.6,2.78,1.94-1.6,1.88-6.19-2.46-9.32a24.22,24.22,0,0,1-3.64-3.39c-2.17-2.39-5.22-4.27-5-7.71,2.71-4.63,5.77-8.67,7.58-13.21,4.85-12.14-2.94-21.61-15.8-19.54A49.33,49.33,0,0,0,1920.29,147.63Zm-73.17-15.33c-3.21,4.17-3.33,4.17-3.39,6.83-.12,6,0,12-.22,18-.06,1.74-.94,3.44-1.68,6-2.35-1.79-4.07-2.78-5.38-4.17-3.65-3.87-7.13-7.89-10.65-11.87-2.25-2.54-4.48-5.06-9.08-3.47-2.45,12.42-3.77,25.19-2.08,38.11.31,2.33,2,4.47,3.66,7.84,6.62-8.29,4.19-17.54,7-25.59,1.13.51,2.35.66,2.78,1.31,4.75,7.25,13.15,11.24,17.09,19.29.61,1.25,3.3,2.21,4.93,2.08,2.54-.21,3.8-2.42,4-5a13,13,0,0,0-.18-2c-.45-6.6-1-13.2-1.31-19.81-.24-6,0-12-.24-18C1852.26,137.94,1851.81,133.88,1847.12,132.31Zm194.61,30.34c0,5.09-.17,9.71.05,14.32a66.79,66.79,0,0,0,1.33,11.79c1,4.27,3.41,6.44,5.57,6,2.4-.45,5-4.61,4.81-8a10,10,0,0,0-1.08-3.76c-2.86-5.72-1.73-11.63-1-17.54.65-5.59,3.24-9.07,9.32-9.72a23.78,23.78,0,0,0,8.37-2.81,3.94,3.94,0,0,0-.45-7.14,10.43,10.43,0,0,0-3.8-1,69.19,69.19,0,0,0-30.9,6.16c-4,1.77-4.1,6.22-.29,8.61C2035.78,160.94,2038.45,161.45,2041.73,162.65Zm-321.59,56.83c-.62,1.43-1.36,2.43-1.39,3.46,0,.59,1.11,1.22,1.72,1.83a24.5,24.5,0,0,0,2.1-3.37C1722.66,221.23,1721.37,220.43,1720.15,219.49Z"/><path class="cls-2" d="M1620.12,142.6c-2.5,7.56-8.39,13-12.17,19.74,1-8.55,5.8-14.62,12.21-19.7Z"/><path class="cls-2" d="M1666.2,210.69c3.28,3.62,5.37,6,3.52,8.92-.67,1.05-3.17.95-6.09,1.69Z"/><path class="cls-2" d="M1638.12,203.6c-.55,6.7-.55,6.7-3.48,11.85-.65-2.08-1.76-3.71-1.33-4.58a62,62,0,0,1,4.85-7.23Z"/><path class="cls-2" d="M1654.1,203.57c-.66,4.73-1.82,9.21-6,12.2.07-5,3.17-8.54,6.12-12.14Z"/><path class="cls-2" d="M1683.84,222l5.19-5.87c0,3.47.62,5.57-.14,6.87C1687.52,225.39,1685.66,224.38,1683.84,222Z"/><path class="cls-2" d="M1616.17,174.63c.93-4,2.43-7.6,6-10l-.06,0c-1,3.91-2.38,7.63-6,10Z"/><path class="cls-2" d="M1614.12,178.6l-4,6,.07.06,4-6Z"/><path class="cls-2" d="M1622.18,161.65l2-4,0,0-2,4Z"/><path class="cls-2" d="M1620.17,142.65l2-4,0,0-2,4Z"/><path class="cls-2" d="M1608.17,188.63l2-4-.07-.06-2,4Z"/><path class="cls-2" d="M1614.18,178.65l2-4-.06,0-2,4Z"/><path class="cls-2" d="M1622.16,138.63l0,0Z"/><path class="cls-2" d="M1608.13,188.59l0,0Z"/><path class="cls-2" d="M1644.13,189.59l0,0Z"/><path class="cls-2" d="M1638.16,203.64l0,0Z"/><path class="cls-2" d="M1624.16,157.64l0,0Z"/><path d="M1730.28,172.44c-4,.41-7.31,1.16-10.53.91-1.52-.12-3.34-1.91-4.14-3.41-.35-.66,1.23-3.2,2.42-3.68,8.94-3.61,17.91-7.35,27.84-7.06a20.71,20.71,0,0,1,5.8,1,3,3,0,0,1,1.4,2.36,3.06,3.06,0,0,1-1.29,2.44c-3.31,1.37-6.74,2.47-10.2,3.69-2,10.74-.34,21.61-5.63,32.38l-7.4-7.51a74.72,74.72,0,0,1-8.51,2.27c-13.14,2-22.78-6.94-22-20.2,1-15.74,9.16-27.64,21-37.08,5.23-4.18,11.79-6.61,18.64-3.11,1.52.77,3.36,2.86,3.29,4.25s-2.21,2.87-3.65,4.06a5.44,5.44,0,0,1-2.83.89c-12.66,1.24-18.26,11.14-24.42,20.16a23.07,23.07,0,0,0-3,8.4c-1.08,5.43,1.7,9.21,7.12,9.91s10.52-1,15.21-3.77C1730.79,178.57,1730.75,178.2,1730.28,172.44Z"/><path d="M1773.2,154.13v10.16l22.88-3.72c-1.15,3.06-1.29,5.34-2.48,6.24-4.46,3.39-9.24,6.36-13.95,9.42a17.37,17.37,0,0,1-2.8,1c-2.66,1.11-6.76,1.74-5.35,5.65,1.34,3.7,5.09,1.79,7.86,1.26,3.59-.69,7.13-1.63,10.69-2.47,1.94-.46,3.91-1.41,5.81-1.29,1.74.11,4.18.93,4.91,2.23s0,3.68-.44,5.49c-.21.83-1.25,1.51-2,2.11a45.88,45.88,0,0,1-26.83,9.55c-6.13.21-8.59-1.55-10-7.58a47.39,47.39,0,0,1-1-13.79c.46-6.61,1.92-13.15,2.67-19.75.48-4.26.47-8.57.69-13.29a60,60,0,0,1,6.42-2.36q8.72-2.16,17.52-4c2.48-.51,5.67-2,7,1.4,1.48,3.83-1.91,5.23-4.57,6.45C1785.11,149.25,1779.88,151.32,1773.2,154.13Z"/><path d="M1909,161.51c-2.62,5.1-7.24,7.56-12.09,9.53-4,1.62-8.19,2.71-12.27,4.1a13.66,13.66,0,0,0-4.46,2,3.87,3.87,0,0,0-1,3.42,3.6,3.6,0,0,0,2.89,1.92c2.93-.4,5.79-1.37,8.69-2.08,4.44-1.07,8.88-2.1,13.31-1.9,2.21,4.45.66,7.48-2,9.56-5.77,4.53-12.1,8.23-19.51,9.43-6.4,1-10.22-1.14-12.49-7.15a24,24,0,0,1-1.8-7.72c-.21-10.28-.13-20.57-.09-30.86,0-4.16,2.08-7,6.11-8,5.79-1.42,11.62-2.72,17.49-3.7,2.34-.39,5.1.49,5,3.41a6.31,6.31,0,0,1-3.07,4.43,77.71,77.71,0,0,1-10.2,3.91c-2.71,1-4.53,2.55-4.88,5.62-.42,3.71,1.4,5.92,5.11,5.36,5.25-.78,10.42-2,15.66-2.92C1903.52,159.16,1903.54,159.26,1909,161.51Z"/><path d="M2108.42,171.59c-4.55,8.67-14.15,7.23-20.67,13.24,2.64.86,4.1,1.85,5.37,1.65,4.25-.67,8.44-1.75,12.65-2.68,2.79-.62,5.36-.45,7,2.28s.62,5.11-1.19,7.29c-4.9,5.88-20.4,9.5-26.87,5.6a13.5,13.5,0,0,1-5.47-7.79,55.25,55.25,0,0,1-1-14.8c.3-6.94,1.17-13.87,2-20.77,1.06-8.43,3.38-10.31,10.38-10.65,3.63-.18,7.22-1.11,10.86-1.31a15,15,0,0,1,6.8.92c1.55.7,3.28,2.7,3.44,4.27s-1.18,3.85-2.57,4.79c-1.82,1.23-4.29,1.64-6.54,2.06s-4.65.28-6.93.68c-3.65.64-5.24,2.67-5.14,6.15.09,3.3,2.09,4.64,5.11,4.93C2099.89,167.83,2104.09,168.39,2108.42,171.59Z"/><path d="M1985.16,145.29c3.9-.48,7.17-.82,10.43-1.31,6.51-1,9,.17,12.1,6a32.58,32.58,0,0,1,2.94,7.4,104.19,104.19,0,0,1,2,38.52c-.29,2.1-1.56,4.06-2.52,6.44-7.56-3-4.81-10.13-7.91-15.53-1.94-.15-4.46-.43-7-.53s-5.27,0-7.56,0l-6.7,7.25c-1.29-2-2.48-3.15-3-4.58-2.27-6.78-2.83-13.69-.58-20.61C1979.9,160.81,1982.48,153.29,1985.16,145.29Zm4.09,27.6c3.79.12,7,.48,10.12.18,1.35-.13,3.43-1.42,3.7-2.55,1.31-5.36,2-10.83-1.7-15.52-4-.3-5.74,2.28-7.46,4.59C1991.4,163,1989,166.54,1989.25,172.9Z"/><path d="M1920.29,147.63A49.33,49.33,0,0,1,1939,140.3c12.86-2.07,20.65,7.4,15.8,19.54-1.81,4.54-4.88,8.58-7.58,13.21-.18,3.44,2.87,5.32,5,7.71a24.22,24.22,0,0,0,3.64,3.39c4.34,3.13,4.4,7.72,2.46,9.32-2.2,1.81-6.2.8-9.6-2.78-3-3.12-5.7-6.47-8.49-9.76-1.91-2.24-3.49-5.42-7.11-4.2-3.22,1.08-2.35,4.35-2.65,6.88-.24,2-.07,4.08-.72,5.89-.47,1.31-2,3.11-3.07,3.13s-2.71-1.53-3.61-2.74a7.14,7.14,0,0,1-1.11-3.76C1921.41,173.58,1920.89,161,1920.29,147.63Zm27,3.38c-5.25-2.05-9-1.36-12.46,1-1.85,1.28-3.51,2.86-5.51,4.51l2.37,8.31C1939,162.42,1945.19,160,1947.29,151Z"/><path d="M1847.12,132.31c4.69,1.57,5.14,5.64,5.31,9.6.25,6,0,12,.24,18,.27,6.61.85,13.21,1.31,19.81a13,13,0,0,1,.18,2c-.23,2.56-1.49,4.77-4,5-1.63.13-4.32-.83-4.93-2.08-3.94-8-12.34-12-17.09-19.29-.43-.66-1.64-.8-2.78-1.31-2.83,8-.41,17.3-7,25.59-1.62-3.37-3.36-5.51-3.66-7.84-1.7-12.92-.38-25.69,2.08-38.11,4.61-1.6,6.83.92,9.08,3.47,3.52,4,7,8,10.65,11.87,1.31,1.39,3,2.38,5.38,4.17.75-2.55,1.62-4.26,1.68-6,.22-6,.09-12,.22-18C1843.79,136.48,1843.92,136.48,1847.12,132.31Z"/><path d="M2041.73,162.65c-3.28-1.2-6-1.71-8.11-3.06-3.81-2.39-3.7-6.84.29-8.61a69.19,69.19,0,0,1,30.9-6.16,10.43,10.43,0,0,1,3.8,1,3.94,3.94,0,0,1,.45,7.14,23.78,23.78,0,0,1-8.37,2.81c-6.07.65-8.66,4.13-9.32,9.72-.69,5.91-1.82,11.82,1,17.54a10,10,0,0,1,1.08,3.76c.21,3.37-2.42,7.53-4.81,8-2.16.4-4.59-1.76-5.57-6a66.79,66.79,0,0,1-1.33-11.79C2041.57,172.37,2041.73,167.74,2041.73,162.65Z"/><path d="M1720.15,219.49c1.22.94,2.52,1.74,2.44,1.92a24.5,24.5,0,0,1-2.1,3.37c-.61-.61-1.74-1.24-1.72-1.83C1718.79,221.92,1719.53,220.91,1720.15,219.49Z"/><path class="cls-2" d="M1989.25,172.9c-.22-6.35,2.14-9.91,4.66-13.3,1.72-2.31,3.47-4.89,7.46-4.59,3.67,4.69,3,10.16,1.7,15.52-.27,1.12-2.35,2.42-3.7,2.55C1996.24,173.38,1993,173,1989.25,172.9Z"/><path class="cls-2" d="M1947.29,151c-2.09,8.94-8.29,11.4-15.6,13.86l-2.37-8.31c2-1.65,3.66-3.22,5.51-4.51C1938.29,149.65,1942,149,1947.29,151Z"/><path d="M2220.39,178c.89,13.31-3.34,25.21-8.35,36.91a22.29,22.29,0,0,1-3.22,5c-14.43,18-32.25,29.3-56.16,29.73-13.62.24-27.27,1.26-40.83,2.66-15.53,1.61-31,3.93-46.44,6.16-9.53,1.37-18.93,2.58-28.71,1.94-7.84-.51-15.84,1.48-23.79,2.24a114.68,114.68,0,0,1-13.89.92q-28.38-.74-56.74-1.93c-5.64-.23-11.25-1.08-16.87-1.64-27.25-2.72-54.52,1-81.77-.35-4.64-.23-9.27-.67-13.91-1-2-.13-4-.55-5.94-.21-13,2.33-26,1.63-38.78-.44s-25.87-1.46-38.8-2.27a308.81,308.81,0,0,1-32.64-3.74,131.23,131.23,0,0,0-18.79-2c-5.6-.15-11.19-1.21-16.76-2-4.58-.66-9.1-1.78-13.7-2.26-10.64-1.11-21.29-2.26-30.47-8.39-13.84-9.24-25.29-20.88-31.58-36.43-4-9.85-5.39-20.17-2.53-31.19,4.41-17,11.85-32.41,20.43-47.52,6.84-12,17.86-18.69,29.78-24a131.81,131.81,0,0,1,22.72-7.31c12.55-3,25.44-4.59,37.69-9a34.33,34.33,0,0,1,21.58-.6c5,1.42,10.49,1.71,15.78,2,12.62.67,25.26,1.45,37.89,1.41,14.63,0,29.26-1.2,43.9-1.36,18.32-.2,36.67-.33,55,.34,23.61.87,47.25,1.83,70.75,4.12,20,1.95,39.91,1.62,59.88,1.69,21,.08,42-.48,63,.25,21.59.75,43.25,1.38,64.64,5.15,2.61.46,5.31.46,8,.71a74.62,74.62,0,0,1,48.24,23.55,24.29,24.29,0,0,1,4.71,6.4c4.54,10,8.94,20.07,13.11,30.23A47.79,47.79,0,0,1,2220.39,178Zm-602.26,7.61,2-4,4-6,2-4c3.62-2.35,5-6.06,6-10l2-4,0,0-2,4c-3.57,2.38-5.07,6-6,10l-2,4-4,6-2,4Zm14-50-2,4c-6.42,5.08-11.26,11.15-12.21,19.7,3.77-6.76,9.66-12.18,12.17-19.74l2-4Zm16,68a62,62,0,0,0-4.85,7.23c-.43.86.67,2.5,1.33,4.58,2.93-5.15,2.93-5.15,3.48-11.85Zm6-14.05a6.25,6.25,0,0,1,6.12,2.28c2.83,3.43,4.54,7.19,3.93,11.75-2.95,3.6-6.05,7.12-6.12,12.14,4.22-3,5.39-7.47,6-12.2,4-3.34,4.9-9.62,10.66-11.27,4.68,2.8,9.09,5.64,13.71,8.08,1.88,1,5,.39,6.19,1.73,2.81,3.25,5.47,5.45,10.14,5,1.33-.13,3.17,2,4.26,3.43.89,1.2,1,3,1.53,4.65h11.75l2.55,12.1c9.65,1.29,19.14,3.36,28.68,3.62,11.92.32,23.81,3.17,35.81.84,1.57-.3,3.3.26,5,.38,5,.36,9.94.93,14.92,1,14,.2,28,.72,42,.13,14.3-.61,28.48,3.59,42.78.71a8.72,8.72,0,0,1,2,.17c7.64.35,15.29,1.07,22.92.94,19.62-.33,39.24-1.7,58.84-1.46,32,.39,63.82-1.82,95.67-4.58a509.3,509.3,0,0,1,55.82-2.15,301.55,301.55,0,0,0,41.83-1.61c9.4-1.09,19.87-2,22.13-15.13,5.82,3,8.42-.42,10.44-4.39a74.47,74.47,0,0,0,8.33-31.6c.24-6.86-1.16-13.16-5.07-18.94a45.68,45.68,0,0,1-5.19-9.63c-2.06-5.58-5.82-9.77-10.26-13.26-5.75-4.51-11.81-8.67-17.95-12.65a40.43,40.43,0,0,0-16.71-6.19c-17.79-2.45-35.46-5.71-53.5-6.25-19.88-.59-39.61-3.53-59.66-2.11-17.56,1.24-35.27.83-52.9.49-13.29-.26-26.57-1.52-39.84-2.41-16.25-1.08-32.47-2.74-48.73-3.24-23.95-.74-47.92-.68-71.88-.95-9.3-.1-18.6-.21-27.9-.2-13.91,0-27.85.69-41.73,0-11.26-.53-22.47-2.48-33.66-4-5.06-.71-9.76-.58-14.62,1.47-3.93,1.66-8.29,2.42-12.53,3.2-5.56,1-11.19,1.7-16.79,2.44a81.67,81.67,0,0,0-34.33,12.29c4.58,12.13-2.05,21.12-8.22,30.32a38.81,38.81,0,0,0-2.85,5.75c2.4,5,5.16,8.6,5.8,12.57.78,4.78-.28,9.86-.45,14.81,0,.51.57,1,.88,1.57l5.49-3.48c4.56,5.64,4.56,5.64,4.81,13.87Zm22.07,21.1-2.57,10.6c2.92-.74,5.43-.63,6.09-1.69C1681.57,216.67,1679.47,214.31,1676.2,210.69ZM1693.84,222c1.82,2.35,3.68,3.36,5.06,1,.76-1.3.14-3.4.14-6.87Z"/><path class="cls-2" d="M1664.17,203.63c.61-4.56-1.1-8.32-3.93-11.75a6.25,6.25,0,0,0-6.12-2.28l0,0c-.26-8.23-.26-8.23-4.81-13.87l-5.49,3.48c-.31-.52-.9-1.06-.88-1.57.17-5,1.22-10,.45-14.81-.64-4-3.41-7.6-5.8-12.57a38.81,38.81,0,0,1,2.85-5.75c6.17-9.2,12.8-18.19,8.22-30.32A81.67,81.67,0,0,1,1683,101.93c5.61-.74,11.23-1.42,16.79-2.44,4.24-.77,8.6-1.53,12.53-3.2,4.86-2.06,9.55-2.18,14.62-1.47,11.2,1.57,22.4,3.52,33.66,4,13.88.65,27.82,0,41.73,0,9.3,0,18.6.1,27.9.2,24,.26,47.93.21,71.88.95,16.26.5,32.49,2.16,48.73,3.24,13.28.89,26.55,2.15,39.84,2.41,17.63.34,35.34.75,52.9-.49,20.05-1.42,39.78,1.53,59.66,2.11,18,.53,35.71,3.79,53.5,6.25a40.43,40.43,0,0,1,16.71,6.19c6.14,4,12.19,8.14,17.95,12.65,4.45,3.49,8.21,7.68,10.26,13.26a45.68,45.68,0,0,0,5.19,9.63c3.92,5.78,5.32,12.08,5.07,18.94a74.47,74.47,0,0,1-8.33,31.6c-2,4-4.63,7.42-10.44,4.39-2.26,13.09-12.73,14-22.13,15.13a301.55,301.55,0,0,1-41.83,1.61,509.3,509.3,0,0,0-55.82,2.15c-31.85,2.76-63.66,5-95.67,4.58-19.61-.24-39.23,1.13-58.84,1.46-7.63.13-15.28-.6-22.92-.94a8.72,8.72,0,0,0-2-.17c-14.3,2.88-28.48-1.31-42.78-.71-14,.59-28,.07-42-.13-5-.07-9.95-.64-14.92-1-1.66-.12-3.39-.69-5-.38-12,2.33-23.89-.52-35.81-.84-9.54-.26-19-2.33-28.68-3.62l-2.55-12.1H1710.6c-.51-1.68-.64-3.45-1.53-4.65-1.09-1.46-2.94-3.57-4.26-3.43-4.67.46-7.33-1.74-10.14-5-1.16-1.34-4.32-.74-6.19-1.73-4.62-2.44-9-5.28-13.71-8.08-5.76,1.66-6.71,7.93-10.66,11.27Zm76.1-31.19c.47,5.76.51,6.14-.88,6.95-4.69,2.73-9.7,4.48-15.21,3.77s-8.2-4.48-7.12-9.91a23.07,23.07,0,0,1,3-8.4c6.16-9,11.76-18.92,24.42-20.16a5.44,5.44,0,0,0,2.83-.89c1.44-1.19,3.57-2.63,3.65-4.06s-1.77-3.48-3.29-4.25c-6.85-3.5-13.42-1.07-18.64,3.11-11.82,9.44-20,21.34-21,37.08-.82,13.26,8.82,22.16,22,20.2a74.72,74.72,0,0,0,8.51-2.27l7.4,7.51c5.29-10.77,3.67-21.65,5.63-32.38,3.46-1.22,6.89-2.32,10.2-3.69a3.06,3.06,0,0,0,1.29-2.44,3,3,0,0,0-1.4-2.36,20.71,20.71,0,0,0-5.8-1c-9.93-.29-18.9,3.45-27.84,7.06-1.19.48-2.77,3-2.42,3.68.8,1.5,2.61,3.29,4.14,3.41C1733,173.6,1736.26,172.85,1740.28,172.44Zm42.93-18.31c6.68-2.81,11.91-4.88,17-7.22,2.66-1.22,6-2.62,4.57-6.45-1.32-3.42-4.52-1.91-7-1.4q-8.8,1.82-17.52,4a60,60,0,0,0-6.42,2.36c-.23,4.71-.21,9-.69,13.29-.75,6.6-2.21,13.14-2.67,19.75a47.39,47.39,0,0,0,1,13.79c1.4,6,3.86,7.79,10,7.58a45.88,45.88,0,0,0,26.83-9.55c.78-.6,1.82-1.28,2-2.11.46-1.81,1.2-4.15.44-5.49s-3.16-2.12-4.91-2.23c-1.9-.12-3.86.83-5.81,1.29-3.56.84-7.1,1.78-10.69,2.47-2.77.54-6.53,2.45-7.86-1.26-1.41-3.91,2.69-4.54,5.35-5.65a17.37,17.37,0,0,0,2.8-1c4.71-3.06,9.49-6,13.95-9.42,1.18-.9,1.32-3.18,2.48-6.24l-22.88,3.72ZM1919,161.51c-5.42-2.25-5.44-2.35-9.55-1.64-5.23.9-10.41,2.13-15.66,2.92-3.71.55-5.53-1.65-5.11-5.36.35-3.07,2.17-4.66,4.88-5.62a77.71,77.71,0,0,0,10.2-3.91,6.31,6.31,0,0,0,3.07-4.43c.07-2.92-2.69-3.8-5-3.41-5.87,1-11.71,2.28-17.49,3.7-4,1-6.1,3.86-6.11,8,0,10.29-.12,20.58.09,30.86a24,24,0,0,0,1.8,7.72c2.26,6,6.08,8.18,12.49,7.15,7.41-1.2,13.74-4.9,19.51-9.43,2.65-2.08,4.2-5.11,2-9.56-4.43-.2-8.87.83-13.31,1.9-2.9.7-5.75,1.67-8.69,2.08a3.6,3.6,0,0,1-2.89-1.92,3.87,3.87,0,0,1,1-3.42,13.66,13.66,0,0,1,4.46-2c4.08-1.4,8.28-2.48,12.27-4.1C1911.72,169.07,1916.34,166.61,1919,161.51Zm199.46,10.08c-4.33-3.2-8.53-3.76-12.79-4.17-3-.29-5-1.63-5.11-4.93-.1-3.48,1.49-5.5,5.14-6.15,2.28-.4,4.66-.25,6.93-.68s4.72-.83,6.54-2.06c1.38-.94,2.72-3.25,2.57-4.79s-1.89-3.57-3.44-4.27a15,15,0,0,0-6.8-.92c-3.63.2-7.22,1.14-10.86,1.31-7,.34-9.33,2.22-10.38,10.65-.87,6.9-1.73,13.83-2,20.77a55.25,55.25,0,0,0,1,14.8,13.5,13.5,0,0,0,5.47,7.79c6.47,3.9,22,.28,26.87-5.6,1.82-2.18,2.82-4.58,1.19-7.29s-4.2-2.9-7-2.28c-4.21.94-8.4,2-12.65,2.68-1.27.2-2.73-.79-5.37-1.65C2104.27,178.82,2113.87,180.26,2118.42,171.59Zm-123.26-26.3c-2.68,8-5.26,15.52-7.72,23.07-2.25,6.92-1.68,13.82.58,20.61.48,1.43,1.66,2.62,3,4.58l6.7-7.25c2.29,0,4.93-.08,7.56,0s5,.37,7,.53c3.1,5.41.35,12.54,7.91,15.53,1-2.38,2.23-4.35,2.52-6.44a104.19,104.19,0,0,0-2-38.52,32.58,32.58,0,0,0-2.94-7.4c-3.05-5.86-5.58-7-12.1-6C2002.34,144.47,1999.06,144.81,1995.16,145.29Zm-64.87,2.34c.59,13.4,1.12,25.95,1.74,38.48a7.14,7.14,0,0,0,1.11,3.76c.91,1.21,2.4,2.76,3.61,2.74s2.59-1.81,3.07-3.13c.65-1.81.48-3.92.72-5.89.3-2.53-.57-5.8,2.65-6.88,3.62-1.21,5.2,2,7.11,4.2,2.8,3.28,5.53,6.63,8.49,9.76,3.4,3.58,7.41,4.59,9.6,2.78,1.94-1.6,1.88-6.19-2.46-9.32a24.22,24.22,0,0,1-3.64-3.39c-2.17-2.39-5.22-4.27-5-7.71,2.71-4.63,5.77-8.67,7.58-13.21,4.85-12.14-2.94-21.61-15.8-19.54A49.33,49.33,0,0,0,1930.29,147.63Zm-73.17-15.33c-3.21,4.17-3.33,4.17-3.39,6.83-.12,6,0,12-.22,18-.06,1.74-.94,3.44-1.68,6-2.35-1.79-4.07-2.78-5.38-4.17-3.65-3.87-7.13-7.89-10.65-11.87-2.25-2.54-4.48-5.06-9.08-3.47-2.45,12.42-3.77,25.19-2.08,38.11.31,2.33,2,4.47,3.66,7.84,6.62-8.29,4.19-17.54,7-25.59,1.13.51,2.35.66,2.78,1.31,4.75,7.25,13.15,11.24,17.09,19.29.61,1.25,3.3,2.21,4.93,2.08,2.54-.21,3.8-2.42,4-5a13,13,0,0,0-.18-2c-.45-6.6-1-13.2-1.31-19.81-.24-6,0-12-.24-18C1862.26,137.94,1861.81,133.88,1857.12,132.31Zm194.61,30.34c0,5.09-.17,9.71.05,14.32a66.79,66.79,0,0,0,1.33,11.79c1,4.27,3.41,6.44,5.57,6,2.4-.45,5-4.61,4.81-8a10,10,0,0,0-1.08-3.76c-2.86-5.72-1.73-11.63-1-17.54.65-5.59,3.24-9.07,9.32-9.72a23.78,23.78,0,0,0,8.37-2.81,3.94,3.94,0,0,0-.45-7.14,10.43,10.43,0,0,0-3.8-1,69.19,69.19,0,0,0-30.9,6.16c-4,1.77-4.1,6.22-.29,8.61C2045.78,160.94,2048.45,161.45,2051.73,162.65Zm-321.59,56.83c-.62,1.43-1.36,2.43-1.39,3.46,0,.59,1.11,1.22,1.72,1.83a24.5,24.5,0,0,0,2.1-3.37C1732.66,221.23,1731.37,220.43,1730.15,219.49Z"/><path class="cls-2" d="M1630.12,139.6c-2.5,7.56-8.39,13-12.17,19.74,1-8.55,5.8-14.62,12.21-19.7Z"/><path class="cls-2" d="M1676.2,210.69c3.28,3.62,5.37,6,3.52,8.92-.67,1.05-3.17.95-6.09,1.69Z"/><path class="cls-2" d="M1648.12,203.6c-.55,6.7-.55,6.7-3.48,11.85-.65-2.08-1.76-3.71-1.33-4.58a62,62,0,0,1,4.85-7.23Z"/><path class="cls-2" d="M1664.1,203.57c-.66,4.73-1.82,9.21-6,12.2.07-5,3.17-8.54,6.12-12.14Z"/><path class="cls-2" d="M1693.84,222l5.19-5.87c0,3.47.62,5.57-.14,6.87C1697.52,225.39,1695.66,224.38,1693.84,222Z"/><path class="cls-2" d="M1626.17,171.63c.93-4,2.43-7.6,6-10l-.06,0c-1,3.91-2.38,7.63-6,10Z"/><path class="cls-2" d="M1624.12,175.6l-4,6,.07.06,4-6Z"/><path class="cls-2" d="M1632.18,161.65l2-4,0,0-2,4Z"/><path class="cls-2" d="M1630.17,139.65l2-4,0,0-2,4Z"/><path class="cls-2" d="M1618.17,188.63l2-4-.07-.06-2,4Z"/><path class="cls-2" d="M1624.18,175.65l2-4-.06,0-2,4Z"/><path class="cls-2" d="M1632.16,135.63l0,0Z"/><path class="cls-2" d="M1618.13,188.59l0,0Z"/><path class="cls-2" d="M1654.13,189.59l0,0Z"/><path class="cls-2" d="M1648.16,203.64l0,0Z"/><path class="cls-2" d="M1634.16,157.64l0,0Z"/><path class="cls-1" d="M1740.28,172.44c-4,.41-7.31,1.16-10.53.91-1.52-.12-3.34-1.91-4.14-3.41-.35-.66,1.23-3.2,2.42-3.68,8.94-3.61,17.91-7.35,27.84-7.06a20.71,20.71,0,0,1,5.8,1,3,3,0,0,1,1.4,2.36,3.06,3.06,0,0,1-1.29,2.44c-3.31,1.37-6.74,2.47-10.2,3.69-2,10.74-.34,21.61-5.63,32.38l-7.4-7.51a74.72,74.72,0,0,1-8.51,2.27c-13.14,2-22.78-6.94-22-20.2,1-15.74,9.16-27.64,21-37.08,5.23-4.18,11.79-6.61,18.64-3.11,1.52.77,3.36,2.86,3.29,4.25s-2.21,2.87-3.65,4.06a5.44,5.44,0,0,1-2.83.89c-12.66,1.24-18.26,11.14-24.42,20.16a23.07,23.07,0,0,0-3,8.4c-1.08,5.43,1.7,9.21,7.12,9.91s10.52-1,15.21-3.77C1740.79,178.57,1740.75,178.2,1740.28,172.44Z"/><path class="cls-1" d="M1783.2,154.13v10.16l22.88-3.72c-1.15,3.06-1.29,5.34-2.48,6.24-4.46,3.39-9.24,6.36-13.95,9.42a17.37,17.37,0,0,1-2.8,1c-2.66,1.11-6.76,1.74-5.35,5.65,1.34,3.7,5.09,1.79,7.86,1.26,3.59-.69,7.13-1.63,10.69-2.47,1.94-.46,3.91-1.41,5.81-1.29,1.74.11,4.18.93,4.91,2.23s0,3.68-.44,5.49c-.21.83-1.25,1.51-2,2.11a45.88,45.88,0,0,1-26.83,9.55c-6.13.21-8.59-1.55-10-7.58a47.39,47.39,0,0,1-1-13.79c.46-6.61,1.92-13.15,2.67-19.75.48-4.26.47-8.57.69-13.29a60,60,0,0,1,6.42-2.36q8.72-2.16,17.52-4c2.48-.51,5.67-2,7,1.4,1.48,3.83-1.91,5.23-4.57,6.45C1795.11,149.25,1789.88,151.32,1783.2,154.13Z"/><path class="cls-1" d="M1919,161.51c-2.62,5.1-7.24,7.56-12.09,9.53-4,1.62-8.19,2.71-12.27,4.1a13.66,13.66,0,0,0-4.46,2,3.87,3.87,0,0,0-1,3.42,3.6,3.6,0,0,0,2.89,1.92c2.93-.4,5.79-1.37,8.69-2.08,4.44-1.07,8.88-2.1,13.31-1.9,2.21,4.45.66,7.48-2,9.56-5.77,4.53-12.1,8.23-19.51,9.43-6.4,1-10.22-1.14-12.49-7.15a24,24,0,0,1-1.8-7.72c-.21-10.28-.13-20.57-.09-30.86,0-4.16,2.08-7,6.11-8,5.79-1.42,11.62-2.72,17.49-3.7,2.34-.39,5.1.49,5,3.41a6.31,6.31,0,0,1-3.07,4.43,77.71,77.71,0,0,1-10.2,3.91c-2.71,1-4.53,2.55-4.88,5.62-.42,3.71,1.4,5.92,5.11,5.36,5.25-.78,10.42-2,15.66-2.92C1913.52,159.16,1913.54,159.26,1919,161.51Z"/><path class="cls-1" d="M2118.42,171.59c-4.55,8.67-14.15,7.23-20.67,13.24,2.64.86,4.1,1.85,5.37,1.65,4.25-.67,8.44-1.75,12.65-2.68,2.79-.62,5.36-.45,7,2.28s.62,5.11-1.19,7.29c-4.9,5.88-20.4,9.5-26.87,5.6a13.5,13.5,0,0,1-5.47-7.79,55.25,55.25,0,0,1-1-14.8c.3-6.94,1.17-13.87,2-20.77,1.06-8.43,3.38-10.31,10.38-10.65,3.63-.18,7.22-1.11,10.86-1.31a15,15,0,0,1,6.8.92c1.55.7,3.28,2.7,3.44,4.27s-1.18,3.85-2.57,4.79c-1.82,1.23-4.29,1.64-6.54,2.06s-4.65.28-6.93.68c-3.65.64-5.24,2.67-5.14,6.15.09,3.3,2.09,4.64,5.11,4.93C2109.89,167.83,2114.09,168.39,2118.42,171.59Z"/><path class="cls-1" d="M1995.16,145.29c3.9-.48,7.17-.82,10.43-1.31,6.51-1,9,.17,12.1,6a32.58,32.58,0,0,1,2.94,7.4,104.19,104.19,0,0,1,2,38.52c-.29,2.1-1.56,4.06-2.52,6.44-7.56-3-4.81-10.13-7.91-15.53-1.94-.15-4.46-.43-7-.53s-5.27,0-7.56,0l-6.7,7.25c-1.29-2-2.48-3.15-3-4.58-2.27-6.78-2.83-13.69-.58-20.61C1989.9,160.81,1992.48,153.29,1995.16,145.29Zm4.09,27.6c3.79.12,7,.48,10.12.18,1.35-.13,3.43-1.42,3.7-2.55,1.31-5.36,2-10.83-1.7-15.52-4-.3-5.74,2.28-7.46,4.59C2001.4,163,1999,166.54,1999.25,172.9Z"/><path class="cls-1" d="M1930.29,147.63A49.33,49.33,0,0,1,1949,140.3c12.86-2.07,20.65,7.4,15.8,19.54-1.81,4.54-4.88,8.58-7.58,13.21-.18,3.44,2.87,5.32,5,7.71a24.22,24.22,0,0,0,3.64,3.39c4.34,3.13,4.4,7.72,2.46,9.32-2.2,1.81-6.2.8-9.6-2.78-3-3.12-5.7-6.47-8.49-9.76-1.91-2.24-3.49-5.42-7.11-4.2-3.22,1.08-2.35,4.35-2.65,6.88-.24,2-.07,4.08-.72,5.89-.47,1.31-2,3.11-3.07,3.13s-2.71-1.53-3.61-2.74a7.14,7.14,0,0,1-1.11-3.76C1931.41,173.58,1930.89,161,1930.29,147.63Zm27,3.38c-5.25-2.05-9-1.36-12.46,1-1.85,1.28-3.51,2.86-5.51,4.51l2.37,8.31C1949,162.42,1955.19,160,1957.29,151Z"/><path class="cls-1" d="M1857.12,132.31c4.69,1.57,5.14,5.64,5.31,9.6.25,6,0,12,.24,18,.27,6.61.85,13.21,1.31,19.81a13,13,0,0,1,.18,2c-.23,2.56-1.49,4.77-4,5-1.63.13-4.32-.83-4.93-2.08-3.94-8-12.34-12-17.09-19.29-.43-.66-1.64-.8-2.78-1.31-2.83,8-.41,17.3-7,25.59-1.62-3.37-3.36-5.51-3.66-7.84-1.7-12.92-.38-25.69,2.08-38.11,4.61-1.6,6.83.92,9.08,3.47,3.52,4,7,8,10.65,11.87,1.31,1.39,3,2.38,5.38,4.17.75-2.55,1.62-4.26,1.68-6,.22-6,.09-12,.22-18C1853.79,136.48,1853.92,136.48,1857.12,132.31Z"/><path class="cls-1" d="M2051.73,162.65c-3.28-1.2-6-1.71-8.11-3.06-3.81-2.39-3.7-6.84.29-8.61a69.19,69.19,0,0,1,30.9-6.16,10.43,10.43,0,0,1,3.8,1,3.94,3.94,0,0,1,.45,7.14,23.78,23.78,0,0,1-8.37,2.81c-6.07.65-8.66,4.13-9.32,9.72-.69,5.91-1.82,11.82,1,17.54a10,10,0,0,1,1.08,3.76c.21,3.37-2.42,7.53-4.81,8-2.16.4-4.59-1.76-5.57-6a66.79,66.79,0,0,1-1.33-11.79C2051.57,172.37,2051.73,167.74,2051.73,162.65Z"/><path d="M1730.15,219.49c1.22.94,2.52,1.74,2.44,1.92a24.5,24.5,0,0,1-2.1,3.37c-.61-.61-1.74-1.24-1.72-1.83C1728.79,221.92,1729.53,220.91,1730.15,219.49Z"/><path class="cls-2" d="M1999.25,172.9c-.22-6.35,2.14-9.91,4.66-13.3,1.72-2.31,3.47-4.89,7.46-4.59,3.67,4.69,3,10.16,1.7,15.52-.27,1.12-2.35,2.42-3.7,2.55C2006.24,173.38,2003,173,1999.25,172.9Z"/><path class="cls-2" d="M1957.29,151c-2.09,8.94-8.29,11.4-15.6,13.86l-2.37-8.31c2-1.65,3.66-3.22,5.51-4.51C1948.29,149.65,1952,149,1957.29,151Z"/></svg>