<svg id="Layer_1" data-name="Layer 1" xmlns="http://www.w3.org/2000/svg" viewBox="0 0 889.98 400"><defs><style>.cls-1{fill:#fff;}</style></defs><title>Artboard 1@1x</title><path d="M367.27,353.52c-4.5.56-9.08,1.06-13.63,1.72-3,.43-4.25,0-5.25-2.75a32,32,0,0,1-2.06-7.18c-.89-7.47-1.78-15-2.13-22.46-.55-11.67-.56-23.36-2-35-.38-3.09,0-6.3.17-9.44.18-4.64,1.35-9.48.39-13.87-1-4.65-.36-9.16-.81-13.71-.17-1.79.15-3.63,0-5.42a21.54,21.54,0,0,0-1-3.77,29.83,29.83,0,0,0-15.28,15.7c-.57,1.34-.18,3.16,0,4.73.32,2.61,1,5.19,1.25,7.8a82.33,82.33,0,0,1,.87,11.42c-.39,12.27-1,24.54-1.64,36.8-.22,4.31-.89,8.6-1,12.91,0,1.84.84,3.7,1.32,5.61l-4,6.3c-4.83-.61-9.57,1.59-14.58.27-1.73-.46-3.83.58-5.78.81-2.43.3-3.75-1-4.19-3.27-1.78-9.12-3.39-18.26-3-27.63.09-2.48-.18-5-.31-7.46a10,10,0,0,1-.23-1.94c1.09-6.86.34-13.68-.07-20.55-.26-4.27.76-8.6.7-12.89-.11-7.47-.54-14.94-1-22.39-.08-1.26-1.19-2.45-2-4.08-3.3,2.15-6.18,3.81-8.81,5.79-5,3.74-8,8.21-5.73,15,.69,2-.08,4.54,0,6.82.08,3.91-.25,7.93.54,11.71,1.39,6.68,2.59,13.26,1.66,20.12a11.16,11.16,0,0,0,.73,5.38c1.66,4.2.84,8.46,1,12.72.09,3.1,1.06,6.16,1.59,9.25.71,4.06,1.37,8.13,2.11,12.52a26.37,26.37,0,0,1-2.56,3c-1.06,1-2.31,2.26-3.57,2.37-6.36.53-12.55,2.64-19.1,1.82-2.3-.29-4.89.64-7.16,1.52-3.58,1.39-5.74-.15-5.58-4.23a103.3,103.3,0,0,0,.18-11.35c-.64-9-1.73-18.05-2.32-27.09-.37-5.75-.15-11.53-.24-17.3-.18-12.43-.28-24.86-.63-37.29-.19-6.79-.85-13.57-1.3-20.35-.28-4.21,2.56-7.07,6.55-6.09a39.41,39.41,0,0,0,12.68,1.08c4.69-.36,8.09,2.47,10.92,5.86a3.33,3.33,0,0,1,.69,2.73c-1.27,3.27,1.1,5.26,2,7.44,5.43-2.84,10.6-5.71,15.93-8.24a35.85,35.85,0,0,1,8.42-2.73c7.71-1.51,12.88,3,17.71,8,1.7,1.77,3.3,3.64,5,5.49,3.23-3,6.47-5.57,9.13-8.63,7.15-8.23,16.27-7.77,25.57-6,4,.77,6.56,4.29,9.13,7.25a19.91,19.91,0,0,1,4.5,11.34c.64,5.94,2.22,11.8,2.56,17.74.4,6.93-.28,13.92-.19,20.87.17,14.13.49,28.27.87,42.4a27.64,27.64,0,0,0,1.12,8.36c1.43,4-.75,6.25-3.28,8.51C370.53,350.87,369,352.06,367.27,353.52ZM257.12,287.16l-.23.05.11-.16a2.25,2.25,0,0,0,.27-.27s0-.14,0-.21ZM307,275l.7-.82-.34-.24-.27,1.15a1.25,1.25,0,0,0-.38.07c-.06,0-.08.17-.11.26Zm-41.07,45.95c2.2-.24,2.57-1.68,2.7-4-2.18,1-2.39,2.52-2.6,4.06l-.74.88.35.23ZM261,343c2.36,2.22,4.42.13,6.9-.17l-1.76-3-5.21,3.27c-2.13-2.23,0-4.78-.26-7.73l-6.46,7.39C257.75,344.15,257.75,344.15,261,343Zm42.09-11-.35-.16.45.06c.05,1-.11,2.87.19,2.94a43.91,43.91,0,0,0,7.14,1.17,13.44,13.44,0,0,0,3.34-.57L307,330.3ZM353,302l-3.44.93c.8-7.15,5.35-12.35,7.23-19.14l-7,3.92-1.39-2.36a84.07,84.07,0,0,0-.25,14.8c.27,4.79.74,9.57,1.13,14.36s.82,9.58,1.23,14.37l.91.05,5.44-9-.52-.59-4.52,2.4c.15-5.75,3.17-10.26,6-16L352,309.63,353,302a1.19,1.19,0,0,0,.42-.09c.06,0,0-.21,0-.33Zm-31.15-7.57c-1.81,4.33-3.29,7.41-4.35,10.63-.48,1.46-.81,3.84,0,4.67,2.13,2.24,1.39,4.19.41,6.35-1.13,2.5-1.8,4.76.2,7.37,1.51,2,1,4.33-.53,6.45a40.87,40.87,0,0,0-2.55,4.91c3.22-.5,4.9-1.35,5.11-4.39.72-10.35,1.73-20.69,2.53-31C322.79,298.1,322.27,296.71,321.89,294.48Zm-12.79-11.63c-1.88-.23-3.49.07-4.27-.6-2.26-1.95,1.52-3.21,1-5.08-1-1.48-2.27-1.67-3.13-.13-2.57,4.56-4.48,9.3-2.64,15.67Zm-.32,10.78L308,293a11.53,11.53,0,0,0-1.62,1.44c-1.73,2.22-3.28,4.58-5.11,6.72-2.65,3.11-2.73,3-.27,6.95Zm45.57-37.44c-4.36,5.27-9.28,9.17-6.39,17Zm-.87,78a9.48,9.48,0,0,0,1.59,12.8c1-1.64,2-3.25,2.88-4.93.17-.31-.14-.88-.25-1.4l-3.55,1.06C351.75,339.22,354.83,336.76,353.48,334.2Zm-102.77-56,.76,5.18c2.17-2.67,4-5.12,6.08-7.42,1.19-1.34,1.51-2.37.15-3.4Zm-.53,20.38.81.16,5.88-9.53c-3.36-.79-4.66-.49-5.27,1.57A67.58,67.58,0,0,0,250.18,298.59Zm6.33,11L252,311.14l1.4,9.23.81,0Zm-3.19,20.29,1.22,6.27,5.27-10.62-.66-.47Zm18.42-57.58-1.28-.43L266.66,279c1.87.27,3.35.91,3.81.48C272.58,277.47,272.33,274.87,271.73,272.32Zm94.95,12,1.24,0v-13c-.91,2.84-5.42,5.44-.95,8.62.33.23-.11,1.54-.18,2.35S366.71,283.69,366.68,284.37ZM251.54,306.05c2.42-1.15,3.35-3.13,4.19-5.57C250.51,301.27,250.51,301.27,251.54,306.05ZM364.71,261.5c2-1,2-1,0-7.85Zm.39,42.23c3.12-2.69,3.2-3.13,2-8.95Zm-89.29,15.72a3.83,3.83,0,0,0-2.55,4.44c.07.45,1.43.69,2.55,1.18Zm27.8-6.17c-4.72,1.16-3.48,3.58-2.31,6Zm-1.79,16.51,2.88-5.64C301.52,325.11,300.51,326.3,301.82,329.78Zm-33,12.88c1.86-.32,2.66-.43,3.44-.59s1.38-.36,3.05-.8C272.38,339.47,271.22,341.08,268.82,342.66Zm1.66-46.87c3.22.44,4.07-.3,3.4-2.47-.06-.2-.47-.29-1-.57Zm49.27-38.08-1.47-.38-.9,3.9.94.3Zm35.31-15.55-.69-.81c-1.3.58-3.12.64-3,3.79Zm-55.92,31.11,1.2.32.8-3-1.18-.32Zm66.65,71.37c2.6-.13,2.6-.13,2.6-2.28Zm-96-94.07-1.47.2a22.91,22.91,0,0,0,.57,2.42,4,4,0,0,0,1.17-.16C270.06,252.21,269.93,251.39,269.82,250.58Zm-19.71-14.12-1.17.2c.14.78.26,1.56.46,2.32a3.42,3.42,0,0,0,.85-.06C250.24,238.1,250.17,237.28,250.11,236.46Zm66.65,15-.81,0,.12,2.41,1.39-.12ZM268.92,244c-.9-.37-1.42-.78-1.74-.66a2.14,2.14,0,0,0-1.07,1.15c-.08.2.59,1,.74.94A10.33,10.33,0,0,0,268.92,244Zm-17.7,25,.81.32,1-2.3-1.18-.4Zm95.85,9.08.61.26,1.15-1.78-1.2-.54Zm-82.45-38.31,1-.46a5.18,5.18,0,0,0-.7-1c-.07-.06-.69.28-.67.37A4.49,4.49,0,0,0,264.62,239.83ZM346,243.37c.6-.63,1-.87,1-1.08a3.66,3.66,0,0,0-.47-1.13Zm21.56,64a9,9,0,0,0-.44,1.66,10.25,10.25,0,0,0,.32,1.83,9.61,9.61,0,0,0,.45-1.77A9.47,9.47,0,0,0,367.57,307.38ZM274.4,306a4.05,4.05,0,0,0-.6-.45s-.32.21-.31.27a4.14,4.14,0,0,0,.31.72Zm-4-43.16c-.13-.26-.22-.67-.4-.73s-.56.16-.85.26l.53,1Zm-18.84-2.52-.2-.83c-.14.06-.37.08-.41.18a4,4,0,0,0-.16.79Zm-1.15-9c-.24.17-.6.29-.68.51s.13.53.22.8l.93-.64Zm8.88,32.19-.71-.17c0,.11.07.32.1.32A3.06,3.06,0,0,0,259.35,283.59Zm62.33,8.65.12-.41-.43.27Zm-51.12,21.19c-.12.1-.35.21-.34.28a4.84,4.84,0,0,0,.28.8c.12-.1.35-.21.34-.29A4.54,4.54,0,0,0,270.55,313.43Zm93.72,24.12.3.19,0-.34Zm-42.79-56.88.18-.28-.27,0Z"/><path d="M576.64,258c-5.23,5.1-9.82,10.31-8,18.78,1.81,8.29,1.39,16.8,1.5,25.25.16,12.29.42,24.57,1,36.85.15,3.35-1,5.65-3.13,8.24l-4.24-2.6-4.22,6.83-14.81,1c-1.17-2.33-2.35-4.57-1.65-7.41a12.55,12.55,0,0,0-.12-3.47c-.35-6.75-.57-13.52-1.11-20.25-.33-4.11-1.33-8.16-1.71-12.27-1.44-15.35-2.75-30.71-4.1-46.07-.26-2.9-.49-5.8-.74-8.69l-1.09-.26c-1.25,1.58-2.48,3.18-3.76,4.73-6.16,7.47-9.77,15.74-8.46,25.7a41.57,41.57,0,0,1,0,6c-.17,10.66,2.07,21.07,3.35,31.58.14,1.15.43,2.28.54,3.43.46,4.95.93,9.9,1.3,14.86.13,1.76-.37,3.64.09,5.27a64.91,64.91,0,0,0,3.15,7.6c-1.36,4.71-2.15,5.64-6.36,5.14-8.53-1-16.86.81-25.26,1.45-5.57.42-6.41-.16-6.68-5.59-.15-3.14-.93-6.25-1.09-9.39-.41-7.9-.65-15.82-.91-23.73-.35-10.78-.59-21.56-1-32.33-.46-13.55-1-27.09-1.52-40.63-.18-4.73,1.86-8.11,6.33-8.51,6.74-.61,13.55-1.16,20.34,0,3.11.52,4.71,2.31,5,5.32.37,4.43.63,8.87,1,14.47,3.58-4.08,6.51-7.44,9.47-10.79,4.14-4.7,9-8.11,15.45-8.8A12.5,12.5,0,0,1,555.76,244c2.64,2.81,4.19,6.65,6.13,10.09,1,1.85,1.88,3.82,3.14,6.4,4.26-6.87,10.07-11.06,16.11-15a14,14,0,0,1,20.1,4.6A66.62,66.62,0,0,0,605,255.9c3.78,5,4.54,10.85,5,16.87.36,5.11,1.35,10.17,1.77,15.28s.45,10.29.73,15.44c.35,6.3.93,12.58,1.13,18.88.24,7.47.16,14.95.28,22.42a28.05,28.05,0,0,0,.52,5.45c.73,3.36-.11,5.84-3.16,7.68a5.46,5.46,0,0,0-2.33,3c-.73,2.93-2.48,3.48-5.18,3.25a14.57,14.57,0,0,0-4.32.82c-.64.15-1.24.56-1.88.64-6.11.83-10.46,1.4-10-8.07.18-3.36-1.22-6.8-1.88-10.2-.44-2.28-1-4.54-1.26-6.84-.81-8.43-.76-17-2.41-25.26-2.29-11.39-1.63-22.81-2.18-34.22-.36-7.59-1.29-15.15-2-22.72Zm-26.77,76.78,1.41-1.31-.77-.47-.53,1.89,0,2.08c-.67,4.49.13,5.86,3.89,6.39l2-4.65c-3.07,2.61-4.37-.12-6-1.65Zm45-3.95.93-2.11-.81-.17V331l-.14.24Zm5.18,9.22a7.74,7.74,0,0,0-2,1.28c-1.53,1.88-3.09,3.4-5.84,1.61-.73,4.19.74,7.35,2.31,11.42,2.65-5.14,5.58-9.16,5.4-14.4l.14-.29Zm-102-65-3.12-.63,2.73-9h-4.23L495,293.18c3.57-3.26,4.6-4.9,3.06-7.07-1.85-2.62-1.38-4.68-.44-7.22A14.08,14.08,0,0,0,498,275a1.34,1.34,0,0,0,.41-.13c.06,0,0-.2.05-.31ZM497.17,326c-.57-6.3,4.09-10.68,4-16l-3.3.45c.88-3.42,1.58-6.27,2.36-9.09.72-2.61,3.33-4.73,2.4-7.83l-7.5,6.52c0,6.36-.13,12.5,0,18.64s.41,12.56,1,18.8c.46,4.75,1.36,9.5,4.07,14,0-2.59-.38-4.77.09-6.74a51.23,51.23,0,0,1,2.9-7.4c1.41-3.42,2.85-6.83,4.27-10.25l-.7-.39-6.58,7.76c-3.8-3.77,1.68-6.33.27-9.63Zm24,15c-1.13-8.38-2.26-16.13-3.19-23.89s-.92-15.86-3.51-23.54l-1.09,9.56c1.61.4,2.3,1.74,1.91,3.89a69.36,69.36,0,0,0-.83,7.75,6.71,6.71,0,0,0,.4,3.21,11.5,11.5,0,0,1,0,10.41c-.9,1.92-1.5,4-2.38,6.37,4-.44,2.37,3.41,4.25,4.91ZM589,323.54c2.82-2,3.38-3.76,3.1-5.87-.25-1.94-.64-3.88-.79-5.83-.23-3-.57-5.76-2.34-8.47-1.17-1.79-1.27-4.41-1.43-6.68a2.19,2.19,0,0,1,2.46-2.48,15.25,15.25,0,0,0,2.53-.3l2.32-5.69c-2.92-.23-4.92,4-7.66.29l3.9-11.45c-4.71,1.33-5.72,4-5.53,7.74s-.1,7.6.09,11.39c.14,2.77.72,5.52,1.09,8.28.26,2,.53,3.91.76,5.86C588,314.4,588.44,318.47,589,323.54Zm-26.75-5.88c2.64-8.38,2.12-17,1.57-25.64l-1.26-.18-3.19,15.62h2.87Zm44.49-11.76-1.27-.11c-2.16,5-.75,10.77-2.41,15.91-.08.24.2.58.38,1.06l4.28.66c0-3.24.13-6,0-8.78C607.52,311.73,607.08,308.82,606.75,305.9Zm-60.65.43h1.2c.6-2.3,1.23-4.59,1.81-6.9.54-2.13,1-4.28,1.68-7a27.91,27.91,0,0,0-3.86,2.69c-.84.85-1.9,2.05-1.87,3.08A69.91,69.91,0,0,0,546.1,306.33ZM550.25,271l-.92-.33c-1,1.3-1.64,3.08-2.92,3.8-2.65,1.5-2.94,3.69-2.73,6.23.16,2,.41,4,.63,6l.59.06ZM512,249.07c-3,5.68,1,11,.57,16.8.72-.79,1.75-1.43,1.7-1.95C513.79,259,514.76,253.78,512,249.07Zm84,56.13c2.6-3.78,4.83-6.67,4.15-11.8C598.15,297.54,594.45,299.78,596,305.2Zm11.56,34.43c1.11-6,1-7.33-.7-9.59C604.49,337.21,604.52,337.91,607.59,339.63Zm-4.1-68.25c-.48,2.22-.9,3.81-1.14,5.42s-1.61,3.17-.56,5.07C605.43,278.71,605.72,277.08,603.5,271.39ZM551,314.9c-3.6,3.12-3.9,6.41-2.6,10.09Zm4.91-44,1.37.25c.37-2.16,2.85-3.93,0-7.71Zm36,61.45-1.3,0c-1,2.12-.12,4,.57,6l1.07-.06Zm-98.67-69.79c2.31-3.56,2.31-3.56.41-6.11a13.09,13.09,0,0,0-.39,1.91C493.12,259.61,493.16,260.86,493.16,262.56Zm114.2,86c-1.1,3.49-1.1,3.49.86,5.28ZM503.12,291.25l.94.41,1.42-4.69-.82-.29Zm98.08-22.64c.15-2.73.15-2.73-2.18-4.13Zm-13.38,2L587,270l-1.66,2.24,1,.69Zm-94.64-19.24,1.27,0v-3.23l-1,0Zm70.18,26.08c-.65-.31-1.08-.66-1.49-.65a1.12,1.12,0,0,0-.78.8c0,.36.39.73.61,1.1Zm-45.45,73.81c-.53-.47-.87-1-1.2-1s-.7.5-1,.78c.29.29.56.77.88.82S517.3,351.57,517.91,351.28Zm-3-60.82-.33-.84c-.12.1-.35.23-.34.31a4.56,4.56,0,0,0,.28.81Zm34.72-39.3-.08-.37-.17.47Zm48,7.34a4.72,4.72,0,0,0-.82-.29c-.09,0-.23.19-.34.29a4.76,4.76,0,0,0,.82.3C597.36,258.81,597.49,258.6,597.61,258.5Zm-53.75,8.08c-.11-.12-.2-.33-.32-.34s-.24.18-.37.28c.11.12.2.33.32.34S543.73,266.68,543.85,266.57Z"/><path d="M87,189c-1.23,1.26-2.26,2.93-3.74,3.7-3.37,1.74-7.1,2.78-10.43,4.57-4,2.13-7.5,1.25-11.41-.16-7.76-2.8-13.56-8.19-19.35-13.67a5.6,5.6,0,0,1-1-1.7c-1.92-4.05-4.22-8-5.65-12.21a52.46,52.46,0,0,1-.86-32.66c1.28-4.27,2.06-8.69,3.05-13,1.53-6.75,5.2-12.47,8.36-18.5,2.54-4.84,5.53-7.88,10.85-9,1.4-.29,2.56-1.91,3.76-3,1.82-1.66,3.56-3.42,5.39-5.08a3,3,0,0,1,1.68-.82,112.27,112.27,0,0,1,22.07.75c3.52.53,5.57,3.39,8.47,4.88,1.58.81,3,1.9,5.08,3.22,0-3.08,0-5.47,0-7.87,0-1.14.12-2.28.16-3.42a53,53,0,0,0,.14-7.4c-.61-5.51.89-7.52,6.29-7.85,3.31-.2,6.63-.47,9.94-.69,6.8-.45,12.16,3.44,13.32,13.34,1.58,13.53.13,26.94-.57,40.36-.58,11,.5,21.92.94,32.87.17,4.13.75,8.26.83,12.39.05,2.78-.17,5.39,1.89,7.77,1.35,1.57.94,3.58-1,4.69-2.41,1.38-4.44,3.27-7.95,2-2.22-.81-5.17.49-7.8.71-4.11.34-8.23.72-12.35.78-3.67.06-6.85-1-7.71-5.55L86.94,189.07l-.8-1.27-.35.33ZM54,120l1.94-2.09,8.15-4.11.32,4.42C67.83,116,71.08,107,69.94,102.5c-4.76,5-9.27,9.75-13.75,14.51-.19.2-.12.63-.17,1l-2,2.08L53,120.8Zm58.09-19.81c-1.06,0-2.72-1-2.36,1.93l2.27-2,.15-.17ZM126,101a2.77,2.77,0,0,0,2.88-2.4c-1.87.33-2.92.78-2.77,2.51l-1.67,1.21.33.36ZM52.08,135.1a8.92,8.92,0,0,0-2.66,1.05c-3.1,2.66-6,5.52-9.15,8.15-1.91,1.61-1.56,3.26-.92,5.17.59-.13,1-.09,1.2-.28,3.75-4.07,7.49-8.15,11.16-12.3.35-.4.2-1.25.28-1.89l2.72-1.8C52.39,132.42,52,133.54,52.08,135.1ZM85.76,93.85c-5.23,1.73-6.75,6.7-10.2,9.71-1.68,6.88-3.33,13.76-5,20.62-.87,3.5-2,7-2.75,10.47a43.36,43.36,0,0,0-1.33,8.7c-.11,8.61-.18,17.24,1.39,25.77,1,5.24,2.09,10.46,6.83,13.76a77.69,77.69,0,0,0,7.17,3.95c1.93-1.42,4.09-2.91,6.15-4.55,7.94-6.31,14.08-13.52,12.18-24.7-.08-.48-.19-1.17.07-1.45,2.51-2.76,1.83-6.32,2.23-9.51,1.22-9.7,2.14-19.45,3-29.19a15.66,15.66,0,0,0-3.58-11.79A34.91,34.91,0,0,0,85.76,93.85Zm-28.81,56.3c3.27-.29,3.77-2.22,4-4.5.31-2.93.81-5.84,1.4-8.72.65-3.15,1.49-6.25,2.42-10.05-3.35,1.4-4.94,2.95-4.9,6.1a14.46,14.46,0,0,1-1.22,4.61c-.42,1.23-1,2.38-1.56,3.53L59.8,143Zm50.52-1.53c-.18,2.59-.43,5.21-.53,7.83s0,5,0,8c3.95-4.23,6.85-8.6,7.52-11.36-1.73-.07-4.06,1.93-5-1l2.55-5.52Zm-55.93,5.23c-1.18-.33-1.84-.69-2-.53-2.65,2.48-5.27,5-7.81,7.58a3.32,3.32,0,0,0-.94,2.15,4.22,4.22,0,0,0,1,2.5c.2.23,1.68-.15,2-.65C46.39,161.38,48.83,157.75,51.54,153.85ZM39.44,140.24l1,.62c1.39-1.76,2.73-3.56,4.17-5.27s3-3.38,4.56-5.07c.78-.87,1.54-1.74,2.32-2.62a3.36,3.36,0,0,0-2.84.83c-1.9,1.56-3.58,3.49-5.68,4.68A6.45,6.45,0,0,0,39.44,140.24ZM69.29,93l-.91-1.27c-2.67,1.78-5.59,3.27-7.93,5.41s-6.26,2.6-7,6.25l.8.94Zm-26.92,79.1c2.36,1,3.84,1.13,5-.41a66.75,66.75,0,0,0,3.95-5.56,15.16,15.16,0,0,0,1.12-3.2l-.86-.45Zm1.34-51.9c-.44,2.39-1.69,4.47-1,7.89l6.68-8.56-.5-.65ZM53.54,173a37.63,37.63,0,0,0-4.91,2.58A3.28,3.28,0,0,0,47.54,178a2.17,2.17,0,0,0,1.64,1.42,3.47,3.47,0,0,0,2.42-1.33A32.83,32.83,0,0,0,53.54,173Zm56.41-61.61,1.37.21,4.38-6.6-6.22.53Zm4.9,14.86c-2.29-2-3.75.09-6.54.11,2.4,1.83-.49,4.21,2.26,5.63ZM57.36,185.93l.3,1.3,4.42,1.86c1-2,1.3-4-.53-4.6C60.45,184.11,58.77,185.4,57.36,185.93Zm48.46-10.42,5.65-7.71L105.82,169Zm3.08-33a9.38,9.38,0,0,0,3.84-6.11C108.8,137.67,108.8,137.67,108.9,142.54Zm1.68-20.21c2.37-2,3.4-3.66,2.54-6.67C110.77,117.41,109.42,118.92,110.58,122.32Zm-28.95,67-5.79-1.16C77.46,190.8,79,192.12,81.63,189.32ZM49.09,114.23c-3.76-.42-4.55,1-4.52,4.63Zm28.45-21.4c-3.87,1.55-3.87,1.55-3.75,4.63Zm-25,91c2.34.41,3-.8,3.87-2.59C54.08,181,53.08,181.76,52.52,183.8ZM125.39,168l.79,1,2.12-1.6a8.69,8.69,0,0,0-.84-1C126.73,166.9,126.07,167.46,125.39,168ZM39.73,155.13c.32-.43.79-.8.75-1.1s-.55-.61-.85-.91l-1.07,1.11Zm87.45,4.07c-1.08-1.74-1.08-1.74-2.83-.65ZM69.82,190.59l-.12-1.25-2.16.64.14.73ZM72.62,101c-.14-.25-.25-.66-.43-.7s-.56.18-.85.29l.59,1Zm38.93-7c-.49-.45-.74-.81-1.09-.95-.16-.07-.72.3-.71.44a4.39,4.39,0,0,0,.43,1.15ZM39.28,171.67h.51c-.11-.13-.2-.32-.34-.36s-.3.08-.46.12Zm87.9-8.29a3.61,3.61,0,0,0-.43.62c0,.06.21.35.27.33a4,4,0,0,0,.68-.34Zm-70.39-1.92.32.17.05-.23Zm66.53-83.92-.63-.12c0,.08.07.21.11.21A2.72,2.72,0,0,0,123.31,77.55Zm-23.08,96.9-.39-.12,0,.54a1.12,1.12,0,0,0,.4-.1C100.25,174.73,100.22,174.56,100.23,174.45ZM52.1,105.39a1.19,1.19,0,0,0-.35-.09s-.08.15-.12.23a1.12,1.12,0,0,0,.34.08S52.06,105.46,52.1,105.39Zm-.91,17.18c-.06-.1-.09-.26-.17-.29a.92.92,0,0,0-.38,0l.23.43Zm21.48-24.2c0,.11,0,.28.09.32a1.23,1.23,0,0,0,.43.07l-.11-.54Z"/><path d="M637.07,189.47c-2.27,2.13-3.92,3.86-5.75,5.36a89.58,89.58,0,0,1-8.67,6.6c-3.25,2.06-7.1,1.81-10.68,1.17-7-1.26-14-2.52-20.55-5.6-1.19-.56-3.07.34-4.26-.22-5.35-2.54-10.64-5-13.3-11.12-3.67-8.44-4.14-17.36-4.89-26.24-.38-4.57.1-9.22.21-13.84,0-.49.3-1,.23-1.47-1.48-9,2.63-16.57,6.89-23.81a94.19,94.19,0,0,1,11.33-14.84c5.23-5.83,12.2-7.49,19.84-6.64a10.93,10.93,0,0,0,2.45.22c10.12-1.24,17.81,5,26.69,8.36,3.13-6.19.12-13.12,1.2-19.81,6.37-1.54,12.48-2.9,18.85-2.51,5.07.31,6.17,1.14,6.82,6a46.9,46.9,0,0,1,.54,9c-.67,11,1.13,21.81,1.89,32.7s.9,21.59,1,32.39c0,6.44-.78,12.88-.79,19.33,0,3.72-.13,7.56,3,10.72,1.83,1.88,1.2,4.2-1.17,6a33.62,33.62,0,0,1-20.45,6.79c-5.35,0-9-4.18-9.68-10.16C637.47,195.32,637.34,192.86,637.07,189.47Zm11-64.41c-.9.29-1.83.5-2.7.87-3.84,1.64-3.83,1.66-3.49,5.68.06.72.07,1.44.16,3.29,2.71-3.75,5-6.39,5.94-9.93l.22-.33Zm-29.92-18.73c-8.46,5.66-11,14.22-13.49,22.6-2.81,9.36-3.62,19.13-4.31,28.83a57.48,57.48,0,0,0,4,26.26c1.56,3.81,5.68,6,6,10.52,0,.46,1.26,1.11,2,1.22,6.56.93,12.45-.43,17-5.6,1.48-1.7,3.79-4,3.54-5.63-.56-3.8,2-4.3,3.76-5.12.19-5.23.38-10,.51-14.74,0-1.66-.14-3.32-.16-5-.07-7.6-.06-15.19-.19-22.79-.09-5.46,0-11-.68-16.35a12.72,12.72,0,0,0-3.85-7.31A32.46,32.46,0,0,0,618.12,106.33Zm28.56,62-1.47-.84c.37-8.11,6.52-14.48,7.29-22.59-1.81,4.91-5.55,7.55-10.2,8.61-.72,10.18,0,22.64,1.68,25.5,6.12-6.58,12.64-12.65,15.25-21.43l-1-.88Zm8.56,32.3c6-1.08,5.83-1.07,5.42-6.73-.26-3.6.06-7.24,0-10.86,0-3,.87-6.1-.38-9.84-1.08,2.29-1.72,3.94-2.61,5.44s-2.16,3.12-3.26,4.68C658.67,186.05,658.67,186.05,655.24,200.59ZM574.07,153.4c.21,2.52-.41,5.45.38,8.4,2.82-.89,4.36-2.45,4.5-4.75.19-3.17,2.24-4.94,4.27-6.84a34.76,34.76,0,0,0,3.57-3.44c.93-1.16,2-2.44,1.55-4.75Zm81.35-55c1.74,6.39-1.34,11.26-4.7,16.65,10.14-3.54,9.55-17.6,4.8-22.27l-2.87,4.86Zm-8.21,101c3.58-1.21,5.9-3.16,6.28-7.7l-6.92,1.61a20.2,20.2,0,0,1-.16-4.16c.2-1.25.93-2.41,1.8-4.49C641.85,188.61,641.81,192.77,647.21,199.38ZM641.82,148l1.18.47c3-3.57,3.87-8.3,6.81-12.62l-8,2.92Zm-48.74,34.92-5.7,4.92a50.1,50.1,0,0,0,6.57,1.8c2.1.28,3.89,2.52,7.34.83l-6.85-3.14Zm67.16-43.77L654.73,153C661.28,149.61,661.78,148.3,660.23,139.1Zm-82.07-10.36,8.46-9.48C580.82,118.73,579.07,123.29,578.16,128.74Zm-3.51,18.48,8-11.46-1-.67C578.28,138.08,573.82,140.34,574.65,147.22Zm.23,18.38,1.3,4.72,1.12.05c.42-2.09,2.76-3.31,2.42-5.84-.62-.12-1-.29-1.22-.21C577.45,164.64,576.41,165,574.89,165.59Zm71.87-53c-5.23,2.08-5.86,3.65-3.35,7.51Zm13.08,17-.94-.09-4,6.37,4.92-1.4Zm-17-32.46c2.48-1.1,4.27-2.08,5.4-4.78l-5.63,1Zm-41.67,21.86c-2.36.28-4,1.08-5.15,3.12C598.86,123,598.86,123,601.12,118.92Zm-6.5,32.67c-3.34,3.61-3.34,3.61,0,5.12ZM589,170.69c.76.51,1.27,1.11,1.65,1a1.75,1.75,0,0,0,1.19-1.13c.05-.35-.67-1.17-1-1.16S589.88,170.06,589,170.69Zm54.28-64.42,1.3-3.67C643.1,103.25,641.73,104,643.31,106.27ZM589.79,162l-.93-1.33-1.51,1.45c.29.28.65.84.85.79A6.69,6.69,0,0,0,589.79,162Zm-9.9,15c-.46-.49-.72-1-1-1s-.77.32-1.16.51c.26.36.44.9.79,1S579.23,177.32,579.89,177.07Zm79.8-10.73a4.12,4.12,0,0,0-.26,1.16c0,.13.5.23.77.34a4.83,4.83,0,0,0,.38-1.09C660.59,166.67,660.1,166.53,659.69,166.34Zm-52.48-58.07c-.29.12-.71.16-.83.37s.12.56.21.86c.28-.14.66-.22.82-.45S607.29,108.54,607.21,108.27Z"/><path d="M517.39,103.81c-1.15.48-2,.9-2.92,1.23a54.44,54.44,0,0,0-12.75,6.45c-4.1,2.84-6.1,6.35-5.59,11.36a105.23,105.23,0,0,1,.64,10.66c0,10.19,0,20.39-.32,30.58-.15,4.74-1.12,9.47.11,14.19a30.61,30.61,0,0,0,1.6,4.57c1.37,3.12,1,6.54-1.2,8.62a5.27,5.27,0,0,1-2.94,1.41c-9.6.63-19.21,1.14-29.2,1.7-2.38-1.92-3-4.79-2.91-8.14.17-12.45.1-24.91.25-37.36,0-3.1.69-6.19.8-9.3.42-11.67,2.68-23.22,2-34.95q-.15-2.73-.42-5.45c-.44-4.39,1.15-6.2,5.4-6.42a66.91,66.91,0,0,1,21.21,2.41c2.19.6,3.86,1.55,4,4.28a44.11,44.11,0,0,0,1.13,6.17c5.16-2.35,10.18-5.12,15.51-6.93,6.5-2.21,13.5-3.29,20-.38A29.19,29.19,0,0,1,545.45,111a67.54,67.54,0,0,1,8.41,33.33c0,13-.77,25.92-1.26,38.88-.18,4.61-.54,9.22-.8,13.82s-2.37,6.05-7.17,5.61a36.43,36.43,0,0,0-10.84.47,14.06,14.06,0,0,1-9.4-1.28c-2-5.7-.16-11.37-.31-17s-.06-11.59-.13-17.38c0-3.48-.17-7-.26-10.45-.25-9.58-.33-19.18-.85-28.75a78.06,78.06,0,0,0-2.09-12.72C519.89,111.67,518.59,107.91,517.39,103.81Zm16.67,12.12v1.14L533,118a21.33,21.33,0,0,1-2.7,2.87c-3.71,2.74-3.75,2.69-1.9,7.28,3.08-1.6,4.34-4.49,4.49-10.27L534,117v-1a1.16,1.16,0,0,0-.11-.37c0-.05-.19,0-.29,0Zm-52.08-1,1.23-.48-.35-.32-.78.9-.3.3ZM474,179c-3.17-1.14-3.17-1.14-3.05,2.84a4.42,4.42,0,0,0,1.24-.68c.63-.71,1.15-1.51,1.72-2.27l1.72-.19-.23-.52Zm13.07,6.09c-3.19.83-6.73-2.63-10.52,1.11,3.46.23,6.14.4,8.82.6,1.39.11,1.64-.7,1.61-1.81l.15-.18ZM545,188l1,.77.23-.37-1.32-.27c.78-1.57,2.09-3.09,2.25-4.73.59-6.08.8-12.19,1.17-18.29.13-2.18.31-4.35.47-6.52a59.5,59.5,0,0,0-7.46,9.43c-.19.29,0,.86.08,1.41l4.24-1.49c.88,7.34-4.16,12.72-5.08,19.33Zm-.39-34.47c-5.14,2.93-8.19,7.69-11.67,12-1.46,1.81-4,3-3.12,6.28.55,2.15.1,4.56.1,7.62C538.27,167.94,544.44,157.07,544.58,153.52Zm-15.26,5.9,1.16.47a10.69,10.69,0,0,1,.53-1.33c1.8-3.24,4-6.17,5.48-9.7,1.33-3.26,3.75-6.1,5.85-9a3.31,3.31,0,0,0,.23-4.3l-12.45,13.31c-.22.24-.59.38-.74.65a4,4,0,0,0-.7,1.81C528.81,154,529.09,156.72,529.32,159.42Zm1.36,35,1.35.34c1-2,1.85-4.06,2.87-6s2.25-3.58,3-5.52,3-3.49,1.36-6.35l-9.77,8.87Zm8-67.64c-7,5.37-10.61,11.29-9.8,15.68C532.47,139.41,536.88,132.53,538.71,126.77Zm9.16,12.51c-5.19,4.19-9,10-9.11,14.62C541.92,148.54,548.45,146.81,547.88,139.29ZM482.17,123.5l-.87-.69c-4.49,4.15-7.85,10.27-7.31,14.63Zm-11,29.25c1.74-3.57,4.55-5.53,4.66-9.3C469.88,148,469.88,148,471.14,152.75Zm65-30.72,1,.6c5.29-3.67,5.51-4.26,2.44-7.38Zm-59.23-7c-2.51,2-7,2.91-5.83,8.26Zm-6,56.79,1.17,0a38.49,38.49,0,0,0,.06-5.35c0-.27-1.75-.37-3.07-.61Zm13.29-7.44.8.75,4-1.81L487.81,159Zm5.34-57.56c-2.79,2.75-2.79,2.75-.54,4.78ZM527.94,112l-1-.92L525.25,113a7.28,7.28,0,0,0,1,.82A22,22,0,0,0,527.94,112Zm17,17.22c.47-1.25.77-1.69.74-2.1s-.47-.6-.79-.77c-.1-.05-.61.32-.62.52A11.15,11.15,0,0,0,544.89,129.23Zm-57.66-5.65h.57v-1.82h-.57Zm.11,23.23,1.46-3.19c-.79.09-1.24.35-1.42.74A9.32,9.32,0,0,0,487.34,146.81Zm55-15.9-.11-.38a5.74,5.74,0,0,0-.71.31s.07.26.11.4Zm-70.16-30.5a1.7,1.7,0,0,0-.46-.11s-.1.19-.15.3a1.56,1.56,0,0,0,.45.09C472.07,100.68,472.12,100.51,472.17,100.41Zm53,6-.43-.14,0,.57a1.49,1.49,0,0,0,.44-.12C525.16,106.65,525.13,106.47,525.14,106.36Zm-42,34-.44-.14,0,.6a1.59,1.59,0,0,0,.45-.14C483.16,140.65,483.13,140.48,483.14,140.37Z"/><path d="M699.16,102.66c-2,0-3.46,0-4.88,0-5.41.09-10.83.36-16.24.22-3.21-.09-4.51-1.84-4-4.4s3-4.47,5.64-3.19c6.12,2.91,12,.66,18.39.29,0-4.78,0-9.32,0-13.86.05-7.44.08-14.88.25-22.31.15-6.78.55-13.55.68-20.33.08-4.38,1.08-5.8,5.31-6.08s8.5-.33,12.75-.49c6.51-.25,11.47,2.9,15.49,7.54a9.13,9.13,0,0,1,1.79,5.55c0,7.14-.19,14.29-.47,21.43-.2,5-.75,9.93-.93,14.9-.16,4.44,0,8.89,0,13.17,2.14,1.9,4.29,1.87,6.71,1.53,6-.85,12-1.44,18.23-2.17.18,1.26.74,2.47.36,3.09-1,1.61-2.77,2.79-3.56,4.46-1.21,2.55-2.92,1.63-4.9,1.64-5.74,0-11.49.49-17.06.77-1.26,12,.49,23.33.67,34.68.12,7.28.07,14.57.52,21.86.33,5.28,1.08,10.59.84,15.84-.2,4.46.17,8.84.33,13.26s-2.1,6.5-6.46,6.66c-6.22.23-12.46.58-18.65,1.26-5.9.64-9.46-2.25-9.8-8.28-.24-4.2.53-8.53-1.58-12.55a6.23,6.23,0,0,1-.14-3.35c.9-7.57.6-15.12.35-22.73-.31-9.54.3-19.1.42-28.66C699.23,115.84,699.16,109.3,699.16,102.66ZM713,69.95l.91-1.24-.61-.26-.18,1.61-1,1.06c-1.73.3-2.31,1.36-2,3-5.14.86-5.53,1.36-4.55,6.66L710,74l2-3Zm-.79,56.21-6.1.48v9.59l1,.23,4.93-10.39,1.73-3.31C711.43,123.88,711.25,124.86,712.22,126.16ZM716,159c-2.6,1.78-3.47,5.84-7.51,5.77a3.47,3.47,0,0,1-.72-4.91q4.12-7,8.08-14.06a15.51,15.51,0,0,0,.92-3.26c-3.49,3.64-6.67,6.91-9.77,10.25a3.53,3.53,0,0,0-.94,2.13c-.07,7.35,0,14.71,0,22.07a20.5,20.5,0,0,0,4.75-6.47c1.83-3.81,3.44-7.73,5.14-11.6l1.35-1.33-.71-.41Zm1.68,12.29-10.42,13.58c1.28,4.58,2,5.07,6.42,4.1l-2.23-4.13c2.15-4.09,4.21-8,6.21-11.86C717.88,172.65,717.71,172.08,717.71,171.34Zm5,10.8-5.18,7.24c1.94.94,8.09-.33,10.15-3.34ZM705.81,92.67c3-3.49,6.57-6.6,7-11.63C710.77,85.16,703.78,86,705.81,92.67Zm0,22.1.81,6.73c4-2,4.25-5.46,5.79-8.74Zm-.44-54.13c3.08-1.84,4.94-4.5,6.68-8.42C708.35,54.57,703.54,54.86,705.37,60.64Zm16.49,16.18h5l1.05-7.31Zm-11.65,25.51c-2.23.05-3.89-.93-4.82,1.2l.94,5.22Zm-4.34,39.42.5,4,1,.26,3-5.44Zm12.9-52.56c-2.7.81-4.19,2.12-4.31,4.93C717.62,94,718.15,91.87,718.77,89.2Zm5.08,81.39c3.75-1.14,3.42-3,2.67-5.9ZM707,67.6l-1.12-.67L705,69.39l.64.32Zm20.61-20.17h-.44V49.5h.44Zm.29,12.76-.34-.72c-.25.17-.72.35-.71.49,0,.3.31.58.48.87Zm-12,48.45.44-.15-.44-.17ZM708.69,66l.11-.46-.61.14a1.35,1.35,0,0,0,.17.4S708.58,66.05,708.69,66Zm6.09,13.49-.28-.33c-.11.1-.29.19-.3.3s.16.22.26.33Zm-.07,42.07-.24-.3c-.1.08-.26.16-.27.25s.14.2.22.3Z"/><path d="M233.32,21.36c1.71.65,3.49,1.46,5.33,2,6.24,1.86,9.91,7.32,9.94,14,0,3.57,1.2,7.14,1.28,10.72.25,10.89.17,21.78.35,32.68.06,3.61.55,7.2.88,11.19,4.11-.53,7.55,1.56,11.81,0,3.21-1.15,7.37.36,11.24.69.08,1.21.08,1.85.18,2.47.86,5.69-1.85,8.85-7.08,6.86s-10.48-.26-15.73-1.4a8.56,8.56,0,0,0-.67,2.21c.25,7.8.64,15.6.83,23.4.18,7.11,0,14.23.28,21.34.18,5.11-.07,10.45,1.39,15.23,1.51,4.94,1,9.78,1.58,14.64.26,2.3-.2,4.12-2.26,5-1.52.62-2.13,3.05-4.9,1.66-2-1-4.89-.14-7.38-.12-4.31,0-8.62-.06-12.92.12a65.19,65.19,0,0,0-7,1c-2.24-2-3.53-4.38-2.71-8a18.44,18.44,0,0,0-.1-8.35c-1.58-6.24-.16-12.47-.61-18.69-.71-9.88-1.33-19.77-1.67-29.67-.12-3.72.67-7.48,1-11.22.16-1.57.33-3.14.56-5.39l-15.2,1.4-2-6.81,16.64-2.55c.16-1.91.41-3.67.45-5.43.11-6.3.1-12.6.24-18.89.18-8.25.6-16.49.64-24.74,0-5.3-.49-10.59-.66-15.89-.18-5.76.07-6,5.6-7.25ZM234,66.09l-1.14.66,1-.76.28-.21Zm-2,22A4.45,4.45,0,0,0,229.31,92a3.59,3.59,0,0,0,2.64-4l1.25-1.19-.6-.36Zm-2,40c-1.78.45-3,1.49-3.95,4.1,2.46-1.24,4-2,3.86-4.19a1.24,1.24,0,0,0,.44-.06c.07,0,.05-.22.08-.33ZM226.92,49A20.9,20.9,0,0,0,224.76,50c-2.07,1.3-1,2.16.41,3.23,1.4-1.35,3.23-2.21,1.65-4.39l1.56-.07-.14-.58Zm11.58,114.43c-2.13,1.79-3.43,3-4.85,4s-3.18,3.1-5.15,1.11c-1.77-1.79-.62-3.67.77-5.26.32-.37.86-.58,1.09-1,1.89-3.32,5.26-5.74,6.56-10.77-4.06,3.88-7.35,6.92-10.5,10.09a4.33,4.33,0,0,0-1.18,2.68,36,36,0,0,0,.31,7.86c.88,4.5,1.49,4.76,6.37,4.61C234,172.68,237.69,169.38,238.51,163.41Zm-7.59-94.2c-1.85-.41-3.46-.44-4.56-1.2-.4-.28.11-2.55.77-3.53,3.26-4.84,6.73-9.54,10.07-14.32a10,10,0,0,0,.69-2.5c-4.56,3.28-6.51,8.52-12.05,9.79l-1-3.34-1.05.14L223,76.51l.84.34Zm-5.25,84.38,5.19-5.21c-5.14-1.65-4.3-4.88-3.51-6.86l-2.79-8c-3.59,5.66,1.37,11.17-.35,16.51C224,150.76,225,151.94,225.67,153.58Zm-2.31-38.44v9.13l1.09.34c1-1.76,2-3.49,2.94-5.28s3.35-3.06,3.15-5.44Zm21.93,44.52-4.22,12.26C246.18,168.6,247.1,166.1,245.28,159.66Zm-22-48.5.79.32,3.55-6.24-4.33-1.08Zm1.13-24.3,5.26-6.42C223.62,82.44,223.08,83.08,224.45,86.87Zm8,39.05,2.15-3.87C231.37,122.3,231.56,124,232.44,125.92Zm12.34,26.29.24-4C243.14,149.71,242.49,150.75,244.78,152.21Zm-5.23-42.42c-.08.13-.23.25-.24.38s.12.27.19.4c.08-.13.23-.25.24-.38S239.62,109.93,239.55,109.79Zm4.72-3.22c0-.11,0-.29-.09-.33a1.24,1.24,0,0,0-.43-.09l.12.58Zm-14.54-60c-.07-.12-.17-.35-.2-.34a5.58,5.58,0,0,0-.71.28c.08.11.18.33.24.32A4,4,0,0,0,229.73,46.6Zm14.82,90.69-.17.23.28,0Z"/><path d="M187.67,181.08c-5.89-2.22-11.15.33-16.5.34-2.8,0-5.69.44-8.37-.13-5.58-1.19-7.2-4.48-7.12-10.35.12-9.58-.33-19.17-.54-28.75a7.86,7.86,0,0,1-.07-1.49c1.44-8.13.39-16.24-.22-24.35-.38-5.09-1.23-10.17-1.27-15.27-.08-9.09,0-18.17-1.35-27.19a12.9,12.9,0,0,1,0-2.49c.18-4,.4-7.93.57-11.89.36-8.54.76-17.07,1-25.61.08-2.63-.29-5.28-.3-7.92,0-1.91-.34-4.3,3-3.49.15,0,.43.07.47,0,3.27-5.6,9.31-2.85,13.89-4.54,7.18-2.64,12.74.48,17.53,5.83,2.57,2.87,3,6.33,3.05,9.73.12,8.73-.17,17.47-.3,26.2a17.77,17.77,0,0,0,0,2.49c1.21,9.45-1.11,18.86-.58,28.24.55,9.61-.68,19.13-.39,28.75.42,13.92,1.72,27.86.91,41.82a17.17,17.17,0,0,0,.3,5.47C193,172,190,176.2,187.67,181.08ZM182.09,28.94,181,32.08C183.7,31,183.7,31,182,29c-1.34-2-3-3.11-5.73-1.86ZM172,140a71.86,71.86,0,0,0-4.71,7c-1.18,2.24-5.4,2.77-3.7,7.15a27.73,27.73,0,0,0,3.46-3.76c2-3.28,5.51-5.93,4.84-10.47l1.7-.6-.37-.59Zm3-20.09,8.27-4.41c1.53-7.1.13-14.74-.79-22.48a25.78,25.78,0,0,0-3.17,5.09c-.49,1-1.38,2.31-1.08,3.09,2.18,5.66.17,10.59-2.26,15.53A16.75,16.75,0,0,0,175,120l-.47,1.15Zm2,29.06a31.18,31.18,0,0,0-9.81,11.26,12.27,12.27,0,0,1-3,3.18c-2.53,2.2-.56,4.67-.41,7,.12,1.81,1.87,2.35,3.37,2.28,2.91-.12,5.82-.55,9.2-.9l-1.1-4.43c-3,.35-4.18,5-7.76,2.12C167.64,161.51,174.45,156.35,176.95,149Zm-2.38-85.42c-4.14,3.29-7.85,6.64-12,9.38-3.66,2.44-4.23,3.3-2.12,8.43C165.83,75.79,170.71,70.25,174.56,63.55Zm9.15,12.2c1.42-7.87,1.4-14.7.06-17.89L181,62.6a17,17,0,0,1,1.13,6.54c0,1.31-.62,2.65-.47,3.92C181.78,73.87,182.78,74.57,183.71,75.75Zm-21.16,39.57L170.94,103l-.87-.75c-2.85,2.58-5.84,5-8.49,7.81C160.45,111.22,160.43,113.06,162.55,115.32Zm5.89,3.07c-6,3.26-6.78,4.57-5.36,9.49A11.52,11.52,0,0,0,168.45,118.39Zm-1.76-23c-3.11-.57-4.71,1.53-6.35,3.06-.53.5,0,2.19.14,3.68,2.13-1.9,3.73-3.25,5.23-4.71A7.65,7.65,0,0,0,166.68,95.37ZM184.45,77.5l-.89,0-3.07,8.25,3.09,1.19ZM167.88,59.42c-2.71,2.11-5.46,4.18-8.11,6.37-.38.32-.27,1.22-.53,2.6C163,65.53,166.57,63.64,167.88,59.42Zm-8.23,31.82c2.14-1.53,3.43-2.51,4.77-3.4,2.17-1.45,2.18-1.42,1.8-4.1C164.05,86,160.72,86.73,159.65,91.24Zm13.94-13.39c-3.65,1-4.16,1.51-4.91,5.19Zm8.13,39.28c-.9,2.7-2,4.24-.11,5.72a1.36,1.36,0,0,0,1.32-.09C184.61,120.94,183.18,119.65,181.72,117.12Zm1.2,13.06c-1.35,1.83-1.35,1.83-.27,3.66C184.17,132.71,184.25,131.57,182.92,130.17Zm1.75-94.76c-1.2,4-1.2,4,.32,5.63ZM183.25,90l-.74-.36c-.1.26-.32.54-.27.78s.5.34.68.27S183.15,90.26,183.25,90Zm.15,65.1.57.5c.08-.11.24-.29.21-.33a5.92,5.92,0,0,0-.55-.6ZM166,137.79c.27-.13.69-.2.78-.41s-.13-.57-.21-.86l-1,.64Zm-1.51,1.68c-.25.14-.59.22-.73.43s.1.48.16.72c.26-.12.64-.17.74-.36S164.54,139.74,164.47,139.47Zm20.35-89.62-.3-.32a4.43,4.43,0,0,0-.36.71c0,.07.18.2.29.31Zm-3.17,121.52a4.73,4.73,0,0,0-.85-.28c-.1,0-.24.19-.36.3.21.16.42.43.65.45S181.46,171.55,181.65,171.37Z"/><path d="M831.51,131.51H797.56a11.84,11.84,0,0,0-.5,2.36,187.06,187.06,0,0,0,2.12,30.69c.72,4.5,3.07,8.41,6,11.9A16.2,16.2,0,0,1,807.5,179c1.42,2.78,2.9,4.53,6.57,3.2,2.65-1,2.89,1.85,3.52,4,6.5-1.41,13.23-1.93,18.22-6.67,2.55-2.42,4.25-5.74,6.28-8.69.36-.53.39-1.28.74-1.83.8-1.25,1.64-2.83,3.49-1.74,1.5.89,2.61,2.31,1.56,4.15-2.22,3.84-4.48,7.67-6.94,11.35a24.77,24.77,0,0,1-4.33,4.71c-6.19,5.42-13.67,7-21.65,7.26a71.76,71.76,0,0,1-23.1-2.73,13.51,13.51,0,0,1-6.93-4.55c-3.14-3.83-6.59-7.4-9.86-11.13a15.88,15.88,0,0,1-2.25-3.22c-4.94-9.75-8.87-19.78-9.08-31-.09-4.63-.73-9.24-1.08-13.87a7.45,7.45,0,0,1,.17-2.37,116.76,116.76,0,0,1,3.39-12.44,128,128,0,0,1,6.41-13.85c3.86-7.39,10.86-11.78,17.21-16.56,3.8-2.85,8.82-3.52,13.75-2.3,2.41.6,4.9.95,7.26,1.7,5.07,1.61,8.61,5,12.06,9.11,5.75,6.81,9.06,14.49,11.56,22.87C836.28,120.66,837,126.24,831.51,131.51ZM792,180.94l.25.21-.35-.1c1.35-2,.07-3.61-.58-5.8l-4,2.87Zm5.91-58.44a18.2,18.2,0,0,0,2.42.57c4.61.31,9.21.63,13.82.85,2.81.14,5.64.22,8.45.13,5.22-.16,6.25-1.46,5.13-6.43-.43-1.93-1.39-3.77-1.68-5.71-1.33-8.69-6.9-14.68-12.86-20.38-2.39-2.28-3.06-2-5.28.35a23,23,0,0,0-6.3,13.14C800.82,110.85,799.21,116.56,797.92,122.5Zm-18.87,42c1.25,4.26,2.75,6.8,6.35,8.83l1.83-7.69C784,167.11,781.83,166.54,779.05,164.54ZM803,88.4l-1-1.11a53.45,53.45,0,0,0-3.8,4.06c-1.16,1.5-3.38,2.5-3,5.15C799.8,95.25,800.48,91,803,88.4Zm-22.23,17.53c-4.44.77-6.8,3.26-6.64,7.84Zm.43,29.81.78.68,3.61-4C781.54,132,782.08,134.47,781.24,135.73Zm-10.95-11.82.54,1.07,2.5-1-.74-1.56Zm6.27,30.59c-.54-.22-1.16-.63-1.31-.5a4.9,4.9,0,0,0-.83,1.39c.41.13.91.46,1.21.33S776.18,155,776.55,154.51Zm-3.14-7.94-.63-.16c0,.1.06.27.1.28A2.23,2.23,0,0,0,773.41,146.57Zm-1.22-9c-.06-.1-.11-.26-.2-.3a1,1,0,0,0-.4,0l.26.49Zm.94-20.17-.37.15.36.16Z"/><path d="M478.44,291.22c.75,9.19-2.55,17.42-6.72,25.15-3.67,6.82-8.37,13.1-12.78,19.5a24.83,24.83,0,0,1-10.36,8.3c-2.84,1.32-5.41,3.19-8.16,4.72a4.88,4.88,0,0,1-2.2.36c-.65,0-1.35-.4-1.93-.26-8.94,2.21-16.92-.65-24.56-4.81-2.43-1.33-4.46-3.39-6.71-5.07s-4.45-3.4-6.8-4.9a11.81,11.81,0,0,1-5.53-7.23c-2.61-9.46-3.83-19.11-4.7-28.82a13.1,13.1,0,0,1,.37-5.44c4.08-11.33,5.4-23.66,11.59-34.19,6.43-10.92,14.59-20.06,27.91-22.76a7.82,7.82,0,0,1,5.09.43,35.1,35.1,0,0,0,10.48,2.12c8.48.68,15.74,3,19.7,11.49,1.45,3.1,4,5.7,5.36,8.84,3.25,7.62,6.3,15.35,9,23.18C478.45,284.73,478.15,288.07,478.44,291.22Zm-4.68,2.34c-.82-4-1.37-8.15-2.53-12.09a106.58,106.58,0,0,0-9.8-23.8A37.63,37.63,0,0,0,455.1,249c-7.28-6.79-16.67-4.68-22.69,1.36a23.4,23.4,0,0,0-6.93,13.76c-.64,5.75-1.76,11.44-2.61,17.17s1.75,11.9-1.21,17.59a.57.57,0,0,0,0,.48c2.5,3.85,1.59,8.21,1.86,12.4a8.11,8.11,0,0,0,.21,2.4c1.1,2.74,2.51,5.36,3.46,8.14a25.83,25.83,0,0,0,6.67,10.33,68.58,68.58,0,0,1,4.74,5c2.29,2.73,3.1,3.07,6.36,1.84a24.59,24.59,0,0,0,11.82-8.79c5-7.14,10.08-14.19,12.82-22.72C471.16,303.2,473.9,298.9,473.77,293.56Zm-77.15,13.62c4.77-3.7,7.08-8.71,10.9-13.23-2.77,0-3.74,1.54-4.89,2.88-1.49,1.74-2.76,4-4.66,5C395.35,303.22,396.1,304.75,396.62,307.18Zm33.18,33.77c-.59-.86-.72-1.28-1-1.36-4.16-1.38-8.77-1.61-11.9-5.46-.74-.92-2.68-.89-3.78.9C418.19,338.48,423.07,341.48,429.79,340.95Zm-18.5-6.9c1.19-3.05,2.31-5.47,1.73-8.33-1.41,2.43-5.93,1.42-5.78,5.68Zm5.22-32V289.19a17.77,17.77,0,0,0-2,1.77c2.14,3.53,0,6.52-1.12,9.64-.09.24.14.59.29,1.17ZM405,307.39c-4.52,3.34-6.83,7.43-6.16,10.74C402.65,315.33,403.28,311,405,307.39Zm11.45.32c-3.16,2.71-1,5.22-.41,8.55C419.21,313,416.58,310.28,416.49,307.71Zm-17.64-27.8c2.89-.73,2.89-.73,3.29-3.87C399.65,276.2,399.63,278.24,398.85,279.91Zm17.35-11,.9.93c.5-.58,1-1.14,1.46-1.76.05-.08-.32-.46-.5-.71Zm4.09-13.29.82,1.08c.32-.25.91-.53.89-.74a4,4,0,0,0-.67-1.29Zm-.26,8.18-.9-1c-.31.33-.79.63-.86,1s.43.66.68,1Zm-16.32,63,.69-1.13c-.26-.13-.65-.44-.74-.37a6.55,6.55,0,0,0-.87,1Zm-6.59-38.6c-.25.12-.63.18-.71.37s.09.53.16.81c.24-.15.57-.25.7-.47S397.18,288.5,397.12,288.26Zm-.36,6.66-.25-.34c-.1.1-.3.26-.28.29a2.8,2.8,0,0,0,.38.44Zm2,26.52.06-.41-.54.11c0,.12.06.28.15.36S398.65,321.46,398.76,321.44Zm21.92-62.9-.25-.18,0,.28Z"/><path d="M318.58,121.16c-.37,4.92-1,9.48-1,14,0,2.9,1.32,5.77,1.65,8.7.84,7.47,5.34,13,9.68,18.55,3.44,4.4,12.67,6.53,18.1,4.62a25.93,25.93,0,0,0,14.45-11.95,15.63,15.63,0,0,0,1.36-4.23c.77-3.38.73-3.39,4.68-2.38,1,3.62-.08,6.58-2.2,9.72-4.93,7.32-11.55,12.65-18.89,17.17a35.16,35.16,0,0,1-8.28,3.31c-3.64,1.1-7.36,2.47-11.1,2.62A62.31,62.31,0,0,1,313.35,180a35,35,0,0,1-9.32-3.25c-2.45-1.25-5.1-2.9-6.59-5.1-4-5.86-7.37-11.85-8.81-19.21-1.33-6.81-3.15-13.54-3.27-20.49a115.5,115.5,0,0,1,.87-17.76c.53-3.8,2.32-7.45,3.77-11.07,2-4.9,3.72-9.94,6.3-14.51,2.82-5,7.68-7.57,13.31-8.53,5.88-1,11.92-2.07,17.6.09,7.92,3,15.5,7.06,21.07,13.61,2.53,3,4.76,6.08,7.66,8.82,4.33,4.09,4.5,9.18,1.61,16.45-6.35.59-13,.64-19.45,2S325.05,119.2,318.58,121.16ZM302.92,90.87l.35-.1L303,91l-1,1.08-1.24.18.37.51.77-.79ZM304,139l1.5-.19-.24-.56-1.17.85-.51.65ZM317,96c-.8.75-2.37,1.09-1.67,2.93,2.09-.44,1.48-1.9,1.55-3a2.16,2.16,0,0,0,.38-.1c.07,0,.11-.12.16-.19Zm-2,6-4.93,7-.31.27L310,109c4.81-1.63,4.81-1.63,4.94-7l.26-.32Zm6-15a13.8,13.8,0,0,0-3,1.54c-1.81,1.57-1.3,3,1.08,4.78L321,87l.34-.59Zm-19,60-6.87,3.59,1.53,4.28a28.93,28.93,0,0,0,3.26-3.56,32.09,32.09,0,0,0,2-4.38l1.7-1.38-.75-.5Zm1-14.95a8.77,8.77,0,0,0-2.13.82c-2.55,1.84-5,3.78-8,6l1.29,5.72c3.08-4.21,5.84-8,8.57-11.73.17-.23.12-.63.17-.94l.21-.24Zm49.75-20.27a9.43,9.43,0,0,0-.9-1.91c-3.27-4.37-6.26-9-10-13-3.56-3.78-7.35-7.81-13.85-7.56-5.09,6.67-7.29,14.58-8.24,23.08A83,83,0,0,0,352.8,111.83Zm-42,59.23,1.95-9.65-7.71,5.07C305.55,170.16,308,170.73,310.84,171.05Zm-18.71-40c3-3.13,6.32-5.62,7-10.22l-7,5Zm18.49,25.06c2.24-.43,4.91-.66,3.53-4.53Zm-4.46-32.83.76,1.06,5-3.11C308.36,119.6,307.3,121.52,306.15,123.25Zm-.76,13.55c3.74-1,5.17-2.24,5.82-5.26Zm-5.1,24.85,1.16.15.93-4C299.36,158.68,299.58,160.07,300.29,161.65Zm20.39,2.44-1.61-.31v2.74c.3,0,.82.08.86,0C320.23,165.72,320.44,164.9,320.68,164.09Zm6.71,6.9c-.56.45-1.18.74-1.16,1a5.66,5.66,0,0,0,.65,1.58c.48-.29,1.3-.52,1.36-.87S327.77,171.68,327.39,171Zm-15.19-28.22-.31.37.54.18a1.69,1.69,0,0,0,.1-.44S312.32,142.81,312.21,142.77Zm-5.78-54.06.2-.27-.32,0Z"/><path d="M384.64,197.13c-.85-6.09-1.37-11.52-2.41-16.85-1.18-6,0-12.05-.51-18.08-.59-7.38-.56-14.81-.75-22.22q-.15-5.92-.13-11.85c.05-11,.09-21.93.27-32.9a41.64,41.64,0,0,1,1-8.34,4.73,4.73,0,0,1,2.42-2.78c6.88-3.16,14.09-3.39,21.39-1.83,3.93.84,5,2.43,5.45,7.17.56,6.53,1.09,13.06,1.71,20.46,5.46-5.88,11.37-9.58,18.65-10.77,5.73-.94,11,.87,16.22,2.72a44,44,0,0,1,5.68,3L449.72,114a65.53,65.53,0,0,1-6.3-4.19c-2.18-1.84-4.64-2.34-7.35-2.63-10.47-1.1-20.37,7.89-21.59,16.08-.79,5.28-.14,10.77-.07,16.17,0,1,.53,2,.52,2.93-.11,15.3,2.85,30.32,4.07,45.5a4.23,4.23,0,0,1-.7,2,15.17,15.17,0,0,0-1.37,2.33c-.92,3.18-2.16,4.44-5.19,3.64-6.55-1.73-12.81-.1-19.17.92A78.1,78.1,0,0,1,384.64,197.13ZM397,134l.23-.25-.12.37a1.47,1.47,0,0,0-.38,0c-.07,0-.12.14-.17.21Zm-6-12.91-4.34-.28.3,4.69,3.94-4.51.25-.2Zm5.9,66.89-4.56-1.49,5-9.74-.78-.69-6.69,3.54,2.42,10,4.47-1.73a37.46,37.46,0,0,0,4.42.43c.74,0,1.89-.37,2.14-.9,1.2-2.58,2.16-5.27,3.2-7.92l-1.16-.84Zm-9.68-50.22v9.72c2.73-4.37,6.77-6.19,7.65-10.41-1.21-1.8-2.13-.72-3.34-.11S388.93,137.45,387.24,137.73ZM398.08,106l-1-1c-2.16,1.64-4.2,3.47-6.49,4.88-4,2.44-4,2.33-2.85,7.54Zm-4.31,21.66h-6.85c.45,2.23-.62,4.81,1.25,7.21C388,130.83,393.8,131.41,393.77,127.64Zm-3.9,44.81c3.86-4.33,4-4.65,4-7.11C387.9,167.93,387.9,167.93,389.87,172.44Zm-1.2-22.14-1.13.29,1,7.89,1.55-.2C388.1,155.79,390.6,152.8,388.67,150.3Zm16.25-4.63c3.48.18,3.17-1.62,3.18-3.13,0-.16-.49-.32-1.05-.67Z"/><path class="cls-1" d="M353,302l-.93,7.67,5.79-3.92c-2.81,5.76-5.83,10.27-6,16l4.52-2.4.52.59-5.44,9-.91-.05c-.41-4.79-.83-9.58-1.23-14.37s-.86-9.57-1.13-14.36a84.07,84.07,0,0,1,.25-14.8l1.39,2.36,7-3.92c-1.88,6.8-6.43,12-7.23,19.14L353,302Z"/><path class="cls-1" d="M321.89,294.48c.38,2.23.91,3.62.8,5-.79,10.35-1.81,20.68-2.53,31-.21,3-1.89,3.88-5.11,4.39A40.87,40.87,0,0,1,317.6,330c1.51-2.12,2-4.49.53-6.45-2-2.61-1.33-4.87-.2-7.37,1-2.16,1.72-4.12-.41-6.35-.79-.83-.46-3.22,0-4.67C318.6,301.89,320.08,298.81,321.89,294.48Z"/><path class="cls-1" d="M309.09,282.85,300,292.71c-1.84-6.37.07-11.11,2.64-15.67.87-1.54,2.09-1.35,3.13.13.56,1.87-3.22,3.13-1,5.08C305.6,282.92,307.21,282.63,309.09,282.85Z"/><path class="cls-1" d="M308.78,293.63,301,308.12c-2.46-3.9-2.38-3.84.27-6.95,1.82-2.14,3.38-4.5,5.11-6.72A11.53,11.53,0,0,1,308,293Z"/><path class="cls-1" d="M303.09,332,307,330.3l6.86,5.09a13.44,13.44,0,0,1-3.34.57,43.91,43.91,0,0,1-7.14-1.17c-.29-.08-.14-1.92-.19-2.94Z"/><path class="cls-1" d="M354.35,256.19l-6.39,17C345.07,265.36,350,261.46,354.35,256.19Z"/><path class="cls-1" d="M353.48,334.2c1.35,2.56-1.72,5,.68,7.53l3.55-1.06c.1.52.41,1.09.25,1.4-.9,1.68-1.91,3.3-2.88,4.93A9.48,9.48,0,0,1,353.48,334.2Z"/><path class="cls-1" d="M250.71,278.2l7-5.63c1.36,1,1,2.06-.15,3.4-2,2.3-3.91,4.75-6.08,7.42Z"/><path class="cls-1" d="M250.18,298.59a67.58,67.58,0,0,1,1.41-7.8c.61-2.06,1.92-2.36,5.27-1.57L251,298.75Z"/><path class="cls-1" d="M261,343c-3.26,1.17-3.26,1.17-6.8-.23l6.46-7.39c.21,3-1.87,5.51.26,7.73Z"/><path class="cls-1" d="M256.5,309.61l-2.27,10.78-.81,0-1.4-9.23Z"/><path class="cls-1" d="M253.31,329.9l5.83-4.81.66.47-5.27,10.62Z"/><path class="cls-1" d="M271.73,272.32c.6,2.55.85,5.14-1.26,7.17-.45.44-1.94-.21-3.81-.48l3.79-7.12Z"/><path class="cls-1" d="M366.68,284.37c0-.68.06-1.35.12-2s.51-2.12.18-2.35c-4.48-3.18,0-5.78.95-8.62v13Z"/><path class="cls-1" d="M251.54,306.05c-1-4.79-1-4.79,4.19-5.57C254.89,302.93,254,304.9,251.54,306.05Z"/><path class="cls-1" d="M364.71,261.5v-7.85C366.74,260.47,366.74,260.47,364.71,261.5Z"/><path class="cls-1" d="M260.93,343.09l5.21-3.27,1.76,3c-2.48.3-4.54,2.39-6.9.17Z"/><path class="cls-1" d="M365.1,303.72l2-8.95C368.29,300.59,368.22,301,365.1,303.72Z"/><path class="cls-1" d="M275.81,319.44v5.61c-1.12-.49-2.48-.73-2.55-1.18A3.83,3.83,0,0,1,275.81,319.44Z"/><path class="cls-1" d="M303.61,313.27l-2.31,6C300.13,316.86,298.88,314.43,303.61,313.27Z"/><path class="cls-1" d="M301.82,329.78c-1.31-3.48-.3-4.67,2.88-5.64Z"/><path class="cls-1" d="M268.82,342.66c2.4-1.59,3.56-3.2,6.49-1.39-1.67.44-2.35.65-3.05.8S270.68,342.35,268.82,342.66Z"/><path class="cls-1" d="M270.48,295.8l2.44-3c.49.28.9.37,1,.57C274.55,295.49,273.69,296.23,270.48,295.8Z"/><path class="cls-1" d="M266,321c.2-1.53.41-3.07,2.6-4.06-.13,2.29-.5,3.73-2.7,4Z"/><path class="cls-1" d="M319.75,257.72l-1.44,3.81-.94-.3.9-3.9Z"/><path class="cls-1" d="M355.05,242.17l-3.65,3c-.17-3.15,1.65-3.21,3-3.79Z"/><path class="cls-1" d="M299.13,273.28l.81-3,1.18.32-.8,3Z"/><path class="cls-1" d="M365.78,344.65l2.6-2.28C368.39,344.52,368.39,344.52,365.78,344.65Z"/><path class="cls-1" d="M269.82,250.58c.11.82.24,1.63.27,2.45a4,4,0,0,1-1.17.16,22.91,22.91,0,0,1-.57-2.42Z"/><path class="cls-1" d="M250.11,236.46c.06.82.12,1.64.14,2.46a3.42,3.42,0,0,1-.85.06c-.2-.76-.32-1.55-.46-2.32Z"/><path class="cls-1" d="M316.76,251.45l.7,2.32-1.39.12-.12-2.41Z"/><path class="cls-1" d="M268.92,244a10.33,10.33,0,0,1-2.07,1.43c-.16,0-.82-.74-.74-.94a2.14,2.14,0,0,1,1.07-1.15C267.49,243.24,268,243.66,268.92,244Z"/><path class="cls-1" d="M251.22,269.06l.65-2.38,1.18.4-1,2.3Z"/><path class="cls-1" d="M347.07,278.14l.56-2.06,1.2.54-1.15,1.78Z"/><path class="cls-1" d="M264.62,239.83a4.49,4.49,0,0,1-.42-1.05c0-.09.6-.43.67-.37a5.18,5.18,0,0,1,.7,1Z"/><path class="cls-1" d="M346,243.37l.52-2.21a3.66,3.66,0,0,1,.47,1.13C347,242.5,346.61,242.74,346,243.37Z"/><path class="cls-1" d="M367.57,307.38a9.47,9.47,0,0,1,.33,1.72,9.61,9.61,0,0,1-.45,1.77,10.25,10.25,0,0,1-.32-1.83A9,9,0,0,1,367.57,307.38Z"/><path class="cls-1" d="M274.4,306.05l-.6.55a4.14,4.14,0,0,1-.31-.72c0-.07.26-.3.31-.27A4,4,0,0,1,274.4,306.05Z"/><path class="cls-1" d="M270.45,262.89l-.72.57-.53-1c.29-.1.61-.33.85-.26S270.32,262.63,270.45,262.89Z"/><path class="cls-1" d="M251.61,260.38l-.78.15a4,4,0,0,1,.16-.79c0-.1.27-.12.41-.18Z"/><path class="cls-1" d="M250.46,251.41l.46.67-.93.64c-.08-.27-.3-.59-.22-.8S250.22,251.57,250.46,251.41Z"/><path class="cls-1" d="M307.08,275.05l.27-1.15.34.24-.7.82Z"/><path class="cls-1" d="M265.91,320.91l-.29,1.2-.35-.23L266,321Z"/><path class="cls-1" d="M259.35,283.59a3.06,3.06,0,0,1-.61.15s-.06-.21-.1-.32Z"/><path class="cls-1" d="M321.67,292.24l-.31-.14.43-.27Z"/><path class="cls-1" d="M270.55,313.43a4.62,4.62,0,0,1,.28.8c0,.07-.22.19-.34.29a4.84,4.84,0,0,1-.28-.8C270.2,313.65,270.43,313.53,270.55,313.43Z"/><path class="cls-1" d="M303.2,331.85l-.45-.06.35.16Z"/><polygon class="cls-1" points="364.27 337.55 364.61 337.41 364.58 337.75 364.27 337.55"/><path class="cls-1" d="M353,302l.39-.49c0,.11,0,.29,0,.33a1.19,1.19,0,0,1-.42.09Z"/><polygon class="cls-1" points="257 287.05 256.89 287.21 257.12 287.16 257 287.05"/><path class="cls-1" d="M257.12,287.16l.17-.59c0,.07,0,.16,0,.21a2.25,2.25,0,0,1-.27.27Z"/><polygon class="cls-1" points="321.49 280.67 321.39 280.35 321.67 280.39 321.49 280.67"/><path class="cls-1" d="M307,275l-.4.43c0-.09,0-.22.11-.26a1.25,1.25,0,0,1,.38-.07Z"/><path class="cls-1" d="M497.17,326l3.29-1.2c1.41,3.3-4.08,5.85-.27,9.63l6.58-7.76.7.39c-1.43,3.42-2.86,6.83-4.27,10.25a51.23,51.23,0,0,0-2.9,7.4c-.47,2-.09,4.15-.09,6.74-2.71-4.52-3.61-9.27-4.07-14-.6-6.24-.84-12.53-1-18.8s0-12.28,0-18.64l7.5-6.52c.93,3.1-1.67,5.22-2.4,7.83-.78,2.82-1.48,5.66-2.36,9.09l3.3-.45C501.26,315.32,496.59,319.7,497.17,326Z"/><path class="cls-1" d="M521.17,341l-4.43-1.33c-1.88-1.5-.26-5.35-4.25-4.91.88-2.39,1.48-4.45,2.38-6.37a11.5,11.5,0,0,0,0-10.41,6.71,6.71,0,0,1-.4-3.21,69.36,69.36,0,0,1,.83-7.75c.39-2.15-.3-3.49-1.91-3.89l1.09-9.56c2.59,7.68,2.56,15.67,3.51,23.54S520,332.65,521.17,341Z"/><path class="cls-1" d="M589,323.54c-.57-5.07-1-9.14-1.48-13.2-.23-2-.5-3.91-.76-5.86-.37-2.76-1-5.51-1.09-8.28-.19-3.79.11-7.6-.09-11.39s.82-6.41,5.53-7.74l-3.9,11.45c2.74,3.74,4.74-.52,7.66-.29l-2.32,5.69a15.25,15.25,0,0,1-2.53.3,2.19,2.19,0,0,0-2.46,2.48c.16,2.28.26,4.89,1.43,6.68,1.77,2.7,2.1,5.48,2.34,8.47.15,2,.53,3.88.79,5.83C592.38,319.78,591.82,321.52,589,323.54Z"/><path class="cls-1" d="M498,275a14.08,14.08,0,0,1-.3,3.92c-.94,2.54-1.41,4.6.44,7.22,1.54,2.18.52,3.81-3.06,7.07l-1.63-27.75h4.23l-2.73,9,3.12.63Z"/><path class="cls-1" d="M562.26,317.66v-10.2h-2.87l3.19-15.62,1.26.18C564.37,300.66,564.9,309.29,562.26,317.66Z"/><path class="cls-1" d="M606.75,305.9c.33,2.92.78,5.82.95,8.75.16,2.76,0,5.54,0,8.78l-4.28-.66c-.18-.48-.45-.83-.38-1.06,1.66-5.15.25-10.86,2.41-15.91Z"/><path class="cls-1" d="M600,340c.18,5.25-2.75,9.27-5.4,14.4-1.56-4.07-3-7.23-2.31-11.42,2.75,1.79,4.32.26,5.84-1.61a7.74,7.74,0,0,1,2-1.28Z"/><path class="cls-1" d="M546.1,306.33a69.91,69.91,0,0,1-1.06-8.12c0-1,1-2.22,1.87-3.08a27.91,27.91,0,0,1,3.86-2.69c-.65,2.72-1.14,4.86-1.68,7-.58,2.31-1.2,4.6-1.81,6.9Z"/><path class="cls-1" d="M550.25,271l-5.36,15.75-.59-.06c-.21-2-.46-4-.63-6-.21-2.54.08-4.73,2.73-6.23,1.28-.73,2-2.5,2.92-3.8Z"/><path class="cls-1" d="M512,249.07c2.72,4.71,1.75,9.91,2.27,14.85.05.52-1,1.15-1.7,1.95C513,260,509.07,254.75,512,249.07Z"/><path class="cls-1" d="M596,305.2c-1.58-5.43,2.12-7.66,4.15-11.8C600.86,298.54,598.63,301.42,596,305.2Z"/><path class="cls-1" d="M549.92,337.11c1.62,1.52,2.92,4.26,6,1.65l-2,4.65c-3.75-.52-4.56-1.9-3.89-6.39Z"/><path class="cls-1" d="M607.59,339.63c-3.07-1.73-3.1-2.43-.7-9.59C608.59,332.3,608.71,333.66,607.59,339.63Z"/><path class="cls-1" d="M603.5,271.39c2.22,5.7,1.94,7.32-1.7,10.49-1.06-1.91.31-3.46.56-5.07S603,273.61,603.5,271.39Z"/><path class="cls-1" d="M551,314.9,548.35,325C547.06,321.31,547.35,318,551,314.9Z"/><path class="cls-1" d="M555.86,270.9l1.41-7.46c2.82,3.78.34,5.56,0,7.71Z"/><path class="cls-1" d="M591.82,332.35l.34,5.89-1.07.06c-.69-1.94-1.61-3.86-.57-6Z"/><path class="cls-1" d="M493.16,262.56c0-1.71,0-3,0-4.2a13.09,13.09,0,0,1,.39-1.91C495.47,259,495.47,259,493.16,262.56Z"/><path class="cls-1" d="M607.35,348.54l.86,5.28C606.25,352,606.25,352,607.35,348.54Z"/><path class="cls-1" d="M503.12,291.25l1.55-4.56.82.29-1.42,4.69Z"/><path class="cls-1" d="M601.21,268.61,599,264.48C601.36,265.88,601.36,265.88,601.21,268.61Z"/><path class="cls-1" d="M587.83,270.63,586.31,273l-1-.69L587,270Z"/><path class="cls-1" d="M493.18,251.39l.31-3.3,1,0v3.23Z"/><path class="cls-1" d="M563.36,277.46l-1.66,1.25c-.22-.37-.61-.73-.61-1.1a1.12,1.12,0,0,1,.78-.8C562.29,276.81,562.71,277.16,563.36,277.46Z"/><path class="cls-1" d="M517.91,351.28c-.61.29-1,.65-1.37.6s-.59-.53-.88-.82c.35-.28.7-.78,1-.78S517.38,350.81,517.91,351.28Z"/><path class="cls-1" d="M595,331V328.6l.81.17-.93,2.11Z"/><path class="cls-1" d="M550,334.94l.53-1.89.77.47-1.41,1.31Z"/><path class="cls-1" d="M514.93,290.46l-.39.29a4.56,4.56,0,0,1-.28-.81c0-.08.22-.21.34-.31Z"/><path class="cls-1" d="M550,337l0-2.08-.11-.11,0,2.28Z"/><path class="cls-1" d="M549.65,251.15l-.24.1.17-.47Z"/><path class="cls-1" d="M594.9,330.88l0,.33L595,331Z"/><path class="cls-1" d="M597.61,258.5c-.11.11-.25.31-.34.3a4.76,4.76,0,0,1-.82-.3c.12-.1.25-.31.34-.29A4.65,4.65,0,0,1,597.61,258.5Z"/><path class="cls-1" d="M600.07,340.1l0-.38L600,340Z"/><path class="cls-1" d="M498,275.05l.37-.52c0,.11,0,.26-.05.31a1.34,1.34,0,0,1-.41.13Z"/><path class="cls-1" d="M543.85,266.57c-.12.1-.25.29-.37.28s-.21-.22-.32-.34c.12-.1.25-.29.37-.28S543.75,266.45,543.85,266.57Z"/><path class="cls-1" d="M85.76,93.85a34.91,34.91,0,0,1,16.14,11.8,15.66,15.66,0,0,1,3.58,11.79c-.89,9.74-1.8,19.48-3,29.19-.4,3.18.28,6.74-2.23,9.51-.25.28-.15,1-.07,1.45,1.9,11.18-4.24,18.39-12.18,24.7-2.06,1.63-4.22,3.13-6.15,4.55a77.69,77.69,0,0,1-7.17-3.95c-4.73-3.3-5.86-8.52-6.83-13.76-1.58-8.53-1.5-17.16-1.39-25.77a43.36,43.36,0,0,1,1.33-8.7c.78-3.52,1.88-7,2.75-10.47,1.71-6.87,3.37-13.75,5-20.62C79,100.56,80.53,95.59,85.76,93.85Z"/><path class="cls-1" d="M56,118c0-.33,0-.76.17-1,4.48-4.77,9-9.5,13.75-14.51C71.08,107,67.83,116,64.4,118.19l-.32-4.42-8.15,4.11Z"/><path class="cls-1" d="M56.95,150.15,59.8,143l-2.71-1.86c.52-1.15,1.14-2.3,1.56-3.53A14.46,14.46,0,0,0,59.88,133c0-3.15,1.56-4.7,4.9-6.1-.93,3.8-1.77,6.91-2.42,10.05-.59,2.88-1.09,5.8-1.4,8.72C60.71,147.94,60.21,149.87,56.95,150.15Z"/><path class="cls-1" d="M107.47,148.63l4.52-2.1L109.44,152c.95,3,3.28,1,5,1-.67,2.76-3.58,7.14-7.52,11.36,0-3-.07-5.49,0-8S107.28,151.22,107.47,148.63Z"/><path class="cls-1" d="M51.54,153.85c-2.7,3.9-5.15,7.52-7.73,11-.36.49-1.84.88-2,.65a4.22,4.22,0,0,1-1-2.5,3.32,3.32,0,0,1,.94-2.15c2.54-2.59,5.16-5.1,7.81-7.58C49.69,153.16,50.36,153.53,51.54,153.85Z"/><path class="cls-1" d="M52,135c-.08.64.08,1.49-.28,1.89-3.67,4.15-7.41,8.22-11.16,12.3-.18.19-.61.15-1.2.28-.64-1.9-1-3.56.92-5.17,3.12-2.63,6-5.5,9.15-8.15a8.92,8.92,0,0,1,2.66-1.05Z"/><path class="cls-1" d="M39.44,140.24A6.45,6.45,0,0,1,43,133.41c2.1-1.19,3.78-3.12,5.68-4.68a3.36,3.36,0,0,1,2.84-.83c-.77.87-1.54,1.75-2.32,2.62-1.52,1.69-3.09,3.34-4.56,5.07s-2.79,3.51-4.17,5.27Z"/><path class="cls-1" d="M69.29,93l-15,11.33-.8-.94c.75-3.64,4.73-4.15,7-6.25s5.26-3.63,7.93-5.41Z"/><path class="cls-1" d="M42.37,172.15l9.24-9.62.86.45a15.16,15.16,0,0,1-1.12,3.2,66.75,66.75,0,0,1-3.95,5.56C46.21,173.28,44.73,173.2,42.37,172.15Z"/><path class="cls-1" d="M43.71,120.25l5.19-1.32.5.65-6.68,8.56C42,124.73,43.27,122.64,43.71,120.25Z"/><path class="cls-1" d="M53.54,173a32.83,32.83,0,0,1-1.94,5.09,3.47,3.47,0,0,1-2.42,1.33A2.17,2.17,0,0,1,47.54,178a3.28,3.28,0,0,1,1.08-2.42A37.63,37.63,0,0,1,53.54,173Z"/><path class="cls-1" d="M109.94,111.36l-.46-5.86,6.22-.53-4.38,6.6Z"/><path class="cls-1" d="M114.85,126.22,110.57,132c-2.76-1.42.14-3.8-2.26-5.63C111.09,126.32,112.56,124.21,114.85,126.22Z"/><path class="cls-1" d="M57.36,185.93c1.41-.54,3.09-1.82,4.18-1.44,1.83.64,1.54,2.59.53,4.6l-4.42-1.86Z"/><path class="cls-1" d="M105.82,175.51V169l5.65-1.15Z"/><path class="cls-1" d="M108.9,142.54c-.1-4.86-.1-4.86,3.84-6.11A9.38,9.38,0,0,1,108.9,142.54Z"/><path class="cls-1" d="M110.58,122.32c-1.16-3.4.19-4.92,2.54-6.67C114,118.66,112.95,120.32,110.58,122.32Z"/><path class="cls-1" d="M81.63,189.32c-2.6,2.8-4.17,1.48-5.79-1.16Z"/><path class="cls-1" d="M49.09,114.23l-4.52,4.63C44.54,115.19,45.32,113.81,49.09,114.23Z"/><path class="cls-1" d="M77.54,92.84l-3.75,4.63C73.67,94.39,73.67,94.39,77.54,92.84Z"/><path class="cls-1" d="M52.52,183.8c.55-2,1.55-2.84,3.87-2.59C55.57,183,54.86,184.21,52.52,183.8Z"/><path class="cls-1" d="M125.39,168c.68-.54,1.35-1.1,2.07-1.57a8.69,8.69,0,0,1,.84,1l-2.12,1.6Z"/><path class="cls-1" d="M126.11,101.09c-.15-1.73.9-2.19,2.77-2.51A2.77,2.77,0,0,1,126,101Z"/><path class="cls-1" d="M39.73,155.13l-1.17-.9,1.07-1.11c.3.3.81.58.85.91S40,154.7,39.73,155.13Z"/><path class="cls-1" d="M52.08,135.1c-.07-1.55.32-2.67,2.61-1.89L52,135Z"/><path class="cls-1" d="M127.17,159.21l-2.83-.65C126.09,157.47,126.09,157.47,127.17,159.21Z"/><path class="cls-1" d="M69.82,190.59l-2.13.12-.14-.73,2.16-.64Z"/><path class="cls-1" d="M112,100.06l-2.27,2c-.36-2.9,1.3-1.92,2.36-1.93Z"/><path class="cls-1" d="M126,101l-1.24,1.68-.33-.36,1.67-1.21Z"/><path class="cls-1" d="M72.61,101l-.69.56-.59-1c.29-.11.6-.34.85-.29S72.47,100.76,72.61,101Z"/><path class="cls-1" d="M111.54,94l-1.36.65a4.39,4.39,0,0,1-.43-1.15c0-.13.55-.5.71-.44C110.8,93.15,111.06,93.51,111.54,94Z"/><path class="cls-1" d="M39.28,171.67l-.29-.24c.16,0,.33-.16.46-.12s.23.24.34.36Z"/><path class="cls-1" d="M127.17,163.38l.51.61a4,4,0,0,1-.68.34c-.05,0-.29-.27-.27-.33A3.53,3.53,0,0,1,127.17,163.38Z"/><path class="cls-1" d="M55.92,117.88,54,120l.08.09L56,118Z"/><path class="cls-1" d="M87,189l-1.25-.84.35-.33.8,1.27Z"/><polygon class="cls-1" points="56.78 161.47 57.16 161.41 57.1 161.63 56.78 161.47"/><path class="cls-1" d="M123.31,77.55a2.72,2.72,0,0,1-.53.09s-.07-.14-.11-.21Z"/><path class="cls-1" d="M100.23,174.45c0,.11,0,.28,0,.32a1.12,1.12,0,0,1-.4.1l0-.54Z"/><path class="cls-1" d="M52.1,105.39c0,.08-.08.22-.13.22a1.12,1.12,0,0,1-.34-.08c0-.08.08-.22.12-.23A1.19,1.19,0,0,1,52.1,105.39Z"/><path class="cls-1" d="M51.19,122.56l-.33.2-.23-.43a.92.92,0,0,1,.38,0C51.09,122.3,51.13,122.46,51.19,122.56Z"/><path class="cls-1" d="M54,120l-1,.83,1.06-.74Z"/><path class="cls-1" d="M72.67,98.37l.41-.16.11.54a1.23,1.23,0,0,1-.43-.07C72.69,98.65,72.69,98.48,72.67,98.37Z"/><polygon class="cls-1" points="112.07 100.15 112.14 99.89 111.99 100.06 112.07 100.15"/><path class="cls-1" d="M618.12,106.33a32.46,32.46,0,0,1,14,6.92,12.72,12.72,0,0,1,3.85,7.31c.72,5.38.6,10.89.68,16.35.12,7.59.12,15.19.19,22.79,0,1.66.2,3.32.16,5-.12,4.76-.32,9.51-.51,14.74-1.78.81-4.32,1.32-3.76,5.12.25,1.68-2.06,3.93-3.54,5.63-4.51,5.16-10.4,6.52-17,5.6-.74-.1-2-.76-2-1.22-.3-4.49-4.42-6.72-6-10.52a57.48,57.48,0,0,1-4-26.26c.7-9.7,1.51-19.47,4.31-28.83C607.14,120.55,609.66,112,618.12,106.33Z"/><path class="cls-1" d="M646.68,168.29l11.52-11.63,1,.88C656.62,166.33,650.1,172.4,644,179c-1.65-2.85-2.41-15.32-1.68-25.5,4.65-1.05,8.39-3.69,10.2-8.61-.77,8.11-6.92,14.47-7.29,22.59Z"/><path class="cls-1" d="M655.24,200.59c3.42-14.54,3.42-14.54-.77-17.31,1.1-1.56,2.29-3.05,3.26-4.68s1.53-3.15,2.61-5.44c1.25,3.75.37,6.82.38,9.84,0,3.62-.3,7.26,0,10.86C661.07,199.52,661.22,199.51,655.24,200.59Z"/><path class="cls-1" d="M574.07,153.4,588.33,142c.49,2.31-.61,3.59-1.55,4.75a34.76,34.76,0,0,1-3.57,3.44c-2,1.9-4.08,3.67-4.27,6.84-.14,2.3-1.68,3.86-4.5,4.75C573.65,158.85,574.28,155.92,574.07,153.4Z"/><path class="cls-1" d="M655.42,98.39l-2.77-.76,2.87-4.86c4.75,4.67,5.34,18.72-4.8,22.27C654.08,109.66,657.16,104.78,655.42,98.39Z"/><path class="cls-1" d="M647.21,199.38c-5.4-6.61-5.36-10.77,1-14.73-.87,2.08-1.6,3.24-1.8,4.49a20.2,20.2,0,0,0,.16,4.16l6.92-1.61C653.12,196.22,650.79,198.17,647.21,199.38Z"/><path class="cls-1" d="M641.82,148v-9.23l8-2.92c-2.94,4.32-3.79,9.05-6.81,12.62Z"/><path class="cls-1" d="M593.08,182.87l1.36,4.4,6.85,3.14c-3.44,1.69-5.23-.54-7.34-.83a50.1,50.1,0,0,1-6.57-1.8Z"/><path class="cls-1" d="M660.23,139.1c1.55,9.2,1.05,10.52-5.51,13.92Z"/><path class="cls-1" d="M578.16,128.74c.91-5.45,2.66-10,8.46-9.48Z"/><path class="cls-1" d="M648,125c-.9,3.54-3.23,6.18-5.94,9.93-.09-1.85-.1-2.57-.16-3.29-.34-4-.35-4,3.49-5.68.86-.37,1.79-.59,2.7-.87Z"/><path class="cls-1" d="M574.65,147.22c-.83-6.88,3.63-9.14,7.05-12.14l1,.67Z"/><path class="cls-1" d="M574.89,165.59c1.52-.55,2.56-1,3.62-1.28.26-.08.6.1,1.22.21.34,2.53-2,3.75-2.42,5.84l-1.12-.05Z"/><path class="cls-1" d="M646.76,112.56l-3.35,7.51C640.9,116.21,641.53,114.65,646.76,112.56Z"/><path class="cls-1" d="M659.84,129.52v4.88l-4.92,1.4,4-6.37Z"/><path class="cls-1" d="M642.79,97.06l-.23-3.77,5.63-1C647.06,95,645.27,96,642.79,97.06Z"/><path class="cls-1" d="M601.12,118.92C598.86,123,598.86,123,596,122,597.1,120,598.76,119.2,601.12,118.92Z"/><path class="cls-1" d="M594.62,151.6v5.12C591.28,155.21,591.28,155.21,594.62,151.6Z"/><path class="cls-1" d="M589,170.69c.85-.63,1.32-1.23,1.81-1.25s1.08.81,1,1.16a1.75,1.75,0,0,1-1.19,1.13C590.3,171.8,589.8,171.2,589,170.69Z"/><path class="cls-1" d="M643.31,106.27c-1.58-2.3-.21-3,1.3-3.67Z"/><path class="cls-1" d="M589.79,162a6.69,6.69,0,0,1-1.58.91c-.2.05-.56-.51-.85-.79l1.51-1.45Z"/><path class="cls-1" d="M579.89,177.07c-.66.25-1.13.6-1.42.49s-.53-.67-.79-1c.39-.19.81-.56,1.16-.51S579.42,176.58,579.89,177.07Z"/><path class="cls-1" d="M659.69,166.34c.41.19.9.34.89.42a4.83,4.83,0,0,1-.38,1.09c-.27-.11-.76-.21-.77-.34A4.12,4.12,0,0,1,659.69,166.34Z"/><path class="cls-1" d="M607.21,108.27c.08.27.29.63.19.78s-.53.31-.82.45c-.08-.29-.31-.67-.21-.86S606.92,108.39,607.21,108.27Z"/><path class="cls-1" d="M648,125.05l.13-.41L648,125Z"/><path class="cls-1" d="M544.58,153.52c-.14,3.55-6.31,14.42-14.68,25.89,0-3.07.45-5.48-.1-7.62-.84-3.25,1.65-4.47,3.12-6.28C536.39,161.2,539.44,156.45,544.58,153.52Z"/><path class="cls-1" d="M545,188l-4.44-.74c.92-6.62,6-12,5.08-19.33l-4.24,1.49c0-.55-.27-1.12-.08-1.41a59.5,59.5,0,0,1,7.46-9.43c-.16,2.17-.34,4.35-.47,6.52-.37,6.1-.58,12.22-1.17,18.29-.16,1.63-1.47,3.15-2.25,4.73Z"/><path class="cls-1" d="M529.32,159.42c-.23-2.7-.51-5.4-.65-8.11a4,4,0,0,1,.7-1.81c.14-.27.51-.41.74-.65l12.45-13.31a3.31,3.31,0,0,1-.23,4.3c-2.1,2.91-4.52,5.75-5.85,9-1.43,3.53-3.67,6.46-5.48,9.7a10.69,10.69,0,0,0-.53,1.33Z"/><path class="cls-1" d="M530.68,194.41l-1.18-8.71,9.77-8.87c1.67,2.86-.63,4.5-1.36,6.35s-2.05,3.65-3,5.52-1.92,4-2.87,6Z"/><path class="cls-1" d="M538.71,126.77c-1.83,5.76-6.24,12.64-9.8,15.68C528.1,138.06,531.68,132.15,538.71,126.77Z"/><path class="cls-1" d="M547.88,139.29c.58,7.52-6,9.25-9.11,14.62C538.91,149.26,542.68,143.48,547.88,139.29Z"/><path class="cls-1" d="M532.87,117.91c-.14,5.77-1.41,8.66-4.49,10.27-1.85-4.59-1.81-4.54,1.9-7.28A21.33,21.33,0,0,0,533,118Z"/><path class="cls-1" d="M482.17,123.5,474,137.44c-.54-4.37,2.82-10.49,7.31-14.63Z"/><path class="cls-1" d="M471.14,152.75c-1.25-4.73-1.25-4.73,4.66-9.3C475.69,147.22,472.88,149.18,471.14,152.75Z"/><path class="cls-1" d="M536.15,122l3.45-6.77c3.07,3.12,2.85,3.71-2.44,7.38Z"/><path class="cls-1" d="M487,185c0,1.11-.22,1.92-1.61,1.81-2.68-.21-5.36-.37-8.82-.6,3.79-3.74,7.33-.28,10.52-1.11Z"/><path class="cls-1" d="M476.92,115.07l-5.83,8.26C470,118,474.41,117,476.92,115.07Z"/><path class="cls-1" d="M470.88,171.86,469,165.91c1.32.25,3,.34,3.07.61a38.49,38.49,0,0,1-.06,5.35Z"/><path class="cls-1" d="M484.17,164.42l3.65-5.38,1.18,4.32-4,1.81Z"/><path class="cls-1" d="M473.9,178.94c-.57.76-1.09,1.57-1.72,2.27a4.42,4.42,0,0,1-1.24.68c-.12-4-.12-4,3.05-2.84Z"/><path class="cls-1" d="M489.5,106.86l-.54,4.78C486.71,109.61,486.71,109.61,489.5,106.86Z"/><path class="cls-1" d="M527.94,112a22,22,0,0,1-1.7,1.77,7.28,7.28,0,0,1-1-.82l1.71-1.87Z"/><path class="cls-1" d="M544.89,129.23a11.15,11.15,0,0,1-.68-2.35c0-.2.52-.58.62-.52.33.17.77.48.79.77S545.36,128,544.89,129.23Z"/><path class="cls-1" d="M487.23,123.57v-1.83h.57v1.82Z"/><path class="cls-1" d="M487.34,146.81a9.32,9.32,0,0,1,0-2.45c.19-.39.64-.65,1.42-.74Z"/><path class="cls-1" d="M542.33,130.91l-.71.33c0-.14-.14-.38-.11-.4a5.74,5.74,0,0,1,.71-.31Z"/><path class="cls-1" d="M544.87,188.12l1.32.27-.23.37-1-.77Z"/><path class="cls-1" d="M482.08,115l.78-.9.35.32-1.23.48Z"/><path class="cls-1" d="M472.17,100.41c-.05.1-.1.27-.16.27a1.56,1.56,0,0,1-.45-.09c0-.1.1-.3.15-.3A1.7,1.7,0,0,1,472.17,100.41Z"/><path class="cls-1" d="M525.14,106.36c0,.11,0,.28,0,.32a1.49,1.49,0,0,1-.44.12l0-.57Z"/><path class="cls-1" d="M474,179l1.39-.82.23.52-1.72.19Z"/><path class="cls-1" d="M483.14,140.37c0,.11,0,.28,0,.32a1.59,1.59,0,0,1-.45.14l0-.6Z"/><path class="cls-1" d="M533,118l1.08-1L534,117l-1.09.92Z"/><polygon class="cls-1" points="487.07 185.14 487.14 184.86 486.98 185.04 487.07 185.14"/><path class="cls-1" d="M482,114.93l-.2.4.3-.3Z"/><path class="cls-1" d="M534.07,115.93l-.49-.32c.1,0,.25,0,.29,0a1.16,1.16,0,0,1,.11.37Z"/><path class="cls-1" d="M534,116v1l.1.08v-1.14Z"/><path class="cls-1" d="M715.93,159c-1.7,3.87-3.31,7.79-5.14,11.6A20.5,20.5,0,0,1,706,177c0-7.36,0-14.71,0-22.07a3.53,3.53,0,0,1,.94-2.13c3.1-3.34,6.28-6.6,9.77-10.25a15.51,15.51,0,0,1-.92,3.26q-3.95,7.08-8.08,14.06a3.47,3.47,0,0,0,.72,4.91c4,.07,4.91-4,7.51-5.77Z"/><path class="cls-1" d="M717.71,171.34c0,.74.17,1.3,0,1.68-2,3.9-4.06,7.78-6.21,11.86l2.23,4.13c-4.43,1-5.14.48-6.42-4.1Z"/><path class="cls-1" d="M722.75,182.14l5,3.9c-2.06,3-8.21,4.28-10.15,3.34Z"/><path class="cls-1" d="M712.08,126.07l-4.93,10.39-1-.23v-9.59l6.1-.48Z"/><path class="cls-1" d="M705.81,92.67c-2-6.69,5-7.51,7-11.63C712.38,86.08,708.84,89.18,705.81,92.67Z"/><path class="cls-1" d="M705.81,114.77l6.59-2c-1.54,3.28-1.82,6.69-5.79,8.74Z"/><path class="cls-1" d="M705.37,60.64c-1.83-5.78,3-6.07,6.68-8.42C710.31,56.14,708.45,58.8,705.37,60.64Z"/><path class="cls-1" d="M721.86,76.83l6.07-7.31-1.05,7.31Z"/><path class="cls-1" d="M710.21,102.34l-3.87,6.42-.94-5.22C706.32,101.41,708,102.39,710.21,102.34Z"/><path class="cls-1" d="M710,74l-4.44,6.76c-1-5.3-.59-5.8,4.55-6.66Z"/><path class="cls-1" d="M705.87,141.76l4.42-1.18-3,5.44-1-.26Z"/><path class="cls-1" d="M718.77,89.2c-.62,2.68-1.15,4.76-4.31,4.93C714.58,91.32,716.07,90,718.77,89.2Z"/><path class="cls-1" d="M723.85,170.59l2.67-5.9C727.27,167.63,727.6,169.45,723.85,170.59Z"/><path class="cls-1" d="M707,67.6l-1.42,2.11-.64-.32.94-2.46Z"/><path class="cls-1" d="M712.22,126.16c-1-1.3-.79-2.27,1.6-3.4l-1.73,3.31Z"/><path class="cls-1" d="M710.13,74.13c-.35-1.65.23-2.71,2-3L712,71l-2,3Z"/><path class="cls-1" d="M716,159l.54-1.83.71.41L715.93,159Z"/><path class="cls-1" d="M727.62,47.42V49.5h-.44V47.42Z"/><path class="cls-1" d="M727.91,60.19l-.57.64c-.18-.29-.45-.56-.48-.87,0-.14.46-.33.71-.49Z"/><polygon class="cls-1" points="715.95 108.64 715.95 108.32 716.39 108.48 715.95 108.64"/><path class="cls-1" d="M708.69,66c-.12,0-.3.13-.33.09a1.35,1.35,0,0,1-.17-.4l.61-.14Z"/><path class="cls-1" d="M713.12,70.06l.18-1.61.61.26L713,69.95Z"/><path class="cls-1" d="M714.78,79.51l-.32.29c-.09-.11-.26-.23-.26-.33s.19-.2.3-.3Z"/><path class="cls-1" d="M712.09,71.12l1-1.06-.11-.11L712,71Z"/><path class="cls-1" d="M714.72,121.59l-.29.25c-.08-.1-.23-.21-.22-.3s.17-.17.27-.25Z"/><path class="cls-1" d="M238.51,163.41c-.82,6-4.52,9.27-6.58,13.37-4.88.15-5.48-.11-6.37-4.61a36,36,0,0,1-.31-7.86,4.33,4.33,0,0,1,1.18-2.68c3.16-3.17,6.44-6.22,10.5-10.09-1.3,5-4.67,7.45-6.56,10.77-.23.41-.77.62-1.09,1-1.39,1.59-2.54,3.47-.77,5.26,2,2,3.62,0,5.15-1.11S236.37,165.2,238.51,163.41Z"/><path class="cls-1" d="M230.92,69.21l-7.11,7.65-.84-.34.82-22.26,1.05-.14,1,3.34c5.54-1.27,7.49-6.51,12.05-9.79a10,10,0,0,1-.69,2.5c-3.34,4.78-6.81,9.48-10.07,14.32-.66,1-1.16,3.26-.77,3.53C227.46,68.77,229.07,68.79,230.92,69.21Z"/><path class="cls-1" d="M225.67,153.58c-.7-1.64-1.71-2.83-1.45-3.61,1.71-5.34-3.24-10.85.35-16.51l2.79,8c-.79,2-1.63,5.21,3.51,6.86Z"/><path class="cls-1" d="M223.35,115.14l7.17-1.25c.2,2.38-2.19,3.56-3.15,5.44s-2,3.52-2.94,5.28l-1.09-.34Z"/><path class="cls-1" d="M245.28,159.66c1.81,6.43.9,8.94-4.22,12.26Z"/><path class="cls-1" d="M223.32,111.17v-7l4.33,1.08-3.55,6.24Z"/><path class="cls-1" d="M224.45,86.87c-1.37-3.79-.83-4.43,5.26-6.42Z"/><path class="cls-1" d="M226.82,48.86c1.57,2.18-.25,3-1.65,4.39-1.38-1.07-2.47-1.92-.41-3.23A20.9,20.9,0,0,1,226.92,49Z"/><path class="cls-1" d="M232.44,125.92c-.87-1.95-1.07-3.63,2.15-3.87Z"/><path class="cls-1" d="M244.78,152.21c-2.29-1.46-1.64-2.5.24-4Z"/><path class="cls-1" d="M230,128c.12,2.21-1.4,2.95-3.86,4.19,1-2.61,2.16-3.65,3.95-4.1Z"/><path class="cls-1" d="M231.95,88a3.59,3.59,0,0,1-2.64,4,4.45,4.45,0,0,1,2.75-3.91Z"/><path class="cls-1" d="M232.06,88.09l.54-1.65.6.36L231.95,88Z"/><path class="cls-1" d="M239.55,109.79c.07.14.2.28.19.41s-.15.25-.24.38c-.07-.13-.2-.27-.19-.4S239.47,109.92,239.55,109.79Z"/><path class="cls-1" d="M244.28,106.57l-.41.16-.12-.58a1.24,1.24,0,0,1,.43.09C244.26,106.29,244.25,106.46,244.28,106.57Z"/><path class="cls-1" d="M233.94,66l-1,.76,1.14-.66Z"/><path class="cls-1" d="M229.74,46.6a4,4,0,0,1-.68.25c-.05,0-.16-.21-.24-.32a5.58,5.58,0,0,1,.71-.28S229.66,46.48,229.74,46.6Z"/><path class="cls-1" d="M226.92,49l1.31-.76.14.58-1.56.07Z"/><polygon class="cls-1" points="234.03 66.09 234.22 65.78 233.94 65.99 234.03 66.09"/><path class="cls-1" d="M230,128l.42-.49c0,.11,0,.29-.08.33a1.24,1.24,0,0,1-.44.06Z"/><polygon class="cls-1" points="244.55 137.29 244.66 137.56 244.38 137.52 244.55 137.29"/><path class="cls-1" d="M175,120a16.74,16.74,0,0,1,.87-3.28c2.43-4.94,4.44-9.86,2.26-15.53-.3-.78.59-2.09,1.08-3.09A25.78,25.78,0,0,1,182.4,93c.91,7.74,2.31,15.38.79,22.48l-8.27,4.41Z"/><path class="cls-1" d="M176.95,149c-2.49,7.38-9.31,12.54-9.49,20.5,3.58,2.91,4.75-1.77,7.76-2.12l1.1,4.43c-3.38.35-6.28.78-9.2.9-1.5.06-3.26-.47-3.37-2.28-.15-2.31-2.12-4.77.41-7a12.27,12.27,0,0,0,3-3.18A31.18,31.18,0,0,1,176.95,149Z"/><path class="cls-1" d="M174.56,63.55c-3.86,6.71-8.73,12.25-14.09,17.81-2.11-5.13-1.54-6,2.12-8.43C166.71,70.19,170.42,66.84,174.56,63.55Z"/><path class="cls-1" d="M183.71,75.75c-.93-1.18-1.93-1.88-2-2.69-.15-1.27.47-2.61.47-3.92A17,17,0,0,0,181,62.6l2.75-4.74C185.11,61.05,185.13,67.88,183.71,75.75Z"/><path class="cls-1" d="M162.55,115.32c-2.12-2.26-2.1-4.1-1-5.29,2.65-2.78,5.64-5.23,8.49-7.81l.87.75Z"/><path class="cls-1" d="M168.45,118.39a11.52,11.52,0,0,1-5.36,9.49C161.66,123,162.41,121.65,168.45,118.39Z"/><path class="cls-1" d="M171.86,139.89c.67,4.54-2.82,7.19-4.84,10.47a27.73,27.73,0,0,1-3.46,3.76c-1.7-4.38,2.52-4.91,3.7-7.15a71.86,71.86,0,0,1,4.71-7Z"/><path class="cls-1" d="M166.68,95.37a7.65,7.65,0,0,1-1,2c-1.5,1.46-3.1,2.81-5.23,4.71-.09-1.49-.67-3.18-.14-3.68C162,96.9,163.57,94.8,166.68,95.37Z"/><path class="cls-1" d="M184.45,77.5l-.88,9.43-3.09-1.19,3.07-8.25Z"/><path class="cls-1" d="M167.88,59.42c-1.31,4.22-4.84,6.12-8.64,9,.26-1.37.15-2.28.53-2.6C162.42,63.6,165.17,61.53,167.88,59.42Z"/><path class="cls-1" d="M159.65,91.24c1.07-4.51,4.4-5.24,6.56-7.5.39,2.68.37,2.66-1.8,4.1C163.08,88.73,161.79,89.7,159.65,91.24Z"/><path class="cls-1" d="M173.59,77.84,168.69,83C169.43,79.35,169.94,78.8,173.59,77.84Z"/><path class="cls-1" d="M181.72,117.12c1.46,2.53,2.89,3.83,1.22,5.62a1.36,1.36,0,0,1-1.32.09C179.71,121.35,180.81,119.82,181.72,117.12Z"/><path class="cls-1" d="M182.09,28.94l-5.84-1.79c2.69-1.24,4.39-.09,5.73,1.86Z"/><path class="cls-1" d="M182.92,130.17c1.33,1.4,1.25,2.53-.27,3.66C181.57,132,181.57,132,182.92,130.17Z"/><path class="cls-1" d="M184.68,35.41,185,41C183.48,39.39,183.48,39.39,184.68,35.41Z"/><path class="cls-1" d="M182,29c1.72,2,1.72,2-1,3.07l1.06-3.14Z"/><path class="cls-1" d="M183.25,90c-.1.24-.16.62-.33.69s-.65-.13-.68-.27.17-.51.27-.78Z"/><path class="cls-1" d="M183.4,155.12l.23-.43a5.92,5.92,0,0,1,.55.6s-.14.22-.21.33Z"/><path class="cls-1" d="M166,137.79l-.48-.63,1-.64c.08.29.31.65.21.86S166.26,137.66,166,137.79Z"/><path class="cls-1" d="M172,140l1.23-1.29.37.59-1.7.6Z"/><path class="cls-1" d="M164.47,139.47c.07.27.27.61.17.79s-.48.25-.74.36c-.06-.25-.26-.57-.16-.72S164.22,139.61,164.47,139.47Z"/><path class="cls-1" d="M184.82,49.85l-.37.7c-.1-.1-.31-.24-.29-.31a4.42,4.42,0,0,1,.36-.71Z"/><path class="cls-1" d="M174.92,119.91l-.35,1.25L175,120Z"/><path class="cls-1" d="M181.65,171.37c-.2.17-.39.48-.56.46s-.43-.29-.65-.45c.12-.11.25-.32.36-.3A4.73,4.73,0,0,1,181.65,171.37Z"/><path class="cls-1" d="M797.92,122.5c1.3-5.94,2.9-11.66,3.71-17.48a23,23,0,0,1,6.3-13.14c2.22-2.35,2.89-2.63,5.28-.35,6,5.7,11.53,11.69,12.86,20.38.3,1.94,1.25,3.78,1.68,5.71,1.12,5,.09,6.27-5.13,6.43-2.81.09-5.64,0-8.45-.13-4.61-.22-9.22-.54-13.82-.85A18.2,18.2,0,0,1,797.92,122.5Z"/><path class="cls-1" d="M779.05,164.54c2.78,2,4.92,2.58,8.18,1.14l-1.83,7.69C781.8,171.34,780.3,168.8,779.05,164.54Z"/><path class="cls-1" d="M803,88.4c-2.56,2.59-3.24,6.85-7.8,8.1-.35-2.66,1.88-3.65,3-5.15a53.45,53.45,0,0,1,3.8-4.06Z"/><path class="cls-1" d="M780.81,105.93l-6.64,7.84C774,109.19,776.37,106.69,780.81,105.93Z"/><path class="cls-1" d="M792,180.94l-4.64-2.82,4-2.87c.65,2.19,1.93,3.79.58,5.8Z"/><path class="cls-1" d="M781.24,135.73c.84-1.26.3-3.7,4.39-3.36l-3.61,4Z"/><path class="cls-1" d="M770.29,123.92l2.3-1.47.74,1.56-2.5,1Z"/><path class="cls-1" d="M776.55,154.51c-.37.52-.57,1.06-.93,1.22s-.8-.2-1.21-.33a4.9,4.9,0,0,1,.83-1.39C775.39,153.88,776,154.29,776.55,154.51Z"/><path class="cls-1" d="M773.41,146.57a2.23,2.23,0,0,1-.52.12s-.07-.18-.1-.28Z"/><path class="cls-1" d="M772.19,137.53l-.34.21-.26-.49a1,1,0,0,1,.4,0C772.08,137.27,772.12,137.43,772.19,137.53Z"/><polygon class="cls-1" points="773.13 117.37 773.12 117.68 772.76 117.52 773.13 117.37"/><path class="cls-1" d="M791.9,181l.35.1-.25-.21Z"/><path class="cls-1" d="M473.77,293.56c.13,5.35-2.6,9.65-4.12,14.35-2.74,8.53-7.81,15.58-12.82,22.72A24.59,24.59,0,0,1,445,339.42c-3.27,1.24-4.07.89-6.36-1.84a68.58,68.58,0,0,0-4.74-5,25.83,25.83,0,0,1-6.67-10.33c-.95-2.78-2.37-5.4-3.46-8.14a8.11,8.11,0,0,1-.21-2.4c-.27-4.18.64-8.55-1.86-12.4a.57.57,0,0,1,0-.48c3-5.69.35-11.76,1.21-17.59s2-11.42,2.61-17.17a23.4,23.4,0,0,1,6.93-13.76c6-6,15.42-8.15,22.69-1.36a37.63,37.63,0,0,1,6.34,8.72,106.58,106.58,0,0,1,9.8,23.8C472.4,285.41,472.94,289.52,473.77,293.56Z"/><path class="cls-1" d="M396.62,307.18c-.52-2.43-1.27-4,1.35-5.37,1.9-1,3.17-3.24,4.66-5,1.15-1.34,2.12-2.88,4.89-2.88C403.7,298.48,401.39,303.48,396.62,307.18Z"/><path class="cls-1" d="M429.79,340.95c-6.72.53-11.6-2.47-16.64-5.92,1.09-1.79,3-1.82,3.78-.9,3.13,3.86,7.74,4.08,11.9,5.46C429.07,339.67,429.2,340.09,429.79,340.95Z"/><path class="cls-1" d="M411.3,334.05l-4-2.65c-.14-4.26,4.37-3.25,5.78-5.68C413.6,328.59,412.49,331,411.3,334.05Z"/><path class="cls-1" d="M416.52,302l-2.82-.27c-.15-.58-.38-.93-.29-1.17,1.1-3.12,3.27-6.11,1.12-9.64a17.77,17.77,0,0,1,2-1.77Z"/><path class="cls-1" d="M405,307.39c-1.76,3.61-2.39,7.94-6.16,10.74C398.21,314.82,400.52,310.72,405,307.39Z"/><path class="cls-1" d="M416.49,307.71c.09,2.58,2.72,5.25-.41,8.55C415.45,312.93,413.32,310.42,416.49,307.71Z"/><path class="cls-1" d="M398.85,279.91c.78-1.67.8-3.71,3.29-3.87C401.74,279.18,401.74,279.18,398.85,279.91Z"/><path class="cls-1" d="M416.2,268.92l1.87-1.54c.18.24.55.63.5.71-.44.62-1,1.18-1.46,1.76Z"/><path class="cls-1" d="M420.29,255.64l1-.94A4,4,0,0,1,422,256c0,.2-.57.49-.89.74Z"/><path class="cls-1" d="M420,263.82l-1.08,1c-.25-.33-.73-.71-.68-1s.55-.67.86-1Z"/><path class="cls-1" d="M403.71,326.86l-.93-.46a6.55,6.55,0,0,1,.87-1c.09-.07.48.24.74.37Z"/><path class="cls-1" d="M397.12,288.26c.06.24.24.56.15.71s-.46.32-.7.47c-.06-.27-.25-.6-.16-.81S396.87,288.38,397.12,288.26Z"/><path class="cls-1" d="M396.76,294.92l-.14.39a2.8,2.8,0,0,1-.38-.44s.18-.19.28-.29Z"/><path class="cls-1" d="M398.76,321.44c-.11,0-.28.11-.32.07s-.1-.23-.15-.36l.54-.11Z"/><polygon class="cls-1" points="420.68 258.54 420.39 258.64 420.43 258.36 420.68 258.54"/><path class="cls-1" d="M352.8,111.83a83,83,0,0,1-33,.65c1-8.5,3.16-16.41,8.24-23.08,6.51-.25,10.29,3.78,13.85,7.56,3.72,3.95,6.71,8.58,10,13A9.43,9.43,0,0,1,352.8,111.83Z"/><path class="cls-1" d="M310.84,171.05c-2.81-.32-5.29-.89-5.76-4.58l7.71-5.07Z"/><path class="cls-1" d="M302.95,132c-.05.32,0,.71-.17.94-2.73,3.77-5.49,7.52-8.57,11.73l-1.29-5.72c3-2.26,5.46-4.19,8-6a8.77,8.77,0,0,1,2.13-.82Z"/><path class="cls-1" d="M292.12,131v-5.24l7-5C298.45,125.4,295.1,127.88,292.12,131Z"/><path class="cls-1" d="M302,147a32.1,32.1,0,0,1-2,4.38,28.93,28.93,0,0,1-3.26,3.56l-1.53-4.28,6.87-3.59Z"/><path class="cls-1" d="M321,87l-1.83,6.41c-2.38-1.78-2.89-3.21-1.08-4.78a13.8,13.8,0,0,1,3-1.54Z"/><path class="cls-1" d="M310.09,109.07l4.93-7-.09-.09c-.13,5.36-.13,5.36-4.94,7Z"/><path class="cls-1" d="M310.62,156.08l3.53-4.53C315.53,155.42,312.86,155.65,310.62,156.08Z"/><path class="cls-1" d="M306.15,123.25c1.15-1.73,2.21-3.65,5.76-2.05l-5,3.11Z"/><path class="cls-1" d="M305.39,136.8l5.82-5.26C310.56,134.56,309.12,135.8,305.39,136.8Z"/><path class="cls-1" d="M300.29,161.65c-.71-1.57-.93-3,2.09-3.87l-.93,4Z"/><path class="cls-1" d="M320.68,164.09c-.24.81-.45,1.63-.75,2.41,0,.1-.56,0-.86,0v-2.74Z"/><path class="cls-1" d="M327.39,171c.38.68.93,1.23.85,1.68s-.88.59-1.36.87a5.66,5.66,0,0,1-.65-1.58C326.21,171.74,326.83,171.44,327.39,171Z"/><path class="cls-1" d="M316.87,95.93c-.07,1.14.54,2.6-1.55,3-.7-1.84.86-2.18,1.67-2.93Z"/><path class="cls-1" d="M302.05,147l.87-2,.75.5L302,147Z"/><path class="cls-1" d="M312.21,142.77c.11,0,.33.07.33.11a1.69,1.69,0,0,1-.1.44l-.54-.18Z"/><path class="cls-1" d="M304.06,139.06l1.17-.85.24.56L304,139Z"/><path class="cls-1" d="M303.05,132.1l.1-.33-.21.24Z"/><path class="cls-1" d="M301.93,92l-.77.79-.37-.51,1.24-.18Z"/><polygon class="cls-1" points="303.04 90.99 303.26 90.77 302.92 90.87 303.04 90.99"/><path class="cls-1" d="M302,92.07,303,91l-.12-.12-1,1.1Z"/><polygon class="cls-1" points="306.42 88.71 306.31 88.39 306.62 88.44 306.42 88.71"/><path class="cls-1" d="M321,87.05l.25-.68L321,87Z"/><path class="cls-1" d="M304,139l-.42.74.51-.65Z"/><path class="cls-1" d="M317,96l.43-.4c-.05.06-.1.16-.16.19a2.16,2.16,0,0,1-.38.1Z"/><path class="cls-1" d="M315,102.06l.17-.41-.26.32Z"/><path class="cls-1" d="M310,109l-.21.37.31-.27Z"/><path class="cls-1" d="M387.24,137.73c1.69-.29,3.16-.23,4.31-.81s2.13-1.69,3.34.11c-.89,4.23-4.92,6-7.65,10.41Z"/><path class="cls-1" d="M396.81,187.84l-4.47,1.73-2.42-10,6.69-3.54.78.69-5,9.74,4.56,1.49Z"/><path class="cls-1" d="M398.08,106l-10.31,11.46c-1.19-5.21-1.12-5.1,2.85-7.54,2.3-1.41,4.34-3.24,6.49-4.88Z"/><path class="cls-1" d="M396.92,188l8.5-9.35,1.16.84c-1,2.65-2,5.34-3.2,7.92-.25.53-1.4.89-2.14.9a37.46,37.46,0,0,1-4.42-.43Z"/><path class="cls-1" d="M393.77,127.64c0,3.77-5.78,3.19-5.6,7.21-1.87-2.41-.8-5-1.25-7.21Z"/><path class="cls-1" d="M389.87,172.44c-2-4.51-2-4.51,4-7.11C393.91,167.79,393.73,168.11,389.87,172.44Z"/><path class="cls-1" d="M388.67,150.3c1.94,2.5-.57,5.49,1.44,8l-1.55.2-1-7.89Z"/><path class="cls-1" d="M390.92,121,387,125.47l-.3-4.69,4.34.28Z"/><path class="cls-1" d="M404.92,145.67l2.12-3.8c.57.35,1.06.51,1.05.67C408.09,144,408.4,145.86,404.92,145.67Z"/><path class="cls-1" d="M391,121.07l.14-.3-.25.2Z"/><polygon class="cls-1" points="397.13 134.09 397.25 133.73 397.02 133.98 397.13 134.09"/><path class="cls-1" d="M397,134l-.45.35c.06-.07.1-.18.17-.21a1.47,1.47,0,0,1,.38,0Z"/></svg>