<svg id="Layer_1" data-name="Layer 1" xmlns="http://www.w3.org/2000/svg" viewBox="0 0 633.83 137.8"><defs><style>.cls-1{fill:#ef5a54;}.cls-2{fill:#fff;}</style></defs><title>Artboard 2@1x</title><path class="cls-1" d="M297.35,61.7a8.67,8.67,0,0,0,3.44-.71,7.1,7.1,0,0,1,1.85-.36c.66,0,1,.45,1.18,1a1,1,0,0,1-.31,1.3c-2.46,1.89-4.58,4.21-7.31,5.74a1.51,1.51,0,0,0-.89,1.73,10.76,10.76,0,0,1-.15,4.52,3.13,3.13,0,0,0,0,1.19,82.42,82.42,0,0,1,0,8.6,19.6,19.6,0,0,1-3.39,10.58,11.29,11.29,0,0,0-1.34,2.52,10,10,0,0,1-2.9,4.29,107.11,107.11,0,0,1-9.85,8c-.38.28-.68.68-1.06,1-.83.62-1.66,1.24-2.53,1.79s-1.92,1.15-2.91,1.65a22.27,22.27,0,0,1-2.61,1.16c-6.13,2.21-12.49,2.47-18.92,2.24-2.4-.09-4.79-.13-7.19-.14a18.66,18.66,0,0,1-6.13-.9c-1.88-.66-3.92-.88-5.72-1.69-2.83-1.26-5.88-2.08-8.41-4-.44-.32-.85-.69-1.44-1.18.5-.25.83-.56,1.15-.55,2.14.05,4.21-.57,6.4-.27,2.69.36,6.41-1.11,8.67-3.06-.6-.32-1.13-.63-1.69-.89a15.22,15.22,0,0,1-8-8.78,4.45,4.45,0,0,1-.28-1.16,2,2,0,0,1,1.9-2.24c.63,0,1.27,0,2.17,0-.33-.45-.54-.74-.75-1-1.13-1.44-2.37-2.8-3.36-4.33-1.21-1.87-2.22-3.87-3.3-5.83a2.29,2.29,0,0,1-.33-.89c-.18-2.61-1.31-4.92-2.25-7.28-.09-.22-.24-.47-.2-.67a1.44,1.44,0,0,1,.43-.76c.11-.09.46,0,.63.1a3.76,3.76,0,0,1,.69.65c1.42,1.53,1.5,1.57,4.34,1.58a12.26,12.26,0,0,0-.83-1.43,9.92,9.92,0,0,1-1.93-4.59c-.16-.94-.38-1.88-.59-2.81a9.61,9.61,0,0,1,.61-6.76c.69-1.34,1.28-2.74,2-4.08a1.53,1.53,0,0,1,.9-.65,4.44,4.44,0,0,1,1.42,0c.54,0,1,.36.89.91a3.79,3.79,0,0,0,1,2.85c1.64,2.25,3.29,4.5,5.94,5.77,1.79.86,3.42,2.05,5.17,3a32.44,32.44,0,0,0,9.37,3.51c1.72.33,3.43.76,5.16,1.05a18.22,18.22,0,0,0,2.86.2c.91,0,1.24-.27,1.2-1.1-.26-4.95,2-9,4.84-12.68a9.58,9.58,0,0,1,2.79-2.2A22,22,0,0,1,271.21,54a8.13,8.13,0,0,1,3.51-.61,23.08,23.08,0,0,0,2.87-.08,18.5,18.5,0,0,1,11.23,3.49c.4.27.79.55,1.16.85a1.3,1.3,0,0,0,1.55.07q3.9-1.83,7.83-3.59c1.11-.5,1.89-.38,2.41.26.65.8.64,1.55-.19,2.57s-1.6,1.77-2.41,2.65C298.65,60.22,298.14,60.81,297.35,61.7Zm0-3.94a8.73,8.73,0,0,0-3.46,1,27.35,27.35,0,0,0-2.6,1.21,2.29,2.29,0,0,1-3-.46c-.24-.22-.46-.45-.71-.65a15.3,15.3,0,0,0-10.6-3.71,10.3,10.3,0,0,1-1.68,0,7.71,7.71,0,0,0-4,.75,4.64,4.64,0,0,1-1.11.45c-2.22.28-3.28,1.83-4,3.68-.59,1.48-1,3-1.52,4.54a25.8,25.8,0,0,0-.86,3c-.21,1.09-.25,2.22-.37,3.33a6.56,6.56,0,0,1-.28,2.11c-.45.91-1.46.25-2.18.48a14.36,14.36,0,0,1-8.27-.14,65.27,65.27,0,0,1-10.47-3.32c-5.62-2.59-10.64-5.83-14.07-11.15a2.56,2.56,0,0,0-1,1.91,17.63,17.63,0,0,0-.3,3.58,16.1,16.1,0,0,0,.85,4.64,14.92,14.92,0,0,0,2.48,3.77,10.42,10.42,0,0,1,2.09,2.84c.14.36.68.59,1.06.84.88.59.94,1.6,0,2.06a8.36,8.36,0,0,1-2,.59c-.54.11-1.12.06-1.65.2-.19.05-.4.47-.4.72a1.87,1.87,0,0,0,.33.88,29.34,29.34,0,0,0,6,7.73,12,12,0,0,1,1.24,1.13,3.25,3.25,0,0,1,.64,3.56,3.39,3.39,0,0,1-2.23,2c-.73.26-1.48.47-2.24.71a2.84,2.84,0,0,0,.3.59,21.77,21.77,0,0,0,8.62,5.46,14.09,14.09,0,0,1,2.6,1.21,1.12,1.12,0,0,1,.45,1,5.8,5.8,0,0,1-3,3.85c-2.2,1.11-4.28,2.45-6.41,3.7-.08,0-.08.25-.16.57a72.69,72.69,0,0,0,11,.71c1.91,0,3.82-.29,5.73-.37a34.57,34.57,0,0,0,10.8-2,72.08,72.08,0,0,0,12.44-6.17c3-1.84,5.9-3.83,8.81-5.81A8.68,8.68,0,0,0,286.05,97c2.58-3.28,3.86-7.14,4.81-11.13.42-1.79.76-3.6,1.31-5.35a12.43,12.43,0,0,0,.61-4.24c-.06-1.91,0-3.83,0-5.74a2.77,2.77,0,0,1,1.07-2.29c1.36-1.11,2.69-2.25,4-3.41.18-.16.24-.44.47-.89-1.89.22-3.57.92-5.09-.48C294.12,61.3,296.09,60,297.34,57.76Z"/><path d="M330.58,28.68l-2.36,3a13.22,13.22,0,0,1-.9,1.11,1.08,1.08,0,0,1-1.68.11,5.23,5.23,0,0,1-1.07-1.52,4.41,4.41,0,0,1-.33-1.63c-.1-2.48-.16-5-.2-7.43a7,7,0,0,1,.19-1.2c.93.07,1,.76,1.14,1.34.22,1.42.35,2.85.53,4.28.07.61.15,1.22.27,2.14a19.48,19.48,0,0,0,1.59-1.33c.71-.75,1.37-1.56,2-2.35.42-.49.87-1,1.6-.77.58.22.68.8.78,1.39.22,1.34.51,2.66.78,4,.08.38.21.76.39,1.41.43-.45.82-.7,1-1,1.17-2.68,3.24-4.74,4.8-7.15.3-.47.84-.4,1.19,0a1.72,1.72,0,0,1,.27,2,29.86,29.86,0,0,1-1.64,2.64,21.11,21.11,0,0,0-2.74,4.76,12.42,12.42,0,0,1-1.14,2.1c-.85,1.39-1.56,1.39-2.35-.11a25,25,0,0,1-1.23-3.11C331.18,30.63,331,29.87,330.58,28.68Z"/><path d="M344.77,52.09c-.66.42-1.32.83-2,1.27-.86.58-1.7,1.2-2.58,1.75a1.19,1.19,0,0,1-1.94-.59c-.18-.44-.22-.93-.37-1.38a7.74,7.74,0,0,0-.54-1,21.51,21.51,0,0,0-1,3.91c-.33,1.23-.71,2.45-1.14,3.65a.88.88,0,0,1-.74.42,1,1,0,0,1-.63-.61,4,4,0,0,1-.1-1.64c.75-3.51,1.55-7,2.34-10.51.12-.53.12-1.21.79-1.35s1.17.46,1.45,1a20.46,20.46,0,0,1,1,2.44,11.54,11.54,0,0,1,.18,1.18c.2.88.61,1.09,1.34.65.89-.53,1.74-1.13,2.6-1.71.4-.27.76-.59,1.15-.86a1.65,1.65,0,0,1,2.69.76,3,3,0,0,1,.23,1.16,14,14,0,0,1-.19,2.62c-.49,2.34-1.06,4.67-1.63,7a7.85,7.85,0,0,1-.68,1.76.91.91,0,0,1-.73.42c-.24,0-.48-.35-.64-.6a2.08,2.08,0,0,1,0-1.83q.71-2.66,1.29-5.35c.17-.76.21-1.55.32-2.32Z"/><path d="M355,29.59c1.28.11,2.37.22,3.46.31,1.27.1,2.55.16,3.82.28a.68.68,0,0,1,.5.4c0,.28,0,.79-.13.86a7.36,7.36,0,0,1-2.19.82,17.38,17.38,0,0,1-2.62-.05c-.74,0-1,.23-1.07,1-.17,1.52.07,1.83,1.59,2,1,.09,1.91.11,2.87.2a14.86,14.86,0,0,1,1.65.24,13.26,13.26,0,0,1,1.27.4,4.62,4.62,0,0,1-2.52,1.56c-1.09.23-2.2.37-3.3.53a5.25,5.25,0,0,0-1.4.21,1.29,1.29,0,0,0-.55.9.87.87,0,0,0,.5.7c.78.15,1.58.14,2.37.25,1,.15,2,.31,3,.55a.92.92,0,0,1,.52.68.94.94,0,0,1-.4.78,13.7,13.7,0,0,1-6.27,1.19,1.89,1.89,0,0,1-1.7-1.75,13.62,13.62,0,0,1-.23-3.08c.1-1.67.39-3.32.55-5C354.84,32.34,354.87,31.16,355,29.59Z"/><path d="M349.75,28.44c-.56,0-1.1.07-1.65.07-1.12,0-2.23,0-3.35,0-1.41,0-1.6.28-1.54,1.75,0,.94.16,1.11,1.09,1.21,1.42.15,2.85.25,4.28.38.62.06,1.23.14,2,.23a3,3,0,0,1-2,1.73,8.74,8.74,0,0,1-5.92.51c0,.5-.15,1,0,1.37a1.71,1.71,0,0,0,1.09.78c1.57.24,3.15.4,4.73.52.41,0,.87-.06,1,.39a1.32,1.32,0,0,1-.15,1.09,2.91,2.91,0,0,1-1.52,1,17.79,17.79,0,0,1-3.8-.07A3.48,3.48,0,0,1,340.91,36a22.37,22.37,0,0,1,0-4c.09-1.27.31-2.53.49-3.79.12-.87.48-1.34,1.32-1.45a50,50,0,0,1,5-.46C349.09,26.26,349.49,26.77,349.75,28.44Z"/><path d="M360.13,56.79a9.09,9.09,0,0,1-5.93,3,9.16,9.16,0,0,0-1.42.16.59.59,0,0,0-.32.49.78.78,0,0,0,.45.46,1.57,1.57,0,0,0,.7,0q1.43-.15,2.85-.33a4,4,0,0,1,1.17-.17c.51.1,1.22.27,1.42.64.34.62-.36.89-.82,1.21-1.71,1.16-3.74,1.27-5.67,1.71-.94.21-1.53-.47-1.87-1.2a5,5,0,0,1-.42-3.48c.35-1.31.63-2.63.94-4a7.9,7.9,0,0,0,.24-1.17c.15-1.93.14-1.95,2-2S357,52,358.72,52a6.56,6.56,0,0,1,1.3.29,2.49,2.49,0,0,1-2.13,1.07c-.87.08-1.75.08-2.62.19-1.88.25-1.92.31-2.18,2.17a5.09,5.09,0,0,0,0,.71c0,.07.06.14.13.31C355.33,57.29,357.54,56.5,360.13,56.79Z"/><path d="M376.38,37.23l-.76-.08c-1.31-.06-1.55,0-1.83,1.28-.44,2-.94,4-1.42,6-.17.7-.32,1.39-.54,2.07-.06.19-.4.47-.48.43-.25-.12-.62-.36-.63-.57a18.92,18.92,0,0,1,.08-3.31c.19-1.33.58-2.64.89-4,.09-.39.23-.76.31-1.15.24-1.15.08-1.45-1-1.72s-2.18-.46-3.26-.71a1.74,1.74,0,0,1-1.42-1.13c-.18-.53,0-1,.59-1a28,28,0,0,1,3.08.25c2.67.39,5.33.85,8,1.25.53.08.91.26,1,.8a1.08,1.08,0,0,1-.83,1.27A13.39,13.39,0,0,1,376.38,37.23Z"/><path d="M308.08,18.89c.16-.11.28-.26.41-.26a51.91,51.91,0,0,1,9.54.3,8,8,0,0,1,1.77.6.42.42,0,0,1,0,.75,20.86,20.86,0,0,1-2.08.49c-.53.09-1.08.09-1.74.15-.08,1-.16,1.81-.22,2.67-.15,2-.29,4-.45,5.95a2.6,2.6,0,0,1-.17.93,1.35,1.35,0,0,1-.63.6c-.13.05-.49-.15-.56-.32a6.18,6.18,0,0,1-.71-2,33.48,33.48,0,0,1,.09-3.81c0-.39.18-.78.21-1.17.22-2.73.92-3-2.42-3a7.08,7.08,0,0,1-2.09-.4A1.29,1.29,0,0,1,308.08,18.89Z"/><path d="M320.07,47.69a4.11,4.11,0,0,1,1.37.3,2.92,2.92,0,0,1,1,1.21c.24.62-.28,1.05-.81,1.28a41.68,41.68,0,0,1-5.06,2.11,13.64,13.64,0,0,0-5.62,3,2.27,2.27,0,0,1-2.16.69.86.86,0,0,1-.48-1.46,16.41,16.41,0,0,1,6.49-4.74c1.26-.47,2.44-1.15,3.66-1.72C319.08,48.11,319.65,47.88,320.07,47.69Z"/><path d="M368.61,52.31c.18.32.52.63.52,1a5.61,5.61,0,0,1-.25,2.33c-.92,2-2,4-3,5.94a1.81,1.81,0,0,1-.29.37c-.25.28-1,.15-1-.22a5.76,5.76,0,0,1,.07-2.54c1-2.23,2.27-4.35,3.45-6.51C368.16,52.5,368.36,52.46,368.61,52.31Z"/><path d="M391.1,49.85c-.35.18-.63.45-.84.4a2.12,2.12,0,0,1-1-.57q-1.89-2-3.71-4a2.37,2.37,0,0,1-.49-1,1.11,1.11,0,0,1,.14-.88c.38-.38.71,0,1,.26a28.6,28.6,0,0,1,4.36,4.69A8.8,8.8,0,0,1,391.1,49.85Z"/><path d="M383.31,20.95c.21.26.46.43.48.61a3.33,3.33,0,0,1-.08,1.4,17,17,0,0,1-3.43,5.17,1.9,1.9,0,0,1-.41-2.35A22.64,22.64,0,0,1,383.31,20.95Z"/><path d="M390.23,32.7l1.73.67c0,.9-.77,1.15-1.41,1.36a36.75,36.75,0,0,1-3.65,1c-.56.12-1-.32-1.17-.94a.87.87,0,0,1,.59-1.13C387.6,33.28,388.91,33,390.23,32.7Z"/><path d="M364.35,68c-1.44-.78-1.33-1.6-1.1-2.44a.43.43,0,0,1,.34-.24c.2,0,.52.18.54.31C364.24,66.26,364.27,66.94,364.35,68Z"/><path class="cls-2" d="M297.34,57.76c-1.25,2.23-3.22,3.54-4.09,5.68,1.52,1.39,3.2.7,5.09.48-.23.45-.29.74-.47.89-1.32,1.15-2.65,2.3-4,3.41a2.77,2.77,0,0,0-1.07,2.29c0,1.91-.07,3.83,0,5.74a12.43,12.43,0,0,1-.61,4.24c-.55,1.75-.89,3.56-1.31,5.35-.95,4-2.23,7.85-4.81,11.13a8.68,8.68,0,0,1-1.87,1.82c-2.91,2-5.81,4-8.81,5.81a72.08,72.08,0,0,1-12.44,6.17,34.57,34.57,0,0,1-10.8,2c-1.91.07-3.82.42-5.73.37a72.69,72.69,0,0,1-11-.71c.08-.32.08-.52.16-.57,2.13-1.25,4.21-2.59,6.41-3.7a5.8,5.8,0,0,0,3-3.85,1.12,1.12,0,0,0-.45-1,14.09,14.09,0,0,0-2.6-1.21,21.77,21.77,0,0,1-8.62-5.46,2.84,2.84,0,0,1-.3-.59c.77-.24,1.52-.45,2.24-.71a3.39,3.39,0,0,0,2.23-2,3.25,3.25,0,0,0-.64-3.56,12,12,0,0,0-1.24-1.13,29.34,29.34,0,0,1-6-7.73,1.87,1.87,0,0,1-.33-.88c0-.25.21-.67.4-.72.53-.14,1.11-.09,1.65-.2a8.36,8.36,0,0,0,2-.59c.91-.46.85-1.47,0-2.06-.38-.25-.92-.48-1.06-.84a10.42,10.42,0,0,0-2.09-2.84A14.92,14.92,0,0,1,227.71,69a16.1,16.1,0,0,1-.85-4.64,17.63,17.63,0,0,1,.3-3.58,2.56,2.56,0,0,1,1-1.91c3.43,5.32,8.45,8.56,14.07,11.15a65.27,65.27,0,0,0,10.47,3.32,14.36,14.36,0,0,0,8.27.14c.72-.23,1.74.43,2.18-.48a6.56,6.56,0,0,0,.28-2.11c.12-1.11.16-2.24.37-3.33a25.8,25.8,0,0,1,.86-3c.49-1.52.93-3.06,1.52-4.54.73-1.84,1.8-3.39,4-3.68a4.64,4.64,0,0,0,1.11-.45,7.71,7.71,0,0,1,4-.75,10.3,10.3,0,0,0,1.68,0,15.3,15.3,0,0,1,10.6,3.71c.25.2.47.43.71.65a2.29,2.29,0,0,0,3,.46,27.35,27.35,0,0,1,2.6-1.21A8.73,8.73,0,0,1,297.34,57.76Z"/><path d="M508.35,61.7a8.67,8.67,0,0,0,3.44-.71,7.1,7.1,0,0,1,1.85-.36c.66,0,1,.45,1.18,1a1,1,0,0,1-.31,1.3c-2.46,1.89-4.58,4.21-7.31,5.74a1.51,1.51,0,0,0-.89,1.73,10.76,10.76,0,0,1-.15,4.52,3.13,3.13,0,0,0,0,1.19,82.42,82.42,0,0,1,0,8.6,19.6,19.6,0,0,1-3.39,10.58,11.29,11.29,0,0,0-1.34,2.52,10,10,0,0,1-2.9,4.29,107.11,107.11,0,0,1-9.85,8c-.38.28-.68.68-1.06,1-.83.62-1.66,1.24-2.53,1.79s-1.92,1.15-2.91,1.65a22.27,22.27,0,0,1-2.61,1.16c-6.13,2.21-12.49,2.47-18.92,2.24-2.4-.09-4.79-.13-7.19-.14a18.66,18.66,0,0,1-6.13-.9c-1.88-.66-3.92-.88-5.72-1.69-2.83-1.26-5.88-2.08-8.41-4-.44-.32-.85-.69-1.44-1.18.5-.25.83-.56,1.15-.55,2.14.05,4.21-.57,6.4-.27,2.69.36,6.41-1.11,8.67-3.06-.6-.32-1.13-.63-1.69-.89a15.22,15.22,0,0,1-8-8.78,4.45,4.45,0,0,1-.28-1.16,2,2,0,0,1,1.9-2.24c.63,0,1.27,0,2.17,0-.33-.45-.54-.74-.75-1-1.13-1.44-2.37-2.8-3.36-4.33-1.21-1.87-2.22-3.87-3.3-5.83a2.29,2.29,0,0,1-.33-.89c-.18-2.61-1.31-4.92-2.25-7.28-.09-.22-.24-.47-.2-.67a1.44,1.44,0,0,1,.43-.76c.11-.09.46,0,.63.1a3.76,3.76,0,0,1,.69.65c1.42,1.53,1.5,1.57,4.34,1.58a12.26,12.26,0,0,0-.83-1.43,9.92,9.92,0,0,1-1.93-4.59c-.16-.94-.38-1.88-.59-2.81a9.61,9.61,0,0,1,.61-6.76c.69-1.34,1.28-2.74,2-4.08a1.53,1.53,0,0,1,.9-.65,4.44,4.44,0,0,1,1.42,0c.54,0,1,.36.89.91a3.79,3.79,0,0,0,1,2.85c1.64,2.25,3.29,4.5,5.94,5.77,1.79.86,3.42,2.05,5.17,3a32.44,32.44,0,0,0,9.37,3.51c1.72.33,3.43.76,5.16,1.05a18.22,18.22,0,0,0,2.86.2c.91,0,1.24-.27,1.2-1.1-.26-4.95,2-9,4.84-12.68a9.58,9.58,0,0,1,2.79-2.2A22,22,0,0,1,482.21,54a8.13,8.13,0,0,1,3.51-.61,23.08,23.08,0,0,0,2.87-.08,18.5,18.5,0,0,1,11.23,3.49c.4.27.79.55,1.16.85a1.3,1.3,0,0,0,1.55.07q3.9-1.83,7.83-3.59c1.11-.5,1.89-.38,2.41.26.65.8.64,1.55-.19,2.57s-1.6,1.77-2.41,2.65C509.65,60.22,509.14,60.81,508.35,61.7Zm0-3.94a8.73,8.73,0,0,0-3.46,1,27.35,27.35,0,0,0-2.6,1.21,2.29,2.29,0,0,1-3-.46c-.24-.22-.46-.45-.71-.65a15.3,15.3,0,0,0-10.6-3.71,10.3,10.3,0,0,1-1.68,0,7.71,7.71,0,0,0-4,.75,4.64,4.64,0,0,1-1.11.45c-2.22.28-3.28,1.83-4,3.68-.59,1.48-1,3-1.52,4.54a25.8,25.8,0,0,0-.86,3c-.21,1.09-.25,2.22-.37,3.33a6.56,6.56,0,0,1-.28,2.11c-.45.91-1.46.25-2.18.48a14.36,14.36,0,0,1-8.27-.14,65.27,65.27,0,0,1-10.47-3.32c-5.62-2.59-10.64-5.83-14.07-11.15a2.56,2.56,0,0,0-1,1.91,17.63,17.63,0,0,0-.3,3.58,16.1,16.1,0,0,0,.85,4.64,14.92,14.92,0,0,0,2.48,3.77,10.42,10.42,0,0,1,2.09,2.84c.14.36.68.59,1.06.84.88.59.94,1.6,0,2.06a8.36,8.36,0,0,1-2,.59c-.54.11-1.12.06-1.65.2-.19.05-.4.47-.4.72a1.87,1.87,0,0,0,.33.88,29.34,29.34,0,0,0,6,7.73,12,12,0,0,1,1.24,1.13,3.25,3.25,0,0,1,.64,3.56,3.39,3.39,0,0,1-2.23,2c-.73.26-1.48.47-2.24.71a2.84,2.84,0,0,0,.3.59,21.77,21.77,0,0,0,8.62,5.46,14.09,14.09,0,0,1,2.6,1.21,1.12,1.12,0,0,1,.45,1,5.8,5.8,0,0,1-3,3.85c-2.2,1.11-4.28,2.45-6.41,3.7-.08,0-.08.25-.16.57a72.69,72.69,0,0,0,11,.71c1.91,0,3.82-.29,5.73-.37a34.57,34.57,0,0,0,10.8-2,72.08,72.08,0,0,0,12.44-6.17c3-1.84,5.9-3.83,8.81-5.81A8.68,8.68,0,0,0,497.05,97c2.58-3.28,3.86-7.14,4.81-11.13.42-1.79.76-3.6,1.31-5.35a12.43,12.43,0,0,0,.61-4.24c-.06-1.91,0-3.83,0-5.74a2.77,2.77,0,0,1,1.07-2.29c1.36-1.11,2.69-2.25,4-3.41.18-.16.24-.44.47-.89-1.89.22-3.57.92-5.09-.48C505.12,61.3,507.09,60,508.34,57.76Z"/><path d="M541.58,28.68l-2.36,3a13.22,13.22,0,0,1-.9,1.11,1.08,1.08,0,0,1-1.68.11,5.23,5.23,0,0,1-1.07-1.52,4.41,4.41,0,0,1-.33-1.63c-.1-2.48-.16-5-.2-7.43a7,7,0,0,1,.19-1.2c.93.07,1,.76,1.14,1.34.22,1.42.35,2.85.53,4.28.07.61.15,1.22.27,2.14a19.48,19.48,0,0,0,1.59-1.33c.71-.75,1.37-1.56,2-2.35.42-.49.87-1,1.6-.77.58.22.68.8.78,1.39.22,1.34.51,2.66.78,4,.08.38.21.76.39,1.41.43-.45.82-.7,1-1,1.17-2.68,3.24-4.74,4.8-7.15.3-.47.84-.4,1.19,0a1.72,1.72,0,0,1,.27,2,29.86,29.86,0,0,1-1.64,2.64,21.11,21.11,0,0,0-2.74,4.76,12.42,12.42,0,0,1-1.14,2.1c-.85,1.39-1.56,1.39-2.35-.11a25,25,0,0,1-1.23-3.11C542.18,30.63,542,29.87,541.58,28.68Z"/><path d="M555.77,52.09c-.66.42-1.32.83-2,1.27-.86.58-1.7,1.2-2.58,1.75a1.19,1.19,0,0,1-1.94-.59c-.18-.44-.22-.93-.37-1.38a7.74,7.74,0,0,0-.54-1,21.51,21.51,0,0,0-1,3.91c-.33,1.23-.71,2.45-1.14,3.65a.88.88,0,0,1-.74.42,1,1,0,0,1-.63-.61,4,4,0,0,1-.1-1.64c.75-3.51,1.55-7,2.34-10.51.12-.53.12-1.21.79-1.35s1.17.46,1.45,1a20.46,20.46,0,0,1,1,2.44,11.54,11.54,0,0,1,.18,1.18c.2.88.61,1.09,1.34.65.89-.53,1.74-1.13,2.6-1.71.4-.27.76-.59,1.15-.86a1.65,1.65,0,0,1,2.69.76,3,3,0,0,1,.23,1.16,14,14,0,0,1-.19,2.62c-.49,2.34-1.06,4.67-1.63,7a7.85,7.85,0,0,1-.68,1.76.91.91,0,0,1-.73.42c-.24,0-.48-.35-.64-.6a2.08,2.08,0,0,1,0-1.83q.71-2.66,1.29-5.35c.17-.76.21-1.55.32-2.32Z"/><path d="M566,29.59c1.28.11,2.37.22,3.46.31,1.27.1,2.55.16,3.82.28a.68.68,0,0,1,.5.4c0,.28,0,.79-.13.86a7.36,7.36,0,0,1-2.19.82,17.38,17.38,0,0,1-2.62-.05c-.74,0-1,.23-1.07,1-.17,1.52.07,1.83,1.59,2,1,.09,1.91.11,2.87.2a14.86,14.86,0,0,1,1.65.24,13.26,13.26,0,0,1,1.27.4,4.62,4.62,0,0,1-2.52,1.56c-1.09.23-2.2.37-3.3.53a5.25,5.25,0,0,0-1.4.21,1.29,1.29,0,0,0-.55.9.87.87,0,0,0,.5.7c.78.15,1.58.14,2.37.25,1,.15,2,.31,3,.55a.92.92,0,0,1,.52.68.94.94,0,0,1-.4.78,13.7,13.7,0,0,1-6.27,1.19,1.89,1.89,0,0,1-1.7-1.75,13.62,13.62,0,0,1-.23-3.08c.1-1.67.39-3.32.55-5C565.84,32.34,565.87,31.16,566,29.59Z"/><path d="M560.75,28.44c-.56,0-1.1.07-1.65.07-1.12,0-2.23,0-3.35,0-1.41,0-1.6.28-1.54,1.75,0,.94.16,1.11,1.09,1.21,1.42.15,2.85.25,4.28.38.62.06,1.23.14,2,.23a3,3,0,0,1-2,1.73,8.74,8.74,0,0,1-5.92.51c0,.5-.15,1,0,1.37a1.71,1.71,0,0,0,1.09.78c1.57.24,3.15.4,4.73.52.41,0,.87-.06,1,.39a1.32,1.32,0,0,1-.15,1.09,2.91,2.91,0,0,1-1.52,1,17.79,17.79,0,0,1-3.8-.07A3.48,3.48,0,0,1,551.91,36a22.37,22.37,0,0,1,0-4c.09-1.27.31-2.53.49-3.79.12-.87.48-1.34,1.32-1.45a50,50,0,0,1,5-.46C560.09,26.26,560.49,26.77,560.75,28.44Z"/><path d="M571.13,56.79a9.09,9.09,0,0,1-5.93,3,9.16,9.16,0,0,0-1.42.16.59.59,0,0,0-.32.49.78.78,0,0,0,.45.46,1.57,1.57,0,0,0,.7,0q1.43-.15,2.85-.33a4,4,0,0,1,1.17-.17c.51.1,1.22.27,1.42.64.34.62-.36.89-.82,1.21-1.71,1.16-3.74,1.27-5.67,1.71-.94.21-1.53-.47-1.87-1.2a5,5,0,0,1-.42-3.48c.35-1.31.63-2.63.94-4a7.9,7.9,0,0,0,.24-1.17c.15-1.93.14-1.95,2-2S568,52,569.72,52a6.56,6.56,0,0,1,1.3.29,2.49,2.49,0,0,1-2.13,1.07c-.87.08-1.75.08-2.62.19-1.88.25-1.92.31-2.18,2.17a5.09,5.09,0,0,0,0,.71c0,.07.06.14.13.31C566.33,57.29,568.54,56.5,571.13,56.79Z"/><path d="M587.38,37.23l-.76-.08c-1.31-.06-1.55,0-1.83,1.28-.44,2-.94,4-1.42,6-.17.7-.32,1.39-.54,2.07-.06.19-.4.47-.48.43-.25-.12-.62-.36-.63-.57a18.92,18.92,0,0,1,.08-3.31c.19-1.33.58-2.64.89-4,.09-.39.23-.76.31-1.15.24-1.15.08-1.45-1-1.72s-2.18-.46-3.26-.71a1.74,1.74,0,0,1-1.42-1.13c-.18-.53,0-1,.59-1a28,28,0,0,1,3.08.25c2.67.39,5.33.85,8,1.25.53.08.91.26,1,.8a1.08,1.08,0,0,1-.83,1.27A13.39,13.39,0,0,1,587.38,37.23Z"/><path d="M519.08,18.89c.16-.11.28-.26.41-.26a51.91,51.91,0,0,1,9.54.3,8,8,0,0,1,1.77.6.42.42,0,0,1,0,.75,20.86,20.86,0,0,1-2.08.49c-.53.09-1.08.09-1.74.15-.08,1-.16,1.81-.22,2.67-.15,2-.29,4-.45,5.95a2.6,2.6,0,0,1-.17.93,1.35,1.35,0,0,1-.63.6c-.13.05-.49-.15-.56-.32a6.18,6.18,0,0,1-.71-2,33.48,33.48,0,0,1,.09-3.81c0-.39.18-.78.21-1.17.22-2.73.92-3-2.42-3a7.08,7.08,0,0,1-2.09-.4A1.29,1.29,0,0,1,519.08,18.89Z"/><path d="M531.07,47.69a4.11,4.11,0,0,1,1.37.3,2.92,2.92,0,0,1,1,1.21c.24.62-.28,1.05-.81,1.28a41.68,41.68,0,0,1-5.06,2.11,13.64,13.64,0,0,0-5.62,3,2.27,2.27,0,0,1-2.16.69.86.86,0,0,1-.48-1.46,16.41,16.41,0,0,1,6.49-4.74c1.26-.47,2.44-1.15,3.66-1.72C530.08,48.11,530.65,47.88,531.07,47.69Z"/><path d="M579.61,52.31c.18.32.52.63.52,1a5.61,5.61,0,0,1-.25,2.33c-.92,2-2,4-3,5.94a1.81,1.81,0,0,1-.29.37c-.25.28-1,.15-1-.22a5.76,5.76,0,0,1,.07-2.54c1-2.23,2.27-4.35,3.45-6.51C579.16,52.5,579.36,52.46,579.61,52.31Z"/><path d="M602.1,49.85c-.35.18-.63.45-.84.4a2.12,2.12,0,0,1-1-.57q-1.89-2-3.71-4a2.37,2.37,0,0,1-.49-1,1.11,1.11,0,0,1,.14-.88c.38-.38.71,0,1,.26a28.6,28.6,0,0,1,4.36,4.69A8.8,8.8,0,0,1,602.1,49.85Z"/><path d="M594.31,20.95c.21.26.46.43.48.61a3.33,3.33,0,0,1-.08,1.4,17,17,0,0,1-3.43,5.17,1.9,1.9,0,0,1-.41-2.35A22.64,22.64,0,0,1,594.31,20.95Z"/><path d="M601.23,32.7l1.73.67c0,.9-.77,1.15-1.41,1.36a36.75,36.75,0,0,1-3.65,1c-.56.12-1-.32-1.17-.94a.87.87,0,0,1,.59-1.13C598.6,33.28,599.91,33,601.23,32.7Z"/><path d="M575.35,68c-1.44-.78-1.33-1.6-1.1-2.44a.43.43,0,0,1,.34-.24c.2,0,.52.18.54.31C575.24,66.26,575.27,66.94,575.35,68Z"/><path class="cls-2" d="M508.34,57.76c-1.25,2.23-3.22,3.54-4.09,5.68,1.52,1.39,3.2.7,5.09.48-.23.45-.29.74-.47.89-1.32,1.15-2.65,2.3-4,3.41a2.77,2.77,0,0,0-1.07,2.29c0,1.91-.07,3.83,0,5.74a12.43,12.43,0,0,1-.61,4.24c-.55,1.75-.89,3.56-1.31,5.35-.95,4-2.23,7.85-4.81,11.13a8.68,8.68,0,0,1-1.87,1.82c-2.91,2-5.81,4-8.81,5.81a72.08,72.08,0,0,1-12.44,6.17,34.57,34.57,0,0,1-10.8,2c-1.91.07-3.82.42-5.73.37a72.69,72.69,0,0,1-11-.71c.08-.32.08-.52.16-.57,2.13-1.25,4.21-2.59,6.41-3.7a5.8,5.8,0,0,0,3-3.85,1.12,1.12,0,0,0-.45-1,14.09,14.09,0,0,0-2.6-1.21,21.77,21.77,0,0,1-8.62-5.46,2.84,2.84,0,0,1-.3-.59c.77-.24,1.52-.45,2.24-.71a3.39,3.39,0,0,0,2.23-2,3.25,3.25,0,0,0-.64-3.56,12,12,0,0,0-1.24-1.13,29.34,29.34,0,0,1-6-7.73,1.87,1.87,0,0,1-.33-.88c0-.25.21-.67.4-.72.53-.14,1.11-.09,1.65-.2a8.36,8.36,0,0,0,2-.59c.91-.46.85-1.47,0-2.06-.38-.25-.92-.48-1.06-.84a10.42,10.42,0,0,0-2.09-2.84A14.92,14.92,0,0,1,438.71,69a16.1,16.1,0,0,1-.85-4.64,17.63,17.63,0,0,1,.3-3.58,2.56,2.56,0,0,1,1-1.91c3.43,5.32,8.45,8.56,14.07,11.15a65.27,65.27,0,0,0,10.47,3.32,14.36,14.36,0,0,0,8.27.14c.72-.23,1.74.43,2.18-.48a6.56,6.56,0,0,0,.28-2.11c.12-1.11.16-2.24.37-3.33a25.8,25.8,0,0,1,.86-3c.49-1.52.93-3.06,1.52-4.54.73-1.84,1.8-3.39,4-3.68a4.64,4.64,0,0,0,1.11-.45,7.71,7.71,0,0,1,4-.75,10.3,10.3,0,0,0,1.68,0,15.3,15.3,0,0,1,10.6,3.71c.25.2.47.43.71.65a2.29,2.29,0,0,0,3,.46,27.35,27.35,0,0,1,2.6-1.21A8.73,8.73,0,0,1,508.34,57.76Z"/><path d="M97.35,61.7a8.67,8.67,0,0,0,3.44-.71,7.1,7.1,0,0,1,1.85-.36c.66,0,1,.45,1.18,1a1,1,0,0,1-.31,1.3c-2.46,1.89-4.58,4.21-7.31,5.74a1.51,1.51,0,0,0-.89,1.73,10.76,10.76,0,0,1-.15,4.52,3.13,3.13,0,0,0,0,1.19,82.42,82.42,0,0,1,0,8.6,19.6,19.6,0,0,1-3.39,10.58,11.29,11.29,0,0,0-1.34,2.52,10,10,0,0,1-2.9,4.29,107.11,107.11,0,0,1-9.85,8c-.38.28-.68.68-1.06,1-.83.62-1.66,1.24-2.53,1.79s-1.92,1.15-2.91,1.65a22.27,22.27,0,0,1-2.61,1.16c-6.13,2.21-12.49,2.47-18.92,2.24-2.4-.09-4.79-.13-7.19-.14a18.66,18.66,0,0,1-6.13-.9c-1.88-.66-3.92-.88-5.72-1.69-2.83-1.26-5.88-2.08-8.41-4-.44-.32-.85-.69-1.44-1.18.5-.25.83-.56,1.15-.55,2.14.05,4.21-.57,6.4-.27,2.69.36,6.41-1.11,8.67-3.06-.6-.32-1.13-.63-1.69-.89a15.22,15.22,0,0,1-8-8.78,4.45,4.45,0,0,1-.28-1.16,2,2,0,0,1,1.9-2.24c.63,0,1.27,0,2.17,0-.33-.45-.54-.74-.75-1-1.13-1.44-2.37-2.8-3.36-4.33-1.21-1.87-2.22-3.87-3.3-5.83a2.29,2.29,0,0,1-.33-.89C23,78.39,21.9,76.08,21,73.71c-.09-.22-.24-.47-.2-.67a1.44,1.44,0,0,1,.43-.76c.11-.09.46,0,.63.1a3.76,3.76,0,0,1,.69.65c1.42,1.53,1.5,1.57,4.34,1.58A12.26,12.26,0,0,0,26,73.17a9.92,9.92,0,0,1-1.93-4.59c-.16-.94-.38-1.88-.59-2.81A9.61,9.61,0,0,1,24.12,59c.69-1.34,1.28-2.74,2-4.08a1.53,1.53,0,0,1,.9-.65,4.44,4.44,0,0,1,1.42,0c.54,0,1,.36.89.91a3.79,3.79,0,0,0,1,2.85c1.64,2.25,3.29,4.5,5.94,5.77,1.79.86,3.42,2.05,5.17,3a32.44,32.44,0,0,0,9.37,3.51c1.72.33,3.43.76,5.16,1.05a18.22,18.22,0,0,0,2.86.2c.91,0,1.24-.27,1.2-1.1-.26-4.95,2-9,4.84-12.68a9.58,9.58,0,0,1,2.79-2.2A22,22,0,0,1,71.21,54a8.13,8.13,0,0,1,3.51-.61,23.08,23.08,0,0,0,2.87-.08,18.5,18.5,0,0,1,11.23,3.49c.4.27.79.55,1.16.85a1.3,1.3,0,0,0,1.55.07q3.9-1.83,7.83-3.59c1.11-.5,1.89-.38,2.41.26.65.8.64,1.55-.19,2.57s-1.6,1.77-2.41,2.65C98.65,60.22,98.14,60.81,97.35,61.7Zm0-3.94a8.73,8.73,0,0,0-3.46,1A27.35,27.35,0,0,0,91.28,60a2.29,2.29,0,0,1-3-.46c-.24-.22-.46-.45-.71-.65a15.3,15.3,0,0,0-10.6-3.71,10.3,10.3,0,0,1-1.68,0,7.71,7.71,0,0,0-4,.75,4.64,4.64,0,0,1-1.11.45c-2.22.28-3.28,1.83-4,3.68-.59,1.48-1,3-1.52,4.54a25.8,25.8,0,0,0-.86,3c-.21,1.09-.25,2.22-.37,3.33A6.56,6.56,0,0,1,63.15,73c-.45.91-1.46.25-2.18.48a14.36,14.36,0,0,1-8.27-.14,65.27,65.27,0,0,1-10.47-3.32c-5.62-2.59-10.64-5.83-14.07-11.15a2.56,2.56,0,0,0-1,1.91,17.63,17.63,0,0,0-.3,3.58A16.1,16.1,0,0,0,27.71,69a14.92,14.92,0,0,0,2.48,3.77,10.42,10.42,0,0,1,2.09,2.84c.14.36.68.59,1.06.84.88.59.94,1.6,0,2.06a8.36,8.36,0,0,1-2,.59c-.54.11-1.12.06-1.65.2-.19.05-.4.47-.4.72a1.87,1.87,0,0,0,.33.88,29.34,29.34,0,0,0,6,7.73A12,12,0,0,1,36.8,89.8a3.25,3.25,0,0,1,.64,3.56,3.39,3.39,0,0,1-2.23,2c-.73.26-1.48.47-2.24.71a2.84,2.84,0,0,0,.3.59,21.77,21.77,0,0,0,8.62,5.46,14.09,14.09,0,0,1,2.6,1.21,1.12,1.12,0,0,1,.45,1,5.8,5.8,0,0,1-3,3.85c-2.2,1.11-4.28,2.45-6.41,3.7-.08,0-.08.25-.16.57a72.69,72.69,0,0,0,11,.71c1.91,0,3.82-.29,5.73-.37a34.57,34.57,0,0,0,10.8-2,72.08,72.08,0,0,0,12.44-6.17c3-1.84,5.9-3.83,8.81-5.81A8.68,8.68,0,0,0,86.05,97c2.58-3.28,3.86-7.14,4.81-11.13.42-1.79.76-3.6,1.31-5.35a12.43,12.43,0,0,0,.61-4.24c-.06-1.91,0-3.83,0-5.74a2.77,2.77,0,0,1,1.07-2.29c1.36-1.11,2.69-2.25,4-3.41.18-.16.24-.44.47-.89-1.89.22-3.57.92-5.09-.48C94.12,61.3,96.09,60,97.34,57.76Z"/><path class="cls-2" d="M97.34,57.76c-1.25,2.23-3.22,3.54-4.09,5.68,1.52,1.39,3.2.7,5.09.48-.23.45-.29.74-.47.89-1.32,1.15-2.65,2.3-4,3.41a2.77,2.77,0,0,0-1.07,2.29c0,1.91-.07,3.83,0,5.74a12.43,12.43,0,0,1-.61,4.24c-.55,1.75-.89,3.56-1.31,5.35-.95,4-2.23,7.85-4.81,11.13a8.68,8.68,0,0,1-1.87,1.82c-2.91,2-5.81,4-8.81,5.81a72.08,72.08,0,0,1-12.44,6.17,34.57,34.57,0,0,1-10.8,2c-1.91.07-3.82.42-5.73.37a72.69,72.69,0,0,1-11-.71c.08-.32.08-.52.16-.57,2.13-1.25,4.21-2.59,6.41-3.7a5.8,5.8,0,0,0,3-3.85,1.12,1.12,0,0,0-.45-1,14.09,14.09,0,0,0-2.6-1.21,21.77,21.77,0,0,1-8.62-5.46,2.84,2.84,0,0,1-.3-.59c.77-.24,1.52-.45,2.24-.71a3.39,3.39,0,0,0,2.23-2,3.25,3.25,0,0,0-.64-3.56,12,12,0,0,0-1.24-1.13,29.34,29.34,0,0,1-6-7.73,1.87,1.87,0,0,1-.33-.88c0-.25.21-.67.4-.72.53-.14,1.11-.09,1.65-.2a8.36,8.36,0,0,0,2-.59c.91-.46.85-1.47,0-2.06-.38-.25-.92-.48-1.06-.84a10.42,10.42,0,0,0-2.09-2.84A14.92,14.92,0,0,1,27.71,69a16.1,16.1,0,0,1-.85-4.64,17.63,17.63,0,0,1,.3-3.58,2.56,2.56,0,0,1,1-1.91c3.43,5.32,8.45,8.56,14.07,11.15A65.27,65.27,0,0,0,52.7,73.38a14.36,14.36,0,0,0,8.27.14c.72-.23,1.74.43,2.18-.48a6.56,6.56,0,0,0,.28-2.11c.12-1.11.16-2.24.37-3.33a25.8,25.8,0,0,1,.86-3c.49-1.52.93-3.06,1.52-4.54.73-1.84,1.8-3.39,4-3.68A4.64,4.64,0,0,0,71.31,56a7.71,7.71,0,0,1,4-.75,10.3,10.3,0,0,0,1.68,0,15.3,15.3,0,0,1,10.6,3.71c.25.2.47.43.71.65a2.29,2.29,0,0,0,3,.46,27.35,27.35,0,0,1,2.6-1.21A8.73,8.73,0,0,1,97.34,57.76Z"/></svg>